<?xml version="1.0" standalone="no"?>
<!DOCTYPE svg PUBLIC "-//W3C//DTD SVG 20010904//EN"
 "http://www.w3.org/TR/2001/REC-SVG-20010904/DTD/svg10.dtd">
<svg version="1.0" xmlns="http://www.w3.org/2000/svg"
 width="937.000000pt" height="192.000000pt" viewBox="0 0 937.000000 192.000000"
 preserveAspectRatio="xMidYMid meet">
<metadata>
Created by potrace 1.16, written by Peter Selinger 2001-2019
</metadata>
<g transform="translate(0.000000,192.000000) scale(0.100000,-0.100000)"
fill="#000000" stroke="none">
<path d="M8370 1473 c0 -10 22 -34 50 -53 27 -19 49 -38 50 -42 0 -12 -41 -30
-99 -43 -31 -7 -63 -15 -72 -19 -12 -5 -18 -1 -23 16 -6 21 -7 21 -17 5 -14
-23 -7 -109 9 -115 6 -2 12 3 12 11 0 24 48 48 105 51 29 2 57 6 63 9 5 4 21
-9 37 -28 15 -19 33 -35 40 -35 6 0 24 -11 39 -25 15 -14 31 -25 36 -25 11 0
50 67 50 86 0 8 -4 14 -9 14 -5 0 -53 42 -106 93 -121 115 -165 142 -165 100z"/>
<path d="M9055 1208 c-82 -4 -161 -11 -175 -15 -14 -3 -30 -5 -36 -5 -22 4
-86 -30 -91 -47 -3 -13 -11 -17 -25 -13 -14 3 -19 1 -14 -6 8 -14 -30 -36 -46
-26 -7 4 -8 3 -4 -4 4 -7 1 -12 -9 -12 -14 0 -15 -2 -2 -14 11 -11 24 -12 52
-6 23 5 59 5 88 -1 27 -5 52 -7 56 -5 4 3 27 0 52 -6 61 -14 214 -47 272 -58
47 -9 89 -21 160 -46 l37 -14 0 30 c0 23 -5 30 -19 30 -10 0 -24 7 -31 15 -9
11 -17 12 -23 6 -7 -7 -17 -7 -30 1 -14 7 -22 7 -26 0 -4 -7 -12 -8 -21 -2
-12 8 -12 10 4 10 12 0 16 5 12 15 -3 8 -1 15 3 15 5 0 12 -6 14 -12 3 -7 6
-2 6 12 1 18 4 21 10 11 6 -9 11 -10 15 -2 11 16 37 13 53 -6 8 -10 12 -12 8
-5 -3 6 -2 12 4 12 5 0 12 -6 14 -12 4 -10 6 -10 6 -1 1 18 -34 34 -87 38 -26
2 -60 9 -75 14 -18 7 -26 7 -22 1 9 -14 -1 -13 -35 5 -16 8 -36 12 -44 9 -9
-3 -16 -1 -16 5 0 11 18 15 52 12 9 -1 19 3 23 9 3 5 1 10 -4 10 -6 0 -11 7
-11 15 0 19 10 19 37 0 20 -14 23 -14 32 2 10 17 12 17 26 -1 10 -14 18 -16
27 -9 25 21 53 19 76 -5 22 -23 22 -23 22 -2 0 12 -4 18 -10 15 -5 -3 -10 0
-10 9 0 8 6 16 13 19 6 2 9 8 5 12 -11 11 -142 13 -313 3z"/>
<path d="M6920 1173 c0 -7 -7 -13 -15 -13 -8 0 -15 -5 -15 -11 0 -5 -4 -7 -10
-4 -5 3 -10 1 -10 -4 0 -6 -8 -11 -18 -11 -18 0 -60 -36 -51 -44 9 -8 129 -12
131 -4 3 9 86 21 135 19 17 -1 38 5 46 14 21 20 44 21 27 0 -10 -12 -10 -16 1
-19 8 -2 22 -7 32 -10 9 -3 17 -2 17 3 0 4 16 7 35 5 25 -2 35 2 35 12 0 8 -5
14 -12 14 -6 0 -9 2 -6 5 3 3 22 -2 42 -10 21 -9 46 -15 55 -13 10 2 33 -4 52
-13 19 -9 53 -21 77 -27 39 -9 47 -7 69 12 l26 22 -52 22 c-28 13 -75 27 -103
33 -29 6 -71 15 -93 21 -22 5 -120 11 -217 12 -144 2 -178 0 -178 -11z"/>
<path d="M7630 1086 c0 -27 -61 -219 -91 -283 -10 -24 -19 -48 -19 -54 0 -6
-8 -23 -18 -37 -34 -50 -79 -137 -100 -195 -27 -72 -28 -131 -2 -239 30 -128
32 -148 17 -148 -7 0 -41 18 -75 40 -61 40 -62 40 -88 23 -37 -24 -111 -22
-161 4 l-40 21 -42 -25 c-23 -14 -49 -22 -57 -19 -10 4 -13 2 -8 -6 5 -8 2 -9
-10 -5 -9 4 -15 3 -12 -2 3 -5 -27 -15 -67 -22 -65 -13 -72 -16 -75 -39 -3
-25 -2 -25 65 -24 102 1 192 14 246 35 26 11 62 19 80 19 39 0 107 -25 168
-62 71 -43 135 -51 249 -33 138 23 223 42 255 59 25 13 26 16 11 22 -14 5 -16
14 -11 46 l7 40 -21 -21 c-12 -12 -27 -21 -35 -21 -8 0 -30 -9 -48 -19 -46
-27 -111 -32 -116 -9 -2 12 3 18 16 18 10 0 27 9 36 19 17 19 17 21 -7 53 -22
29 -24 39 -18 86 7 46 5 52 -11 52 -10 0 -18 -6 -18 -14 0 -8 -4 -16 -9 -18
-4 -1 -12 -13 -15 -25 -6 -19 -4 -23 13 -23 16 0 19 -4 13 -21 -4 -11 -19 -26
-32 -33 -14 -7 -24 -20 -24 -29 1 -9 -4 -17 -12 -17 -8 0 -14 4 -14 8 0 5 -7
9 -15 9 -8 0 -15 -4 -15 -9 0 -9 75 -58 90 -58 6 0 8 -5 5 -10 -8 -13 -56 -13
-89 0 -34 12 -86 60 -86 77 0 8 5 11 10 8 17 -10 11 11 -9 37 -11 14 -20 33
-20 44 0 10 -3 31 -6 45 -5 20 -1 29 19 43 14 9 26 25 26 36 0 26 15 33 31 13
11 -13 11 -17 2 -20 -7 -3 -13 -12 -13 -21 0 -13 -2 -14 -9 -4 -6 11 -10 11
-18 0 -8 -9 -8 -21 1 -42 11 -27 13 -28 28 -12 10 9 15 22 12 30 -3 7 13 22
40 36 26 13 43 27 39 33 -5 8 -8 7 -11 -1 -2 -7 -8 -12 -14 -12 -6 0 -8 6 -5
14 3 8 -1 17 -8 20 -18 7 -30 -10 -13 -18 7 -3 4 -5 -7 -3 -11 1 -24 12 -30
25 -5 12 -13 22 -18 22 -4 0 -5 6 0 13 11 17 14 36 14 85 1 23 5 42 10 42 6 0
8 4 5 9 -10 15 71 80 109 87 20 3 56 4 79 2 41 -5 44 -4 42 18 -1 25 -26 34
-26 10 0 -11 -8 -12 -36 -6 -25 6 -46 4 -71 -7 -42 -17 -61 -6 -44 26 7 12 8
21 4 21 -4 0 -2 4 5 9 7 4 14 14 16 22 1 8 8 24 15 37 7 13 10 30 7 38 -3 8
-1 14 3 14 12 0 61 124 61 153 0 33 -11 67 -21 67 -5 0 -9 -11 -9 -24z"/>
<path d="M6789 971 c18 -23 31 -44 28 -48 -3 -3 -22 5 -41 17 -20 12 -36 18
-36 13 0 -4 -4 -1 -9 6 -15 24 -25 -33 -11 -59 10 -19 18 -22 53 -17 33 5 54
0 95 -20 29 -14 57 -34 63 -44 5 -11 7 -19 3 -19 -3 0 6 -14 20 -31 32 -38 32
-41 0 -56 -19 -9 -32 -9 -46 -2 -11 6 -22 8 -25 5 -4 -3 -12 -1 -20 5 -10 9
-13 8 -13 -1 0 -7 18 -29 39 -49 31 -28 38 -42 36 -64 -3 -22 0 -27 11 -23 17
7 18 -5 2 -23 -8 -8 -8 -11 -2 -8 14 8 25 -28 13 -40 -4 -4 0 -18 9 -30 l17
-23 2 26 c0 14 6 31 12 37 8 8 11 -7 11 -56 0 -37 -4 -67 -9 -67 -5 0 -11 -9
-14 -20 -6 -22 -35 -38 -46 -24 -3 5 -17 15 -31 23 -22 13 -24 12 -13 -1 7 -8
10 -18 6 -21 -3 -4 0 -13 6 -21 8 -9 8 -16 2 -20 -6 -4 -8 -13 -4 -22 4 -12 0
-14 -19 -9 -20 5 -26 2 -31 -14 -6 -24 3 -27 22 -8 11 10 12 7 7 -15 -8 -34
-7 -34 39 -7 38 23 104 114 104 146 3 114 -1 220 -9 255 -5 24 -10 60 -10 81
0 21 -11 59 -25 85 -14 26 -25 55 -25 65 0 27 -67 120 -87 123 -10 1 -38 5
-63 9 l-44 8 33 -42z"/>
<path d="M8315 831 c-19 -8 -19 -8 3 -20 12 -7 27 -9 32 -6 5 3 22 -1 37 -10
26 -15 16 -14 -24 2 -10 4 -14 3 -10 -5 4 -6 23 -16 42 -22 20 -6 113 -49 208
-95 94 -46 249 -113 342 -150 94 -37 174 -70 179 -73 5 -3 6 0 2 6 -3 6 -25
18 -49 27 -38 14 -60 37 -102 104 -5 9 -14 16 -20 16 -5 0 -25 4 -43 9 -27 6
-31 10 -21 22 13 16 9 17 -24 5 -19 -8 -29 -5 -45 10 -12 10 -25 19 -30 19 -5
0 -22 7 -39 15 -16 8 -48 17 -71 20 -22 3 -53 10 -67 15 -14 5 -31 9 -38 7 -6
-1 -13 8 -15 19 -3 21 -2 21 55 10 32 -6 80 -11 107 -9 28 1 56 -3 63 -9 8 -7
13 -7 13 0 0 5 -7 12 -15 16 -8 3 -15 11 -14 18 0 10 2 10 6 0 2 -6 9 -9 15
-6 5 3 15 -2 22 -12 9 -11 19 -15 31 -10 10 3 24 1 31 -5 10 -8 14 -8 14 0 0
6 -4 11 -10 11 -5 0 -10 4 -10 10 0 10 43 -5 69 -24 18 -14 41 -16 41 -4 0 6
7 8 15 4 8 -3 15 -1 15 5 0 6 9 8 20 4 42 -13 102 -13 107 1 3 8 10 11 15 8 6
-4 6 -9 -2 -14 -7 -5 -2 -7 14 -7 16 0 23 4 19 10 -4 6 8 0 26 -13 32 -22 33
-22 22 -2 -17 31 -39 40 -117 47 -93 8 -241 23 -344 34 -82 9 -168 15 -350 25
-47 3 -94 1 -105 -3z"/>
<path d="M8225 698 c5 -24 9 -74 9 -113 1 -38 6 -73 11 -77 6 -5 5 -11 -4 -17
-11 -7 -9 -13 8 -30 23 -23 28 -36 9 -25 -7 4 -9 3 -5 -1 11 -13 37 -15 37 -4
0 6 5 7 11 3 8 -4 4 -11 -10 -18 -21 -12 -21 -12 14 -46 l35 -34 -27 -21 c-62
-50 -24 -74 158 -101 129 -18 349 -16 387 4 36 20 26 32 -27 32 -27 0 -62 5
-78 11 -50 20 -137 37 -175 36 -21 -2 -38 1 -38 4 0 4 -12 10 -27 14 -39 9
-114 46 -137 68 -11 9 -28 17 -38 17 -10 0 -18 5 -18 10 0 6 5 10 11 10 6 0 3
7 -5 16 -9 8 -14 20 -11 25 4 5 2 9 -3 9 -6 0 -8 24 -5 60 4 45 2 65 -9 78 -8
9 -20 33 -27 52 -21 56 -34 80 -44 80 -6 0 -7 -16 -2 -42z"/>
<path d="M7727 551 c-2 -11 0 -24 5 -29 6 -6 6 -12 -1 -16 -6 -4 -11 -18 -11
-32 0 -14 4 -23 9 -20 18 12 18 -21 0 -35 -23 -16 -25 -29 -4 -29 9 0 12 -6 9
-15 -4 -8 -11 -12 -18 -8 -6 3 -6 1 2 -8 6 -7 12 -21 12 -31 0 -12 5 -15 17
-11 11 4 14 3 9 -5 -5 -8 -2 -10 8 -6 9 3 16 2 16 -4 0 -6 -6 -13 -12 -15 -12
-5 26 -11 45 -8 5 1 6 -3 2 -9 -3 -5 -1 -10 6 -10 7 0 5 -6 -6 -14 -17 -12
-17 -13 8 -18 26 -5 27 -4 21 36 -4 23 -10 46 -14 51 -4 6 -20 48 -35 95 -15
47 -31 89 -36 95 -5 5 -9 19 -9 31 0 29 -16 40 -23 15z"/>
</g>
</svg>
