<?xml version="1.0" standalone="no"?>
<!DOCTYPE svg PUBLIC "-//W3C//DTD SVG 20010904//EN"
 "http://www.w3.org/TR/2001/REC-SVG-20010904/DTD/svg10.dtd">
<svg version="1.0" xmlns="http://www.w3.org/2000/svg"
 width="220.000000pt" height="275.000000pt" viewBox="0 0 220.000000 275.000000"
 preserveAspectRatio="xMidYMid meet">
<metadata>
Created by potrace 1.16, written by Peter Selinger 2001-2019
</metadata>
<g transform="translate(0.000000,275.000000) scale(0.100000,-0.100000)"
fill="#000000" stroke="none">
<path d="M878 1510 c-20 -11 -44 -30 -52 -42 -17 -23 -23 -123 -8 -132 4 -2 6
13 4 35 -6 55 14 96 59 125 48 30 62 30 78 1 10 -18 10 -42 1 -108 -11 -83
-29 -119 -57 -119 -8 0 -11 -5 -8 -11 4 -6 -2 -20 -13 -32 -22 -25 -37 -87
-21 -87 6 0 7 -5 3 -11 -5 -8 -9 -8 -14 1 -10 17 -64 -76 -88 -150 -21 -66
-22 -228 -3 -310 7 -30 29 -88 48 -129 26 -54 32 -76 23 -81 -7 -4 -9 -13 -5
-20 5 -8 1 -18 -9 -25 -13 -10 -14 -18 -6 -39 8 -21 7 -28 -6 -33 -8 -3 -13
-11 -11 -18 3 -6 -6 -26 -20 -43 -31 -40 -75 -42 -148 -8 -50 24 -68 19 -44
-10 16 -20 92 -54 119 -54 32 0 75 26 103 61 17 22 33 32 52 32 19 0 38 11 63
39 33 36 40 40 74 35 21 -3 36 -1 32 4 -3 5 -15 9 -28 9 -31 0 -86 20 -86 31
0 4 7 6 15 3 10 -4 15 0 15 15 0 19 10 26 33 22 15 -2 6 19 -12 28 -20 11 -24
22 -51 136 -14 60 -14 205 1 259 21 78 59 144 103 180 38 32 49 36 97 35 30 0
63 -4 74 -8 11 -5 28 -4 38 1 29 15 54 -8 89 -80 31 -64 33 -73 33 -180 0 -61
4 -112 8 -112 5 0 1 -8 -9 -17 -24 -24 -94 -133 -94 -147 0 -6 29 19 65 54 64
64 91 75 38 16 l-28 -31 34 30 c53 47 150 150 145 154 -2 3 -16 -6 -31 -20
-15 -13 -6 -1 20 28 26 29 47 56 47 61 0 5 10 14 23 21 22 11 22 11 -3 5 -34
-8 -87 -42 -132 -82 l-37 -33 5 33 c18 109 -52 319 -116 347 -25 10 -37 11
-57 2 -22 -10 -25 -10 -19 5 4 10 -2 23 -15 35 -11 10 -18 22 -16 27 3 4 -5
16 -19 26 -13 11 -24 26 -24 35 0 13 -11 16 -52 16 -29 0 -61 4 -70 9 -15 7
-18 3 -18 -17 0 -33 -26 -43 -32 -12 -3 13 -1 29 3 37 4 8 13 53 19 100 11 82
11 87 -9 107 -26 26 -45 26 -93 1z m62 -397 c0 -5 -9 -39 -20 -78 -11 -38 -22
-106 -25 -150 -3 -44 -13 -142 -22 -217 l-17 -137 -24 57 c-37 88 -43 111 -51
202 -7 64 -5 96 6 133 15 52 63 139 96 175 19 21 57 31 57 15z"/>
</g>
</svg>
