<?xml version="1.0" standalone="no"?>
<!DOCTYPE svg PUBLIC "-//W3C//DTD SVG 20010904//EN"
 "http://www.w3.org/TR/2001/REC-SVG-20010904/DTD/svg10.dtd">
<svg version="1.0" xmlns="http://www.w3.org/2000/svg"
 width="1903.000000pt" height="748.000000pt" viewBox="0 0 1903.000000 748.000000"
 preserveAspectRatio="xMidYMid meet">
<metadata>
Created by potrace 1.16, written by Peter Selinger 2001-2019
</metadata>
<g transform="translate(0.000000,748.000000) scale(0.100000,-0.100000)"
fill="#000000" stroke="none">
<path d="M0 3740 l0 -3740 6645 0 c4423 0 6645 3 6645 10 0 6 7 10 16 10 8 0
12 -4 9 -10 -4 -7 950 -10 2854 -10 l2861 0 0 3740 0 3740 -1377 -1 c-758 -1
-1360 -4 -1338 -8 63 -11 129 -48 188 -106 65 -65 124 -144 133 -180 4 -16 12
-24 20 -21 21 8 164 -90 164 -113 0 -21 -71 -78 -109 -88 -19 -5 -30 0 -48 21
-13 15 -23 36 -23 47 0 25 -29 83 -37 75 -4 -3 -7 -37 -9 -76 -1 -59 2 -74 21
-101 20 -26 23 -43 24 -119 l1 -89 -58 5 c-85 8 -95 11 -137 44 -43 34 -136
83 -177 93 -41 11 -97 48 -143 95 -28 29 -49 42 -68 42 -33 0 -60 37 -55 77 4
35 30 37 38 3 5 -20 11 -24 31 -21 46 7 174 1 220 -11 32 -7 61 -8 90 -2 41 9
42 10 25 27 -24 23 -16 30 20 17 31 -12 77 -5 72 11 -5 15 -144 75 -193 83
-22 4 -51 10 -65 13 -24 5 -25 5 -5 -11 11 -9 44 -23 73 -32 56 -17 92 -54 51
-54 -26 0 -289 88 -304 101 -16 15 -25 10 -25 -15 0 -32 -35 -40 -80 -18 -70
34 -39 96 36 72 29 -10 38 -9 52 3 13 12 22 13 36 5 16 -9 18 -8 13 6 -4 10
-7 20 -7 22 0 2 -11 4 -25 4 -36 0 -32 25 10 61 58 51 49 66 -47 79 -57 8
-168 -6 -186 -24 -3 -3 2 -31 10 -61 14 -51 14 -55 -3 -71 -15 -14 -31 -15
-96 -9 -43 4 -81 12 -85 18 -16 27 28 112 86 166 14 14 26 28 26 33 0 4 -295
8 -655 8 l-655 -1 -6 -24 c-3 -13 -12 -26 -20 -29 -19 -7 -18 8 1 24 8 7 15
16 15 21 0 5 -54 8 -121 7 -103 -2 -122 -5 -130 -19 -7 -14 -3 -22 20 -38 16
-12 35 -21 43 -21 10 0 15 -11 15 -32 0 -18 2 -42 4 -53 3 -14 -2 -21 -18 -23
-12 -2 -24 -9 -26 -15 -2 -7 -2 0 0 16 5 32 0 34 -27 7 -24 -24 -26 -40 -6
-40 8 0 22 -10 30 -21 13 -19 12 -25 -5 -58 -10 -21 -28 -47 -39 -59 -37 -39
-9 -23 34 19 122 123 346 226 572 265 99 17 346 16 387 -1 38 -16 -8 -25 -127
-25 -123 0 -292 -20 -386 -47 -234 -64 -425 -200 -543 -384 -56 -87 -77 -149
-100 -287 -18 -107 -25 -130 -36 -122 -19 11 -16 155 5 227 8 29 12 58 8 64
-4 7 -3 9 3 6 5 -3 15 9 21 28 5 19 6 33 1 29 -5 -3 -9 -11 -9 -19 0 -8 -3
-16 -7 -18 -5 -3 -8 35 -8 83 0 56 -4 93 -12 101 -11 11 -85 -2 -216 -38 -9
-2 -26 -22 -37 -44 -11 -21 -27 -39 -35 -39 -8 0 -30 -13 -48 -30 -19 -17 -40
-30 -46 -30 -6 0 -18 -11 -27 -25 -9 -14 -22 -25 -28 -25 -29 0 -56 -46 -56
-93 0 -53 -14 -66 -50 -47 -12 6 -42 15 -68 20 -172 31 -554 170 -632 230 -19
15 -45 29 -57 32 -21 6 -22 3 -25 -71 -3 -68 -5 -76 -23 -76 -31 -1 -43 -12
-39 -41 4 -38 14 -42 14 -6 0 28 4 32 26 32 21 0 24 -4 19 -20 -4 -13 -2 -20
6 -20 10 0 10 -3 2 -11 -7 -7 -8 -21 -2 -42 14 -49 11 -57 -21 -64 -16 -3 -30
-8 -30 -12 0 -3 18 -17 40 -31 22 -13 40 -30 40 -37 0 -9 8 -12 23 -9 79 16
95 16 101 0 4 -10 2 -22 -4 -28 -18 -18 -11 -28 18 -24 15 3 65 17 112 30 150
45 145 45 171 -2 13 -22 28 -39 34 -37 25 10 125 38 180 50 59 14 60 15 63 50
2 28 8 37 21 37 30 0 43 -23 26 -46 -14 -20 -12 -20 168 -18 113 2 183 7 185
14 6 16 42 12 42 -5 0 -8 10 -17 23 -19 44 -10 179 -36 184 -36 2 0 1 5 -2 10
-4 6 -6 44 -6 84 0 89 30 208 73 293 36 72 134 188 143 172 4 -5 0 -18 -9 -28
-19 -21 -21 -48 -4 -53 7 -3 -1 -20 -21 -46 -19 -23 -45 -67 -58 -99 -14 -32
-36 -83 -48 -113 -23 -53 -50 -213 -40 -230 3 -5 36 -18 73 -31 92 -30 252
-111 331 -166 36 -26 80 -56 97 -68 17 -12 67 -61 110 -108 44 -48 84 -85 91
-82 7 2 13 0 13 -5 0 -6 -5 -10 -10 -10 -6 0 -5 -8 2 -20 7 -11 24 -20 38 -20
31 0 70 -26 70 -46 0 -8 -10 -14 -25 -14 -29 0 -29 2 -10 -44 17 -39 26 -44
45 -21 17 20 27 19 40 -5 13 -24 -3 -60 -25 -60 -20 0 -19 -25 1 -44 12 -13
41 -16 154 -16 131 0 138 1 143 21 6 23 44 23 39 0 -7 -34 226 31 350 96 72
37 85 36 90 -6 3 -20 -8 -28 -82 -61 -47 -21 -130 -51 -185 -66 -93 -26 -114
-28 -298 -28 l-199 -1 9 -45 c15 -84 9 -329 -10 -398 -62 -227 -191 -411 -394
-564 -133 -99 -220 -139 -413 -186 l-75 -19 105 -5 c73 -4 122 -12 162 -27 64
-25 108 -56 108 -77 0 -19 -23 -18 -73 5 -45 20 -127 37 -127 26 0 -3 20 -15
45 -26 72 -32 85 -77 34 -125 -28 -27 -36 -29 -107 -29 -58 1 -99 8 -164 30
l-87 29 -93 -47 c-136 -68 -193 -61 -154 19 9 19 16 37 16 39 0 10 -32 4 -61
-11 -29 -15 -30 -14 -20 4 23 43 133 105 259 147 29 9 52 18 50 20 -2 1 -41
-4 -88 -12 -104 -17 -243 -12 -433 17 -134 21 -226 52 -368 125 -42 22 -48 22
-74 9 -15 -8 -40 -14 -56 -14 -15 0 -31 -5 -34 -10 -8 -13 -42 -13 -51 1 -3 6
0 15 7 20 12 7 12 9 0 9 -25 0 -110 -44 -115 -60 -2 -10 -4 -9 -5 4 -1 19 -2
19 -22 1 -17 -16 -25 -17 -47 -8 -15 6 -55 23 -90 38 -69 29 -107 27 -97 -6 7
-20 -4 -25 -21 -10 -5 6 -18 2 -33 -10 -13 -10 -20 -19 -17 -19 8 0 -7 -19
-46 -62 -16 -16 -28 -34 -28 -39 0 -5 -6 -9 -14 -9 -7 0 -16 -8 -18 -17 -3
-10 -20 -27 -38 -37 l-33 -19 7 24 c4 13 9 43 11 66 2 24 6 46 8 50 3 5 -1 14
-9 20 -15 15 -17 12 -34 -42 -7 -22 -20 -50 -28 -63 -17 -26 -37 -30 -23 -5
15 30 60 183 53 183 -8 0 -32 -49 -32 -66 0 -7 -10 -34 -22 -61 -12 -26 -22
-53 -23 -58 0 -6 -13 -24 -28 -40 -15 -17 -25 -35 -23 -42 3 -6 -2 -14 -10
-17 -9 -3 -12 -10 -9 -16 5 -8 -18 -71 -32 -89 -2 -3 -15 6 -29 20 -24 22 -26
23 -38 7 -17 -24 -23 -23 -30 7 -6 25 -78 105 -95 105 -5 0 -11 -6 -14 -14 -3
-8 7 -19 27 -29 19 -9 48 -39 69 -70 35 -52 51 -91 24 -57 -12 16 -77 50 -95
50 -6 0 -12 5 -14 12 -7 20 -71 -24 -91 -62 -13 -26 -17 -51 -15 -96 3 -51 14
-81 66 -184 64 -127 68 -156 20 -133 -13 7 -39 14 -59 17 -43 7 -118 77 -126
118 -3 15 -14 35 -24 44 -11 9 -19 23 -19 29 0 7 -7 18 -15 25 -8 7 -14 25
-13 41 1 15 -6 37 -16 47 -21 24 -15 71 21 150 24 53 65 97 144 154 43 31 133
68 166 68 10 0 37 18 60 39 123 114 167 129 387 126 140 -2 159 -1 163 14 7
28 69 64 97 57 14 -3 37 -1 51 4 23 9 31 6 55 -14 26 -21 32 -22 64 -12 46 14
46 22 1 20 -19 -1 -38 2 -41 7 -3 5 2 9 10 9 36 0 13 18 -31 25 -33 5 -42 9
-32 16 10 6 5 9 -18 9 -22 0 -36 -6 -43 -20 -6 -11 -17 -20 -25 -20 -14 0 -17
5 -19 39 -1 16 -26 28 -26 13 0 -6 -17 -8 -39 -6 -29 2 -43 -2 -56 -16 -10
-11 -28 -20 -41 -20 -13 0 -30 -10 -38 -22 -13 -19 -19 -20 -40 -10 -14 6 -39
36 -57 67 -27 47 -39 59 -94 85 -35 16 -67 30 -73 30 -5 0 -26 11 -47 25 -24
17 -41 23 -49 17 -6 -5 -26 -10 -45 -10 -18 0 -39 -6 -44 -11 -6 -6 -18 -11
-26 -10 -11 0 -8 4 7 11 36 18 25 28 -28 27 -27 -1 -56 3 -64 10 -10 8 -16 9
-21 1 -4 -6 -18 -9 -32 -8 -15 2 -28 -3 -31 -11 -4 -11 4 -13 39 -8 41 5 42 4
24 -9 -11 -8 -19 -22 -17 -30 2 -8 -2 -14 -8 -14 -5 0 -10 6 -10 12 0 7 -7 2
-16 -11 -14 -19 -14 -25 -3 -31 10 -7 10 -11 0 -24 -8 -9 -19 -16 -25 -15 -7
0 -6 2 2 6 25 10 12 25 -17 18 -33 -7 -35 -6 -72 79 -15 32 -34 63 -43 68 -9
5 -16 17 -17 26 0 15 -1 15 -8 -1 -6 -18 -7 -18 -23 0 -20 22 -38 150 -19 139
6 -4 11 -1 11 8 0 19 -1 19 36 7 57 -18 84 -22 84 -11 0 6 -4 9 -10 5 -12 -7
-90 63 -90 81 0 8 -4 14 -10 14 -5 0 -10 6 -10 13 -1 15 -49 51 -58 42 -4 -4
0 -12 9 -18 9 -7 18 -31 20 -54 l4 -42 -21 20 c-20 19 -22 19 -26 2 -5 -21 -1
-180 6 -235 4 -30 0 -43 -20 -68 -21 -25 -24 -33 -14 -45 9 -11 9 -15 1 -15
-7 0 -17 -13 -22 -30 -6 -16 -15 -30 -20 -30 -5 0 -9 -11 -9 -24 0 -13 -7 -29
-15 -36 -8 -7 -15 -21 -15 -31 0 -10 -6 -22 -14 -26 -14 -8 -16 -19 -36 -153
-7 -41 -18 -81 -24 -88 -14 -14 -26 15 -55 124 -6 23 -18 47 -27 55 -13 11
-14 6 -8 -42 4 -30 11 -62 15 -71 19 -35 1 -118 -25 -118 -6 0 -4 -5 4 -10 12
-9 6 -18 -35 -55 -74 -66 -152 -86 -290 -76 -48 4 -128 35 -182 71 -71 47
-137 105 -108 95 11 -4 41 -10 68 -12 42 -5 47 -3 47 14 0 37 -21 82 -48 99
-46 31 -84 28 -44 -2 15 -12 15 -15 2 -24 -20 -13 -54 28 -39 47 7 8 7 18 0
32 -16 29 -13 51 6 51 15 0 15 3 -4 22 -14 13 -41 24 -73 28 l-50 6 -1 -30
c-1 -26 -4 -21 -21 29 -28 86 -22 230 12 299 34 68 102 140 154 166 24 11 47
27 50 35 9 24 143 81 331 141 280 89 325 106 325 125 0 22 29 33 47 18 10 -9
20 -9 40 0 33 15 45 0 36 -48 -4 -23 -2 -32 5 -27 6 4 9 13 5 21 -11 29 13 14
51 -31 36 -43 40 -45 50 -28 16 27 62 30 69 5 2 -11 1 -23 -4 -28 -14 -14 24
-65 84 -111 31 -24 112 -72 181 -107 68 -35 137 -72 153 -83 52 -37 168 -109
185 -115 15 -5 16 -2 10 26 -4 18 -7 65 -7 105 1 39 -1 72 -3 72 -3 0 -11 -8
-18 -17 -12 -16 -13 -15 -14 11 0 33 -12 28 -16 -7 -1 -12 -3 -25 -3 -29 -1
-5 -7 -8 -15 -8 -8 0 -16 -8 -19 -17 -3 -17 -6 -9 -33 92 l-8 30 -4 -28 c-2
-16 -10 -31 -18 -34 -10 -4 -12 -15 -8 -45 l7 -40 -34 18 c-58 29 -89 57 -80
68 14 17 24 59 14 53 -11 -7 -53 37 -53 54 0 6 -7 9 -15 5 -8 -3 -21 4 -29 16
-9 12 -19 18 -23 14 -5 -4 5 -19 22 -32 21 -16 26 -27 19 -34 -13 -13 -64 3
-64 20 0 5 -4 10 -10 10 -5 0 -7 -6 -4 -13 4 -10 -4 -14 -28 -13 -28 1 -34 5
-38 31 -3 20 -14 34 -33 43 -27 13 -35 36 -17 47 5 3 15 16 21 27 11 20 9 21
-25 15 -29 -5 -38 -2 -47 14 -15 29 -2 56 30 62 19 4 41 24 70 61 54 73 56 80
27 96 -14 7 -23 17 -20 22 8 13 21 10 40 -9 13 -13 16 -14 12 -3 -3 8 4 30 14
48 20 36 22 33 -47 48 -38 9 -42 7 -80 -28 -21 -21 -45 -38 -52 -38 -7 0 -13
-4 -13 -10 0 -5 5 -10 11 -10 7 0 8 -7 4 -17 -4 -10 -8 -30 -9 -45 -3 -34 -10
-42 -33 -34 -15 6 -15 9 -3 17 12 9 11 10 -4 5 -11 -4 -23 -1 -27 6 -4 7 -11
9 -15 6 -4 -4 7 -20 24 -36 17 -16 33 -41 36 -57 5 -24 3 -26 -19 -21 -17 4
-27 1 -34 -11 -6 -10 -11 -12 -11 -5 0 6 -9 12 -21 12 -15 0 -19 5 -15 15 3 8
1 15 -4 15 -6 0 -10 -5 -10 -12 0 -9 -3 -9 -11 -1 -8 8 -7 21 2 47 13 36 13
36 25 14 11 -21 13 -21 19 -5 4 10 0 28 -9 42 -9 14 -14 30 -11 35 3 5 3 21
-1 35 -5 20 -12 25 -36 25 -30 0 -30 0 -14 25 13 20 14 25 3 25 -8 0 -17 -3
-21 -7 -3 -4 -15 -8 -26 -10 -18 -3 -20 1 -14 40 4 23 22 72 41 108 21 41 31
72 27 83 -5 13 2 25 22 41 29 24 29 24 44 4 10 -12 22 -18 32 -14 14 6 14 10
2 33 -8 15 -14 35 -14 45 0 15 3 16 23 6 19 -11 20 -10 9 3 -21 25 -42 106
-28 111 7 3 4 12 -9 26 l-20 23 30 26 c17 14 30 30 30 35 0 5 8 15 18 21 15 9
22 7 37 -11 19 -24 40 -30 40 -13 0 5 15 16 34 25 31 15 37 15 64 1 17 -9 33
-25 37 -36 9 -30 25 -24 32 11 4 22 14 34 34 41 16 5 29 15 29 21 0 7 9 23 20
37 20 24 21 24 35 6 17 -22 4 -56 -26 -63 -14 -4 -16 -9 -9 -23 22 -42 13 -57
-39 -64 -39 -5 -50 -11 -55 -29 -9 -34 -8 -35 23 -42 15 -3 38 -18 51 -32 19
-22 21 -33 16 -70 -6 -45 -43 -123 -58 -123 -4 0 -8 21 -8 46 0 45 -1 46 -26
40 -24 -6 -25 -6 -10 9 17 17 21 35 9 35 -6 0 -124 -56 -142 -67 -9 -6 32 -42
63 -57 18 -8 62 -16 97 -17 35 -1 74 -8 86 -16 20 -11 27 -11 55 7 18 11 41
20 51 20 21 0 23 33 2 50 -18 15 -20 40 -3 40 7 0 33 22 58 48 l46 49 -28 12
c-15 7 -28 18 -28 24 0 17 45 57 63 57 23 0 30 -31 10 -46 -12 -8 -15 -16 -8
-23 7 -6 26 5 57 34 40 36 45 44 30 50 -9 5 -27 7 -40 6 -33 -4 -53 16 -46 45
5 20 2 24 -15 24 -30 0 -36 24 -14 54 24 34 42 32 54 -4 11 -31 39 -42 39 -15
0 21 35 37 65 29 28 -7 34 -41 13 -63 -11 -10 -10 -11 5 -5 9 3 23 1 30 -5 10
-8 20 -6 38 6 45 30 79 67 79 85 0 10 7 18 15 18 8 0 19 9 25 20 12 22 46 27
52 8 6 -17 108 30 108 48 0 17 -39 39 -70 39 -15 0 -24 5 -22 13 1 6 3 18 5
24 1 7 -8 14 -20 16 -23 3 -28 17 -17 46 4 10 18 16 40 16 28 0 34 4 34 20 0
19 -4 20 -36 14 -48 -9 -60 10 -34 54 26 43 25 60 0 37 -12 -11 -29 -16 -44
-13 -14 3 -27 1 -29 -5 -5 -16 -54 1 -59 20 -7 25 1 43 18 43 8 0 17 6 20 14
8 21 30 27 58 16 20 -7 25 -5 29 11 4 16 0 19 -26 19 -17 0 -38 -7 -48 -16
-24 -21 -60 -3 -52 26 4 16 1 20 -18 19 -20 -1 -21 -2 -5 -6 19 -5 18 -6 -5
-20 -13 -8 -16 -12 -7 -9 17 5 53 -32 42 -43 -3 -3 -10 1 -15 9 -9 13 -10 13
-8 0 1 -8 1 -26 0 -39 -1 -30 -15 -19 -16 12 0 30 -19 33 -23 3 -2 -13 -10
-27 -19 -30 -12 -5 -14 -1 -11 18 6 28 -10 60 -19 39 -3 -8 -14 -11 -28 -7
-12 3 -26 1 -29 -5 -5 -7 -14 -6 -29 4 -13 8 -41 16 -62 18 -22 1 -46 6 -53
10 -8 6 -12 2 -12 -10 0 -24 -19 -43 -36 -36 -8 3 -14 13 -14 23 0 25 -16 34
-24 14 -4 -10 -16 -14 -33 -12 -23 2 -28 7 -26 28 2 22 1 23 -8 7 -5 -9 -7
-22 -4 -27 3 -6 1 -10 -4 -10 -6 0 -11 5 -11 10 0 6 -5 10 -11 10 -6 0 -8 -7
-5 -16 3 -9 2 -12 -5 -9 -6 4 -8 13 -5 21 3 8 0 14 -7 14 -7 0 -8 3 -2 8 6 4
11 19 12 35 2 31 -19 36 -51 12 -17 -13 -22 -13 -42 0 -33 21 -35 19 -18 -20
15 -37 15 -38 -31 -47 -18 -4 -20 1 -22 45 -3 45 -2 48 14 36 15 -12 16 -12
10 4 -4 10 -7 23 -7 28 0 5 -6 8 -12 7 -8 -2 -13 7 -13 22 0 16 -6 25 -15 25
-10 0 -14 -8 -12 -23 4 -30 -14 -52 -44 -52 -16 0 -24 7 -26 23 -4 28 -35 25
-63 -7 -13 -16 -29 -23 -45 -21 -14 2 -34 4 -45 4 -14 1 -5 9 28 26 26 13 54
22 62 19 8 -4 15 -1 15 5 0 10 -29 16 -75 14 -11 -1 -37 3 -57 7 -25 5 -38 4
-41 -3 -3 -11 -73 -11 -110 -1 -16 5 -16 7 4 35 11 16 18 37 16 47 -3 12 -5
10 -6 -7 -1 -22 -4 -23 -41 -18 -42 5 -52 -5 -22 -22 15 -9 14 -11 -8 -11 -22
-1 -23 -2 -6 -9 16 -6 17 -9 5 -13 -8 -3 -22 -1 -30 6 -9 6 -40 10 -70 9 -120
-4 -132 -4 -138 4 -8 11 -61 11 -61 0 0 -5 -7 -2 -15 7 -9 8 -31 15 -49 14
-49 -2 -96 22 -96 49 0 27 8 28 46 8 26 -13 29 -13 32 1 2 8 -2 21 -8 29 -7 8
-10 22 -6 30 4 12 10 13 31 3 14 -6 25 -15 25 -20 0 -4 3 -8 8 -8 4 0 7 14 8
30 1 34 1 34 -26 18 -16 -10 -23 -10 -37 5 -16 16 -16 17 0 17 10 0 23 12 29
26 10 21 17 25 42 21 18 -3 45 3 66 13 19 10 40 19 45 19 6 1 9 13 8 27 -2 22
2 24 43 24 30 0 43 4 39 11 -4 6 -13 8 -20 5 -13 -5 -48 3 -87 19 -14 5 -18 2
-18 -13 0 -11 8 -22 18 -24 9 -3 -2 -8 -26 -12 -53 -10 -60 -4 -33 25 28 31
27 34 -16 45 -28 6 -38 14 -38 28 0 13 -14 27 -40 40 -22 12 -46 34 -54 51 -8
17 -18 32 -23 33 -4 2 -8 10 -8 18 0 16 -16 19 -25 4 -8 -13 -75 -13 -75 0 0
7 -1796 10 -5310 10 l-5310 0 0 -3740z m15012 3599 c92 -31 148 -58 154 -74 8
-21 31 -19 36 3 4 14 24 20 94 31 83 12 94 11 155 -8 70 -22 169 -86 169 -110
0 -8 17 -29 38 -47 32 -28 35 -33 19 -39 -12 -5 -46 5 -95 28 -85 40 -178 77
-191 77 -5 0 -8 -8 -7 -17 2 -36 -114 -21 -150 18 -19 21 -61 25 -97 8 -19 -9
-30 -8 -48 4 -39 25 -123 32 -152 12 -20 -13 -30 -14 -47 -5 -24 13 -36 8 -43
-20 -7 -26 5 -32 39 -20 24 10 30 8 45 -11 16 -21 19 -22 57 -10 22 8 46 11
53 9 8 -3 26 1 42 9 24 12 30 12 52 -4 30 -22 31 -30 4 -38 -16 -5 -19 -14
-17 -38 3 -28 0 -32 -22 -33 -14 -1 -38 -6 -54 -13 -28 -11 -29 -11 -23 19 l7
30 -66 0 c-77 0 -155 17 -170 38 -6 8 -16 12 -22 8 -16 -10 -24 11 -17 46 5
21 16 34 36 41 47 18 34 27 -40 27 -74 0 -102 -14 -51 -25 37 -8 37 -36 1 -45
-14 -3 -26 -11 -29 -18 -3 -9 3 -11 21 -7 33 9 41 -7 27 -50 -16 -48 -100 -91
-100 -51 0 24 -17 28 -49 11 -38 -19 -51 -2 -22 29 12 13 21 29 19 36 -2 8 9
20 24 27 38 19 56 53 34 65 -21 12 -13 24 27 43 18 8 48 25 67 37 74 47 198
59 292 27z m744 -169 c42 -27 201 -200 241 -265 57 -91 94 -183 115 -287 18
-90 20 -114 11 -193 -19 -159 -69 -269 -180 -396 -71 -82 -89 -94 -109 -78
-22 18 -17 53 12 80 14 13 35 39 46 59 12 19 30 43 39 53 10 9 23 36 30 60 6
23 15 47 20 53 11 14 -3 58 -23 70 -26 17 -154 54 -185 54 -28 0 -33 4 -33 23
0 13 6 29 13 36 10 11 9 14 -1 18 -20 8 -42 57 -32 73 7 12 12 12 27 -3 13
-11 44 -18 94 -22 106 -9 114 -11 150 -47 l32 -33 -6 65 c-3 36 -13 90 -22
120 -8 30 -18 70 -22 89 -6 31 -5 33 15 22 12 -7 30 -37 44 -74 28 -76 36 -50
14 46 -39 167 -170 351 -343 483 -17 13 -17 13 1 14 10 0 33 -9 52 -20z m-410
-41 c16 -8 30 -24 32 -36 3 -17 -3 -22 -25 -25 -24 -3 -20 -6 33 -25 34 -13
73 -23 87 -23 18 0 26 -6 29 -21 2 -12 13 -28 25 -36 21 -14 23 -12 47 35 27
54 47 67 77 52 21 -12 25 -25 9 -35 -5 -3 -10 -16 -10 -29 0 -12 -7 -31 -15
-42 -14 -18 -14 -17 -9 13 5 25 2 34 -10 39 -22 8 -24 6 -32 -43 -5 -36 -4
-41 12 -40 13 1 20 -6 22 -20 4 -25 -22 -33 -31 -10 -6 13 -8 -11 -9 -78 l-1
-40 -4 37 c-4 32 -10 39 -55 63 l-51 27 -24 -26 c-13 -14 -31 -26 -39 -26 -8
0 -48 15 -89 34 -69 32 -74 37 -81 72 -4 25 -19 49 -42 70 -31 28 -34 35 -23
48 9 10 30 16 57 16 l43 0 -25 25 c-14 14 -22 30 -18 36 8 14 80 7 120 -12z
m-376 -71 c37 -27 37 -37 3 -70 -51 -48 -203 -66 -211 -25 -7 35 8 65 44 86
42 25 44 25 44 6 0 -21 27 -19 47 5 22 26 37 25 73 -2z m2276 -266 c5 -11 35
-41 66 -67 98 -80 131 -152 89 -194 -11 -11 -23 -36 -27 -55 -7 -41 -30 -48
-44 -13 -8 20 -9 20 -9 -9 -1 -19 -10 -39 -26 -54 -13 -12 -22 -27 -19 -31 8
-14 -10 -11 -24 3 -17 17 -34 -8 -28 -40 3 -18 -3 -26 -21 -33 -34 -13 -43
-11 -43 6 0 9 -7 18 -15 21 -25 10 -45 -16 -45 -57 0 -35 3 -40 36 -54 20 -8
51 -15 69 -15 40 0 50 -9 27 -26 -15 -11 -14 -13 11 -25 57 -26 -2 -54 -73
-36 -41 11 -43 11 -66 -18 -21 -27 -24 -28 -30 -10 -4 11 -9 24 -12 29 -3 5 3
6 13 3 18 -8 45 8 45 25 0 6 -13 8 -30 5 -23 -5 -33 -2 -45 16 -8 12 -15 29
-15 39 0 9 -16 32 -35 51 -19 19 -35 41 -35 50 0 32 -23 27 -134 -29 -139 -69
-166 -69 -166 0 0 41 -1 43 -30 44 -23 0 -40 -9 -69 -39 -40 -40 -71 -51 -71
-24 0 17 -16 20 -24 6 -4 -5 0 -11 6 -14 7 -2 -2 -11 -19 -21 -36 -18 -37 -16
-24 32 5 17 6 32 2 32 -4 0 -25 -18 -46 -40 -21 -22 -45 -40 -51 -40 -7 0 -14
-4 -16 -8 -1 -5 -16 -12 -32 -16 -26 -6 -28 -5 -22 16 4 13 9 36 13 52 3 17
36 61 76 103 53 56 79 75 111 84 22 6 61 16 86 24 97 29 155 38 220 32 66 -6
68 -5 100 28 35 36 70 51 70 30 0 -14 -55 -65 -71 -65 -5 0 -9 -7 -9 -15 0
-22 57 -76 73 -69 6 4 40 37 75 75 69 76 76 103 37 137 -14 12 -25 26 -25 32
0 20 -24 9 -65 -29 -25 -23 -62 -45 -86 -51 -23 -6 -52 -18 -65 -26 -21 -15
-23 -14 -39 20 -10 20 -13 41 -9 48 5 7 9 30 10 51 1 29 10 47 31 66 15 15 38
40 50 56 22 30 22 30 40 10 23 -26 78 -65 92 -65 6 0 11 8 11 18 0 43 22 54
126 61 119 9 116 10 130 -17z m-4876 -195 c0 5 9 9 20 9 22 0 27 -12 8 -19 -7
-2 -10 -8 -5 -12 4 -5 13 -3 19 3 15 15 32 16 23 2 -3 -5 1 -10 9 -10 22 0 20
-22 -4 -52 -10 -14 -17 -28 -14 -31 9 -9 -38 -31 -71 -35 -94 -8 -90 -9 -90
23 0 28 2 30 39 30 l40 0 -1 53 c0 43 2 50 13 41 8 -6 14 -7 14 -2z m3029
-121 c9 -10 8 -16 -4 -26 -25 -21 -17 -28 23 -23 34 5 42 1 65 -27 29 -34 31
-39 18 -58 -6 -10 -21 -11 -71 -3 -45 7 -67 7 -77 0 -18 -16 -41 -4 -45 23 -4
30 -38 38 -38 8 0 -15 -12 -26 -46 -40 -39 -17 -50 -18 -85 -7 -25 7 -39 18
-39 28 0 18 26 33 40 24 5 -3 24 4 44 16 19 11 43 18 53 15 14 -4 21 2 30 24
9 24 19 31 52 36 23 4 44 11 47 15 8 13 20 11 33 -5z m2571 -83 c56 -18 102
-40 134 -66 55 -43 117 -77 141 -77 8 0 24 -9 36 -21 11 -11 37 -26 57 -33 41
-14 58 -40 20 -32 -100 23 -158 8 -158 -39 0 -32 -14 -32 -28 0 -10 21 -32 35
-32 21 0 -2 -3 -11 -6 -20 -4 -10 -1 -16 9 -16 11 0 22 -19 33 -57 17 -58 52
-103 79 -103 17 0 105 82 105 97 0 6 9 22 21 37 11 14 17 31 13 37 -4 7 -3 9
4 5 6 -3 11 -14 10 -24 0 -9 5 -30 10 -47 10 -29 10 -29 13 -5 1 14 1 33 1 43
-1 10 2 16 6 13 18 -11 34 -142 23 -182 -14 -51 -32 -60 -115 -59 -69 2 -70 2
-109 46 -37 41 -40 43 -53 25 -11 -16 -18 -17 -37 -9 -19 9 -23 17 -19 41 3
23 -2 33 -19 46 -23 16 -25 15 -56 -19 l-32 -35 -41 21 c-43 23 -47 33 -25 63
8 11 15 28 15 38 0 26 -46 24 -61 -3 -11 -21 -11 -21 -32 -1 -12 10 -27 22
-34 26 -19 10 4 -47 29 -73 11 -12 17 -25 14 -29 -4 -3 -20 11 -37 31 -22 27
-38 37 -59 37 -27 0 -46 -22 -35 -41 9 -14 -14 -49 -33 -49 -10 0 -23 5 -30
12 -7 7 -32 11 -56 9 -33 -2 -62 6 -120 33 -42 20 -79 36 -82 36 -3 0 -2 -9 1
-20 8 -24 -3 -25 -52 -5 -38 16 -73 20 -73 8 0 -5 23 -32 50 -61 27 -30 48
-57 47 -61 -1 -4 13 -22 31 -38 17 -17 32 -41 32 -52 0 -16 8 -23 31 -28 17
-3 33 -12 36 -19 3 -8 10 -14 15 -14 6 0 4 7 -3 16 -12 14 -11 16 6 12 15 -2
19 -10 17 -28 -3 -17 4 -31 25 -47 l28 -23 -27 0 c-39 0 -42 -14 -8 -50 17
-18 30 -36 30 -41 0 -12 17 -11 39 2 27 18 74 3 66 -20 -4 -13 0 -20 15 -24
11 -3 20 -11 20 -17 0 -9 -4 -9 -13 -2 -7 6 -22 10 -32 8 -25 -4 -31 -37 -15
-89 8 -28 8 -43 1 -50 -10 -10 -26 4 -72 61 -15 19 -33 14 -44 -10 -6 -13 -23
-28 -40 -33 -16 -6 -42 -18 -57 -28 -32 -22 -64 -15 -73 15 -5 15 -10 17 -18
8 -9 -8 -8 -14 6 -21 26 -15 21 -37 -13 -54 -16 -8 -33 -15 -37 -14 -20 3 -22
-3 -9 -23 13 -20 13 -29 -2 -74 -10 -27 -28 -61 -40 -74 l-22 -24 -44 22 c-50
25 -71 46 -61 62 8 12 -9 13 -33 1 -9 -5 -26 -13 -37 -17 -19 -7 -19 -8 3 -11
22 -4 23 -8 13 -63 -1 -2 -6 1 -13 8 -16 16 -28 15 -28 -2 0 -22 -32 -24 -54
-4 -12 10 -28 16 -38 12 -10 -3 -18 -1 -18 4 0 6 18 13 40 17 69 12 52 22 -28
17 -63 -3 -81 -8 -101 -27 l-24 -23 39 -48 c32 -39 39 -54 38 -89 -1 -27 -9
-54 -24 -74 -12 -18 -20 -35 -17 -37 3 -3 10 4 17 15 19 36 31 23 15 -15 -20
-48 -19 -57 4 -42 11 7 18 15 16 18 -11 17 19 34 68 38 59 5 153 -13 164 -31
4 -7 -2 -8 -18 -3 -52 14 -110 18 -156 11 -47 -8 -47 -8 -20 -19 18 -7 27 -17
27 -33 0 -26 -24 -42 -72 -45 -28 -3 -34 1 -36 20 -4 27 -22 29 -22 2 0 -11
-7 -20 -15 -20 -8 0 -15 -8 -15 -17 0 -16 -1 -16 -16 -1 -18 18 -11 38 12 38
8 0 13 4 10 9 -4 5 -1 22 6 38 6 15 12 33 13 40 0 6 9 21 19 32 11 12 16 24
12 29 -4 4 -14 -1 -21 -12 -13 -17 -15 -17 -30 -3 -16 17 -6 30 17 22 8 -3 24
2 36 12 19 17 20 21 8 55 -12 34 -77 118 -98 126 -25 10 10 -58 45 -90 37 -34
40 -43 15 -39 -5 0 -8 -3 -8 -8 0 -5 -9 -11 -21 -14 -18 -5 -20 -2 -15 20 12
46 -11 14 -24 -34 -8 -27 -22 -64 -32 -83 -10 -19 -18 -39 -18 -45 0 -6 -9
-16 -20 -23 -11 -7 -20 -21 -20 -32 0 -12 -9 -24 -22 -29 -18 -6 -19 -9 -5
-14 10 -4 29 4 49 21 l33 27 -22 -30 c-12 -16 -35 -43 -52 -59 -17 -17 -31
-35 -32 -40 0 -13 -59 -61 -59 -49 0 5 9 19 20 31 11 12 20 27 20 34 0 7 -12
1 -25 -14 -13 -16 -29 -28 -36 -28 -6 0 -9 -7 -6 -14 4 -11 1 -13 -10 -9 -11
4 -14 2 -9 -5 4 -7 2 -12 -3 -12 -6 0 -11 -5 -11 -11 0 -5 8 -9 18 -7 11 2 20
-1 21 -7 2 -15 -17 -65 -25 -65 -3 0 -3 12 0 28 6 26 6 26 -9 7 -9 -11 -13
-25 -11 -31 3 -8 -6 -6 -25 4 -16 9 -29 21 -29 26 0 5 -7 3 -15 -4 -8 -7 -15
-11 -16 -9 -6 23 -5 99 1 99 13 0 19 -26 13 -51 l-6 -23 32 23 c49 35 204 229
235 296 8 17 17 44 21 60 6 26 5 28 -7 14 -12 -15 -13 -12 -13 22 0 38 0 39
15 19 20 -27 40 -9 40 35 0 32 -23 75 -35 63 -4 -3 -20 -2 -36 2 -29 9 -30 9
-23 -26 7 -39 -9 -47 -27 -13 -9 17 -8 23 2 30 11 6 11 11 1 21 -9 9 -12 9
-12 -4 0 -9 -6 -18 -12 -21 -10 -3 -10 -9 0 -26 6 -11 12 -25 12 -30 0 -8 -52
-31 -71 -31 -15 0 -10 67 6 80 8 7 12 16 9 22 -3 5 -11 5 -19 -2 -9 -8 -15 -8
-20 0 -10 16 -25 12 -25 -7 0 -15 -8 -18 -46 -16 -36 1 -45 -1 -40 -13 7 -19
3 -18 -40 11 -57 39 -81 41 -131 14 -46 -25 -55 -39 -24 -39 27 0 32 -12 18
-41 -24 -47 -68 -58 -219 -58 -81 1 -141 5 -144 11 -4 6 -24 7 -50 3 -24 -3
-44 -4 -44 -2 0 14 88 48 185 71 59 15 141 42 181 61 90 41 147 44 215 9 43
-22 49 -22 64 -8 14 14 14 18 -2 44 -9 16 -20 27 -24 24 -5 -2 -13 5 -19 16
-6 11 -21 22 -35 26 -13 3 -26 12 -29 21 -4 9 -13 12 -26 8 -19 -6 -25 3 -21
28 1 4 -6 10 -14 13 -8 4 -15 13 -15 21 0 13 3 13 15 3 13 -11 14 -10 9 4 -4
10 -13 15 -20 12 -21 -8 -43 4 -37 20 3 8 1 14 -5 14 -20 0 -21 31 -2 50 32
32 31 33 110 -61 73 -88 172 -189 185 -189 20 0 51 29 40 37 -5 5 -10 14 -11
21 -1 6 -2 21 -2 32 -1 11 -9 20 -17 20 -8 0 -19 9 -25 20 -6 11 -17 20 -25
20 -8 0 -15 6 -15 14 0 7 -10 21 -23 29 -13 8 -29 33 -36 56 -6 23 -17 41 -24
41 -7 0 -18 9 -25 20 -7 11 -18 20 -26 20 -21 0 -25 20 -16 77 10 62 28 99 69
137 17 17 31 35 31 41 0 21 71 104 123 143 29 21 79 49 112 62 33 13 77 36 98
51 51 37 88 44 140 26 23 -9 88 -18 145 -21 135 -7 184 11 262 94 38 39 72 65
109 80 30 12 113 65 184 117 71 52 139 98 151 103 42 17 130 10 216 -17z
m-2305 -183 c2 -47 0 -91 -4 -99 -13 -20 -92 -16 -108 5 -20 27 -16 43 17 74
26 24 28 29 15 40 -36 30 -6 72 48 67 27 -2 28 -2 32 -87z m-831 74 c21 -8 21
-44 -1 -44 -15 0 -15 -1 0 -18 21 -23 22 -56 1 -87 -20 -30 -30 -32 -37 -5 -4
15 -14 20 -40 20 -20 0 -39 5 -42 11 -12 18 15 67 41 73 13 4 24 12 24 19 0
14 19 37 31 37 4 0 14 -3 23 -6z m1107 -394 c24 -13 48 -18 61 -14 14 4 18 2
14 -5 -4 -6 -15 -11 -24 -11 -9 -1 -39 -11 -67 -24 -44 -21 -47 -24 -27 -30
38 -12 15 -24 -60 -31 -78 -7 -126 -19 -170 -41 -37 -19 -78 -18 -78 2 0 11 6
15 18 12 11 -3 30 1 43 9 24 14 24 14 -6 8 l-30 -5 28 25 c15 14 36 25 46 25
9 0 23 6 30 13 11 10 13 9 8 -5 -4 -12 -1 -18 7 -18 9 0 12 7 9 19 -4 15 1 20
24 23 22 2 28 7 26 26 -2 19 2 22 37 22 21 0 42 5 45 10 9 14 21 13 66 -10z
m1665 -550 c34 0 40 -23 16 -70 -16 -33 -17 -42 -6 -51 7 -6 19 -7 26 -3 7 4
10 4 6 -1 -4 -4 -3 -14 4 -22 9 -12 7 -13 -14 -8 -19 5 -31 1 -47 -16 -11 -13
-21 -29 -21 -36 0 -7 -6 -13 -13 -13 -8 0 -22 -9 -31 -19 -10 -11 -31 -23 -47
-26 -16 -4 -29 -11 -29 -16 0 -10 -60 -12 -84 -3 -17 7 -22 34 -6 34 6 0 10 7
10 16 0 9 21 37 48 63 53 52 66 73 77 119 5 27 11 32 35 32 20 0 30 6 35 23 4
13 8 17 12 10 2 -7 16 -13 29 -13z m-2107 -54 c6 -7 25 -16 41 -19 32 -7 66
-49 55 -68 -16 -24 -97 -50 -178 -56 -79 -5 -84 -4 -112 20 -26 23 -29 28 -17
46 16 28 7 26 -26 -4 -26 -25 -52 -33 -52 -17 0 5 12 15 28 23 15 8 31 20 35
26 4 7 14 13 21 13 8 0 16 7 20 15 3 8 18 15 33 16 15 0 37 4 48 9 32 14 91
11 104 -4z m-3447 -474 c-28 -9 -9 -20 27 -16 26 3 42 0 50 -10 20 -23 6 -33
-56 -41 -71 -9 -113 -25 -143 -56 -13 -13 -20 -18 -16 -11 5 8 -2 12 -26 12
-18 0 -43 3 -55 6 -18 5 -23 1 -29 -20 -3 -15 -14 -31 -24 -36 -19 -10 -27 -3
-76 58 -27 34 -26 40 6 20 16 -10 35 -9 97 5 43 10 102 21 131 25 42 7 58 15
82 43 16 18 30 39 30 44 1 6 4 3 7 -4 3 -8 1 -17 -5 -19z m4055 -28 c15 -4 22
-13 20 -25 -5 -28 -16 -35 -77 -52 -30 -8 -73 -22 -95 -31 -45 -17 -95 -21
-95 -7 0 5 14 21 30 34 44 38 36 43 -17 12 -67 -39 -126 -87 -213 -175 -41
-41 -70 -69 -65 -61 6 10 4 12 -4 7 -7 -5 -10 -15 -7 -23 5 -11 2 -13 -10 -9
-12 5 -14 1 -9 -17 4 -14 3 -18 -3 -9 -6 10 -23 -4 -63 -51 -30 -35 -63 -76
-74 -91 -34 -47 -162 -172 -142 -139 5 7 1 9 -12 6 -13 -3 -17 -10 -14 -20 5
-12 1 -14 -15 -9 -14 5 -27 1 -41 -13 -19 -19 -19 -19 -26 6 -3 14 -4 28 0 31
3 3 5 -2 5 -11 0 -27 32 -17 38 12 4 21 -8 52 -19 46 -5 -4 -9 -2 -9 3 0 30
196 173 234 171 12 0 15 -3 9 -6 -17 -6 -16 -23 1 -23 8 0 47 42 87 93 166
212 306 305 524 351 32 6 39 6 62 0z m-1057 -51 c66 -29 116 -75 131 -120 l11
-33 19 22 c20 23 20 23 10 1 -6 -12 -16 -25 -21 -28 -6 -4 -22 -30 -37 -58
-14 -29 -31 -55 -37 -59 -6 -4 -7 -8 -2 -8 5 0 -3 -9 -18 -21 -34 -27 -165
-35 -211 -14 -16 8 -52 19 -80 25 -27 6 -53 16 -57 23 -4 7 -13 12 -19 12 -7
0 -13 9 -15 20 -2 11 -12 26 -23 34 -26 17 -26 27 -1 83 21 48 99 128 125 128
8 0 15 4 15 9 0 28 134 18 210 -16z m-7360 -18 c29 -26 42 -83 29 -128 -27
-100 -199 -125 -245 -35 -32 61 -9 126 60 170 39 24 125 21 156 -7z m-3292
-42 l24 -6 -4 -167 -3 -167 47 24 c95 48 207 52 271 9 17 -11 43 -44 57 -71
24 -48 25 -59 29 -263 2 -149 6 -214 15 -217 6 -2 23 -6 39 -9 24 -6 27 -11
27 -46 l0 -40 -190 0 -190 0 0 40 c0 35 3 40 28 46 67 15 62 1 62 167 -1 238
-19 287 -107 287 -86 0 -83 8 -83 -234 l0 -213 30 -6 c27 -6 30 -10 30 -47 l0
-40 -180 0 -180 0 0 39 c0 41 0 41 63 55 l27 6 0 355 0 355 -40 16 c-38 15
-40 18 -40 59 l0 44 53 6 c83 10 182 22 187 24 3 0 15 -2 28 -6z m-2294 -80
c3 -21 8 -68 11 -105 l7 -68 -54 0 c-54 0 -54 0 -75 44 -24 49 -39 54 -183 57
l-75 2 -3 -153 -3 -152 23 6 c13 3 50 6 83 6 l60 0 18 45 c18 44 20 45 63 45
l44 0 0 -150 0 -150 -50 0 -50 0 -11 45 -11 45 -68 0 c-38 0 -75 3 -84 6 -14
5 -16 -11 -16 -139 l0 -145 93 -8 92 -9 3 -47 3 -48 -245 0 -246 0 0 44 0 44
45 6 45 7 0 349 0 348 -46 8 -46 9 -3 48 -3 47 338 0 338 0 6 -37z m3870 0 c3
-21 8 -68 11 -105 l7 -68 -55 0 c-53 0 -54 0 -72 40 -10 23 -23 44 -29 48 -6
3 -61 9 -123 12 l-113 5 0 -154 0 -153 23 6 c12 3 49 6 82 6 l61 0 15 43 c15
40 18 42 62 45 l47 3 0 -150 0 -151 -50 0 -50 0 -11 44 -11 45 -84 3 -84 3 0
-141 0 -142 93 -8 92 -9 3 -47 3 -48 -245 0 -246 0 0 44 0 44 45 6 45 7 0 349
0 349 -45 6 c-47 8 -51 14 -54 73 l-1 32 339 0 339 0 6 -37z m2136 -133 l0
-80 100 0 100 0 0 -55 0 -55 -96 0 -96 0 3 -193 c4 -167 6 -197 23 -221 18
-28 20 -29 86 -22 l68 6 13 -31 c12 -29 11 -33 -10 -51 -57 -45 -243 -69 -305
-38 -71 36 -86 99 -86 368 l0 182 -40 0 c-25 0 -40 5 -40 13 0 6 -3 21 -6 33
-5 18 1 23 39 32 24 6 55 23 70 37 26 27 67 104 67 128 0 22 11 27 62 27 l48
0 0 -80z m7740 6 c0 -2 -57 -62 -128 -132 -123 -124 -196 -220 -256 -335 -32
-61 -31 -103 3 -114 27 -8 36 -103 12 -128 -16 -17 -18 -16 -40 4 -15 14 -31
19 -47 16 -13 -2 -27 0 -30 4 -3 5 -14 9 -25 9 -27 0 -26 59 3 119 63 130 356
478 456 542 25 16 52 24 52 15z m1051 -25 c15 -20 51 -41 113 -67 50 -21 125
-56 166 -78 41 -21 96 -50 121 -63 26 -14 52 -21 62 -17 14 5 7 17 -38 72 -56
67 -74 113 -37 93 25 -13 63 -65 94 -126 l25 -50 -43 -3 c-29 -2 -57 4 -86 19
-24 12 -63 28 -88 35 -25 7 -88 28 -141 48 -53 19 -118 38 -144 42 -50 7 -99
27 -89 36 5 6 48 -2 92 -16 33 -11 26 8 -9 25 -18 8 -31 18 -30 23 2 5 -2 12
-8 16 -13 7 -4 40 10 40 5 0 18 -13 30 -29z m-3660 -31 c6 -16 15 -30 20 -30
4 0 13 -10 20 -21 8 -15 8 -19 0 -15 -6 4 -11 3 -11 -3 0 -5 20 -26 45 -47 25
-20 45 -41 45 -47 0 -7 -4 -7 -12 1 -17 17 -23 15 -37 -14 -9 -20 -9 -25 1
-21 7 2 23 -8 35 -22 27 -30 23 -55 -14 -90 -22 -21 -24 -26 -10 -36 10 -7 13
-20 10 -38 -3 -15 0 -34 7 -42 27 -32 0 -25 -34 9 -33 34 -76 48 -76 26 0 -6
18 -23 40 -38 41 -28 59 -64 20 -40 -11 7 -20 16 -20 20 0 5 -13 8 -30 8 -26
0 -30 -4 -30 -26 0 -14 4 -23 10 -19 6 3 10 -3 10 -14 0 -12 -5 -21 -11 -21
-5 0 -7 -4 -4 -10 3 -5 2 -10 -2 -10 -5 0 -14 -10 -22 -21 -12 -20 -11 -21 7
-17 19 5 19 4 6 -27 -10 -24 -11 -42 -4 -66 13 -45 13 -56 -2 -41 -17 17 -28
15 -28 -4 0 -8 4 -13 9 -9 5 3 13 0 16 -6 8 -13 6 -15 -23 -24 -20 -6 -22 -4
-18 19 3 18 0 26 -9 26 -8 0 -22 12 -32 28 -10 15 -21 30 -26 33 -5 4 3 9 17
11 14 3 23 2 21 -2 -6 -10 26 -23 34 -14 3 4 0 9 -6 11 -9 3 -10 10 -3 24 8
15 7 17 -5 13 -18 -7 -39 13 -52 51 -7 21 -16 30 -32 29 -11 0 -21 3 -21 7 0
17 -41 20 -56 4 -9 -9 -23 -14 -30 -11 -11 4 -11 2 -1 -14 6 -11 17 -20 24
-20 7 0 13 -4 13 -10 0 -5 6 -10 14 -10 7 0 19 -7 26 -15 7 -8 16 -13 20 -10
5 3 12 0 16 -6 4 -7 3 -9 -4 -5 -6 3 -13 2 -16 -3 -4 -5 -2 -12 4 -16 6 -4 7
-11 4 -17 -4 -6 -10 -5 -15 3 -6 10 -9 10 -9 2 0 -6 5 -15 10 -18 23 -14 7
-23 -32 -18 -28 4 -39 3 -34 -5 3 -6 2 -13 -4 -17 -18 -11 -11 -42 13 -53 20
-10 20 -11 -13 -11 -24 -1 -31 -4 -21 -10 8 -5 10 -14 6 -22 -11 -17 -24 17
-36 96 -6 33 -13 74 -15 90 -3 17 -6 36 -7 43 -1 19 -17 14 -18 -5 -1 -10 -1
-46 1 -80 2 -52 -1 -63 -14 -63 -9 0 -16 3 -16 8 -1 21 -13 88 -16 91 -2 2
-11 1 -20 -3 -11 -4 -15 -14 -12 -31 3 -14 1 -23 -6 -22 -12 2 -12 -7 0 -37 6
-15 4 -17 -6 -11 -10 6 -12 0 -7 -28 3 -21 3 -37 -1 -37 -4 0 -13 -12 -19 -27
-10 -21 -10 -28 0 -35 8 -5 5 -8 -9 -8 -20 0 -28 -11 -53 -74 -10 -24 -14 -27
-22 -15 -13 21 -11 32 5 26 16 -6 30 54 14 64 -5 3 -12 40 -15 81 l-6 76 28
-6 c18 -3 26 -1 21 6 -3 6 0 13 6 15 8 3 5 6 -6 6 -13 1 -16 6 -12 17 9 24 -4
86 -18 81 -6 -2 -10 -15 -8 -28 1 -19 0 -21 -8 -9 -7 11 -14 4 -30 -33 -12
-26 -23 -47 -26 -47 -3 0 -2 26 1 58 l7 57 -41 18 c-42 17 -65 47 -42 55 8 3
9 8 1 16 -5 7 -14 37 -20 66 -14 72 8 155 50 193 35 31 56 36 45 10 -12 -32
-14 -73 -3 -73 20 0 73 38 96 69 25 34 78 49 111 32 14 -8 21 -8 21 -1 0 5 -4
10 -10 10 -5 0 -10 9 -10 21 0 19 1 19 16 5 18 -19 40 -21 50 -5 5 8 41 10
118 5 106 -6 110 -5 81 10 -17 9 -60 18 -98 19 -66 3 -96 13 -69 22 20 8 54
81 39 86 -47 17 104 28 172 13 25 -6 32 -5 26 4 -8 14 22 39 48 40 11 0 22
-11 28 -30z m-10771 -72 l0 -49 31 36 c49 55 128 86 178 70 19 -6 21 -14 21
-100 l0 -94 -35 15 c-41 17 -76 18 -127 3 l-38 -10 0 -193 0 -194 48 -7 c91
-13 92 -13 92 -56 l0 -39 -211 0 -210 0 3 43 c3 39 5 42 36 45 l32 3 0 193 0
193 -40 28 c-36 25 -40 32 -40 69 l0 41 108 30 c59 17 117 29 130 27 19 -4 22
-10 22 -54z m783 36 c106 -36 164 -163 141 -306 l-7 -38 -204 0 -204 0 7 -37
c16 -90 66 -150 137 -164 47 -8 143 2 190 20 41 16 44 15 58 -26 11 -34 10
-38 -11 -55 -74 -60 -302 -83 -406 -41 -79 31 -120 68 -155 139 -93 188 -6
434 178 505 82 31 190 33 276 3z m700 5 l57 -12 1 -41 c0 -22 1 -60 3 -83 l2
-43 -56 0 c-54 0 -56 1 -68 33 -19 53 -57 82 -106 82 -50 0 -76 -18 -76 -52 0
-46 36 -79 143 -131 156 -75 207 -129 207 -220 0 -51 -37 -122 -79 -150 -89
-59 -274 -74 -403 -33 l-68 22 0 84 0 85 45 0 c41 0 46 -3 76 -46 40 -58 82
-84 137 -84 32 0 49 6 67 25 14 13 25 31 25 40 0 26 -49 63 -144 109 -163 79
-216 137 -216 236 0 74 27 115 101 153 92 47 200 55 352 26z m2387 -40 l0 -49
36 39 c40 45 105 74 155 69 l34 -3 3 -96 3 -97 -38 14 c-46 16 -77 17 -125 3
l-38 -10 0 -194 0 -193 53 -7 c85 -11 87 -12 87 -56 l0 -39 -211 0 -210 0 3
42 c3 39 6 43 33 48 l30 5 3 191 2 191 -40 28 c-38 26 -41 32 -38 69 l3 40
105 31 c58 17 115 29 128 27 19 -4 22 -10 22 -53z m530 51 c5 0 10 -117 12
-259 3 -259 3 -259 27 -285 28 -30 72 -34 126 -12 l35 15 0 184 0 183 -41 23
c-38 22 -40 25 -37 64 l3 41 125 27 c87 19 129 25 142 18 17 -9 18 -31 18
-299 l0 -290 30 0 c27 0 30 -3 30 -34 0 -40 -21 -51 -120 -62 -76 -8 -119 7
-127 46 l-5 28 -47 -29 c-96 -60 -231 -61 -300 -3 -53 44 -63 89 -69 297 -5
183 -5 188 -28 206 -31 24 -35 101 -6 101 9 1 58 11 107 24 50 13 96 22 103
20 8 -2 18 -4 22 -4z m833 -7 c4 -3 7 -62 7 -131 -3 -319 0 -433 13 -436 6 -3
24 -7 40 -10 24 -6 27 -11 27 -46 l0 -40 -190 0 -190 0 0 40 c0 35 3 40 28 46
15 3 33 7 40 10 9 2 12 48 12 185 l0 181 -35 41 c-24 27 -35 50 -35 71 0 31 2
32 113 67 100 33 141 38 170 22z m1162 -6 l50 -12 3 -82 3 -83 -58 0 -58 0
-17 40 c-21 50 -71 83 -116 76 -44 -7 -62 -22 -62 -56 0 -41 38 -74 152 -130
149 -74 198 -128 198 -217 0 -44 -28 -110 -56 -135 -81 -71 -279 -93 -434 -48
-56 16 -58 20 -61 105 l-2 80 49 0 c46 0 50 -2 77 -43 39 -58 80 -82 139 -82
38 0 50 5 67 26 12 15 21 33 21 41 0 24 -51 62 -139 104 -167 79 -221 139
-221 241 0 40 6 64 23 89 25 38 107 84 177 99 54 11 196 4 265 -13z m6830
-179 c-15 -29 -34 -60 -41 -69 -16 -18 -19 -49 -5 -49 5 0 46 25 92 55 78 52
129 69 129 44 0 -15 -42 -59 -56 -59 -6 0 -22 -8 -35 -18 -13 -10 -49 -32 -79
-48 -30 -16 -66 -36 -80 -45 -73 -50 -96 -26 -55 53 43 82 141 205 153 193 3
-3 -7 -29 -23 -57z m1206 20 c32 -27 73 -93 99 -161 16 -40 53 -124 83 -187
98 -207 166 -395 149 -412 -20 -20 -137 151 -127 183 14 43 -121 372 -213 519
-33 53 -28 88 9 58z m-4728 -35 c-4 -10 -19 -29 -34 -43 -28 -25 -54 -90 -30
-76 6 4 11 1 11 -8 0 -9 4 -16 9 -16 16 0 43 -52 43 -84 0 -36 -36 -102 -69
-129 -13 -10 -30 -25 -37 -33 -8 -8 -22 -14 -30 -14 -31 0 -17 -47 30 -99 31
-34 41 -51 30 -51 -9 0 -16 5 -16 11 0 5 -6 7 -12 3 -7 -4 -10 -4 -7 0 4 4 -8
23 -27 43 l-33 35 4 90 c4 67 2 88 -6 82 -9 -5 -10 -1 -7 14 5 16 2 22 -10 22
-13 0 -12 4 5 23 11 12 25 40 31 62 10 37 73 124 96 134 5 2 19 14 30 26 26
28 38 31 29 8z m-248 -97 c12 -8 16 -19 11 -31 -3 -10 -1 -24 5 -31 14 -17 6
-94 -11 -104 -16 -10 3 -22 22 -15 25 10 40 -39 23 -72 -8 -15 -11 -29 -6 -31
11 -4 -2 -55 -15 -59 -17 -6 -69 93 -54 102 6 4 -3 17 -18 30 -16 13 -38 47
-50 74 -17 42 -18 52 -7 61 8 7 19 9 24 6 5 -4 12 -2 16 4 3 5 2 10 -4 10 -10
0 29 69 40 70 3 0 14 -6 24 -14z m-460 -277 c38 -13 97 -42 130 -64 65 -43
149 -145 162 -196 8 -30 0 -181 -12 -229 -3 -14 -10 -47 -14 -74 -5 -29 -16
-55 -27 -63 -11 -8 -18 -21 -16 -29 2 -8 -1 -14 -7 -14 -5 0 -7 -8 -4 -18 3
-13 -6 -26 -31 -43 -22 -15 -34 -31 -33 -43 3 -26 -76 -66 -176 -90 -48 -11
-77 -22 -74 -29 2 -7 15 -12 30 -12 34 0 47 -15 14 -16 -15 -1 -39 -3 -54 -4
-16 -1 -61 -4 -100 -6 -40 -1 -67 -6 -61 -10 7 -5 9 -11 5 -16 -4 -4 -17 -2
-27 5 -11 7 -30 12 -42 12 -41 0 -144 56 -169 91 -12 19 -26 36 -29 39 -3 3
-11 23 -17 45 -15 51 -26 165 -15 147 7 -11 12 -10 26 3 9 9 16 22 17 28 0 7
2 19 4 28 1 8 -4 30 -11 48 -12 28 -16 31 -29 21 -9 -7 -15 -29 -15 -54 l0
-41 -34 70 c-40 84 -48 128 -36 201 25 155 146 282 311 329 80 22 244 14 334
-16z m2430 -286 c112 -24 102 -47 -34 -82 -70 -18 -89 -20 -113 -10 -56 23
-23 109 42 109 16 0 63 -7 105 -17z m2051 -38 c-3 -8 -1 -15 4 -15 22 0 42
-69 35 -122 -19 -147 -62 -264 -104 -280 -14 -6 -34 -14 -44 -19 -23 -12 -46
0 -86 46 -18 21 -28 41 -24 48 4 7 9 23 11 37 2 13 6 27 10 30 4 3 19 30 34
60 16 30 32 62 37 70 12 18 37 77 45 105 6 20 50 52 75 54 8 1 11 -5 7 -14z
m190 -132 c-5 -72 -11 -108 -33 -218 -6 -30 -16 -43 -36 -53 -16 -8 -31 -11
-34 -8 -9 8 -5 90 6 134 22 87 50 171 66 196 30 45 38 32 31 -51z m1292 -23
c19 -30 29 -57 25 -67 -4 -9 1 -21 11 -28 10 -8 19 -33 23 -62 5 -44 3 -51
-14 -55 -43 -11 -92 77 -109 194 -11 84 18 92 64 18z m-4544 -11 c-3 -5 0 -8
8 -7 9 2 13 -9 13 -37 0 -31 4 -40 17 -39 10 1 14 -4 11 -12 -3 -8 1 -14 11
-14 9 0 17 -9 18 -22 4 -62 3 -80 -4 -84 -4 -3 -8 -12 -8 -21 0 -9 -8 -22 -17
-29 -24 -17 -7 -32 17 -16 12 7 20 8 20 2 0 -5 -4 -10 -10 -10 -5 0 -7 -7 -4
-15 4 -8 0 -22 -7 -31 -10 -12 -10 -17 0 -23 9 -6 8 -11 -4 -21 -8 -7 -15 -20
-15 -30 0 -25 -28 -77 -45 -84 -8 -3 -20 -19 -27 -35 l-13 -30 -34 42 c-19 23
-26 34 -15 25 35 -31 39 -20 4 13 -26 25 -32 39 -32 71 1 26 7 45 19 54 14 11
14 13 2 8 -14 -4 -16 3 -14 46 2 28 6 54 9 57 3 4 6 18 6 32 0 20 -2 23 -10
11 -8 -13 -10 -13 -14 0 -9 26 19 120 35 120 6 0 7 9 4 20 -4 12 -2 20 5 20 6
0 9 4 6 9 -6 9 21 36 44 43 19 7 32 0 24 -13z m3695 -93 c12 -38 22 -91 23
-118 1 -48 -26 -128 -44 -128 -4 0 -8 -8 -8 -17 -1 -25 -48 -59 -63 -44 -14
14 -11 67 6 116 8 22 20 87 27 145 18 160 23 163 59 46z m-8349 -206 l0 -270
-3400 0 -3400 0 0 270 0 270 3400 0 3400 0 0 -270z m6465 200 c13 -12 48 -25
84 -31 69 -13 107 -38 117 -81 5 -23 3 -27 -23 -30 -49 -5 -133 14 -134 31 -1
9 -2 24 -3 34 -1 10 -5 21 -11 25 -5 4 -23 22 -39 40 -33 35 -25 44 9 12z
m-143 -52 c-11 -24 -22 -51 -26 -62 -4 -12 -12 -16 -24 -11 -52 20 -73 18
-103 -11 -33 -32 -34 -38 -15 -76 8 -15 12 -36 9 -48 -3 -11 0 -26 6 -34 19
-23 -23 -45 -93 -48 -20 -1 -32 -5 -25 -9 7 -4 8 -12 3 -20 -6 -12 -5 -12 9 0
21 16 72 8 99 -16 10 -9 21 -14 24 -11 3 4 -8 14 -25 24 -17 10 -31 21 -31 24
0 9 69 32 78 26 5 -3 7 -19 4 -35 -3 -20 3 -40 18 -61 25 -35 23 -62 -3 -36
-21 21 -21 10 -2 -24 26 -45 20 -53 -31 -46 -61 8 -91 28 -140 92 l-41 53 14
63 c16 72 32 118 42 118 4 0 18 19 31 43 32 58 49 76 95 99 45 24 138 57 144
52 2 -2 -6 -22 -17 -46z m2467 -91 c23 -114 27 -144 23 -194 -5 -67 -23 -69
-46 -5 -10 26 -23 57 -29 70 -6 12 -11 53 -11 90 0 120 42 146 63 39z m-3581
-98 c23 -17 42 -34 42 -38 0 -4 -19 -15 -42 -25 -24 -11 -51 -26 -61 -34 -18
-16 -95 -18 -109 -4 -15 15 32 88 70 110 48 28 50 28 100 -9z m1536 -92 c21
-15 24 -73 6 -106 -15 -28 -101 -83 -164 -104 -58 -20 -56 -20 -56 -7 0 6 6
10 13 10 7 0 22 7 33 16 16 13 16 15 2 10 -19 -6 -25 9 -8 19 6 3 10 19 10 35
0 22 5 29 23 32 19 4 18 6 -16 23 -55 27 -46 40 48 68 64 19 87 20 109 4z
m-1748 -432 c32 -22 46 -103 23 -131 -36 -44 -129 7 -129 70 0 61 59 95 106
61z m1214 -36 c64 -29 80 -46 80 -88 -1 -39 -14 -62 -46 -79 -39 -20 -136 21
-170 73 -14 21 -14 30 -4 55 15 36 46 60 75 60 11 0 40 -10 65 -21z m3212 -52
c150 -55 256 -146 314 -272 38 -82 64 -177 64 -232 0 -26 7 -48 20 -63 11 -13
20 -25 20 -28 0 -29 -48 -165 -72 -204 -17 -28 -35 -71 -39 -97 -8 -43 -29
-102 -50 -143 -5 -10 -9 -28 -9 -41 0 -12 -11 -39 -25 -59 -14 -20 -25 -41
-25 -46 0 -5 -12 -14 -27 -21 -22 -10 -29 -10 -38 2 -16 21 -46 16 -72 -12
l-23 -26 6 35 c9 53 37 120 52 120 6 0 12 6 12 13 0 8 3 8 9 -2 7 -11 13 -5
26 25 9 21 18 50 19 64 4 35 29 80 67 121 17 19 43 52 57 74 29 46 84 217 72
225 -11 7 -60 138 -60 161 0 11 -4 19 -8 19 -5 0 -23 20 -41 44 -29 38 -38 44
-79 48 -30 3 -69 18 -107 41 -44 27 -71 37 -103 37 -24 0 -41 4 -37 9 7 12
-34 41 -57 41 -10 0 -18 -4 -18 -10 0 -5 -11 -10 -25 -10 -15 0 -29 -8 -36
-22 -7 -13 -17 -26 -22 -30 -7 -4 -7 -11 2 -21 9 -11 9 -17 1 -22 -22 -14 6
-25 74 -32 49 -4 76 -12 95 -28 30 -25 78 -44 67 -26 -4 6 -1 11 8 11 8 0 16
5 18 11 2 7 12 7 31 -2 19 -9 24 -15 15 -20 -9 -6 -6 -15 12 -33 13 -15 29
-26 35 -26 16 0 58 -48 89 -101 26 -46 50 -165 34 -175 -26 -16 -49 -12 -58
11 -13 35 -22 31 -17 -7 2 -18 2 -26 0 -18 -2 8 -13 26 -24 40 -18 22 -19 23
-9 3 6 -13 7 -23 2 -23 -14 0 -72 62 -72 76 0 11 -70 83 -119 122 l-24 19 21
5 c14 4 22 2 22 -6 0 -7 25 -36 55 -65 30 -29 55 -57 55 -62 0 -4 9 -13 20
-19 34 -18 23 6 -27 58 -27 28 -48 56 -48 64 0 23 -55 64 -130 100 -62 28 -68
30 -77 14 -9 -16 -11 -16 -23 0 -7 10 -37 23 -69 29 -60 12 -66 10 -38 -11 16
-12 15 -13 -8 -14 -35 0 -15 -13 68 -45 79 -29 174 -95 222 -153 24 -29 27
-38 15 -40 -8 -2 -15 -7 -15 -12 0 -5 -27 18 -59 51 -33 33 -62 56 -65 51 -3
-5 3 -17 14 -27 24 -22 27 -43 3 -24 -13 11 -13 8 2 -13 11 -15 26 -29 33 -32
16 -7 15 -1 -4 18 -8 9 -11 16 -4 16 6 0 16 -12 23 -27 6 -16 17 -32 24 -36 8
-5 11 -12 8 -17 -3 -5 2 -21 11 -34 35 -54 6 -42 -41 16 -70 88 -81 97 -96 87
-8 -4 -19 -3 -26 3 -9 7 -13 7 -13 0 0 -6 5 -14 10 -17 7 -5 8 -11 1 -19 -7
-8 -6 -18 2 -32 7 -11 21 -35 32 -54 11 -19 37 -52 58 -74 38 -40 74 -106 57
-106 -5 0 -11 4 -14 9 -3 5 -21 14 -38 20 -27 8 -29 8 -14 -2 48 -31 67 -51
62 -63 -3 -8 -1 -14 4 -14 6 0 10 -5 10 -12 0 -7 -18 7 -40 30 -23 23 -45 42
-50 42 -14 0 13 -45 45 -73 22 -19 25 -26 14 -27 -14 0 -15 -7 -8 -46 5 -25
11 -49 14 -54 3 -5 -4 -14 -15 -20 -17 -9 -20 -8 -20 7 0 10 -14 33 -30 51
-30 33 -56 46 -28 15 8 -10 18 -30 22 -46 6 -25 5 -26 -13 -16 -10 7 -26 25
-35 41 -10 15 -22 28 -27 28 -6 0 -35 20 -66 45 -50 41 -65 49 -85 47 -3 -1
-25 20 -47 46 -23 26 -56 63 -74 82 -18 19 -22 26 -10 16 34 -29 40 -11 7 22
-16 16 -36 37 -44 47 -14 18 -14 18 9 3 13 -9 29 -14 35 -12 7 3 21 -4 31 -16
10 -11 23 -20 29 -20 6 0 5 5 -2 12 -7 7 -12 16 -12 22 0 6 5 5 12 -2 20 -20
32 -13 14 7 -10 10 -13 22 -8 25 11 6 36 -16 87 -78 20 -25 42 -46 47 -46 6 0
22 -8 36 -18 15 -10 36 -22 47 -26 34 -12 -3 19 -54 47 -25 12 -47 29 -49 36
-2 7 13 2 34 -13 21 -14 43 -26 48 -26 18 0 -21 34 -59 52 -75 34 -135 100
-135 149 0 15 -3 35 -6 44 -6 14 -8 13 -21 -5 -8 -11 -22 -20 -31 -20 -10 0
-25 -8 -33 -17 -8 -10 -39 -40 -67 -66 -29 -27 -50 -52 -47 -57 3 -6 -1 -7
-10 -4 -9 4 -25 -2 -38 -14 -14 -13 -35 -20 -61 -20 -33 0 -57 -13 -55 -32 0
-3 33 -40 73 -84 66 -70 76 -77 95 -67 16 9 20 9 15 -2 -2 -7 13 -33 34 -58
118 -136 225 -309 191 -309 -5 0 -9 7 -9 15 0 8 -14 40 -31 70 -44 79 -65 87
-35 14 l14 -34 -35 -1 c-28 -1 -42 6 -69 35 -18 20 -34 42 -34 48 0 7 -8 31
-17 53 -19 43 -47 53 -58 20 -4 -11 -15 -20 -26 -20 -13 0 -25 -11 -34 -33 -7
-17 -22 -37 -33 -44 -17 -10 -23 -8 -44 15 -44 48 -76 109 -43 82 8 -7 15 -8
15 -3 0 14 -57 114 -81 143 -20 24 -21 25 -16 3 3 -13 1 -23 -3 -23 -5 0 -12
16 -16 35 -7 41 -7 41 -57 50 -37 7 -38 7 -31 -20 5 -22 4 -26 -12 -23 -14 2
-19 -4 -20 -27 -2 -16 -5 -43 -9 -60 -5 -28 -5 -28 9 -10 14 18 15 11 14 -75
0 -134 -14 -158 -23 -43 -5 59 -12 91 -19 90 -7 -1 -11 17 -11 51 0 129 -35
-8 -42 -165 -5 -99 -3 -116 13 -140 11 -16 24 -41 31 -58 6 -16 12 -24 12 -16
1 21 28 -5 35 -34 4 -14 11 -25 16 -25 15 0 12 23 -6 49 -11 15 -13 26 -6 33
15 15 29 2 43 -40 6 -20 29 -71 49 -112 37 -75 62 -140 41 -110 -5 8 -26 15
-45 16 -20 0 -36 0 -36 0 0 -1 9 -26 20 -56 26 -74 83 -125 154 -140 29 -6 62
-17 72 -25 18 -13 18 -14 1 -21 -11 -4 -63 -4 -118 -1 -173 11 -322 76 -418
183 -26 30 -68 67 -92 83 -107 68 -194 190 -229 323 -41 149 16 356 127 466
47 46 51 52 31 52 -19 0 -20 2 -8 10 8 5 26 10 40 10 35 0 53 19 38 37 -7 9
-8 17 -1 24 7 7 14 5 22 -4 10 -13 17 -13 54 0 23 8 47 19 52 25 7 8 6 9 -3 4
-7 -4 -19 -2 -27 4 -14 12 -16 10 -14 -6 1 -9 -23 -24 -38 -24 -9 0 -9 8 -1
33 13 39 27 58 42 56 23 -3 36 1 36 12 0 8 -5 8 -15 -1 -38 -31 12 49 53 86
21 19 22 24 10 43 -12 20 -10 25 16 47 18 16 37 24 50 21 12 -3 29 -2 39 2 17
6 17 8 4 19 -10 9 -17 10 -22 2 -8 -13 -35 -13 -35 0 0 6 6 10 14 10 8 0 16 6
19 13 3 9 7 9 20 -2 10 -7 18 -11 18 -7 1 3 2 10 3 16 0 5 10 16 21 24 14 11
16 15 6 16 -10 0 -7 7 9 25 19 20 26 23 39 13 9 -7 13 -9 9 -4 -3 4 5 21 20
37 19 22 28 26 34 17 6 -10 10 -7 14 8 3 12 17 27 31 33 22 10 24 9 18 -9 -3
-11 -2 -20 4 -20 5 0 13 9 16 20 5 15 15 20 39 20 18 0 36 3 39 7 11 10 104
43 182 63 39 10 102 28 140 40 39 12 79 24 90 28 11 3 34 14 50 24 17 10 42
18 57 18 15 0 29 4 32 9 11 18 169 4 238 -22z m-4197 -17 c42 -26 70 -82 55
-110 -12 -23 -65 -27 -91 -7 -51 39 -54 132 -5 136 5 1 23 -8 41 -19z m1420
-25 c35 -35 33 -76 -6 -109 -38 -32 -55 -32 -100 -1 -52 34 -55 67 -12 105 42
38 84 39 118 5z m-2526 -158 c-21 -20 -35 -43 -37 -61 -1 -16 -9 -34 -18 -41
-9 -6 -15 -17 -12 -25 2 -7 23 7 56 38 29 28 47 53 42 55 -6 3 -5 4 2 2 7 -1
28 12 47 29 l34 31 -20 -30 c-18 -26 -107 -112 -154 -148 -52 -40 -93 -50 -63
-14 10 12 15 19 10 15 -5 -5 -14 2 -20 14 -23 45 -44 27 -65 -57 -6 -23 -20
-51 -32 -63 -27 -29 -36 -67 -29 -117 5 -34 7 -37 13 -18 5 14 14 20 23 16 8
-3 14 1 14 11 0 21 36 21 44 0 4 -11 1 -14 -13 -9 -15 4 -21 -1 -30 -26 -7
-20 -16 -29 -25 -26 -9 4 -14 -2 -13 -16 0 -12 -8 -52 -18 -88 -20 -72 -16
-110 10 -89 8 7 15 9 15 5 0 -4 6 -3 13 2 6 5 28 10 47 11 19 2 43 5 53 8 15
5 17 1 11 -23 -8 -33 -16 -40 -67 -54 -49 -13 -83 -8 -79 11 3 12 1 13 -10 2
-11 -11 -10 -15 4 -26 16 -12 21 -66 6 -66 -5 0 -8 -7 -8 -15 0 -22 23 -18 38
5 7 11 21 20 31 20 11 0 22 4 25 9 3 4 26 14 51 21 25 7 45 16 45 20 0 4 12
10 28 13 15 3 44 17 65 31 21 14 44 26 52 26 7 0 27 11 43 25 17 14 35 25 41
25 6 0 11 6 11 13 0 8 9 22 21 33 16 15 49 74 49 89 0 2 -21 -3 -47 -11 -25
-8 -48 -12 -50 -10 -3 2 6 7 18 11 34 11 52 33 46 55 -5 21 26 47 51 42 6 -2
12 4 12 13 0 9 -4 13 -10 10 -22 -13 -8 33 25 85 40 62 44 86 15 95 -19 6 -52
-15 -50 -32 2 -10 -33 -22 -44 -15 -5 3 -6 0 -2 -6 4 -7 -13 -24 -44 -43 -27
-17 -50 -36 -50 -42 0 -7 -20 -20 -45 -30 -25 -11 -45 -22 -45 -27 0 -4 -25
-24 -55 -44 -30 -20 -55 -35 -55 -33 0 2 36 32 80 67 44 35 80 66 80 69 0 4
12 14 28 23 15 9 49 37 75 62 27 26 53 46 58 46 10 0 60 34 93 63 11 9 24 17
29 17 5 0 6 -8 2 -17 -4 -10 -11 -36 -17 -58 -20 -86 -29 -115 -36 -111 -4 2
-7 -19 -8 -47 0 -29 -8 -68 -16 -87 -9 -19 -22 -52 -29 -72 -7 -20 -26 -50
-42 -68 -16 -17 -26 -37 -23 -45 4 -11 -2 -15 -18 -15 -14 0 -26 -3 -28 -7 -5
-13 -108 -73 -123 -73 -8 0 -17 -4 -20 -10 -3 -5 -15 -10 -26 -10 -11 0 -17
-4 -14 -10 3 -5 1 -10 -5 -10 -6 0 -28 -11 -50 -25 -22 -14 -48 -25 -58 -25
-10 0 -29 -11 -42 -25 -17 -18 -19 -25 -9 -25 8 0 19 4 25 10 5 5 27 12 49 15
21 2 43 9 49 15 5 5 19 10 30 10 10 0 40 12 64 26 25 15 55 28 66 29 12 1 26
3 31 4 6 1 3 6 -5 11 -10 6 -11 10 -3 10 7 0 27 16 44 35 18 19 36 32 41 28 6
-3 14 1 19 8 5 8 9 10 9 4 0 -5 -11 -23 -25 -39 -14 -17 -24 -35 -21 -42 3 -7
0 -15 -7 -18 -7 -4 0 -4 15 -1 15 3 30 0 34 -7 5 -7 2 -9 -8 -5 -18 6 -48 -21
-48 -44 0 -8 10 -14 24 -14 20 0 22 3 15 17 -8 14 -4 19 16 24 14 3 25 10 25
16 0 5 5 6 10 3 6 -3 10 1 10 9 0 9 -8 16 -17 17 -10 0 -13 3 -6 5 6 3 22 -2
35 -10 22 -14 24 -14 24 4 0 13 -10 20 -34 25 l-34 6 21 23 c11 12 21 30 21
38 0 9 6 23 13 30 7 7 29 35 50 62 29 38 37 44 37 28 0 -11 -5 -24 -10 -27 -6
-4 -7 -12 -3 -18 4 -7 8 -16 9 -22 0 -5 2 -16 2 -24 1 -7 8 -11 17 -7 8 3 15
1 15 -4 0 -6 -4 -10 -10 -10 -5 0 -10 -7 -10 -15 0 -21 10 -19 37 7 14 13 23
17 23 9 0 -7 6 -11 15 -8 8 4 17 1 21 -6 4 -7 4 -9 -1 -5 -9 8 -35 -9 -35 -23
0 -4 9 -7 20 -6 11 1 20 5 20 9 0 4 5 8 11 8 6 0 8 -7 5 -16 -3 -8 -2 -13 3
-10 4 3 6 34 4 68 -3 50 -14 83 -53 164 -52 106 -56 119 -40 129 6 4 7 -1 3
-10 -3 -10 -2 -20 4 -24 5 -3 22 -32 38 -63 16 -32 34 -58 40 -58 5 0 11 -23
13 -52 5 -81 17 -92 41 -35 23 54 25 61 13 53 -8 -5 -53 76 -78 139 -6 17 -15
38 -19 48 -6 13 -4 16 9 11 17 -7 22 11 6 21 -6 4 -7 11 -4 17 4 6 0 14 -7 19
-12 7 -12 9 0 9 8 0 23 -7 33 -17 15 -13 18 -14 18 -2 0 8 -5 20 -12 27 -7 7
-8 12 -2 12 17 0 76 -108 86 -158 10 -54 5 -106 -18 -159 -26 -59 -32 -76 -38
-105 -3 -15 -20 -49 -36 -76 -24 -38 -29 -53 -22 -72 6 -17 5 -35 -5 -57 -7
-18 -13 -36 -13 -39 1 -3 -21 -17 -48 -29 -27 -13 -53 -29 -58 -36 -6 -12 -5
-12 8 -1 11 9 18 10 23 2 7 -11 -9 -19 -36 -17 -11 0 -14 8 -11 26 4 25 4 25
-12 6 -18 -23 -21 -45 -6 -45 41 0 -33 -53 -90 -65 -19 -4 -51 -17 -70 -30
-60 -38 -121 -50 -191 -35 -52 11 -70 22 -119 67 -68 63 -90 105 -120 233 -22
97 -22 177 1 237 6 17 5 49 -5 102 -30 163 37 328 159 385 18 9 61 33 96 55
35 21 66 37 68 35 3 -3 -11 -19 -30 -37z m1186 -267 c3 -5 -1 -10 -9 -10 -9 0
-16 -4 -16 -10 0 -5 12 -10 26 -10 20 0 25 4 20 16 -5 13 -2 15 16 10 13 -3
31 -6 41 -6 10 0 15 -4 12 -10 -3 -5 -16 -10 -28 -10 -17 0 -19 -2 -8 -9 8 -5
29 -9 48 -9 19 0 37 -3 40 -6 3 -3 11 -2 17 3 23 19 202 -127 182 -147 -4 -4
-12 1 -17 11 -6 9 -17 17 -24 17 -8 0 -15 3 -15 8 0 4 -24 23 -53 42 -28 19
-54 38 -55 43 -2 4 -8 4 -14 1 -5 -3 3 -14 19 -24 47 -29 113 -92 160 -155 45
-59 99 -155 87 -155 -3 0 4 -12 15 -26 12 -15 21 -32 21 -38 0 -7 7 -21 15
-32 29 -37 5 35 -44 131 -25 50 -49 99 -54 109 -7 19 -7 19 12 2 11 -10 39
-56 62 -102 43 -85 56 -103 46 -61 -6 21 -5 21 8 4 18 -25 26 -97 20 -177 -2
-36 -5 -75 -5 -88 0 -13 -4 -20 -10 -17 -5 3 -6 20 -3 38 6 31 6 31 -11 14
-10 -10 -15 -24 -12 -34 4 -9 4 -24 1 -34 -6 -18 -8 -18 -38 5 -18 13 -41 26
-52 29 -34 9 -136 54 -146 64 -12 12 11 83 28 83 15 0 18 16 3 25 -5 3 -7 11
-4 18 2 7 -4 21 -15 31 -19 17 -21 17 -27 3 -4 -12 -11 -14 -24 -7 -9 5 -20 6
-24 2 -4 -3 -11 0 -15 7 -5 8 -14 10 -22 6 -9 -6 -5 -14 17 -32 l29 -23 -27 0
c-15 0 -30 -4 -33 -10 -3 -5 -15 -10 -26 -10 -10 0 -19 -4 -19 -10 0 -17 -17
-11 -48 15 -17 14 -36 25 -42 25 -7 0 -27 10 -44 23 -43 31 -83 48 -101 41 -8
-4 -17 1 -21 10 -3 9 -12 16 -20 16 -8 0 -13 5 -11 12 2 11 -41 24 -112 33
-52 7 -120 38 -127 58 -3 9 -9 17 -13 17 -5 0 -6 11 -3 25 2 14 -3 36 -13 51
-17 26 -17 27 28 72 38 37 52 45 80 44 19 -1 43 5 53 13 18 13 18 14 -3 8 -36
-9 -27 5 14 22 29 12 47 14 82 6 34 -7 47 -6 58 5 8 8 21 14 28 14 8 0 18 6
22 14 12 21 87 33 98 16z m1003 -508 c13 -16 13 -16 8 1 -9 28 20 20 43 -12
26 -37 103 -61 134 -42 16 10 21 10 28 -1 7 -9 11 -10 17 -2 12 19 126 -6 156
-35 26 -24 26 -24 49 -5 42 36 65 45 71 28 9 -24 7 -46 -4 -39 -6 4 -10 -9
-10 -33 0 -34 -4 -40 -39 -59 l-39 -21 -5 28 c-5 21 -12 28 -31 28 -13 0 -37
9 -53 21 -24 19 -35 22 -83 16 -30 -3 -71 -5 -90 -5 -19 1 -65 1 -102 1 -40 0
-68 5 -68 11 0 6 -11 8 -26 5 -27 -5 -41 11 -31 37 5 12 13 11 47 -5 37 -18
48 -19 91 -9 27 7 49 17 49 23 0 6 -3 7 -6 4 -4 -3 -15 -2 -25 4 -10 5 -42 14
-70 19 -57 11 -80 25 -73 44 7 18 46 17 62 -2z m-1141 -194 c21 -27 5 -50 -28
-43 -27 6 -28 6 -16 -24 12 -32 21 -38 32 -21 10 16 25 12 25 -7 1 -11 9 -3
20 19 11 20 25 40 30 43 16 10 40 -14 40 -40 0 -18 -7 -25 -30 -30 -16 -4 -30
-11 -30 -16 0 -5 -20 -8 -44 -5 -31 2 -47 -1 -50 -10 -3 -8 -19 -14 -36 -14
-37 0 -40 22 -10 80 11 22 20 45 20 53 0 34 55 45 77 15z m-147 -97 c15 -30
12 -49 -10 -56 -26 -8 -26 -40 0 -58 13 -9 19 -23 18 -38 -2 -15 2 -23 10 -21
15 3 16 -14 0 -24 -6 -4 -14 -2 -16 4 -2 7 -8 12 -14 12 -19 0 -39 30 -33 50
8 24 -11 26 -39 5 -11 -8 -29 -15 -39 -15 -16 0 -17 2 -7 15 17 20 11 24 -22
18 -31 -6 -37 -20 -13 -29 8 -4 15 -13 15 -21 0 -10 7 -14 20 -10 20 5 28 -7
10 -18 -5 -3 -7 -12 -3 -20 7 -21 -17 -18 -44 4 -35 29 -47 70 -28 91 9 10 13
24 9 35 -6 15 -2 16 35 10 33 -5 46 -3 62 11 10 9 19 23 19 30 0 13 37 44 52
44 4 0 12 -9 18 -19z m787 -70 c8 -13 26 -21 50 -23 30 -2 37 -7 35 -20 -2
-10 2 -18 8 -18 5 0 10 -7 10 -15 0 -8 4 -15 8 -15 4 0 16 -14 26 -31 18 -30
18 -30 -3 -36 -25 -6 -27 -16 -6 -33 12 -10 16 -8 25 15 5 14 10 31 10 36 0
16 10 10 37 -21 24 -29 56 -39 68 -21 3 5 -5 11 -17 13 -12 2 -23 9 -26 17 -3
8 0 11 7 7 6 -4 18 0 27 8 20 21 84 22 84 1 0 -8 -9 -20 -20 -27 -34 -22 -24
-38 24 -38 56 0 106 -10 106 -21 0 -5 -7 -9 -15 -9 -8 0 -15 -7 -15 -15 0 -11
7 -14 25 -9 14 3 25 2 24 -2 -4 -23 2 -26 15 -8 11 14 17 16 27 7 9 -9 6 -14
-10 -25 -13 -8 -21 -23 -20 -38 0 -15 3 -19 6 -10 9 23 25 30 44 19 11 -6 20
-5 24 1 10 15 35 12 35 -5 0 -8 7 -15 15 -15 9 0 15 -6 14 -12 -3 -29 2 -40
16 -34 10 4 15 -1 15 -15 0 -15 5 -19 15 -15 8 3 21 -2 30 -10 9 -9 15 -11 15
-4 0 13 41 3 52 -13 4 -7 11 -5 20 4 21 24 39 59 29 59 -5 0 -11 -6 -14 -12
-2 -7 -8 -10 -12 -6 -5 5 -3 19 3 33 10 21 16 24 39 19 36 -9 39 -12 25 -26
-9 -9 -8 -16 5 -30 15 -17 15 -19 -3 -33 -10 -8 -29 -13 -42 -11 -18 3 -20 1
-10 -11 6 -8 22 -13 35 -10 13 2 23 0 23 -4 0 -18 18 -8 24 14 6 20 7 21 20 5
8 -11 16 -14 22 -8 13 13 49 -13 40 -28 -4 -7 -12 -12 -17 -12 -6 0 -8 4 -5 8
6 10 -36 8 -52 -2 -7 -4 -16 -4 -22 -1 -5 3 -10 1 -10 -5 0 -7 -6 -10 -13 -7
-8 3 -20 2 -27 -3 -9 -6 -7 -11 10 -20 18 -10 24 -9 31 1 7 11 9 11 9 -2 0
-19 -23 -31 -44 -23 -8 3 -17 1 -21 -5 -3 -6 -17 -11 -31 -11 -18 0 -24 -5
-24 -21 0 -15 5 -19 15 -15 20 7 19 -4 -5 -34 -15 -20 -21 -23 -31 -12 -7 6
-9 12 -5 12 5 0 3 6 -3 14 -6 8 -11 18 -10 22 1 5 1 16 0 24 -2 10 -5 8 -11
-6 -11 -27 -116 -68 -124 -48 -3 8 -12 11 -21 8 -8 -3 -15 -1 -15 5 0 6 10 11
23 11 23 1 57 21 57 35 0 4 -9 5 -21 2 -24 -6 -37 17 -20 37 8 9 8 17 2 20 -5
3 -12 0 -14 -6 -3 -8 -6 -5 -6 5 -1 13 -6 17 -20 12 -14 -4 -23 0 -31 15 -6
11 -15 20 -21 20 -6 0 -7 -6 -2 -12 14 -23 13 -54 -2 -73 -13 -18 -14 -18 -15
-3 0 10 -9 23 -19 30 -11 7 -17 18 -13 27 5 14 3 14 -14 0 -13 -11 -25 -14
-39 -9 -11 5 -15 9 -9 9 7 1 15 8 18 17 4 9 2 13 -5 8 -6 -4 -15 0 -20 7 -8
11 -12 10 -24 -6 -14 -17 -17 -18 -31 -3 -15 15 -15 17 5 27 16 9 26 9 42 0
22 -11 38 0 39 27 0 7 7 15 16 18 13 5 14 9 4 21 -10 13 -9 19 9 34 19 17 21
23 11 41 -9 16 -15 19 -24 10 -14 -11 -46 -4 -46 11 0 5 -5 9 -11 9 -6 0 1
-14 16 -32 23 -27 24 -33 12 -46 -13 -12 -18 -12 -38 1 -26 17 -44 7 -44 -23
0 -10 -8 -14 -27 -12 -27 3 -38 -11 -18 -23 18 -11 11 -35 -10 -35 -11 0 -20
4 -20 9 0 5 -8 7 -18 4 -13 -3 -21 6 -32 34 -8 21 -14 44 -14 51 1 6 -2 12 -7
12 -5 0 -9 -4 -9 -9 0 -5 -9 -12 -20 -15 -11 -3 -29 -9 -40 -12 -18 -5 -19 -3
-9 19 6 14 20 27 30 30 12 3 16 11 12 26 -6 25 -7 25 -37 6 -19 -12 -25 -13
-40 -2 -16 12 -17 16 -5 34 10 17 10 25 -2 45 -8 12 -13 35 -11 51 3 21 9 27
28 27 13 0 24 5 24 10 0 6 -16 10 -35 10 -19 0 -35 -5 -35 -11 0 -7 -9 -9 -21
-6 -11 3 -27 3 -35 0 -12 -4 -12 -8 -2 -21 11 -13 10 -15 -5 -9 -14 5 -16 2
-11 -19 6 -25 5 -26 -27 -19 -19 4 -39 13 -45 21 -8 10 -21 13 -37 9 -37 -10
-43 12 -13 44 14 15 26 31 26 37 1 13 85 54 111 54 12 0 23 -8 26 -20 6 -23
10 -24 27 -7 10 10 5 17 -26 37 -33 21 -36 26 -21 32 26 10 27 10 40 -11z
m-589 -3 c-2 -7 12 -20 30 -29 18 -10 41 -24 51 -33 19 -17 36 -22 27 -7 -4 5
0 11 6 14 14 4 42 -9 72 -35 19 -18 49 -19 63 -3 5 4 -2 5 -15 2 -21 -5 -20
-2 11 28 28 27 42 33 71 32 26 -1 36 -6 34 -17 -1 -8 6 -27 15 -41 17 -25 14
-59 -4 -59 -5 0 -9 -4 -9 -10 0 -5 6 -10 13 -10 22 0 19 -75 -4 -96 -22 -20
-25 -39 -5 -31 8 3 17 -1 20 -9 9 -25 7 -36 -6 -28 -18 12 -58 11 -58 -1 0 -5
5 -17 11 -25 8 -11 12 -12 16 -2 6 16 20 15 26 -2 7 -18 -28 -60 -42 -51 -6 3
-11 13 -11 22 0 12 -3 13 -13 4 -18 -14 -30 -2 -16 16 6 7 8 13 5 13 -22 0
-103 -25 -116 -35 -8 -7 -26 -16 -39 -20 -14 -4 -19 -11 -14 -16 11 -11 83 16
83 31 0 5 7 7 15 4 22 -9 19 -35 -2 -27 -15 5 -14 3 2 -10 19 -14 19 -16 2
-22 -9 -4 -28 -4 -41 -1 -18 4 -32 -1 -53 -20 l-28 -26 -17 22 c-10 12 -18 31
-18 41 0 26 -13 24 -25 -3 -13 -29 -50 -31 -50 -3 0 14 -9 21 -30 25 -52 10 3
18 65 10 66 -9 92 0 62 21 -15 11 -19 23 -16 48 3 24 -1 38 -14 47 -24 19 -30
17 -34 -8 -3 -26 -43 -33 -43 -8 0 9 7 14 18 12 9 -2 17 2 17 8 0 5 -7 10 -16
10 -8 0 -12 5 -9 10 3 6 -3 10 -14 10 -14 0 -19 -5 -15 -15 4 -10 0 -15 -13
-15 -10 0 -24 -5 -30 -11 -8 -8 -14 -5 -22 10 -7 12 -18 21 -26 21 -8 0 -12 6
-9 14 6 16 -26 27 -56 19 -21 -6 -27 -19 -10 -25 6 -2 13 -19 16 -38 8 -49
-31 -96 -71 -86 -33 8 -31 42 3 39 14 -2 22 3 22 12 0 8 7 15 15 15 8 0 15 7
15 15 0 24 -47 19 -53 -6 -5 -17 -11 -20 -31 -15 -15 4 -26 1 -29 -7 -4 -7 -6
-6 -6 5 -1 23 -34 16 -46 -10 -7 -15 -19 -22 -37 -22 -21 0 -28 -5 -28 -18 0
-11 -10 -24 -22 -30 -21 -9 -21 -11 -4 -11 11 -1 28 6 38 16 17 15 18 15 18 0
0 -10 7 -17 16 -17 8 0 12 -4 9 -10 -3 -5 -1 -10 4 -10 13 0 15 -47 2 -54 -10
-6 -3 -44 10 -62 11 -13 -11 -74 -27 -74 -6 0 -17 7 -24 15 -15 18 2 45 28 45
13 0 12 3 -3 20 -10 11 -22 20 -26 20 -19 0 -54 -47 -51 -68 2 -12 -1 -22 -7
-22 -6 0 -10 5 -9 11 2 6 -2 13 -8 16 -15 5 -28 -29 -14 -37 6 -4 -3 -7 -19
-7 -17 0 -28 4 -25 9 3 5 -13 31 -36 58 -35 42 -40 52 -30 70 13 24 30 26 30
3 0 -9 3 -13 6 -10 10 9 11 48 3 79 -5 17 -3 29 4 32 7 2 -7 5 -29 5 -29 1
-44 -4 -48 -14 -3 -8 -15 -15 -26 -15 -11 0 -20 -4 -20 -10 0 -5 7 -10 17 -10
9 0 13 -3 9 -7 -6 -7 -20 -8 -87 -12 -18 -1 -28 -8 -32 -21 -3 -11 -12 -20
-21 -20 -14 0 -15 4 -6 20 8 16 8 20 -4 20 -15 0 -29 27 -20 41 3 5 14 9 24 9
14 0 18 6 15 25 -3 36 16 26 30 -15 6 -19 17 -36 23 -38 8 -2 10 3 5 14 -4 12
-3 15 5 10 7 -4 12 -2 12 3 0 6 7 11 16 11 8 0 12 5 8 11 -4 8 -9 8 -17 0 -19
-19 -37 -12 -37 14 0 16 6 25 15 25 8 0 15 5 15 10 0 6 -7 10 -16 10 -8 0 -13
4 -10 9 3 4 -1 17 -9 27 -20 27 -18 36 8 32 17 -2 22 -9 22 -31 -1 -18 3 -26
12 -23 14 6 36 -27 26 -38 -3 -3 3 -6 13 -6 11 0 25 -5 31 -11 15 -15 33 -3
33 22 0 10 5 19 10 19 6 0 10 8 10 19 0 29 -49 35 -59 7 -8 -21 -8 -21 -15 2
-9 27 9 53 30 45 21 -8 17 10 -6 30 -17 15 -20 15 -20 1 0 -10 -7 -14 -22 -12
-17 2 -23 10 -23 28 0 20 5 25 23 23 12 -2 22 2 22 7 0 13 41 29 58 23 6 -3
12 -12 12 -20 0 -26 55 -113 72 -113 4 0 0 16 -8 35 l-14 35 37 0 c25 0 33 3
24 9 -9 6 -10 11 -2 15 6 4 9 12 6 17 -4 5 -2 9 3 9 5 0 12 9 15 20 3 13 -1
21 -14 25 -29 10 -12 35 22 31 17 -2 31 -5 32 -7 2 -2 9 -13 17 -24 14 -19 14
-19 -3 -6 -23 18 -34 6 -15 -16 9 -10 19 -34 23 -53 7 -29 9 -32 15 -15 7 19
7 19 14 -2 4 -13 18 -24 37 -28 33 -8 52 1 25 11 -20 8 -21 24 -1 24 8 0 15
-4 15 -10 0 -5 4 -10 10 -10 5 0 7 7 4 15 -4 8 -1 15 4 15 6 0 13 -9 17 -20 5
-16 10 -18 31 -8 26 12 34 34 8 24 -19 -7 -43 19 -44 47 0 9 -7 17 -15 17 -18
0 -20 21 -4 37 16 16 59 -5 59 -29 0 -13 8 -18 29 -18 32 0 47 30 30 62 -5 10
-7 23 -4 28 3 5 1 12 -5 15 -18 11 10 35 41 35 49 0 47 -31 -4 -44 -15 -4 -25
-11 -22 -16 4 -7 13 -6 25 0 24 13 33 13 25 0 -3 -5 -1 -10 4 -10 6 0 11 7 11
15 0 8 7 15 16 15 11 0 14 -6 9 -20 -5 -16 -2 -20 17 -21 13 -1 29 -1 36 0 6
1 12 -5 12 -14 0 -8 7 -15 15 -15 25 0 17 19 -16 36 -23 11 -28 19 -20 27 6 6
11 21 11 32 0 19 7 35 17 35 2 0 2 -5 1 -12z m1667 -138 c10 -11 26 -20 36
-20 27 0 49 -11 49 -25 0 -7 -12 -12 -26 -12 -30 0 -44 -17 -37 -44 6 -23 -5
-24 -35 -3 -12 8 -22 10 -22 5 0 -6 -6 -11 -14 -11 -8 0 -16 -6 -19 -14 -4
-10 -15 -12 -49 -5 -24 4 -47 8 -51 9 -17 0 -1 45 17 48 15 3 18 0 14 -16 -4
-15 -2 -19 8 -15 8 3 14 13 14 23 0 10 11 27 25 38 14 11 25 29 25 41 0 28 40
28 65 1z m-904 -381 c11 -6 34 -11 50 -11 35 -1 45 -13 29 -34 -10 -11 -8 -19
14 -40 25 -26 36 -51 17 -39 -10 5 -41 -21 -41 -35 0 -4 7 -10 15 -14 18 -7
20 -43 3 -49 -10 -4 -10 -7 0 -18 17 -18 15 -30 -4 -22 -8 3 -22 23 -31 44
-14 37 -25 44 -65 40 -9 -1 -19 3 -23 9 -4 7 -11 5 -21 -5 -19 -18 -46 -20
-42 -2 1 6 -6 25 -17 41 -15 22 -16 31 -7 34 16 5 -3 32 -23 32 -23 0 -34 24
-21 43 16 21 26 22 26 2 0 -8 5 -15 10 -15 6 0 10 -7 10 -15 0 -9 9 -15 25
-15 16 0 25 6 25 16 0 9 8 14 18 13 33 -3 52 1 52 12 0 6 -7 9 -15 6 -16 -7
-29 8 -20 23 8 13 12 13 36 -1z m-311 -100 c0 -6 -7 -8 -16 -5 -10 4 -14 1
-11 -6 2 -7 12 -12 21 -12 9 1 16 -3 15 -10 -1 -6 1 -24 6 -40 7 -26 4 -33
-26 -57 -39 -33 -56 -35 -87 -13 -17 11 -22 25 -22 56 0 44 19 67 56 68 12 0
24 7 28 15 6 17 36 20 36 4z"/>
<path d="M3041 4285 c-29 -25 -43 -57 -55 -122 l-5 -33 104 0 104 0 6 33 c9
45 -11 113 -38 132 -33 23 -81 19 -116 -10z"/>
<path d="M11634 5838 c-4 -7 -8 -23 -9 -37 0 -13 -6 -26 -13 -29 -7 -2 -12
-12 -12 -23 0 -10 -5 -19 -11 -19 -8 0 -8 -5 1 -15 7 -8 21 -15 31 -15 11 0
19 -7 19 -15 0 -21 10 -18 50 15 32 27 33 29 13 30 -13 0 -23 6 -23 14 0 23
26 26 43 5 9 -10 13 -19 9 -19 -4 0 2 -7 12 -15 14 -11 17 -18 9 -26 -7 -7 -4
-18 12 -35 26 -28 60 -31 73 -8 6 11 11 13 16 5 5 -8 13 -8 27 -1 18 10 19 8
14 -13 -8 -30 25 -57 70 -57 20 0 26 -3 17 -9 -11 -7 -10 -10 3 -15 23 -8 27
-8 20 4 -7 11 23 2 42 -12 7 -6 16 -7 21 -4 5 3 28 -3 50 -14 49 -24 85 -26
102 -5 9 11 17 12 32 4 15 -8 24 -7 39 7 35 31 24 45 -30 40 -36 -4 -53 -1
-61 9 -7 8 -19 15 -26 15 -19 0 -18 -29 1 -36 8 -4 15 -11 15 -17 0 -5 -8 -3
-17 5 -10 9 -29 19 -43 22 -27 8 -46 15 -103 40 -21 9 -46 16 -55 16 -23 0
-42 19 -42 40 0 9 -8 25 -19 34 -18 16 -19 16 -25 -7 -7 -30 -40 -38 -84 -20
-34 14 -39 22 -20 41 15 15 -7 42 -34 42 -24 0 -88 48 -88 66 0 18 -17 27 -26
12z"/>
<path d="M13006 5462 c-4 -10 -21 -29 -39 -42 l-32 -25 30 -5 c17 -4 35 -2 42
2 12 10 100 -39 89 -49 -2 -3 -26 2 -52 11 -63 21 -96 20 -117 -4 -10 -12 -22
-18 -27 -15 -5 3 -23 -20 -39 -52 l-29 -58 74 -36 c68 -33 74 -35 74 -17 0 11
5 18 12 16 38 -13 34 -83 -6 -98 -13 -5 -27 -13 -30 -19 -4 -5 -30 -15 -59
-21 -50 -10 -115 -39 -90 -40 6 0 40 9 75 20 34 11 64 20 66 20 1 0 2 -11 2
-25 0 -14 7 -28 15 -32 23 -8 31 5 17 27 -17 27 -15 37 8 43 13 3 25 -2 33
-13 18 -25 72 -31 71 -7 -1 9 4 17 12 17 8 0 14 5 14 10 0 6 -4 10 -9 10 -16
0 -22 32 -9 48 10 13 10 14 0 8 -9 -6 -10 -2 -1 17 20 44 -47 126 -71 87 -4
-7 -13 -9 -20 -5 -8 5 -7 12 6 26 25 28 8 36 -20 10 -14 -13 -22 -30 -19 -38
5 -12 -4 -13 -48 -8 -81 10 -81 10 -56 48 31 49 102 67 142 36 6 -4 30 -3 54
2 23 5 48 9 54 8 31 -4 47 3 47 19 0 23 -19 42 -42 42 -10 0 -18 5 -18 10 0 6
-10 10 -22 10 -13 0 -33 3 -46 6 -18 5 -20 9 -10 21 9 11 9 16 -2 23 -8 5 -11
13 -6 17 5 4 11 2 13 -4 3 -7 12 -13 20 -13 13 0 13 3 3 15 -17 21 -47 19 -54
-3z"/>
<path d="M12172 5291 c-10 -6 -11 -20 -7 -47 11 -61 16 -75 26 -68 7 4 8 -18
4 -64 -7 -63 -5 -73 16 -102 26 -35 178 -160 194 -160 6 1 1 8 -10 18 -11 9
-29 31 -39 47 -11 17 -28 36 -38 43 -10 7 -16 17 -13 21 2 5 0 23 -5 41 -7 25
-5 40 10 71 22 42 26 79 10 79 -6 0 -14 -8 -17 -17 -9 -26 -24 -33 -38 -20
-10 10 -8 21 11 55 13 23 24 58 24 77 0 30 -3 35 -23 35 -13 0 -28 -5 -35 -12
-9 -9 -15 -9 -24 0 -14 14 -28 15 -46 3z"/>
<path d="M13083 4910 c-18 -11 -33 -24 -33 -30 0 -15 -26 -12 -43 5 -14 13
-19 13 -51 0 -19 -8 -62 -15 -96 -15 -56 0 -60 -2 -59 -22 1 -13 -1 -30 -5
-39 -6 -13 5 -15 86 -15 84 1 97 4 138 30 40 25 110 90 110 102 0 9 -16 3 -47
-16z"/>
</g>
</svg>
