<?xml version="1.0" standalone="no"?>
<!DOCTYPE svg PUBLIC "-//W3C//DTD SVG 20010904//EN"
 "http://www.w3.org/TR/2001/REC-SVG-20010904/DTD/svg10.dtd">
<svg version="1.0" xmlns="http://www.w3.org/2000/svg"
 width="1903.000000pt" height="748.000000pt" viewBox="0 0 1903.000000 748.000000"
 preserveAspectRatio="xMidYMid meet">
<metadata>
Created by potrace 1.16, written by Peter Selinger 2001-2019
</metadata>
<g transform="translate(0.000000,748.000000) scale(0.100000,-0.100000)"
fill="#000000" stroke="none">
<path d="M0 3740 l0 -3740 2434 0 c1938 0 2435 3 2439 13 4 9 6 9 6 0 1 -10
679 -13 3262 -13 2597 0 3260 3 3256 13 -2 6 8 23 22 37 14 14 38 41 54 59 15
18 27 30 27 27 0 -10 -50 -79 -70 -96 -11 -9 -20 -22 -20 -29 0 -8 1012 -11
3810 -11 l3810 0 0 3740 0 3740 -1705 0 c-1681 0 -1705 0 -1755 -20 -28 -11
-58 -20 -68 -20 -9 1 0 7 21 15 21 7 42 16 45 20 8 8 -201 0 -238 -9 -21 -5
-22 -5 -5 3 13 6 -1936 10 -5312 10 l-5332 1 -15 -27 c-8 -16 -15 -24 -16 -20
0 5 5 17 10 28 11 19 -19 19 -2325 19 l-2335 0 0 -3740z m5062 573 c59 -34
101 -91 117 -161 l9 -43 -86 3 -86 3 -8 33 c-12 46 -60 74 -116 69 -88 -9
-121 -72 -122 -232 0 -95 3 -117 23 -155 28 -58 74 -83 139 -77 67 6 78 18 78
88 l0 59 -60 0 -60 0 0 55 0 55 150 0 150 0 0 -150 0 -150 -37 -24 c-59 -39
-121 -57 -214 -63 -106 -7 -178 12 -236 62 -82 70 -113 152 -113 302 0 132 27
211 96 280 67 67 118 84 236 79 74 -3 95 -8 140 -33z m1311 2 c97 -56 154
-157 164 -292 18 -237 -110 -403 -312 -403 -158 0 -272 100 -305 268 -15 76
-8 186 16 262 14 40 33 70 74 111 72 73 118 90 231 85 72 -3 94 -8 132 -31z
m645 19 c92 -30 163 -111 178 -201 l7 -43 -86 0 -85 0 -11 45 c-18 71 -90 102
-163 72 -52 -22 -70 -63 -76 -173 -10 -187 17 -262 100 -278 67 -13 118 14
136 72 l14 42 84 0 c94 0 92 2 69 -77 -31 -104 -143 -173 -281 -173 -203 0
-320 160 -301 410 13 167 85 270 217 311 44 13 146 10 198 -7z m2649 5 c40
-15 91 -67 104 -107 24 -72 -13 -160 -88 -212 -18 -13 -33 -25 -33 -29 1 -14
99 -115 106 -108 4 3 9 29 12 57 l5 51 71 -3 71 -3 -3 -55 c-2 -34 -14 -79
-32 -117 l-28 -61 49 -55 c27 -30 49 -58 49 -61 0 -3 -39 -6 -87 -6 -64 0 -91
4 -104 15 -15 15 -22 14 -78 -5 -108 -36 -218 -24 -287 33 -45 38 -64 81 -64
149 0 62 20 100 78 148 l39 34 -28 54 c-43 81 -35 174 19 236 43 48 160 71
229 45z m986 -3 c86 -31 145 -94 154 -165 l6 -41 -87 0 c-68 0 -86 3 -86 14 0
8 -11 28 -24 43 -21 24 -32 28 -74 28 -59 0 -92 -24 -92 -66 0 -33 32 -61 98
-85 209 -76 268 -134 260 -259 -5 -77 -35 -122 -105 -156 -41 -21 -63 -24
-153 -24 -89 0 -113 4 -158 24 -78 35 -142 119 -142 187 0 23 2 24 90 24 l90
0 0 -28 c0 -18 10 -38 25 -52 21 -20 37 -24 86 -25 52 0 64 3 80 24 22 27 24
59 4 85 -8 10 -62 38 -120 61 -132 52 -190 92 -215 148 -25 55 -25 100 1 154
24 50 63 81 134 105 60 21 175 23 228 4z m3652 -10 c85 -41 122 -85 135 -156
l7 -40 -88 0 c-71 0 -89 3 -89 14 0 8 -11 28 -24 43 -21 24 -32 28 -74 28 -59
0 -92 -24 -92 -66 0 -33 32 -61 98 -85 202 -72 262 -129 262 -244 0 -135 -110
-210 -289 -197 -94 6 -169 36 -211 84 -34 38 -60 94 -60 129 0 23 2 24 90 24
l90 0 0 -28 c0 -39 31 -69 79 -77 77 -13 131 16 131 70 0 35 -34 61 -134 99
-53 21 -117 52 -144 69 -54 37 -92 101 -92 158 0 44 36 115 72 142 80 59 244
76 333 33z m-8618 -1 c62 -19 128 -85 139 -139 19 -105 -11 -197 -81 -244
l-31 -22 73 -145 74 -145 -95 0 -94 0 -63 125 -64 125 -42 0 -43 0 0 -125 0
-125 -90 0 -90 0 0 355 0 355 178 0 c130 0 192 -4 229 -15z m2093 -50 l0 -65
-160 0 -160 0 0 -75 0 -75 135 0 135 0 0 -65 0 -65 -135 0 -135 0 0 -85 0 -85
160 0 160 0 0 -65 0 -65 -250 0 -250 0 0 355 0 355 250 0 250 0 0 -65z m458
50 c60 -18 119 -66 138 -112 8 -18 14 -60 14 -95 0 -78 -27 -137 -79 -171
l-38 -25 74 -146 74 -146 -95 0 -94 0 -63 125 -64 125 -42 0 -43 0 0 -125 0
-125 -90 0 -90 0 0 355 0 355 173 0 c127 0 187 -4 225 -15z m425 -122 c32 -76
61 -144 66 -151 5 -9 30 39 71 137 l63 151 93 0 93 0 -12 -27 c-7 -16 -59
-119 -115 -230 l-102 -203 0 -125 0 -125 -87 0 -88 0 3 121 3 121 -115 228
c-64 126 -116 231 -116 234 0 3 42 6 93 6 l92 0 58 -137z m2789 72 l-4 -65
-104 0 -104 0 0 -290 0 -290 -85 0 -85 0 0 290 0 290 -104 0 -104 0 -4 65 -3
65 300 0 300 0 -3 -65z m480 -175 c92 -247 157 -423 165 -453 5 -16 -2 -18
-88 -15 l-93 3 -20 63 -20 62 -116 0 -116 0 -20 -62 -20 -63 -92 -3 c-51 -1
-92 -1 -92 2 0 7 250 689 257 699 2 4 41 6 86 5 l81 -3 88 -235z m658 204 c80
-45 113 -97 118 -184 5 -88 -9 -129 -63 -179 -55 -50 -122 -71 -232 -71 l-83
0 0 -120 0 -120 -90 0 -90 0 0 356 0 356 193 -4 192 -3 55 -31z m390 -254 l0
-290 150 0 150 0 0 -65 0 -65 -240 0 -240 0 0 355 0 355 90 0 90 0 0 -290z
m860 225 l0 -65 -160 0 -160 0 0 -75 0 -75 135 0 135 0 0 -65 0 -65 -135 0
-135 0 0 -85 0 -85 160 0 160 0 0 -65 0 -65 -250 0 -250 0 0 355 0 355 250 0
250 0 0 -65z m-1320 -1225 l0 -270 -3040 0 -3040 0 -2 188 c-1 103 -1 199 0
213 0 22 -3 25 -24 21 -14 -2 -24 0 -24 7 0 7 4 10 9 7 24 -15 41 7 41 55 l0
49 3040 0 3040 0 0 -270z"/>
<path d="M6174 4210 c-70 -28 -105 -190 -73 -339 28 -132 171 -162 231 -49 20
38 23 57 23 163 0 105 -3 125 -23 162 -33 63 -96 88 -158 63z"/>
<path d="M5460 4111 l0 -101 71 0 c65 0 73 2 100 29 38 38 40 97 5 138 -21 25
-31 28 -100 31 l-76 4 0 -101z"/>
<path d="M8020 4111 l0 -101 71 0 c65 0 73 2 100 29 38 38 40 97 5 138 -21 25
-31 28 -100 31 l-76 4 0 -101z"/>
<path d="M11722 4013 c-18 -60 -32 -111 -32 -115 0 -5 32 -8 70 -8 39 0 70 3
70 8 0 16 -65 222 -70 222 -3 0 -20 -48 -38 -107z"/>
<path d="M12328 4105 l-3 -105 77 0 c65 0 81 3 103 23 34 29 42 83 21 129 -22
45 -51 58 -131 58 l-64 0 -3 -105z"/>
</g>
</svg>
