<?xml version="1.0" standalone="no"?>
<!DOCTYPE svg PUBLIC "-//W3C//DTD SVG 20010904//EN"
 "http://www.w3.org/TR/2001/REC-SVG-20010904/DTD/svg10.dtd">
<svg version="1.0" xmlns="http://www.w3.org/2000/svg"
 width="380.000000pt" height="480.000000pt" viewBox="0 0 380.000000 480.000000"
 preserveAspectRatio="xMidYMid meet">
<metadata>
Created by potrace 1.16, written by Peter Selinger 2001-2019
</metadata>
<g transform="translate(0.000000,480.000000) scale(0.100000,-0.100000)"
fill="#000000" stroke="none">
<path d="M1878 4181 c10 -6 5 -10 -17 -14 -39 -8 -39 -22 0 -36 17 -6 28 -15
24 -21 -4 -7 -11 -7 -18 -2 -11 9 -114 10 -120 1 -1 -2 -10 -14 -21 -26 -17
-21 -17 -21 2 -16 15 3 20 0 19 -13 -1 -11 14 -26 45 -42 26 -13 45 -28 42
-33 -3 -5 -13 -5 -24 1 -10 5 -28 10 -40 10 -12 0 -18 5 -15 10 9 15 -2 12
-20 -6 -12 -13 -19 -14 -30 -4 -10 8 -15 9 -15 2 0 -23 69 -38 83 -18 6 7 7 5
4 -6 -6 -17 18 -33 34 -22 5 3 9 0 9 -5 0 -6 -6 -11 -12 -11 -17 0 66 -71 105
-90 16 -8 37 -26 46 -40 16 -24 15 -24 -21 4 -32 24 -40 26 -51 14 -7 -7 -12
-19 -9 -26 4 -14 -3 -15 -45 -3 -18 5 -35 6 -37 3 -2 -4 4 -25 15 -46 10 -22
17 -41 15 -44 -8 -7 -46 9 -41 18 3 4 -4 10 -15 13 -22 6 -31 -13 -26 -55 3
-27 -3 -32 -42 -31 -7 1 -11 -6 -10 -14 4 -21 -27 -25 -60 -7 -32 16 -46 18
-37 4 3 -5 0 -10 -8 -10 -8 0 -17 -9 -20 -20 -6 -21 9 -28 16 -7 5 17 34 -7
54 -47 15 -30 15 -31 -3 -14 -11 9 -38 22 -61 29 -24 7 -43 17 -43 23 0 6 -5
5 -12 -2 -10 -10 -10 -14 0 -21 24 -15 39 -56 30 -80 -5 -16 -4 -29 4 -39 8
-9 -1 -7 -19 6 -37 26 -43 27 -43 7 0 -24 -59 23 -76 60 -11 25 -13 25 -8 5 4
-14 14 -33 22 -43 14 -16 14 -19 2 -27 -14 -9 -6 -15 15 -10 5 1 7 -1 3 -5 -4
-4 -3 -18 2 -31 7 -18 6 -22 -6 -17 -10 4 -12 0 -8 -11 4 -11 1 -16 -10 -16
-9 0 -16 -4 -16 -10 0 -19 -27 -10 -55 20 -32 33 -45 38 -45 16 0 -30 -23 -27
-58 9 -35 35 -36 37 -19 50 13 9 17 21 13 37 -4 14 0 11 11 -10 14 -27 15 -35
4 -41 -8 -5 -10 -14 -7 -20 11 -17 24 -13 31 10 5 16 10 18 21 8 9 -8 14 -8
14 -1 0 6 -6 15 -14 19 -20 12 -54 82 -68 141 -14 57 -33 71 -67 50 -26 -16
-27 -28 -1 -35 21 -6 26 -18 11 -27 -5 -3 -15 1 -22 10 -8 9 -21 13 -35 10
-12 -3 -25 -1 -27 4 -3 6 -4 5 -3 -2 2 -7 13 -12 25 -11 13 2 20 -1 16 -7 -3
-6 -1 -10 5 -10 6 0 8 -4 5 -10 -4 -6 1 -7 12 -3 17 7 17 6 0 -21 -10 -15 -16
-30 -13 -34 3 -3 6 -1 6 5 0 6 7 13 15 17 9 3 15 0 15 -7 0 -22 -24 -48 -47
-49 -12 -1 -19 -7 -16 -15 8 -20 31 -16 43 8 16 28 36 9 38 -34 2 -66 -49 -89
-76 -34 -17 34 -27 111 -13 103 16 -10 14 7 -4 30 -14 18 -16 18 -26 1 -12
-20 -31 -13 -22 9 4 11 -4 9 -31 -7 -20 -11 -36 -26 -36 -32 0 -5 8 -3 18 6
22 20 28 21 30 5 2 -31 9 -48 18 -48 5 1 8 8 7 17 -1 11 2 12 10 4 7 -7 5 -16
-7 -30 -18 -20 -18 -20 2 -16 18 3 22 -3 27 -50 7 -49 9 -53 26 -45 23 13 36
-5 13 -18 -13 -7 -8 -11 22 -19 46 -11 65 -7 57 13 -4 10 2 13 23 12 29 -2 68
-34 59 -48 -3 -5 1 -10 7 -13 12 -4 1 -11 -39 -23 -7 -2 -13 -15 -13 -28 l0
-25 33 18 c17 11 71 36 118 56 48 20 96 45 107 56 24 22 36 25 27 7 -4 -7 4
-1 18 13 13 14 30 29 38 32 9 3 10 6 2 6 -9 1 -8 10 4 35 9 19 21 32 28 30 6
-3 18 2 25 11 7 8 17 15 23 15 6 0 18 7 27 15 14 13 19 12 44 -10 15 -13 25
-29 21 -34 -3 -6 0 -11 7 -11 17 0 48 -35 48 -55 0 -24 -20 -28 -39 -6 -17 20
-19 20 -34 3 -8 -9 -19 -29 -22 -45 -4 -15 -11 -30 -16 -33 -5 -3 4 -18 20
-34 25 -26 28 -34 21 -64 -5 -23 -4 -34 3 -33 13 3 50 -60 42 -73 -13 -21 -32
-9 -33 21 -1 46 -12 49 -12 3 l-1 -39 -13 30 c-13 29 -14 28 -12 -30 1 -37 5
-59 12 -58 7 1 9 -8 6 -22 -2 -15 0 -25 7 -25 6 0 11 -7 11 -17 0 -9 12 -32
27 -52 16 -20 27 -40 25 -44 -1 -4 5 -15 13 -24 12 -12 13 -18 4 -29 -9 -11
-8 -18 2 -30 11 -13 11 -15 -2 -14 -27 4 -40 0 -38 -12 1 -7 -1 -21 -6 -31 -4
-10 -5 -21 -1 -24 3 -4 6 1 6 10 0 9 5 17 11 17 6 0 9 7 5 15 -3 9 0 15 9 15
19 0 19 -11 0 -36 -19 -25 -19 -34 0 -34 8 0 15 -4 15 -9 0 -13 -34 -24 -38
-12 -7 22 -20 10 -24 -24 -5 -39 -2 -42 23 -19 10 9 23 13 28 9 14 -8 14 -45
0 -45 -5 0 -3 -10 5 -22 21 -30 20 -34 -6 -43 l-23 -8 21 -4 c12 -2 30 -13 40
-24 20 -22 36 -25 28 -5 -3 7 2 16 11 20 9 3 14 2 10 -3 -3 -5 2 -16 10 -24 8
-9 15 -20 15 -26 0 -6 3 -11 8 -11 12 0 62 47 62 59 0 6 5 11 11 11 5 0 7 -4
4 -10 -3 -5 -2 -10 3 -10 6 0 13 11 16 25 4 14 13 25 20 25 15 0 32 53 22 69
-3 5 3 7 14 4 14 -4 20 0 20 11 0 14 3 14 21 4 17 -11 22 -10 33 5 13 16 14
16 19 -5 8 -27 17 -19 27 24 7 31 8 30 9 -16 1 -44 3 -47 18 -35 15 13 16 11
9 -16 -11 -46 -66 -133 -121 -192 -45 -48 -60 -57 -155 -89 -58 -20 -143 -45
-190 -55 -105 -22 -56 -25 66 -4 84 15 133 27 179 46 11 4 54 20 95 34 92 32
320 144 320 156 0 5 24 -8 53 -29 193 -144 365 -160 575 -53 23 12 42 26 42
32 0 5 11 22 25 37 14 15 25 31 25 36 0 5 7 18 17 28 9 10 14 21 11 23 -3 3
-20 -17 -38 -45 -39 -61 -85 -97 -168 -134 -86 -38 -227 -41 -314 -8 -108 41
-198 110 -275 211 -45 59 -58 96 -25 70 15 -12 16 -12 6 1 -29 39 -60 175 -63
275 -1 33 -6 62 -12 63 -5 2 -9 8 -9 14 0 5 6 8 13 5 11 -4 42 51 33 60 -2 3
-7 -5 -11 -16 -3 -12 -10 -21 -16 -21 -5 0 1 20 13 45 12 25 28 45 35 45 7 0
10 7 7 15 -5 11 -2 13 10 9 15 -6 21 5 17 29 -2 12 46 67 53 60 3 -3 -6 -15
-20 -25 -14 -11 -23 -22 -21 -25 3 -2 23 13 46 33 25 23 37 40 30 44 -11 7 60
70 79 70 6 0 12 5 14 12 2 6 15 12 29 14 13 1 24 3 24 4 0 1 23 2 52 4 29 1
55 5 59 8 3 4 20 0 36 -8 29 -15 53 -11 42 7 -3 5 -10 7 -15 4 -5 -4 -9 -2 -9
3 0 17 38 20 60 5 21 -14 80 -10 80 6 0 11 -56 87 -69 96 -6 3 -11 1 -11 -4 0
-6 4 -11 10 -11 5 0 15 -10 21 -22 11 -21 11 -22 -4 -10 -13 11 -15 10 -9 -10
5 -21 2 -20 -36 11 -23 18 -42 37 -42 42 0 5 -5 9 -11 9 -5 0 3 -17 18 -37 25
-32 25 -35 6 -25 -17 9 -22 9 -27 -4 -3 -9 -4 -19 -2 -23 3 -4 -14 -7 -37 -6
-23 1 -71 -4 -107 -11 -49 -10 -67 -10 -73 -1 -6 8 -7 6 -3 -5 3 -12 -7 -24
-37 -42 -52 -30 -197 -169 -197 -187 0 -12 -2 -12 -9 -1 -5 8 -21 12 -40 10
-19 -2 -35 3 -40 11 -5 7 -14 10 -20 7 -6 -4 -11 -3 -11 2 0 5 -11 15 -25 22
-13 7 -27 26 -30 41 -4 16 -11 31 -16 34 -16 10 -10 51 11 77 10 14 16 29 12
32 -4 4 -2 6 3 4 6 -1 28 8 49 22 22 14 55 35 73 46 19 12 34 25 34 30 0 5 8
8 17 6 13 -2 12 2 -6 17 -13 11 -23 22 -22 25 3 38 -2 56 -15 56 -14 0 -13 3
1 25 9 14 21 25 27 25 14 0 36 32 37 54 0 14 -5 17 -24 12 -17 -4 -26 -1 -30
10 -8 22 -8 24 8 24 8 0 16 5 18 12 3 7 14 9 32 4 23 -6 26 -9 16 -21 -10 -12
-10 -15 2 -15 7 0 22 14 32 31 17 29 19 30 37 13 10 -9 19 -12 19 -7 0 17 31
25 46 12 8 -6 23 -9 34 -6 11 3 20 0 20 -6 0 -6 3 -7 6 -4 8 8 -14 37 -28 37
-5 0 -6 -4 -3 -10 11 -18 -12 -10 -31 11 -28 31 -74 53 -117 56 l-37 3 17 -28
c10 -15 22 -30 28 -34 6 -5 3 -8 -7 -8 -10 0 -22 8 -27 19 -6 10 -20 21 -31
24 -18 5 -19 3 -8 -10 11 -14 10 -15 -12 -8 -14 4 -31 10 -37 12 -7 3 -13 -1
-13 -8 0 -11 -3 -11 -10 1 -6 10 -10 11 -10 3 0 -7 -9 -13 -19 -13 -12 0 -21
-9 -25 -25 -4 -14 -11 -23 -15 -20 -5 3 -11 -1 -14 -7 -2 -7 -8 0 -12 16 -5
17 -4 36 2 45 6 9 11 47 12 84 1 54 -3 74 -18 93 -15 20 -18 31 -11 50 8 19 6
26 -11 34 -11 6 -17 15 -14 19 7 13 -25 36 -52 36 -32 1 -29 -6 17 -38 22 -16
40 -33 40 -40 0 -6 -13 1 -28 16 -15 15 -32 27 -37 27 -19 0 -83 53 -79 65 7
17 -27 29 -37 13 -7 -10 -11 -10 -21 0 -9 9 -9 12 1 12 7 0 9 5 6 10 -3 6 -18
10 -33 10 -19 0 -23 -3 -14 -9z"/>
<path d="M1160 1767 c-35 -18 -52 -55 -47 -105 8 -74 65 -109 126 -78 61 32
62 150 1 181 -35 18 -48 18 -80 2z"/>
<path d="M1320 1676 c0 -99 1 -106 20 -106 18 0 20 7 20 73 l1 72 46 -72 c30
-47 53 -73 65 -73 16 0 18 10 18 105 0 98 -1 105 -20 105 -17 0 -19 -8 -22
-71 l-3 -71 -41 69 c-27 46 -48 69 -62 71 -21 3 -22 0 -22 -102z"/>
<path d="M1652 1755 c-29 -24 -32 -32 -32 -80 0 -48 3 -56 32 -80 38 -32 81
-29 116 11 49 56 17 156 -54 170 -24 4 -37 0 -62 -21z"/>
<path d="M1830 1676 c0 -99 1 -106 20 -106 17 0 19 8 22 72 l3 73 43 -73 c30
-50 49 -72 62 -72 19 0 20 7 20 105 0 98 -1 105 -20 105 -17 0 -19 -8 -22 -70
l-3 -71 -41 68 c-27 46 -47 69 -62 71 -21 3 -22 1 -22 -102z"/>
<path d="M2337 1682 c-20 -54 -37 -101 -37 -105 0 -4 9 -7 19 -7 13 0 21 8 23
23 2 18 10 23 46 25 37 3 43 0 52 -22 9 -24 40 -37 40 -17 0 5 -16 52 -36 105
-48 126 -58 126 -107 -2z"/>
<path d="M2520 1675 c0 -87 3 -105 15 -105 12 0 15 15 15 71 0 84 7 83 60 -10
22 -38 42 -61 53 -61 15 0 17 12 17 105 0 85 -3 105 -15 105 -11 0 -15 -17
-17 -72 l-3 -73 -45 72 c-27 44 -52 72 -62 73 -16 0 -18 -12 -18 -105z"/>
<path d="M1010 1315 c0 -87 3 -105 15 -105 11 0 15 11 15 40 0 35 3 40 23 40
18 0 28 -10 42 -40 14 -31 24 -40 42 -40 l24 0 -25 42 -24 41 20 28 c41 55 2
99 -87 99 l-45 0 0 -105z"/>
<path d="M1419 1393 c-65 -168 -69 -183 -49 -183 13 0 22 9 26 25 5 22 12 25
50 25 38 0 44 -3 50 -25 4 -16 13 -25 25 -25 10 0 19 1 19 3 0 1 -17 47 -38
102 -41 108 -63 129 -83 78z"/>
<path d="M2000 1315 l0 -105 70 0 c56 0 70 3 70 15 0 11 -12 15 -50 15 -49 0
-50 1 -50 30 0 28 2 30 40 30 29 0 40 4 40 15 0 11 -11 15 -40 15 -38 0 -40 2
-40 30 0 29 1 30 50 30 38 0 50 4 50 15 0 12 -14 15 -70 15 l-70 0 0 -105z"/>
<path d="M2170 1315 c0 -87 3 -105 15 -105 11 0 15 11 15 40 0 35 3 40 23 40
18 0 28 -10 42 -40 12 -26 25 -40 37 -40 23 0 23 12 -1 51 -19 32 -19 32 1 60
41 55 2 99 -87 99 l-45 0 0 -105z"/>
<path d="M2547 1322 c-21 -55 -37 -102 -37 -105 0 -4 9 -7 19 -7 13 0 21 8 23
23 2 18 10 23 46 25 37 3 43 0 52 -22 6 -16 17 -26 29 -26 17 0 15 9 -22 105
-52 137 -62 137 -110 7z"/>
<path d="M2810 1316 c0 -99 1 -106 20 -106 17 0 19 8 22 72 l3 73 43 -73 c30
-50 49 -72 62 -72 19 0 20 7 20 105 0 98 -1 105 -20 105 -17 0 -19 -8 -22 -71
l-3 -71 -41 69 c-27 46 -48 69 -62 71 -21 3 -22 0 -22 -102z"/>
</g>
</svg>
