<?xml version="1.0" standalone="no"?>
<!DOCTYPE svg PUBLIC "-//W3C//DTD SVG 20010904//EN"
 "http://www.w3.org/TR/2001/REC-SVG-20010904/DTD/svg10.dtd">
<svg version="1.0" xmlns="http://www.w3.org/2000/svg"
 width="380.000000pt" height="480.000000pt" viewBox="0 0 380.000000 480.000000"
 preserveAspectRatio="xMidYMid meet">
<metadata>
Created by potrace 1.16, written by Peter Selinger 2001-2019
</metadata>
<g transform="translate(0.000000,480.000000) scale(0.100000,-0.100000)"
fill="#000000" stroke="none">
<path d="M0 3880 c0 -506 3 -920 8 -920 4 0 16 6 27 13 27 18 96 37 134 37 29
0 32 -3 29 -27 -2 -20 -9 -29 -23 -30 -11 -1 -55 -5 -97 -9 l-78 -7 0 -1468 0
-1469 1081 0 c982 0 1079 1 1065 16 -18 18 -20 30 -6 39 6 3 10 -1 10 -9 0
-23 22 -31 35 -13 7 10 11 37 10 61 -1 27 3 44 9 43 6 -1 12 9 14 23 2 14 8
30 14 35 7 7 8 1 3 -20 -8 -29 -10 -76 -7 -142 2 -30 5 -33 36 -33 19 0 37 6
39 12 4 10 6 10 6 1 1 -7 10 -13 22 -13 16 0 19 4 14 18 -14 34 -30 97 -29
112 1 8 2 27 3 43 1 21 6 27 24 27 21 0 22 -4 24 -78 2 -120 0 -117 71 -120
62 -3 75 5 47 28 -9 7 -13 20 -10 28 3 9 2 18 -3 21 -13 9 -25 64 -12 56 6 -4
10 7 10 29 l0 36 51 0 c31 0 48 -4 44 -10 -3 -6 1 -13 9 -16 12 -4 13 -11 6
-24 -7 -13 -3 -24 18 -46 31 -33 87 -74 100 -74 5 0 15 -7 22 -15 11 -13 84
-15 546 -15 l534 0 0 255 c0 163 -4 255 -10 255 -5 0 -10 -6 -10 -12 0 -9 -4
-8 -10 2 -15 23 -12 32 10 25 18 -6 19 -1 19 87 0 81 -2 94 -17 95 -9 0 -40 4
-69 8 -41 6 -50 11 -45 23 4 11 1 14 -10 9 -9 -3 -24 1 -35 9 -16 13 -13 14
32 8 28 -4 60 -11 73 -15 50 -19 58 -10 21 24 -20 17 -62 62 -93 99 -47 55
-57 72 -54 98 l3 30 39 -27 c22 -16 53 -41 70 -56 17 -16 43 -37 59 -48 l27
-20 0 29 c0 24 -17 46 -100 123 -55 52 -100 100 -100 108 0 8 44 -28 97 -80
67 -65 99 -89 101 -78 1 9 -29 49 -70 91 -89 93 -102 108 -89 108 6 0 36 -25
67 -55 103 -102 94 -136 94 341 0 356 -2 415 -14 405 -11 -9 -15 -9 -20 1 -5
10 -7 10 -12 1 -9 -20 -24 -15 -24 6 0 11 -6 21 -12 24 -9 3 -2 19 20 52 24
34 30 51 23 58 -8 8 -11 8 -11 -1 0 -7 -6 -11 -12 -9 -7 1 -12 -3 -11 -10 2
-7 -4 -10 -12 -7 -19 8 -19 13 2 36 15 17 15 18 -5 18 -11 0 -23 -8 -25 -17
-4 -16 -5 -16 -6 1 -1 18 -2 18 -21 1 -11 -10 -20 -15 -20 -10 0 4 7 13 15 19
10 7 17 29 18 54 1 24 6 42 13 42 6 0 17 7 24 15 7 9 29 15 51 15 28 0 39 4
39 15 0 11 -11 15 -39 15 -32 0 -41 4 -47 23 -4 12 -11 25 -16 28 -4 3 1 14
13 25 l22 19 -7 -27 c-5 -21 -3 -28 9 -28 8 0 16 5 16 10 1 6 2 15 3 22 2 18
24 21 22 2 0 -9 5 -19 12 -21 9 -4 12 259 12 1291 l0 1296 -657 0 c-675 -1
-693 -2 -693 -38 0 -6 -21 -13 -47 -17 -27 -3 -75 -19 -108 -35 -34 -17 -71
-28 -85 -26 -41 6 -70 18 -65 26 3 5 -19 7 -49 6 l-54 -2 16 24 c16 24 15 24
-8 18 -14 -4 -20 -4 -15 1 6 4 16 16 24 26 13 16 -6 17 -368 17 -209 0 -380
-3 -380 -7 1 -5 1 -13 0 -20 -2 -18 -86 -10 -109 10 -10 9 -30 17 -45 17 l-26
0 15 -44 c9 -25 14 -59 12 -78 -2 -28 -7 -34 -30 -36 -16 -2 -28 2 -28 8 0 6
-9 4 -24 -5 -13 -8 -30 -13 -39 -10 -8 4 -18 2 -21 -3 -13 -21 -46 0 -52 33
-8 42 -41 98 -54 90 -6 -3 -14 5 -20 20 l-10 25 -262 -2 c-202 -2 -263 -6
-264 -15 -1 -7 -2 -14 -4 -15 -12 -16 -5 -41 16 -48 32 -13 30 -18 -12 -36
-29 -12 -35 -19 -31 -36 9 -33 -3 -48 -38 -48 -24 0 -34 5 -38 20 -3 10 0 24
7 29 9 8 12 90 5 139 -2 9 -36 12 -131 12 l-128 0 0 -920z m3546 845 c10 -25
-34 -82 -81 -105 -54 -26 -76 -23 -93 13 -12 25 -11 30 18 67 31 39 34 40 91
40 43 0 61 -4 65 -15z m-1009 -680 c101 -30 169 -109 189 -218 l6 -38 -92 3
-93 3 -12 34 c-16 50 -56 76 -115 76 -56 0 -94 -23 -125 -76 -16 -27 -21 -57
-23 -144 -5 -132 8 -187 52 -231 40 -40 105 -53 168 -33 l43 14 3 63 3 62 -66
0 -65 0 0 65 0 65 160 0 160 0 -2 -167 -3 -167 -40 -27 c-61 -40 -131 -60
-231 -66 -107 -6 -178 10 -242 57 -87 63 -128 150 -139 296 -20 271 111 443
338 444 41 0 98 -7 126 -15z m-1055 -15 c71 -22 117 -61 142 -122 34 -80 7
-190 -55 -227 l-31 -19 28 -15 c67 -35 101 -106 89 -185 -8 -57 -24 -88 -62
-124 -59 -56 -89 -62 -325 -66 l-218 -4 0 391 0 391 184 0 c155 0 194 -3 248
-20z m478 -370 l0 -390 -95 0 -95 0 0 390 0 390 95 0 95 0 0 -390z m-652 -555
c62 -27 112 -86 112 -135 0 -18 -6 -20 -64 -20 -56 0 -66 3 -71 20 -16 52
-111 65 -135 19 -17 -31 -3 -55 43 -74 163 -69 185 -84 213 -137 8 -15 14 -47
14 -72 0 -38 -6 -52 -35 -84 -39 -44 -88 -62 -167 -62 -65 0 -111 14 -156 47
-41 31 -59 58 -67 106 l-7 38 68 -3 c67 -3 68 -3 76 -35 7 -26 16 -35 47 -44
48 -14 87 -6 102 22 18 34 -3 64 -57 85 -158 62 -214 111 -214 186 0 68 40
119 115 146 45 16 141 14 183 -3z m554 -265 c54 -146 98 -266 98 -268 0 -2
-32 -2 -72 0 l-72 3 -15 48 -15 47 -87 0 -88 0 -14 -47 -14 -48 -73 -3 c-56
-2 -71 0 -68 10 3 7 47 129 99 271 l94 258 64 -3 64 -3 99 -265z m268 50 l0
-220 115 0 115 0 0 -50 0 -50 -180 0 -180 0 0 270 0 270 65 0 65 0 0 -220z
m660 170 l0 -50 -125 0 -125 0 0 -55 0 -55 105 0 105 0 0 -50 0 -50 -105 0
-105 0 0 -65 0 -65 120 0 120 0 0 -50 0 -50 -185 0 -185 0 0 270 0 270 190 0
190 0 0 -50z m-472 -1127 c-229 -2 -607 -2 -840 0 -233 1 -45 2 417 2 462 0
652 -1 423 -2z m-1082 -304 c24 -23 33 -59 14 -59 -5 0 -10 5 -10 12 0 6 -10
22 -22 35 -43 46 -138 21 -138 -36 0 -36 25 -58 90 -77 57 -17 100 -52 100
-82 0 -11 -9 -31 -20 -45 -41 -52 -166 -44 -195 13 -18 36 -19 40 -1 40 8 0
16 -10 20 -23 7 -28 44 -47 89 -47 46 0 77 25 77 61 0 34 -34 59 -106 79 -46
13 -84 49 -84 80 0 25 37 68 63 73 43 10 99 -1 123 -24z m258 17 c42 -18 59
-60 45 -111 -13 -44 -54 -65 -129 -65 l-50 0 0 -65 c0 -51 -3 -65 -15 -65 -13
0 -15 24 -15 160 l0 160 65 0 c36 0 81 -6 99 -14z m306 4 c0 -6 -35 -10 -85
-10 l-85 0 0 -60 0 -60 75 0 c43 0 75 -4 75 -10 0 -6 -32 -10 -75 -10 l-75 0
0 -70 0 -70 85 0 c50 0 85 -4 85 -10 0 -6 -40 -10 -100 -10 l-100 0 0 160 0
160 100 0 c60 0 100 -4 100 -10z m653 -150 c31 -84 55 -155 53 -158 -10 -10
-26 11 -37 48 l-12 40 -77 0 -77 0 -12 -40 c-11 -36 -27 -58 -36 -48 -4 3 40
123 104 291 6 16 17 27 23 25 7 -3 39 -74 71 -158z m-1228 -394 c47 -20 68
-65 68 -146 0 -81 -21 -126 -68 -146 -44 -18 -69 -18 -106 1 -48 25 -69 70
-69 146 0 52 5 73 23 100 38 57 87 72 152 45z m425 4 c0 -6 -35 -10 -85 -10
l-85 0 0 -60 0 -60 70 0 c40 0 70 -4 70 -10 0 -6 -30 -10 -70 -10 l-70 0 0
-80 c0 -64 -3 -80 -15 -80 -13 0 -15 24 -15 160 l0 160 100 0 c60 0 100 -4
100 -10z m350 0 c0 -6 -35 -10 -85 -10 l-85 0 0 -60 0 -60 70 0 c40 0 70 -4
70 -10 0 -6 -30 -10 -70 -10 l-70 0 0 -80 c0 -64 -3 -80 -15 -80 -13 0 -15 24
-15 160 l0 160 100 0 c60 0 100 -4 100 -10z m340 0 c0 -6 -35 -10 -85 -10
l-85 0 0 -60 0 -60 75 0 c43 0 75 -4 75 -10 0 -6 -32 -10 -75 -10 l-75 0 0
-70 0 -70 85 0 c50 0 85 -4 85 -10 0 -6 -40 -10 -100 -10 l-100 0 0 160 0 160
100 0 c60 0 100 -4 100 -10z m336 -23 c34 -39 31 -81 -6 -119 l-31 -30 36 -65
c20 -36 33 -68 30 -71 -8 -8 -20 7 -57 73 -33 59 -35 60 -81 63 l-47 3 0 -70
c0 -56 -3 -71 -15 -71 -13 0 -15 25 -15 161 l0 161 81 -4 c74 -3 83 -6 105
-31z"/>
<path d="M1240 3810 l0 -93 82 5 c73 4 84 8 105 32 13 15 23 40 23 56 0 16
-10 41 -23 56 -21 24 -32 28 -105 32 l-82 5 0 -93z"/>
<path d="M1240 3505 l0 -87 90 4 c108 5 130 19 130 83 0 65 -23 79 -131 83
l-89 4 0 -87z"/>
<path d="M1360 1565 l0 -75 60 0 c72 0 100 21 100 73 0 52 -33 77 -103 77
l-57 0 0 -75z"/>
<path d="M1121 1084 c-47 -34 -65 -130 -37 -198 34 -81 132 -91 171 -16 20 38
20 142 0 180 -26 51 -88 66 -134 34z"/>
<path d="M2520 1030 l0 -70 59 0 c52 0 62 3 80 26 27 35 26 59 -4 89 -20 21
-34 25 -80 25 l-55 0 0 -70z"/>
</g>
</svg>
