<?xml version="1.0" standalone="no"?>
<!DOCTYPE svg PUBLIC "-//W3C//DTD SVG 20010904//EN"
 "http://www.w3.org/TR/2001/REC-SVG-20010904/DTD/svg10.dtd">
<svg version="1.0" xmlns="http://www.w3.org/2000/svg"
 width="380.000000pt" height="230.000000pt" viewBox="0 0 380.000000 230.000000"
 preserveAspectRatio="xMidYMid meet">
<metadata>
Created by potrace 1.16, written by Peter Selinger 2001-2019
</metadata>
<g transform="translate(0.000000,230.000000) scale(0.100000,-0.100000)"
fill="#000000" stroke="none">
<path d="M1211 1845 c-53 -17 -93 -53 -123 -114 -21 -43 -23 -58 -23 -231 0
-179 1 -187 26 -241 44 -93 128 -138 237 -125 66 8 100 25 139 70 54 60 68
121 67 291 0 173 -14 233 -71 296 -56 62 -157 84 -252 54z m130 -105 c45 -25
54 -64 54 -245 0 -143 -3 -175 -18 -202 -20 -37 -44 -53 -82 -53 -79 0 -95 42
-95 255 0 174 9 222 47 244 23 13 69 14 94 1z"/>
<path d="M617 1620 c-133 -209 -147 -235 -147 -275 l0 -45 150 0 150 0 0 -80
0 -80 69 0 69 0 0 78 0 77 39 5 40 5 0 53 1 52 -39 0 -39 0 -1 213 c-1 116 -1
215 0 220 0 4 -32 7 -72 7 l-73 0 -147 -230z m153 -90 l0 -120 -81 0 -81 0 23
38 c55 91 129 202 134 202 3 0 5 -54 5 -120z"/>
</g>
</svg>
