<?xml version="1.0" standalone="no"?>
<!DOCTYPE svg PUBLIC "-//W3C//DTD SVG 20010904//EN"
 "http://www.w3.org/TR/2001/REC-SVG-20010904/DTD/svg10.dtd">
<svg version="1.0" xmlns="http://www.w3.org/2000/svg"
 width="380.000000pt" height="230.000000pt" viewBox="0 0 380.000000 230.000000"
 preserveAspectRatio="xMidYMid meet">
<metadata>
Created by potrace 1.16, written by Peter Selinger 2001-2019
</metadata>
<g transform="translate(0.000000,230.000000) scale(0.100000,-0.100000)"
fill="#000000" stroke="none">
<path d="M673 1999 c-18 -18 -4 -39 27 -39 17 0 40 -12 64 -35 21 -19 42 -35
47 -35 16 0 61 -82 56 -101 -3 -11 -1 -19 3 -19 5 0 8 -9 7 -20 -1 -11 -5 -20
-9 -20 -4 0 -8 -10 -8 -23 0 -32 -38 -51 -89 -44 -23 3 -44 1 -47 -4 -3 -5
-10 -7 -15 -4 -5 4 -9 -3 -9 -14 0 -12 -6 -21 -14 -21 -8 0 -22 -7 -30 -16
-14 -14 -14 -17 -1 -30 8 -9 15 -20 15 -25 0 -5 6 -9 14 -9 19 0 25 -44 9 -66
-7 -10 -13 -25 -13 -35 0 -18 -26 -33 -41 -24 -4 3 -11 -6 -15 -20 -5 -20 -17
-28 -60 -41 -59 -17 -102 -14 -188 15 -31 11 -55 26 -61 39 -10 23 -45 37 -45
19 0 -7 9 -27 20 -45 24 -39 25 -43 5 -36 -8 4 -23 3 -32 -1 -10 -4 -45 -8
-78 -10 -59 -2 -132 -11 -167 -21 -14 -4 -18 -16 -18 -55 0 -55 2 -56 79 -38
59 13 81 -6 81 -71 0 -44 -3 -49 -55 -94 -51 -44 -68 -77 -46 -91 6 -3 14 2
19 11 6 11 12 13 16 5 9 -13 46 8 46 26 0 23 15 14 26 -15 9 -24 8 -31 -5 -41
-9 -6 -10 -9 -3 -6 14 7 15 -4 2 -25 -8 -12 -10 -12 -10 -1 0 8 -3 11 -7 8 -3
-4 -13 -1 -21 6 -11 9 -16 9 -19 0 -2 -6 -15 -23 -29 -38 -13 -14 -24 -37 -24
-51 0 -19 -5 -24 -25 -24 -20 0 -24 -4 -21 -22 1 -13 9 -23 17 -23 8 0 18 -6
22 -12 4 -7 14 -13 22 -13 21 0 46 -30 40 -49 -3 -11 3 -25 15 -36 22 -20 54
-30 44 -14 -3 5 2 9 11 9 9 0 13 -4 10 -10 -3 -5 -4 -10 0 -10 3 0 10 10 15
23 8 19 9 16 8 -15 -1 -21 1 -40 5 -44 4 -4 2 -13 -3 -20 -12 -13 5 -36 41
-55 11 -5 17 -14 14 -20 -4 -5 1 -9 10 -9 24 0 13 -23 -20 -39 -32 -15 -114
-18 -197 -6 -36 5 -58 4 -58 -2 0 -15 200 -36 273 -29 l66 7 25 -48 c30 -60
76 -103 144 -137 45 -22 67 -26 135 -26 103 1 137 13 236 86 93 68 95 81 30
149 -23 24 -47 64 -59 98 -24 68 -24 70 -5 134 12 40 26 60 64 92 l49 41 141
-50 c195 -68 262 -85 272 -68 5 7 7 19 4 26 -3 8 0 10 7 6 7 -5 9 -2 5 9 -3 8
4 39 16 69 16 42 21 75 21 158 1 118 -6 139 -71 203 -52 53 -103 77 -160 77
l-48 0 41 -25 c63 -37 63 -58 1 -27 -37 18 -75 27 -132 30 -82 6 -75 19 11 21
47 1 78 26 53 42 -8 5 -53 9 -101 9 -49 0 -88 2 -88 4 0 3 21 25 48 50 36 35
44 48 33 55 -10 6 -11 13 -2 29 6 11 11 35 11 52 0 20 4 29 11 24 6 -3 8 -16
5 -28 -8 -34 8 -51 22 -21 6 14 8 25 4 25 -10 0 -2 132 8 145 5 7 -5 48 -26
100 -37 95 -84 151 -149 176 -50 19 -129 62 -140 76 -14 18 -68 27 -82 12z
m-143 -740 c41 -5 91 -14 110 -19 19 -6 50 -10 69 -10 l35 0 -36 -37 c-51 -53
-88 -126 -72 -140 6 -7 14 -9 18 -6 10 10 105 -99 99 -114 -5 -12 -8 -11 -23
2 -9 8 -20 15 -23 15 -11 0 -8 -48 2 -55 5 -3 12 -18 16 -35 5 -21 11 -27 23
-23 11 3 13 2 5 -4 -8 -6 -9 -27 -4 -73 9 -74 5 -235 -6 -253 -4 -7 -7 -25 -6
-42 1 -16 -1 -22 -3 -12 -10 33 -25 17 -24 -25 3 -55 -10 -127 -23 -135 -6 -4
-25 -8 -41 -9 -17 -1 -56 -6 -86 -12 -43 -8 -61 -7 -83 4 -40 21 -80 69 -82
101 -2 25 -41 103 -51 103 -2 0 1 -12 6 -26 13 -34 -5 -22 -24 17 -12 23 -13
36 -5 51 13 24 1 88 -12 67 -5 -9 -9 20 -9 74 0 55 4 87 11 87 6 0 8 9 4 20
-4 12 -2 20 5 20 6 0 8 4 5 10 -9 14 29 95 58 124 14 14 23 27 20 29 -7 7 69
64 112 83 22 10 41 19 43 20 2 1 -8 21 -23 44 -14 22 -30 51 -34 63 -5 13 -26
45 -46 71 -26 34 -32 47 -19 42 10 -4 52 -11 94 -17z m478 -155 c43 -9 60 -49
34 -83 -10 -14 -31 -32 -45 -39 -15 -7 -27 -17 -27 -21 0 -20 -33 -19 -65 3
-21 14 -43 22 -55 19 -29 -8 -50 14 -50 53 0 44 25 58 62 36 26 -15 29 -15 65
11 42 30 39 29 81 21z"/>
<path d="M463 852 c-17 -2 -37 -11 -45 -20 -12 -15 -11 -16 5 -3 23 18 49 -1
28 -21 -10 -11 -11 -9 -6 7 l7 20 -13 -20 c-7 -11 -17 -23 -23 -27 -13 -9 -24
-116 -15 -148 21 -65 34 -150 28 -169 -6 -15 -3 -22 12 -26 11 -4 26 -19 32
-33 19 -42 49 -67 82 -67 24 0 30 4 31 22 1 12 -3 21 -10 20 -6 -1 -9 5 -7 13
2 8 5 31 6 50 3 40 14 70 25 70 13 0 22 -51 11 -63 -5 -7 -10 -21 -11 -32 -5
-43 1 -48 17 -15 9 19 15 39 14 43 -1 5 3 6 9 2 20 -13 20 22 -3 132 -23 113
-35 147 -31 93 1 -20 -2 -27 -11 -24 -8 4 -15 -3 -17 -17 -3 -24 -28 -39 -28
-17 0 8 9 31 20 53 11 22 20 48 19 60 0 11 -3 14 -6 8 -2 -7 -11 -13 -18 -13
-7 0 -24 -12 -37 -27 -13 -16 -34 -34 -46 -41 -25 -14 -29 -2 -12 42 9 26 -2
37 -16 15 -4 -8 -10 -7 -18 1 -8 8 -5 16 14 30 14 11 20 20 13 20 -18 0 7 57
31 68 25 11 10 18 -31 14z"/>
<path d="M2210 1475 c0 -87 3 -105 15 -105 11 0 15 11 15 40 0 35 3 40 23 40
18 0 28 -10 42 -40 14 -31 24 -40 42 -40 l24 0 -25 42 -24 41 20 28 c42 56 4
99 -88 99 l-44 0 0 -105z"/>
<path d="M2603 1570 c-12 -5 -26 -16 -31 -26 -17 -31 -1 -56 55 -80 40 -18 54
-29 51 -42 -4 -23 -66 -30 -74 -8 -7 17 -44 22 -44 7 0 -34 75 -60 120 -41 58
24 47 81 -20 101 -47 14 -63 30 -54 53 8 20 42 21 65 0 10 -9 25 -14 34 -12
16 3 16 5 -1 25 -22 26 -69 37 -101 23z"/>
<path d="M2750 1475 c0 -98 1 -105 20 -105 17 0 20 7 20 45 l0 45 45 0 45 0 0
-45 c0 -38 3 -45 20 -45 19 0 20 7 20 105 0 98 -1 105 -20 105 -17 0 -20 -7
-20 -45 l0 -45 -45 0 -45 0 0 45 c0 38 -3 45 -20 45 -19 0 -20 -7 -20 -105z"/>
<path d="M3005 1568 c-35 -18 -45 -40 -45 -92 1 -54 11 -75 47 -94 35 -19 63
-14 94 17 77 77 -4 220 -96 169z"/>
<path d="M2265 1208 c-35 -18 -45 -40 -45 -92 1 -54 11 -75 47 -94 35 -19 63
-14 94 17 77 77 -4 220 -96 169z"/>
<path d="M2430 1115 c0 -98 1 -105 20 -105 18 0 20 7 21 78 l0 77 28 -75 c15
-41 34 -76 42 -78 10 -2 22 20 38 68 14 39 27 73 31 75 4 2 5 -29 2 -70 -4
-71 -4 -75 17 -75 20 0 21 4 21 106 l0 105 -26 -3 c-23 -3 -30 -13 -54 -78
l-28 -75 -16 38 c-9 22 -21 56 -27 78 -11 33 -16 39 -41 39 l-28 0 0 -105z"/>
<path d="M2751 1198 c-42 -107 -71 -183 -71 -185 0 -2 9 -3 20 -3 13 0 22 9
26 25 5 22 12 25 49 25 37 0 44 -3 49 -25 4 -17 13 -25 27 -25 13 0 19 5 16
13 -2 6 -20 54 -38 104 -25 69 -38 93 -52 93 -10 0 -21 -10 -26 -22z"/>
<path d="M3105 1208 c-34 -20 -44 -41 -44 -93 0 -53 10 -74 46 -93 35 -19 63
-14 94 17 77 77 -5 221 -96 169z"/>
<path d="M996 656 c-51 -78 14 -157 164 -199 141 -39 289 -39 386 -1 72 28 80
29 88 8 9 -24 33 -1 38 36 6 39 -5 57 -23 37 -12 -13 -18 -12 -49 4 -38 21
-65 25 -55 8 5 -7 -9 -9 -42 -7 -48 3 -48 3 -51 -29 -4 -41 -24 -43 -39 -3
-10 26 -16 30 -47 30 -32 0 -36 -3 -36 -26 0 -15 -4 -23 -11 -18 -6 3 -9 14
-6 24 2 10 1 23 -3 30 -11 18 -50 2 -50 -21 0 -15 -7 -19 -32 -18 -18 0 -27 3
-20 6 14 6 16 43 2 43 -5 0 -10 -7 -10 -15 0 -8 -4 -15 -10 -15 -5 0 -10 9
-10 19 0 25 -16 36 -27 18 -10 -17 -73 -31 -73 -16 0 5 6 12 14 15 8 3 17 12
20 20 4 11 2 12 -13 4 -14 -7 -21 -6 -23 2 -3 7 -15 13 -29 13 -20 0 -24 5
-24 32 -1 43 -9 49 -29 19z"/>
<path d="M1725 492 c-27 -51 -46 -72 -73 -83 -13 -5 -20 -13 -17 -19 6 -9 -10
-14 -42 -13 -12 1 -14 -4 -12 -23 1 -14 -58 -35 -125 -45 -123 -20 -237 -6
-466 57 -20 5 -17 1 13 -19 62 -44 212 -70 399 -71 86 -1 160 2 164 7 4 4 -1
13 -10 20 -17 13 -16 15 13 27 24 9 29 15 19 21 -9 6 -4 9 14 9 37 0 93 51
124 113 14 27 24 51 22 53 -2 2 -13 -13 -23 -34z"/>
</g>
</svg>
