<?xml version="1.0" standalone="no"?>
<!DOCTYPE svg PUBLIC "-//W3C//DTD SVG 20010904//EN"
 "http://www.w3.org/TR/2001/REC-SVG-20010904/DTD/svg10.dtd">
<svg version="1.0" xmlns="http://www.w3.org/2000/svg"
 width="380.000000pt" height="480.000000pt" viewBox="0 0 380.000000 480.000000"
 preserveAspectRatio="xMidYMid meet">
<metadata>
Created by potrace 1.16, written by Peter Selinger 2001-2019
</metadata>
<g transform="translate(0.000000,480.000000) scale(0.100000,-0.100000)"
fill="#000000" stroke="none">
<path d="M884 4188 c30 -157 38 -178 61 -178 25 0 29 8 41 73 3 20 10 37 14
37 4 0 11 -17 14 -37 12 -65 16 -73 41 -73 21 0 25 8 39 68 30 136 30 142 8
142 -23 0 -29 -12 -38 -81 -8 -60 -17 -54 -33 24 -10 45 -16 57 -32 57 -12 0
-21 -9 -25 -27 -3 -16 -11 -46 -17 -68 l-10 -40 -8 45 c-15 83 -18 90 -40 90
-19 0 -21 -4 -15 -32z"/>
<path d="M1171 4127 c-18 -50 -36 -98 -38 -104 -3 -8 4 -13 20 -13 16 0 26 7
30 20 4 16 14 20 45 20 31 0 41 -4 45 -20 3 -13 14 -20 30 -20 l26 0 -23 58
c-13 31 -31 78 -40 105 -14 36 -23 47 -39 47 -19 0 -27 -15 -56 -93z"/>
<path d="M1520 4115 l0 -105 70 0 c63 0 70 2 70 20 0 17 -7 20 -50 20 -47 0
-50 2 -50 25 0 23 4 25 45 25 38 0 45 3 45 20 0 17 -7 20 -45 20 -38 0 -45 3
-45 20 0 17 7 20 50 20 43 0 50 3 50 20 0 18 -7 20 -70 20 l-70 0 0 -105z"/>
<path d="M1690 4115 c0 -98 1 -105 20 -105 16 0 20 7 20 35 0 28 4 35 20 35
13 0 26 -12 37 -35 12 -25 23 -35 40 -35 27 0 28 5 4 49 -17 33 -17 35 0 52
50 50 1 109 -87 109 l-54 0 0 -105z"/>
<path d="M1880 4115 l0 -105 25 0 c24 0 25 2 26 73 l1 72 25 -73 c31 -91 48
-92 77 -5 29 87 38 88 30 5 l-7 -72 27 0 26 0 0 105 0 105 -33 0 c-31 0 -33
-2 -51 -65 -10 -36 -22 -68 -27 -70 -4 -3 -18 26 -30 65 -22 68 -24 70 -56 70
l-33 0 0 -105z"/>
<path d="M2150 4115 l0 -105 70 0 c63 0 70 2 70 20 0 17 -7 20 -50 20 -47 0
-50 2 -50 25 0 23 4 25 45 25 38 0 45 3 45 20 0 17 -7 20 -45 20 -38 0 -45 3
-45 20 0 17 7 20 50 20 43 0 50 3 50 20 0 18 -7 20 -70 20 l-70 0 0 -105z"/>
<path d="M2508 4205 c-61 -33 -59 -149 3 -181 66 -34 129 13 129 95 -1 49 -12
71 -47 89 -28 16 -52 15 -85 -3z"/>
<path d="M2670 4115 c0 -105 0 -105 25 -105 23 0 24 3 27 66 l3 66 38 -66 c31
-52 44 -66 63 -66 24 0 24 1 24 105 0 105 0 105 -25 105 -23 0 -24 -3 -27 -66
l-3 -66 -38 66 c-30 53 -42 66 -62 66 l-25 0 0 -105z"/>
<path d="M650 3755 c0 -98 1 -105 20 -105 17 0 20 7 20 45 l0 45 45 0 45 0 0
-45 c0 -38 3 -45 20 -45 19 0 20 7 20 105 0 98 -1 105 -20 105 -17 0 -20 -7
-20 -40 l0 -40 -45 0 -45 0 0 40 c0 33 -3 40 -20 40 -19 0 -20 -7 -20 -105z"/>
<path d="M860 3755 l0 -105 70 0 c63 0 70 2 70 20 0 17 -7 20 -50 20 -47 0
-50 2 -50 25 0 23 4 25 45 25 38 0 45 3 45 20 0 17 -7 20 -45 20 -38 0 -45 3
-45 20 0 17 7 20 50 20 43 0 50 3 50 20 0 18 -7 20 -70 20 l-70 0 0 -105z"/>
<path d="M1065 3788 c-15 -40 -34 -88 -41 -105 -13 -32 -12 -33 12 -33 17 0
28 7 31 20 4 16 14 20 43 20 30 0 40 -5 45 -20 4 -13 15 -20 31 -20 13 0 24 1
24 3 0 1 -17 47 -38 102 -30 79 -42 101 -59 103 -18 3 -25 -8 -48 -70z"/>
<path d="M1550 3755 l0 -105 25 0 c23 0 25 4 25 45 l0 45 40 0 40 0 0 -45 c0
-41 2 -45 25 -45 l25 0 0 105 0 105 -25 0 c-22 0 -25 -4 -25 -40 l0 -40 -40 0
-40 0 0 40 c0 36 -2 40 -25 40 l-25 0 0 -105z"/>
<path d="M1840 3755 l0 -105 49 0 c27 0 61 4 75 10 33 12 43 52 23 84 -11 16
-12 27 -6 33 18 18 5 57 -21 70 -14 7 -46 13 -72 13 l-48 0 0 -105z"/>
<path d="M2030 3755 l0 -105 70 0 c63 0 70 2 70 20 0 17 -7 20 -45 20 -41 0
-45 2 -45 25 0 23 4 25 40 25 33 0 40 3 40 20 0 17 -7 20 -40 20 -33 0 -40 3
-40 20 0 17 7 20 50 20 43 0 50 3 50 20 0 18 -7 20 -75 20 l-75 0 0 -105z"/>
<path d="M2200 3755 c0 -98 1 -105 20 -105 18 0 20 7 20 60 0 33 4 60 9 60 5
0 24 -27 43 -60 25 -46 38 -60 55 -60 22 0 23 3 23 105 0 98 -1 105 -20 105
-18 0 -20 -7 -20 -60 0 -33 -4 -60 -8 -60 -4 0 -24 27 -43 60 -25 45 -40 60
-56 60 -22 0 -23 -3 -23 -105z"/>
<path d="M2410 3755 l0 -105 70 0 c63 0 70 2 70 20 0 17 -7 20 -50 20 -47 0
-50 2 -50 25 0 23 4 25 45 25 38 0 45 3 45 20 0 17 -7 20 -45 20 -38 0 -45 3
-45 20 0 17 7 20 50 20 43 0 50 3 50 20 0 18 -7 20 -70 20 l-70 0 0 -105z"/>
<path d="M2580 3755 c0 -98 1 -105 20 -105 17 0 20 7 20 40 l0 40 45 0 c38 0
45 3 45 20 0 17 -7 20 -45 20 -41 0 -45 2 -45 25 0 23 3 25 50 25 43 0 50 3
50 20 0 18 -7 20 -70 20 l-70 0 0 -105z"/>
<path d="M2820 3840 c0 -16 7 -20 30 -20 l30 0 0 -85 c0 -84 0 -85 25 -85 25
0 25 1 25 85 l0 85 30 0 c23 0 30 4 30 20 0 18 -7 20 -85 20 -78 0 -85 -2 -85
-20z"/>
<path d="M3055 3850 c-63 -25 -53 -77 19 -105 32 -12 46 -23 46 -36 0 -24 -55
-27 -64 -4 -7 19 -46 20 -46 2 0 -48 116 -73 146 -33 30 41 8 79 -59 102 -39
13 -42 38 -4 42 15 2 27 -1 27 -7 0 -6 11 -11 25 -11 32 0 32 13 -1 39 -28 22
-55 25 -89 11z"/>
<path d="M1309 2426 c-20 -7 -49 -22 -65 -33 -16 -11 -38 -23 -49 -26 -11 -3
0 -3 25 0 25 4 57 7 73 7 15 1 27 6 27 12 0 7 9 14 20 17 22 6 28 -8 8 -16 -9
-3 -8 -9 5 -19 18 -13 18 -15 1 -29 -13 -11 -18 -11 -21 -1 -6 17 -30 15 -37
-4 -3 -9 -13 -14 -20 -11 -8 3 -20 0 -26 -7 -6 -8 -39 -24 -73 -36 -34 -12
-75 -27 -90 -33 -16 -5 -33 -20 -37 -33 -5 -12 -30 -32 -57 -45 -26 -13 -58
-35 -70 -49 -15 -16 -21 -19 -17 -7 3 9 1 17 -5 17 -6 0 -11 -4 -11 -9 0 -5
-8 -11 -17 -15 -10 -3 -26 -11 -35 -18 -14 -10 -20 -10 -30 0 -11 11 -9 16 7
30 11 9 28 27 38 38 18 22 18 22 -15 14 -18 -3 -32 -12 -31 -17 1 -6 -4 -17
-12 -23 -12 -10 -15 -9 -15 6 0 17 -3 16 -19 -5 -11 -15 -21 -20 -25 -13 -3 6
10 23 29 38 20 15 33 29 31 31 -8 8 -66 -31 -71 -48 -6 -17 -45 -34 -45 -19 0
21 111 123 136 126 14 2 32 11 38 20 7 9 18 14 24 11 6 -5 8 1 5 14 -6 20 -6
20 -32 -5 -28 -27 -48 -35 -35 -15 15 25 -19 0 -100 -74 -72 -66 -92 -91 -123
-155 -20 -42 -40 -78 -44 -80 -4 -2 -5 -10 -3 -17 3 -8 -3 -27 -14 -42 -15
-21 -17 -34 -11 -51 5 -13 7 -27 5 -30 -2 -4 -6 -59 -9 -122 -4 -102 -4 -107
5 -50 11 74 47 204 54 197 20 -19 13 -64 -33 -206 -15 -47 -11 -66 6 -33 6 11
8 22 5 24 -2 3 7 25 21 49 30 54 33 44 4 -14 -21 -42 -21 -41 42 24 76 78 120
110 127 91 3 -10 9 -9 28 3 13 8 24 13 24 10 0 -3 10 3 22 15 12 11 29 21 37
21 49 4 62 8 87 26 16 11 35 18 42 16 6 -3 12 -1 12 4 0 11 99 48 107 39 3 -3
0 -12 -7 -21 -8 -9 -8 -15 -2 -15 12 0 25 18 29 39 1 8 8 18 15 22 12 8 4 13
-14 10 -5 0 -8 4 -8 10 0 6 -9 8 -20 4 -11 -3 -20 -2 -20 3 0 16 23 20 42 9
13 -8 25 -5 55 16 22 15 46 27 55 27 9 0 20 5 23 10 4 6 15 8 24 5 11 -3 24 2
32 12 13 16 12 17 -3 5 -17 -13 -38 -9 -38 8 0 11 75 40 105 40 13 0 26 4 30
10 7 11 35 2 35 -12 0 -6 -6 -6 -14 1 -9 8 -16 8 -20 2 -4 -5 4 -17 16 -26 19
-13 23 -13 26 -1 3 14 47 28 57 18 3 -3 15 -7 27 -9 17 -3 19 -1 8 12 -10 12
-10 15 0 15 7 0 19 -8 26 -17 11 -15 15 -16 26 -4 9 10 9 12 1 7 -7 -4 -13 -3
-13 2 0 14 25 21 51 15 14 -4 20 -2 15 5 -11 18 14 25 40 12 19 -11 27 -10 49
4 33 22 43 15 16 -11 -20 -19 -20 -19 22 -20 39 -2 41 -1 23 13 -25 18 -10 36
33 39 23 1 28 -1 21 -11 -6 -6 -20 -10 -30 -7 -11 3 -20 1 -20 -5 0 -6 10 -12
23 -14 12 -2 22 -10 22 -19 0 -18 28 -49 45 -49 6 0 8 -5 3 -12 -16 -27 -12
-38 8 -25 13 8 18 20 16 37 -2 14 -2 19 0 13 9 -27 20 -11 21 32 2 33 -2 45
-12 45 -7 0 -16 9 -19 20 -4 15 0 20 14 20 12 0 16 -5 13 -15 -5 -11 -2 -13
10 -9 9 3 16 1 16 -6 0 -6 4 -9 9 -6 5 4 21 2 35 -4 29 -11 30 -11 16 24 -8
23 -7 26 11 26 12 0 23 -8 26 -20 3 -11 9 -20 14 -20 13 0 11 24 -3 38 -31 31
31 0 71 -35 30 -27 43 -29 35 -8 -13 34 17 12 33 -24 10 -24 22 -37 30 -34 7
3 11 8 8 12 -6 11 57 7 74 -3 10 -6 12 -5 7 2 -4 7 -3 12 2 12 6 0 8 9 5 21
-3 11 -9 16 -12 11 -3 -6 -19 -14 -35 -18 -27 -6 -28 -5 -23 17 11 45 -22 68
-120 85 -48 8 -105 24 -126 35 -21 11 -44 16 -50 12 -8 -5 -1 -10 18 -14 l30
-7 -30 -1 c-16 0 -41 8 -55 19 -30 24 -40 25 -40 5 0 -22 -34 -18 -56 7 -19
21 -19 21 3 16 13 -4 26 -2 29 3 3 5 -2 9 -10 9 -22 0 -20 17 2 23 9 3 -3 4
-28 2 -35 -3 -41 -2 -27 6 20 12 191 16 224 5 12 -4 24 -2 28 3 3 6 -4 12 -17
15 -57 11 -218 27 -268 26 -30 0 -79 2 -108 6 -34 4 -58 2 -65 -5 -8 -8 5 -11
48 -11 71 0 69 -7 -5 -14 -30 -3 -68 -8 -85 -11 -25 -4 -27 -3 -11 6 25 15 6
26 -39 21 -21 -3 -35 -10 -35 -18 0 -22 -16 -17 -34 11 -22 33 -21 35 22 35
24 0 32 3 23 9 -15 10 -44 5 -80 -12 -19 -9 -25 -9 -28 1 -3 6 -11 12 -19 12
-9 0 -12 5 -9 10 7 12 9 12 -36 -4z m467 -98 c4 -5 2 -8 -4 -8 -21 0 -13 -19
10 -22 12 -2 23 -9 26 -16 3 -11 0 -12 -16 -3 -27 15 -32 14 -32 -4 0 -14 -23
-20 -64 -16 -10 0 -25 -4 -33 -10 -7 -7 -16 -9 -20 -6 -12 13 19 35 65 48 43
12 45 13 18 17 -16 2 -32 -1 -35 -6 -3 -5 -18 -12 -33 -16 -17 -4 -28 -13 -28
-24 0 -13 -9 -17 -39 -18 -29 0 -38 3 -34 13 3 7 0 13 -6 13 -6 0 -11 -7 -11
-15 0 -9 -9 -15 -22 -15 -13 0 -36 -7 -52 -15 -32 -17 -50 -19 -41 -6 3 5 1
12 -4 15 -12 8 -2 46 13 48 6 0 25 3 41 4 17 2 50 6 75 9 25 3 55 6 68 6 12 1
22 5 22 10 0 5 10 7 23 4 14 -4 28 -1 34 7 12 14 66 18 79 6z m-408 -115 c-6
-7 -14 -10 -19 -7 -5 3 -17 0 -26 -6 -15 -9 -15 -10 5 -5 22 6 23 5 12 -15
-16 -30 -69 -60 -107 -60 -18 0 -33 -4 -33 -10 0 -15 -44 -40 -80 -44 -18 -2
-37 -11 -42 -20 -5 -9 -13 -16 -19 -16 -5 0 -28 -13 -51 -30 -22 -16 -46 -30
-53 -30 -6 0 -24 -13 -40 -30 -16 -16 -34 -30 -41 -30 -6 0 -23 -9 -38 -21
-17 -13 -26 -16 -26 -8 0 8 -6 5 -13 -6 -10 -12 -16 -14 -21 -7 -7 12 40 82
55 82 5 0 26 16 48 35 21 19 43 35 48 35 6 0 27 14 48 30 21 17 44 30 51 30 8
0 13 3 12 8 -1 4 6 19 16 34 22 34 100 72 143 71 18 -1 33 3 33 8 0 5 10 9 23
9 12 0 40 9 62 18 28 13 43 15 51 8 8 -8 9 -15 2 -23z"/>
<path d="M2090 2140 c0 -11 -4 -20 -9 -20 -5 0 -12 -8 -15 -17 -4 -10 -4 -14
0 -10 8 8 34 -11 34 -24 0 -16 -26 -9 -51 12 -16 15 -20 23 -11 26 6 3 12 9
12 14 0 5 -9 4 -20 -3 -14 -9 -18 -19 -13 -33 5 -18 4 -18 -11 -6 -14 12 -16
12 -10 -3 7 -18 -11 -22 -21 -5 -4 5 -15 -6 -26 -26 -11 -20 -17 -41 -13 -47
4 -7 -1 -8 -16 -3 -19 6 -22 4 -17 -9 6 -14 3 -15 -15 -5 -12 7 -31 12 -43 13
-11 1 -20 8 -21 16 -1 8 -2 25 -2 37 -2 25 -33 46 -56 37 -13 -5 -12 -12 10
-51 26 -47 26 -65 -1 -43 -12 10 -15 10 -15 -1 0 -8 -6 -3 -14 11 -8 16 -9 29
-3 38 6 8 6 12 -1 12 -6 0 -13 -4 -16 -9 -3 -4 -18 -6 -33 -4 l-28 5 33 -22
c17 -12 32 -26 32 -31 0 -12 -14 -11 -27 2 -12 12 -73 3 -73 -11 0 -5 7 -13
16 -18 14 -8 12 -10 -10 -14 -23 -5 -29 -1 -37 21 -10 25 -11 25 -25 7 -12
-17 -12 -22 2 -37 9 -10 13 -22 10 -27 -3 -5 3 -17 13 -26 15 -13 20 -14 24
-4 2 7 7 10 11 7 13 -12 -7 -39 -28 -39 -25 0 -64 -25 -54 -35 3 -4 25 -9 47
-12 22 -3 46 -12 52 -19 9 -11 14 -11 26 2 9 8 22 13 31 9 8 -3 23 2 33 11 12
11 23 13 34 6 14 -7 9 -13 -31 -32 -26 -13 -43 -25 -36 -28 7 -2 12 -9 12 -16
0 -7 17 -18 37 -25 31 -11 38 -11 47 0 6 8 18 15 26 17 8 2 18 8 21 14 4 6 12
7 20 2 21 -13 49 -15 49 -4 0 6 5 10 10 10 6 0 10 -7 10 -16 0 -11 5 -14 16
-10 37 14 64 18 64 8 0 -5 -8 -13 -17 -16 -23 -9 -6 -23 37 -31 25 -4 41 -1
55 10 20 16 18 16 -32 1 -14 -5 -23 -3 -23 3 0 6 4 11 9 11 5 0 17 7 26 16 10
10 22 13 33 8 19 -9 29 -11 55 -13 30 -2 18 -21 -13 -21 -21 0 -30 -5 -30 -16
0 -12 6 -15 25 -10 28 7 31 -1 12 -28 -12 -16 -14 -16 -26 -2 -16 19 -33 21
-30 4 1 -7 1 -22 0 -32 -1 -18 -3 -17 -24 5 -13 13 -22 26 -21 29 2 4 -6 12
-18 19 -18 11 -19 10 -13 -10 5 -16 4 -19 -6 -14 -9 6 -10 4 -6 -8 4 -10 10
-25 13 -34 5 -17 5 -17 -9 0 -14 17 -47 14 -47 -4 0 -5 -7 -9 -15 -9 -11 0
-14 7 -11 25 3 15 1 23 -5 20 -5 -4 -7 -11 -4 -16 4 -5 1 -9 -5 -9 -6 0 -15
-10 -20 -22 -5 -13 -9 -17 -9 -10 -1 6 -8 12 -16 12 -8 0 -15 7 -15 15 0 8 -9
15 -20 15 -11 0 -20 4 -20 9 0 12 -98 12 -105 0 -9 -13 -45 -11 -45 2 0 8 -4
8 -12 2 -19 -15 -50 -24 -43 -14 6 11 -8 22 -52 37 -22 8 -33 8 -33 1 0 -12
-39 -47 -53 -47 -5 0 -6 8 -3 18 6 16 5 16 -8 0 -14 -20 -36 -24 -36 -8 0 19
-18 10 -23 -11 -4 -16 -11 -20 -26 -16 -17 4 -21 0 -21 -19 0 -27 0 -27 -34
-14 -17 6 -26 6 -26 0 0 -6 -6 -10 -13 -10 -14 0 -41 -39 -32 -48 3 -3 21 -6
40 -5 19 1 35 -4 35 -9 0 -6 6 -5 15 2 12 10 15 9 15 -4 0 -10 5 -14 11 -11 6
4 17 -1 25 -11 12 -17 13 -17 8 -2 -4 13 1 20 19 27 14 5 28 15 32 21 4 6 15
8 25 5 12 -4 17 -1 16 9 -2 20 18 21 22 1 5 -23 -17 -45 -44 -45 -23 0 -44
-25 -44 -54 0 -10 9 -16 25 -16 16 0 25 6 25 15 0 8 -4 15 -10 15 -5 0 -10 -4
-10 -10 0 -5 -4 -10 -9 -10 -5 0 -7 9 -4 19 4 15 17 21 55 26 27 4 52 4 55 1
3 -3 12 -1 20 5 8 7 13 8 13 1 0 -5 -11 -17 -23 -25 -32 -21 -36 -77 -6 -77
11 0 18 3 16 8 -5 10 25 36 46 40 11 2 17 -4 17 -16 0 -26 18 -39 67 -50 30
-7 43 -6 47 2 3 8 7 7 13 -2 6 -7 23 -10 44 -8 19 2 49 4 67 5 21 1 32 6 32
16 0 8 -7 15 -15 15 -10 0 -15 10 -15 32 0 29 1 30 18 16 9 -9 22 -14 28 -11
6 2 14 -4 18 -13 4 -11 2 -15 -7 -11 -7 3 -13 -3 -13 -13 0 -22 37 -21 311 5
28 2 65 9 83 14 22 7 42 7 59 0 14 -5 30 -6 37 -1 10 8 109 28 187 37 38 5
114 15 144 19 11 2 34 4 52 5 l32 1 0 78 c-1 78 -15 147 -42 212 -8 19 -18 54
-22 77 -8 49 -10 51 -92 93 -67 34 -81 45 -33 27 16 -6 33 -8 37 -3 9 9 -146
155 -164 156 -19 0 -16 -11 10 -38 l22 -24 -30 7 c-16 4 -42 16 -57 26 -16 11
-28 15 -28 10 0 -5 5 -13 10 -16 6 -3 10 -13 10 -22 0 -15 -1 -15 -17 0 -54
49 -63 56 -68 46 -4 -5 -10 -7 -15 -4 -4 3 -6 -4 -3 -15 3 -13 -1 -22 -11 -26
-21 -8 -35 4 -18 15 9 5 5 11 -13 19 -36 16 -56 15 -70 -5 -8 -11 -18 -14 -31
-8 -10 4 -25 7 -31 6 -7 -1 -13 3 -13 9 0 5 -7 10 -15 10 -22 0 -55 37 -49 55
4 8 1 15 -5 15 -6 0 -11 -9 -11 -20z"/>
<path d="M490 2004 c-8 -14 -22 -30 -32 -35 -9 -5 -20 -25 -24 -44 -3 -19 -10
-32 -15 -29 -5 3 -9 -5 -9 -18 0 -14 -7 -33 -16 -44 -13 -16 -15 -16 -10 -1 7
21 -10 23 -18 1 -3 -9 -6 -31 -6 -49 0 -18 -6 -36 -12 -38 -9 -4 -10 -8 -2
-14 6 -4 39 -41 74 -81 39 -47 65 -70 70 -62 8 12 4 150 -5 217 -6 43 11 123
27 123 5 0 4 8 -1 18 -6 11 -6 24 0 33 11 18 12 49 1 49 -5 0 -15 -12 -22 -26z"/>
<path d="M1169 1884 c-13 -7 -34 -13 -46 -14 -14 0 -23 -6 -23 -15 0 -8 -8
-15 -17 -15 -9 0 -33 -5 -52 -11 -20 -6 -48 -14 -63 -19 -30 -9 -36 -2 -16 18
8 8 8 12 1 12 -12 0 -40 -30 -35 -39 4 -7 -9 -15 -71 -42 -26 -11 -45 -24 -42
-30 4 -5 0 -9 -8 -9 -7 0 -33 -9 -56 -21 -24 -11 -45 -18 -48 -15 -16 15 -132
-65 -155 -107 -9 -17 -6 -18 29 -12 21 4 51 8 66 9 15 2 33 8 39 14 7 7 18 12
25 12 7 0 13 4 13 10 0 5 11 12 25 16 14 3 23 9 20 13 -6 11 55 30 90 29 17 0
45 3 64 7 26 5 32 4 26 -5 -6 -9 -4 -11 4 -6 7 5 10 14 7 22 -3 8 -1 14 3 14
5 0 11 -5 13 -12 3 -7 12 -6 30 6 17 11 28 13 33 7 3 -6 -1 -11 -9 -11 -8 0
-17 -4 -21 -9 -3 -6 7 -6 27 -1 17 6 34 8 36 5 2 -2 13 5 25 16 12 10 35 19
53 19 20 0 34 6 38 16 4 10 16 15 33 14 45 -3 53 -1 53 16 0 13 3 14 15 4 8
-7 21 -10 29 -7 7 3 20 0 27 -6 7 -7 6 -3 -4 9 -19 23 -23 39 -7 29 6 -3 10
-1 10 4 0 13 -2 13 -35 1 -20 -8 -32 -6 -51 6 -24 16 -24 17 -7 34 10 9 21 13
24 8 3 -5 9 -1 11 10 5 17 2 20 -24 16 -23 -2 -27 0 -20 9 15 17 -28 18 -59 1z"/>
<path d="M344 1702 c5 -16 3 -22 -7 -22 -15 0 -26 -44 -25 -95 0 -11 -5 -44
-11 -73 -11 -54 -9 -162 4 -195 4 -10 5 -20 2 -24 -4 -3 4 -20 17 -37 13 -17
24 -43 24 -57 -1 -29 30 -99 43 -99 4 0 3 13 -2 29 -6 16 -8 49 -6 73 10 84
49 218 75 255 14 21 27 50 28 65 2 25 0 27 -30 21 -17 -3 -49 -14 -70 -25 -27
-13 -42 -16 -49 -9 -8 8 -6 11 6 11 9 0 17 5 17 11 0 6 -7 9 -15 5 -18 -7 -21
20 -2 27 9 4 8 8 -3 17 -17 13 -14 12 72 -10 62 -16 83 -7 33 14 -59 25 -85
53 -79 85 4 19 0 32 -12 41 -15 14 -16 13 -10 -8z"/>
<path d="M506 1561 c-4 -6 9 -24 28 -42 20 -17 35 -34 34 -37 -3 -14 38 -72
51 -72 8 0 11 -6 7 -15 -3 -8 -1 -26 4 -40 5 -14 7 -25 5 -25 -7 0 -76 107
-92 140 -20 44 -14 6 11 -65 18 -51 21 -71 12 -81 -6 -6 -14 -10 -17 -8 -11 6
-32 172 -23 186 5 10 4 10 -5 2 -7 -7 -15 -52 -18 -107 -5 -77 -2 -106 11
-141 9 -24 16 -48 14 -52 -4 -14 20 -74 29 -74 4 0 8 -12 8 -27 0 -16 4 -41 8
-58 7 -29 7 -29 -9 -10 -15 18 -16 18 -10 2 3 -10 6 -21 6 -23 0 -2 6 -4 14
-4 8 0 16 -7 20 -15 3 -8 12 -12 20 -9 9 4 34 -10 61 -32 37 -30 45 -42 41
-60 -6 -24 9 -43 17 -22 4 10 8 9 16 -2 8 -11 6 -16 -7 -21 -13 -4 -10 -7 10
-12 15 -4 32 -5 40 -2 15 5 64 -32 55 -42 -4 -3 -15 0 -24 8 -15 11 -16 11 -6
-1 7 -7 34 -26 60 -42 26 -16 38 -27 26 -23 -12 3 -24 1 -28 -5 -3 -5 0 -10 7
-10 19 -1 176 -79 159 -79 -10 -1 -11 -4 -2 -14 12 -15 5 -27 -16 -27 -7 0
-13 8 -13 18 -1 15 -2 15 -13 -3 -12 -20 -67 -32 -67 -14 0 5 -7 9 -16 9 -9 0
-12 5 -8 12 5 7 2 9 -8 6 -8 -4 -28 2 -44 13 -18 11 -23 19 -13 19 8 0 20 -5
27 -12 7 -7 12 -8 12 -3 0 6 -25 23 -54 38 -30 16 -62 40 -71 53 -8 13 -21 24
-29 24 -13 0 -46 31 -46 44 0 4 10 4 22 0 20 -6 21 -5 9 9 -9 12 -18 14 -31 7
-13 -7 -19 -6 -23 5 -4 10 -1 12 11 9 9 -3 5 2 -10 11 -16 8 -28 22 -28 30 0
8 -5 14 -12 13 -6 -2 -25 19 -42 46 -23 37 -31 61 -31 97 0 26 -3 45 -6 43
-15 -9 -27 28 -44 134 -11 71 -16 143 -13 189 6 87 -7 84 -38 -7 -24 -70 -27
-281 -5 -302 12 -11 13 -10 8 5 -4 9 -2 17 3 17 5 0 14 -16 21 -35 7 -19 15
-33 17 -30 8 8 30 -22 34 -46 1 -13 5 -26 8 -29 3 -3 13 -22 24 -42 10 -20 27
-46 37 -57 11 -11 19 -24 19 -28 0 -14 61 -73 76 -73 7 0 14 -7 14 -15 0 -22
92 -125 111 -125 4 0 20 -11 36 -24 15 -13 69 -38 118 -55 178 -63 181 -65
160 -69 -11 -2 -23 -9 -26 -14 -3 -5 -25 -12 -48 -15 -107 -14 48 -42 276 -49
155 -5 169 -7 210 -30 24 -15 46 -32 51 -39 11 -19 49 -36 65 -29 8 3 17 1 21
-4 6 -10 -45 -9 -61 1 -7 4 -15 2 -19 -4 -5 -8 -3 -9 6 -4 9 6 12 4 8 -7 -6
-15 17 -18 40 -4 6 4 24 1 39 -8 16 -8 58 -27 96 -42 63 -25 92 -43 47 -29
-12 4 -27 1 -35 -5 -8 -7 -15 -8 -15 -3 0 4 -33 9 -72 10 -40 1 -73 2 -73 3 0
3 -50 11 -80 13 -16 1 -35 5 -40 9 -6 3 -29 3 -53 -2 -23 -4 -42 -3 -42 1 0 5
-18 9 -39 9 -22 0 -43 5 -46 10 -4 6 6 10 22 10 l28 1 -30 14 -30 13 38 1 c20
1 37 6 37 11 0 16 -204 -15 -242 -37 -13 -7 4 -33 21 -33 9 0 21 -4 27 -9 13
-13 132 -62 174 -71 19 -5 60 -15 90 -24 176 -49 618 -93 849 -83 218 9 612
65 706 101 36 13 30 22 -12 17 -7 -1 -13 2 -13 7 0 10 -89 30 -150 34 -31 3
-24 7 70 47 58 24 130 60 160 79 144 91 160 103 155 113 -4 5 -1 8 5 7 7 -2
14 7 16 19 l4 22 -33 -19 c-60 -36 -112 -58 -162 -71 -27 -6 -72 -22 -98 -34
-34 -16 -47 -19 -43 -9 3 8 1 14 -4 14 -6 0 -10 -3 -10 -8 0 -4 -9 -13 -20
-20 -16 -9 -26 -10 -42 -1 -17 9 -20 9 -15 -3 4 -12 -2 -14 -29 -12 -23 1 -37
-2 -41 -12 -3 -8 -13 -14 -22 -14 -13 0 -13 2 -2 9 7 5 9 11 5 13 -5 3 -3 3 4
2 6 -2 12 1 12 7 0 7 -19 9 -57 4 -32 -3 -78 -6 -102 -5 -41 1 -43 0 -37 -23
7 -29 -13 -51 -38 -41 -21 8 -20 17 4 32 28 17 25 30 -7 25 -42 -6 -46 -6 -67
2 -14 6 -17 4 -14 -11 2 -10 10 -18 17 -16 7 1 10 -2 7 -7 -9 -14 -46 -1 -46
17 0 8 -3 12 -7 9 -3 -4 -12 -2 -19 4 -10 8 -16 5 -25 -9 -8 -12 -20 -18 -33
-15 -15 4 -17 2 -8 -5 11 -7 7 -11 -13 -16 -15 -4 -30 -5 -33 -1 -3 3 2 5 11
5 13 0 15 5 7 24 -5 13 -7 26 -4 29 7 7 -19 24 -51 31 -29 7 -29 7 -10 -14 10
-11 24 -19 31 -16 8 3 11 -1 7 -10 -3 -7 1 -14 8 -14 7 0 10 -2 7 -5 -9 -9
-59 14 -53 25 3 5 1 10 -4 10 -6 0 -11 -4 -11 -10 0 -5 -5 -10 -11 -10 -5 0
-7 5 -4 11 11 17 -42 58 -70 55 -36 -4 -45 -17 -9 -14 37 2 53 -7 50 -29 -3
-19 -26 -31 -26 -13 0 8 -6 8 -20 0 -16 -9 -22 -8 -26 5 -3 8 -10 15 -16 15
-5 0 -7 -4 -4 -9 3 -4 -10 -1 -29 7 -42 19 -46 35 -7 27 27 -5 27 -5 3 5 -17
7 -34 8 -54 1 -25 -9 -32 -7 -53 16 -13 14 -24 21 -24 15 0 -5 -9 -8 -20 -5
-11 3 -20 9 -20 13 0 4 -12 12 -27 19 -23 11 -25 10 -13 -3 10 -13 10 -16 -1
-16 -8 0 -20 9 -27 20 -7 11 -18 17 -27 14 -10 -4 -15 0 -15 10 0 15 -12 21
-34 17 -14 -3 -77 50 -71 59 3 5 0 12 -6 16 -8 4 -9 3 -5 -4 4 -7 2 -12 -4
-12 -13 0 -73 40 -78 52 -2 4 -12 8 -22 8 -10 0 -20 7 -24 15 -3 8 -12 12 -21
9 -8 -4 -15 -1 -15 6 0 7 -7 10 -15 6 -8 -3 -15 -2 -15 3 0 5 -17 21 -37 36
l-38 28 28 -30 c25 -27 26 -31 11 -37 -10 -4 -22 -1 -28 5 -8 9 -7 10 7 6 9
-4 1 9 -18 29 -20 19 -33 39 -30 43 2 5 -3 15 -12 22 -32 27 -90 127 -122 213
-18 47 -37 88 -42 91 -12 8 -12 -8 0 -20 6 -6 25 -53 44 -105 66 -180 105
-252 198 -361 27 -31 46 -59 42 -62 -3 -4 0 -14 8 -23 13 -16 12 -16 -9 -3
-12 8 -20 20 -17 27 3 7 0 10 -5 7 -6 -3 -10 -3 -10 2 0 4 -12 16 -25 26 -23
16 -24 16 -18 1 5 -13 3 -15 -7 -9 -9 5 -11 4 -6 -4 4 -6 11 -9 15 -7 4 3 27
-14 49 -38 69 -72 50 -66 -35 11 -14 12 -28 23 -32 25 -17 6 -139 167 -171
223 -18 33 -42 68 -52 78 -10 10 -16 22 -13 26 2 5 -7 37 -21 72 -19 47 -25
75 -21 107 4 37 2 42 -12 37 -9 -3 -26 2 -37 10 -10 8 -28 15 -38 15 -19 0
-19 0 -1 13 12 10 14 16 7 21 -7 4 -12 2 -12 -3 0 -6 -9 -11 -20 -11 -11 0
-20 5 -20 11 0 6 9 13 20 16 23 6 27 23 6 23 -8 0 -23 3 -33 7 -15 6 -16 5 -5
-9 11 -14 10 -16 -7 -11 -12 3 -21 1 -21 -6 0 -6 -4 -11 -10 -11 -5 0 -10 7
-10 15 0 9 -10 19 -23 24 -21 8 -43 31 -100 100 -10 13 -25 20 -33 17 -11 -4
-12 -1 -6 12 5 9 8 32 8 50 -1 35 5 39 26 19 7 -8 27 -18 43 -24 20 -7 29 -16
27 -27 -4 -21 12 -21 29 1 8 9 9 14 2 10 -7 -4 -14 1 -18 13 -3 11 -11 20 -16
20 -5 0 -9 5 -9 10 0 13 70 10 88 -3 8 -7 12 -4 12 8 0 13 -6 16 -25 13 -14
-3 -30 1 -36 8 -6 8 -17 14 -23 14 -6 0 -4 -5 4 -10 11 -7 6 -9 -17 -6 -18 2
-33 -1 -33 -6 0 -5 -4 -6 -10 -3 -5 3 -10 11 -10 16 0 6 5 7 10 4 6 -3 10 -1
10 6 0 8 4 8 15 -1 9 -7 15 -8 15 -2 0 5 -16 17 -36 27 -19 9 -38 23 -41 31
-3 8 -10 11 -15 8 -6 -4 -8 -1 -6 7 3 8 11 13 17 12 22 -5 11 18 -17 35 -16 9
-27 23 -25 30 3 6 0 12 -5 12 -19 0 -19 -25 -1 -49 30 -37 25 -55 -8 -34 -16
9 -34 23 -40 32 -8 9 -13 10 -13 3 0 -19 -34 -14 -53 8 -9 11 -26 20 -36 20
-11 0 -24 7 -29 16 -6 11 -11 13 -16 5z m124 -376 c7 -8 16 -13 20 -10 4 3 13
-2 20 -11 7 -8 19 -13 27 -10 7 3 13 -1 13 -8 0 -8 10 -16 23 -20 18 -5 20 -8
7 -16 -13 -9 -13 -11 0 -20 8 -5 22 -7 32 -4 9 2 19 0 23 -6 3 -5 14 -10 23
-10 9 0 32 -16 49 -35 20 -22 38 -33 47 -29 9 4 18 -1 22 -10 3 -9 11 -13 17
-9 6 4 8 0 4 -10 -5 -14 -2 -16 17 -11 16 4 23 1 23 -9 0 -9 -8 -13 -21 -10
-20 4 -20 4 -2 -11 10 -8 15 -19 11 -25 -3 -6 1 -11 9 -11 8 0 20 -8 25 -17 6
-10 11 -14 11 -9 0 5 7 3 15 -4 13 -11 14 -10 9 6 -5 14 0 12 20 -8 15 -16 31
-28 37 -28 5 0 9 -6 8 -12 -3 -26 1 -37 14 -33 7 3 24 -14 39 -40 15 -25 24
-45 19 -45 -14 0 -31 26 -23 35 4 5 -1 5 -10 2 -13 -4 -15 -2 -11 10 4 10 2
14 -4 10 -13 -8 -53 29 -49 46 1 6 1 9 -1 5 -3 -5 -11 -8 -19 -8 -9 0 -12 5
-9 10 7 12 -2 12 -30 1 -17 -7 -17 -8 8 -15 15 -3 27 -11 27 -17 0 -6 4 -8 9
-5 12 8 34 -21 26 -34 -3 -5 -13 -10 -22 -10 -9 0 -13 3 -10 6 4 4 -3 15 -15
25 -27 24 -36 24 -15 1 23 -25 21 -35 -3 -22 -11 6 -20 18 -20 26 0 8 -4 12
-10 9 -5 -3 -10 -1 -10 5 0 7 -6 10 -14 7 -8 -3 -24 5 -37 19 -23 24 -46 33
-33 13 5 -8 1 -8 -14 0 -12 6 -24 16 -27 21 -4 6 -24 22 -46 35 -21 14 -46 39
-54 56 l-16 30 25 -16 c14 -9 28 -24 31 -33 5 -16 54 -46 62 -38 2 2 -18 23
-44 47 -26 24 -47 49 -45 55 1 7 -4 14 -13 18 -19 7 -20 26 0 26 8 0 15 -5 15
-12 0 -9 3 -9 11 -1 9 9 8 16 -3 27 -17 16 -62 11 -51 -7 3 -6 1 -7 -6 -3 -6
4 -9 10 -7 14 2 4 -2 16 -10 27 -8 10 -14 13 -14 7 0 -7 -5 -12 -10 -12 -6 0
-8 12 -4 28 4 20 3 23 -5 12 -9 -13 -13 -12 -28 8 -10 13 -29 37 -41 53 -13
16 -19 29 -14 29 5 0 15 -7 22 -15z m889 -601 c6 -13 16 -24 23 -24 9 0 8 -3
-2 -10 -10 -7 -11 -10 -2 -11 33 -4 37 -6 34 -18 -1 -7 2 -10 8 -6 9 6 121
-61 128 -77 2 -5 8 -8 13 -8 6 0 51 -22 101 -50 50 -27 97 -50 104 -50 8 0 14
-5 14 -11 0 -5 4 -8 9 -5 5 3 14 -1 21 -9 7 -8 32 -24 56 -34 27 -12 49 -31
59 -51 16 -30 15 -32 -2 -28 -11 2 -17 11 -15 23 3 16 1 17 -11 7 -18 -15 -48
-5 -41 13 3 7 -2 15 -11 19 -13 5 -15 1 -9 -17 4 -12 12 -25 18 -29 7 -5 3 -8
-9 -8 -11 0 -40 14 -65 30 -25 16 -51 30 -57 30 -7 0 -13 4 -13 10 0 5 -7 7
-15 4 -8 -4 -15 -1 -15 5 0 6 -10 11 -22 11 -16 0 -19 3 -10 8 8 6 0 14 -25
27 -21 10 -41 18 -45 17 -4 -1 -5 4 -3 11 3 6 -5 18 -17 26 -21 13 -22 13 -9
-3 18 -22 8 -31 -13 -11 -9 9 -20 14 -25 11 -12 -8 -150 98 -140 109 3 2 31
-16 62 -41 31 -24 57 -40 57 -34 0 6 -10 18 -21 28 -12 9 -43 35 -69 58 -26
22 -56 47 -66 55 -10 8 -27 23 -36 35 -17 20 -17 20 16 21 26 1 36 -4 45 -23z"/>
<path d="M2910 1438 c-12 -8 -12 -9 2 -4 13 4 17 0 15 -12 -3 -17 -8 -22 -28
-22 -5 0 -8 4 -5 9 3 5 -8 11 -24 13 -33 5 -40 -6 -13 -20 10 -6 14 -16 9 -27
-5 -13 -2 -16 9 -11 9 3 18 -1 22 -10 8 -20 -4 -29 -20 -16 -8 7 -17 9 -20 5
-4 -3 -7 -1 -7 7 0 9 -9 11 -29 7 -21 -4 -31 -2 -35 9 -3 9 -11 12 -18 8 -10
-6 -10 -5 -1 7 16 20 0 44 -31 44 -14 1 -22 -3 -20 -7 3 -4 -1 -8 -10 -8 -8 0
-17 6 -19 13 -4 9 -6 9 -6 -1 -1 -7 -5 -11 -10 -8 -4 3 -19 -4 -32 -15 -15
-13 -30 -18 -44 -14 -11 4 -29 6 -40 6 -11 -1 -39 -2 -62 -3 -24 0 -40 -5 -37
-10 6 -10 -59 -4 -90 8 -13 5 -24 0 -38 -17 -11 -13 -17 -18 -13 -11 4 8 -1
12 -15 12 -11 0 -24 -8 -28 -17 -4 -10 -18 -19 -32 -20 -21 -2 -23 -1 -7 8 26
15 20 26 -12 21 -17 -2 -28 -9 -25 -16 3 -7 -7 -11 -26 -11 -16 0 -30 3 -30 8
0 4 -7 7 -15 7 -8 0 -15 -4 -15 -9 0 -16 -35 -22 -62 -12 -19 7 -29 6 -42 -7
-12 -12 -34 -17 -80 -17 -35 0 -62 -3 -60 -7 6 -10 -54 -21 -67 -12 -8 4 -9 3
-5 -5 9 -13 -29 -51 -51 -51 -7 0 -13 -5 -13 -11 0 -6 9 -8 20 -4 15 5 18 3
14 -9 -3 -9 -1 -16 5 -16 6 0 11 7 11 15 0 9 10 19 23 24 12 5 20 12 17 16 -7
11 60 17 74 7 6 -5 22 -9 36 -10 14 -1 35 -4 47 -7 13 -3 28 1 37 11 10 10 16
11 16 3 0 -9 3 -9 15 1 8 6 24 13 37 15 13 2 34 7 47 11 17 5 22 4 17 -4 -5
-9 0 -9 19 -2 15 6 42 10 61 10 19 0 34 5 34 10 0 6 5 10 10 10 20 0 10 -27
-15 -40 -14 -7 -25 -17 -25 -22 0 -5 4 -7 9 -3 5 3 12 1 16 -4 3 -6 12 -8 20
-5 17 7 14 -24 -4 -35 -10 -6 -9 -12 3 -24 21 -21 22 -44 1 -27 -12 10 -15 9
-15 -4 0 -10 -5 -14 -10 -11 -6 3 -7 17 -4 29 4 16 0 25 -11 30 -9 3 -13 10
-10 16 3 5 4 10 1 10 -3 0 -13 -14 -21 -31 -18 -34 -6 -63 22 -52 11 4 14 2 9
-5 -4 -7 2 -9 19 -6 20 3 28 -1 35 -18 5 -13 9 -17 9 -10 1 7 6 10 11 7 6 -3
17 0 25 9 9 9 11 17 5 21 -5 3 -10 1 -10 -4 0 -6 -4 -11 -8 -11 -9 0 -34 62
-27 68 2 3 7 -2 11 -11 5 -13 10 -14 25 -6 10 5 19 16 19 23 0 7 6 13 13 13 8
0 14 -5 14 -11 0 -6 3 -27 8 -46 l8 -35 -21 25 c-24 28 -27 24 -12 -14 8 -21
7 -24 -8 -19 -26 9 -11 -2 26 -20 18 -8 30 -11 27 -6 -4 5 -2 9 4 9 15 0 23
-18 11 -25 -6 -4 -8 -11 -4 -16 3 -5 9 -7 13 -5 4 3 7 -5 6 -17 -3 -34 10 -72
25 -72 7 0 18 -9 24 -20 6 -11 16 -24 21 -28 6 -6 6 -10 -2 -14 -19 -7 -16
-20 7 -26 11 -3 20 -10 20 -16 0 -8 -6 -9 -19 -1 -11 5 -27 7 -35 4 -10 -4
-18 1 -23 12 -3 9 -15 26 -26 37 -10 10 -25 34 -33 52 -21 51 -49 44 -50 -12
0 -24 3 -43 8 -43 4 0 8 -5 8 -12 0 -6 6 -19 14 -27 22 -26 30 -61 13 -61 -9
0 -18 6 -20 13 -3 7 -6 4 -6 -6 -1 -10 -4 -16 -8 -14 -5 3 -7 -17 -6 -44 1
-31 -2 -47 -8 -43 -6 3 -8 12 -5 20 3 8 -1 14 -8 14 -8 0 -16 -6 -18 -12 -3
-7 -16 5 -30 27 -14 22 -24 42 -21 45 2 2 8 -1 12 -9 6 -10 11 -9 24 4 9 8 20
15 24 15 4 -1 11 8 15 20 5 13 4 19 -2 15 -6 -3 -10 4 -10 15 0 12 -11 43 -24
69 -14 25 -32 62 -40 81 -10 22 -16 28 -16 16 0 -15 -3 -16 -15 -6 -10 9 -15
9 -15 1 0 -6 4 -11 9 -11 14 0 21 -44 9 -51 -9 -6 -8 -11 1 -23 9 -11 10 -20
1 -35 -7 -14 -7 -21 0 -21 5 0 10 5 10 10 0 6 5 10 11 10 6 0 8 -7 5 -16 -3
-8 -2 -12 4 -9 6 3 10 -1 10 -9 0 -20 -19 -31 -25 -14 -3 8 -14 14 -25 15 -18
2 -19 0 -5 -13 11 -12 12 -20 4 -36 -13 -23 -2 -39 12 -18 8 12 9 11 5 -5 -3
-11 -2 -26 3 -34 12 -18 2 -51 -15 -51 -17 0 -10 -43 12 -74 9 -13 10 -25 4
-36 -11 -20 12 -46 30 -35 5 3 10 2 10 -3 0 -22 31 -5 45 25 12 25 21 32 38
29 15 -2 21 -9 19 -22 -2 -11 -1 -16 3 -12 4 4 16 -2 28 -13 11 -10 24 -19 29
-19 13 0 9 61 -6 116 -24 87 -25 94 -9 94 8 0 11 -5 7 -12 -4 -7 -3 -8 5 -4 6
4 14 0 17 -8 3 -9 10 -13 15 -10 5 3 9 -1 9 -8 0 -16 36 -49 44 -41 3 3 11 -6
17 -21 9 -19 15 -23 20 -14 5 8 11 -5 15 -32 4 -25 9 -39 12 -32 3 10 11 7 28
-9 13 -12 27 -19 31 -16 3 4 12 2 20 -5 21 -17 26 -2 6 21 -18 21 -39 30 -28
11 3 -6 -1 -7 -10 -4 -10 4 -15 14 -12 25 3 10 -1 23 -8 29 -11 9 -38 87 -39
115 -1 6 10 10 24 11 14 0 31 3 38 8 6 4 12 2 12 -3 0 -6 7 -11 16 -11 19 0
77 -57 70 -68 -3 -5 1 -9 9 -9 8 0 15 6 15 13 0 8 6 11 15 8 19 -8 19 10 0 26
-8 7 -14 18 -13 24 1 6 -8 32 -19 59 -20 44 -36 57 -46 40 -2 -5 -2 -3 -1 4 2
7 -6 15 -18 18 -14 5 -17 10 -9 18 8 8 20 4 43 -13 25 -18 29 -19 17 -4 -17
20 -22 54 -8 54 5 0 13 -9 19 -20 6 -11 8 -20 4 -20 -3 0 -1 -7 6 -15 7 -8 17
-12 23 -8 6 3 7 1 3 -5 -4 -7 -2 -12 5 -12 7 0 10 -11 7 -30 -3 -23 -1 -30 9
-26 7 3 13 -2 14 -12 0 -14 2 -14 8 2 7 19 8 19 14 1 4 -10 10 -15 14 -11 9 8
36 -32 29 -43 -4 -5 3 -7 14 -4 11 3 18 9 15 13 -3 5 3 11 12 13 17 4 17 5 1
6 -23 1 -24 37 -1 45 10 4 26 -3 43 -19 26 -25 61 -26 59 -1 -1 19 -14 48 -22
46 -4 0 -15 6 -23 15 -9 8 -13 15 -9 15 12 0 -127 128 -144 133 -17 4 -19 0
-16 -39 1 -24 1 -44 -2 -44 -2 0 -31 23 -64 52 -38 33 -58 57 -54 66 3 8 1 20
-5 27 -6 8 -5 18 4 31 17 23 35 10 19 -14 -8 -14 -5 -22 14 -40 13 -12 28 -20
33 -17 5 3 11 1 15 -5 9 -15 25 -12 25 5 0 21 56 16 77 -7 9 -10 18 -16 22
-15 3 2 19 -9 34 -25 15 -15 23 -28 17 -28 -5 0 -19 9 -30 20 -24 24 -26 13
-2 -16 20 -24 74 -59 85 -56 4 1 7 -2 7 -6 0 -4 8 -8 19 -8 12 0 17 6 13 18
-5 21 -18 24 -26 6 -3 -7 -3 -2 0 13 4 19 -3 33 -30 60 -20 18 -36 42 -36 52
0 9 -8 17 -18 17 -9 0 -23 9 -30 21 -10 16 -19 19 -43 14 -24 -5 -28 -4 -23 9
3 9 10 16 16 16 5 0 6 5 3 10 -3 6 -1 10 6 10 6 0 1 8 -12 19 -19 15 -21 21
-11 34 10 12 10 16 -2 20 -19 8 -29 -22 -14 -40 10 -12 9 -18 -6 -28 -10 -8
-15 -18 -12 -23 3 -5 -1 -15 -9 -22 -13 -11 -14 -10 -10 2 4 10 -1 14 -17 14
-16 -1 -22 4 -20 16 1 9 -9 25 -23 36 -14 11 -25 27 -25 35 0 9 -9 19 -20 22
-14 4 -20 15 -20 35 0 16 -6 31 -12 33 -10 4 -10 6 0 6 8 1 16 -8 19 -19 3
-11 9 -20 13 -20 5 0 22 -24 39 -52 25 -44 35 -53 60 -55 27 -2 30 0 22 15 -4
9 -6 23 -4 30 3 7 -4 12 -15 12 -11 0 -25 7 -32 15 -7 8 -19 15 -26 15 -8 0
-14 4 -14 8 0 5 7 9 15 9 8 0 15 -4 15 -8 0 -3 9 -9 20 -12 25 -6 26 8 3 22
-10 5 -14 13 -10 17 4 4 20 -5 35 -19 16 -15 33 -27 38 -27 6 0 21 -11 34 -25
17 -18 19 -25 9 -26 -8 -1 0 -4 16 -8 26 -5 30 -11 30 -38 1 -36 38 -83 66
-83 10 0 23 -8 28 -17 10 -17 10 -17 11 0 0 17 4 15 34 -10 26 -22 32 -34 29
-55 -3 -14 0 -34 6 -45 8 -14 9 -10 4 20 -4 30 -2 37 10 37 10 0 14 -6 11 -14
-4 -11 0 -13 15 -9 15 4 20 2 16 -8 -3 -8 4 -20 15 -26 16 -11 18 -10 13 4 -4
11 -3 14 6 9 7 -5 16 -19 21 -32 6 -14 15 -21 23 -18 8 3 20 -3 28 -12 12 -15
12 -16 -9 -10 -13 5 -22 3 -22 -3 0 -6 9 -11 21 -11 13 0 18 -4 13 -12 -5 -7
-2 -9 9 -5 17 6 31 -18 20 -35 -4 -8 2 -9 18 -5 13 4 27 7 32 7 4 0 7 7 7 15
0 11 -7 14 -25 9 -15 -4 -25 -2 -25 5 0 9 27 16 51 13 13 -2 -4 40 -18 45 -10
4 -11 9 -2 19 9 12 9 13 -4 8 -12 -4 -15 0 -14 15 1 21 37 31 37 11 0 -5 4
-10 10 -10 5 0 7 6 4 14 -6 17 40 28 55 13 8 -8 11 -8 11 -1 0 6 -12 17 -26
24 -14 8 -32 27 -40 42 -8 15 -24 34 -36 42 -18 13 -19 16 -6 16 9 0 20 -5 23
-10 4 -6 11 -8 16 -4 6 3 2 12 -10 21 -12 8 -21 20 -20 26 0 8 2 8 6 -1 4 -10
8 -10 21 0 13 11 14 11 10 -2 -2 -8 7 -24 21 -36 26 -22 26 -23 6 -38 -18 -13
-17 -13 16 -3 20 6 35 16 32 22 -2 7 3 18 12 25 20 16 19 46 -1 54 -14 5 -14
9 -3 23 8 9 9 14 2 10 -9 -5 -9 0 0 23 9 25 9 33 -2 39 -7 5 -11 13 -7 19 7
11 -18 65 -39 82 -8 7 -15 21 -15 31 0 10 -9 24 -20 32 -11 8 -17 16 -15 19
10 9 -64 78 -83 78 -10 0 -23 -5 -30 -12 -7 -7 -12 -8 -12 -2 0 18 -59 9 -83
-13 -12 -10 -26 -19 -32 -19 -18 2 -35 17 -30 27 4 5 -8 9 -25 9 -27 0 -31 -3
-28 -22 2 -13 9 -22 15 -21 10 2 10 -3 1 -22 -6 -14 -15 -25 -20 -25 -13 0
-10 18 5 23 18 8 -14 28 -32 21 -10 -3 -9 2 4 16 22 24 13 26 -21 4 -20 -14
-23 -14 -19 -2 8 21 -17 40 -35 26z m-418 -120 c-2 -10 2 -27 8 -37 8 -15 7
-22 -6 -29 -14 -8 -13 -14 4 -66 11 -32 24 -62 31 -69 6 -6 11 -17 11 -24 0
-17 6 -16 35 3 23 15 24 14 40 -16 9 -17 20 -28 25 -25 6 3 7 -1 4 -9 -8 -21
-20 -20 -45 5 -15 15 -24 18 -32 10 -11 -11 -10 -12 16 -15 6 -1 11 -9 9 -18
-1 -9 2 -19 8 -23 5 -3 10 -13 10 -21 0 -8 10 -25 23 -37 19 -19 33 -47 24
-47 -2 0 -18 7 -35 16 -18 8 -36 13 -40 10 -5 -3 -19 6 -30 19 -23 26 -62 34
-62 13 0 -33 -31 37 -34 77 -2 25 -7 49 -10 52 -12 12 -6 25 9 19 10 -3 6 7
-11 29 -16 22 -21 35 -13 35 8 0 5 6 -7 15 -16 12 -17 16 -4 24 9 6 19 6 26 0
8 -7 13 -2 17 16 5 28 -14 55 -39 55 -8 0 -14 4 -14 9 0 5 -9 11 -20 14 -11 3
-20 0 -20 -6 0 -7 -17 -13 -40 -14 -23 0 -40 4 -40 10 0 6 3 7 7 4 3 -4 11 -3
17 2 16 14 98 20 119 10 16 -9 22 -1 18 24 -1 5 9 7 21 5 15 -2 22 -9 20 -20z
m617 -292 c9 -10 21 -12 48 -6 39 9 72 -4 74 -30 0 -10 2 -11 6 -2 2 7 13 16
22 21 14 8 17 5 17 -17 0 -15 4 -39 7 -54 4 -16 4 -28 -1 -28 -5 0 -8 -8 -7
-18 1 -23 30 -64 38 -55 4 3 7 2 7 -4 0 -18 -12 -22 -27 -7 -8 8 -20 11 -26 7
-7 -4 -8 0 -4 11 5 14 3 16 -12 11 -13 -4 -23 0 -30 12 -8 13 -10 14 -11 4 0
-11 -4 -10 -14 4 -14 20 -11 45 6 45 5 0 7 -4 3 -9 -3 -6 5 -15 17 -22 19 -9
21 -9 11 2 -17 17 -17 37 -1 21 7 -7 16 -12 21 -12 16 0 -4 20 -38 36 -19 9
-33 20 -30 24 2 4 -16 16 -41 26 -25 10 -50 27 -55 36 -12 22 3 24 20 4z"/>
<path d="M1449 1337 c-9 -21 -49 -36 -49 -18 0 4 -15 8 -34 9 -23 2 -36 -2
-40 -14 -4 -11 -10 -13 -19 -7 -6 5 -25 10 -40 11 -15 1 -37 7 -48 13 -15 8
-24 7 -35 -2 -13 -10 -17 -10 -24 0 -10 18 -30 5 -30 -20 0 -10 -4 -19 -10
-19 -5 0 -10 5 -10 11 0 8 -5 7 -15 -1 -11 -9 -22 -10 -38 -3 -25 10 -57 6
-57 -8 0 -5 4 -9 8 -9 4 0 9 -8 10 -17 1 -10 3 -27 6 -38 2 -11 -1 -26 -6 -32
-8 -10 -4 -12 16 -11 17 2 25 7 21 16 -9 23 25 26 46 3 29 -31 65 -28 77 8 8
24 17 29 53 34 24 3 78 12 119 21 41 8 110 20 153 27 83 13 91 17 76 39 -7 12
-9 11 -9 -4 0 -18 -1 -18 -20 -1 -18 16 -20 16 -20 2 0 -10 -4 -17 -10 -17 -5
0 -10 7 -10 16 0 11 -6 14 -22 9 -17 -6 -20 -4 -15 9 10 25 -12 19 -24 -7z"/>
<path d="M1550 1204 c0 -14 -3 -14 -15 -4 -12 10 -15 9 -15 -5 0 -15 -2 -15
-16 -4 -14 11 -18 11 -29 -4 -10 -14 -14 -15 -18 -5 -5 11 -7 11 -15 0 -5 -8
-13 -13 -18 -13 -13 1 -23 -45 -13 -60 5 -8 9 -24 9 -37 0 -13 8 -31 17 -40
16 -16 16 -16 10 0 -3 10 -1 20 5 24 6 4 8 3 4 -4 -3 -6 -2 -13 3 -16 5 -3 11
1 15 9 4 12 10 13 33 3 15 -7 31 -16 34 -21 3 -4 10 -7 15 -6 21 4 26 -2 14
-16 -10 -13 -9 -15 9 -15 11 0 21 -4 21 -10 0 -5 -5 -10 -11 -10 -5 0 -7 -5
-3 -11 4 -8 9 -7 15 2 5 8 9 10 9 5 0 -5 8 -2 17 5 15 12 15 10 -1 -16 -15
-23 -16 -27 -3 -17 18 16 32 10 48 -20 7 -13 7 -18 1 -14 -6 3 -13 2 -17 -4
-3 -5 6 -12 21 -16 20 -5 31 -2 40 11 8 10 16 16 19 13 3 -3 -1 -13 -10 -22
-13 -12 -14 -20 -5 -37 14 -25 6 -36 -14 -20 -11 9 -15 9 -19 -1 -4 -8 -6 -7
-6 5 -1 9 -6 17 -12 17 -6 0 -9 -7 -5 -15 3 -8 1 -15 -4 -15 -6 0 -10 -5 -10
-11 0 -6 7 -8 15 -5 8 3 22 9 30 12 10 4 15 0 15 -10 0 -10 -6 -13 -15 -10
-11 5 -13 2 -9 -10 9 -23 18 -20 34 9 14 27 25 31 35 15 10 -16 28 -12 21 5
-7 19 -2 19 13 1 10 -12 5 -18 -26 -32 -37 -18 -53 -31 -53 -47 0 -5 7 -1 16
7 20 20 35 21 28 1 -4 -8 -1 -15 4 -15 6 0 13 9 17 20 6 19 7 18 31 -7 13 -14
24 -29 24 -34 0 -4 8 -15 17 -25 16 -16 16 -16 -6 -9 -16 5 -21 4 -17 -4 4 -6
19 -11 33 -11 18 0 24 -4 19 -15 -3 -10 3 -17 19 -21 14 -3 25 -10 25 -15 0
-12 61 -49 71 -43 4 2 5 14 3 27 -2 12 -2 16 2 10 4 -10 11 -10 27 -1 20 10
21 10 8 -6 -12 -15 -12 -16 5 -9 25 9 36 26 21 35 -6 4 -9 9 -6 12 3 3 15 -3
26 -14 12 -10 24 -16 27 -13 9 9 7 -6 -3 -25 -6 -12 -4 -22 7 -32 14 -13 15
-12 9 3 -5 15 -3 17 12 12 11 -3 22 -1 26 5 3 6 11 8 16 5 5 -4 9 -1 9 4 0 6
-8 11 -17 12 -15 0 -15 2 2 9 11 5 16 9 10 9 -5 1 -11 26 -12 57 -1 50 0 54
14 37 18 -22 6 3 -19 39 -14 20 -16 32 -9 50 9 22 10 22 10 2 1 -23 40 -78 41
-57 0 6 -6 14 -12 16 -8 3 -5 6 6 6 15 1 16 4 7 15 -7 9 -8 17 -2 20 14 9 -7
77 -30 99 -24 23 -59 14 -54 -13 2 -10 -3 -26 -10 -37 -8 -10 -15 -27 -15 -38
-1 -18 -1 -19 -11 -2 -5 9 -7 22 -3 29 5 7 2 9 -7 4 -8 -4 -6 -1 4 7 18 15 18
16 1 25 -14 8 -16 13 -6 24 10 12 7 17 -14 26 -32 15 -35 15 -28 -3 4 -8 10
-12 15 -9 10 6 7 -32 -4 -42 -11 -11 -8 -26 3 -19 6 3 10 0 10 -8 0 -8 6 -26
13 -40 8 -15 13 -37 12 -49 -1 -13 2 -25 6 -28 4 -3 5 -10 1 -15 -4 -6 -17 -1
-32 14 -20 19 -21 23 -6 17 16 -5 17 -4 6 9 -9 11 -9 15 -1 15 9 0 9 5 1 20
-8 15 -17 18 -38 14 -23 -5 -28 -2 -29 17 -1 12 8 30 20 40 22 17 21 17 -15 6
-20 -6 -34 -15 -31 -20 3 -5 -4 -17 -14 -27 -20 -18 -20 -17 -19 11 1 16 7 31
14 34 14 5 17 65 2 65 -6 0 -8 -13 -5 -28 4 -24 0 -31 -20 -40 -31 -14 -54 -6
-52 19 1 22 17 26 17 5 0 -8 5 -18 12 -22 8 -5 9 -2 5 10 -6 14 -3 17 8 12 14
-5 15 0 10 31 -3 21 -11 40 -17 45 -7 4 -9 10 -5 14 4 4 2 13 -3 19 -6 7 -11
31 -13 54 -2 46 -4 48 -23 24 -13 -17 -14 -17 -8 0 5 13 1 17 -15 17 -12 0
-21 -5 -21 -11 0 -5 4 -8 9 -4 9 5 27 -32 19 -40 -2 -2 -20 9 -41 25 -25 18
-34 31 -26 35 6 4 15 1 20 -6 7 -11 9 -11 9 -1 0 7 -12 18 -28 25 -19 8 -27
18 -24 32 2 18 1 18 -10 4 -18 -21 -49 -32 -42 -14 3 7 12 16 20 19 22 8 17
25 -11 36 -14 5 -25 14 -25 19 0 9 -60 24 -67 17 -2 -2 3 -10 11 -19 13 -13
13 -17 2 -26 -11 -9 -16 -5 -24 19 -12 33 -52 44 -52 14z"/>
<path d="M1269 931 c17 -21 31 -42 31 -46 0 -8 55 -80 83 -107 19 -20 32 -24
21 -6 -5 7 -3 8 5 4 7 -5 10 -14 7 -21 -3 -8 2 -19 10 -25 8 -7 14 -21 14 -31
0 -15 6 -18 25 -15 13 3 24 2 24 -2 -4 -25 3 -33 21 -27 14 5 20 2 20 -9 0 -9
6 -16 13 -16 6 -1 28 -14 47 -30 35 -30 57 -39 44 -18 -4 7 -3 8 4 4 7 -4 19
-3 28 2 13 7 8 14 -28 35 -24 14 -81 63 -128 110 -46 47 -90 83 -97 80 -7 -3
-16 2 -19 11 -3 9 -10 14 -14 11 -5 -3 -11 8 -15 25 -4 18 -17 35 -33 42 -29
15 -46 45 -18 35 21 -8 20 -5 -6 17 -18 15 -20 16 -15 2 8 -20 -7 -21 -27 -1
-29 29 -27 14 3 -24z"/>
</g>
</svg>
