<?xml version="1.0" standalone="no"?>
<!DOCTYPE svg PUBLIC "-//W3C//DTD SVG 20010904//EN"
 "http://www.w3.org/TR/2001/REC-SVG-20010904/DTD/svg10.dtd">
<svg version="1.0" xmlns="http://www.w3.org/2000/svg"
 width="1180.000000pt" height="200.000000pt" viewBox="0 0 1180.000000 200.000000"
 preserveAspectRatio="xMidYMid meet">
<metadata>
Created by potrace 1.16, written by Peter Selinger 2001-2019
</metadata>
<g transform="translate(0.000000,200.000000) scale(0.100000,-0.100000)"
fill="#000000" stroke="none">
<path d="M9115 1945 c-53 -19 -104 -80 -105 -125 0 -32 1 -33 14 -14 8 11 37
31 66 44 59 28 83 21 88 -26 2 -23 -5 -35 -34 -58 -21 -16 -34 -25 -31 -19 4
6 0 14 -9 17 -23 9 -23 9 -44 -26 -22 -37 -26 -94 -8 -133 9 -21 16 -25 38
-20 35 8 111 -10 183 -42 l58 -26 25 24 c89 82 82 225 -12 264 -38 15 -42 30
-18 56 15 17 15 21 -2 56 l-19 38 -75 2 c-46 2 -91 -3 -115 -12z"/>
<path d="M9657 1874 c-4 -4 -4 -17 -1 -29 5 -19 0 -25 -29 -34 -20 -7 -41 -18
-47 -26 -7 -8 -16 -13 -20 -10 -24 15 -50 -108 -28 -131 5 -4 25 -2 47 4 21 7
69 12 106 12 55 0 77 -5 111 -25 24 -14 48 -34 54 -45 15 -28 27 -25 45 10 36
70 8 188 -54 219 -20 11 -45 28 -55 40 -15 16 -31 21 -71 21 -28 0 -55 -3 -58
-6z"/>
<path d="M6792 1799 c-61 -12 -176 -76 -196 -109 -11 -20 -16 -52 -16 -114 0
-97 12 -135 59 -188 17 -20 31 -43 31 -53 0 -34 -34 -88 -64 -102 -17 -8 -41
-20 -53 -27 l-22 -12 29 -17 c17 -10 50 -17 82 -17 87 0 159 -12 165 -27 8
-20 -58 -75 -74 -61 -8 6 -11 19 -8 29 5 13 1 19 -10 19 -11 0 -15 -5 -12 -15
4 -8 2 -17 -4 -20 -5 -4 -7 -10 -4 -15 7 -12 -44 -70 -61 -70 -7 0 -14 12 -16
27 -2 18 -10 29 -22 31 -14 3 -17 0 -13 -12 5 -12 0 -16 -23 -16 -22 0 -28 -4
-24 -15 4 -8 1 -15 -6 -15 -7 0 -10 -6 -7 -14 3 -8 -1 -20 -9 -27 -11 -9 -18
-8 -34 6 -19 17 -20 17 -27 -1 -4 -10 -18 -31 -32 -47 l-25 -28 -10 23 c-7 19
-10 20 -13 6 -5 -21 -80 -57 -111 -54 -13 1 -27 9 -32 16 -5 8 -13 11 -17 6
-4 -5 -2 -11 5 -13 24 -9 11 -23 -20 -22 -18 1 -51 -5 -74 -12 -37 -11 -43
-10 -61 7 -40 38 -46 62 -24 97 21 34 142 153 176 174 17 10 18 13 5 22 -8 6
-27 11 -42 11 -16 0 -28 5 -28 10 0 14 -83 13 -117 -2 -15 -7 -41 -23 -56 -35
-16 -13 -35 -23 -43 -23 -17 0 -59 -25 -91 -54 -17 -15 -23 -30 -23 -64 0 -58
23 -105 71 -143 22 -17 39 -37 39 -45 0 -15 41 -38 85 -48 27 -6 34 -2 68 39
21 25 47 45 57 45 33 0 30 -16 -4 -28 -27 -10 -37 -22 -55 -68 -22 -59 -28
-114 -11 -114 6 0 6 -9 0 -26 -18 -47 -14 -56 18 -40 48 24 85 27 171 12 82
-15 174 -59 155 -75 -31 -25 -92 -33 -199 -26 -126 8 -128 7 -198 -58 -63 -59
-84 -128 -51 -162 12 -12 13 -19 4 -30 -21 -25 20 -94 92 -158 l65 -57 135 0
135 0 13 45 c7 25 16 45 20 45 15 0 19 30 5 43 -33 33 56 145 132 166 88 25
231 -1 303 -54 27 -19 51 -43 54 -52 5 -13 4 -14 -9 -3 -8 7 -22 10 -30 6 -9
-3 -13 -2 -10 4 3 6 -2 13 -12 17 -10 3 -25 12 -35 20 -23 20 -105 25 -112 6
-3 -8 -10 -11 -16 -8 -6 3 -13 -1 -16 -10 -4 -10 -13 -14 -23 -10 -10 4 -7 -2
8 -19 l23 -24 -22 -12 c-12 -6 -30 -13 -41 -15 -11 -2 -26 -11 -35 -19 -26
-26 -29 -18 -4 9 13 14 29 24 35 21 7 -2 18 0 26 6 10 6 1 7 -26 3 -22 -3 -49
-6 -60 -8 -30 -3 -47 -17 -41 -33 3 -8 2 -13 -2 -13 -21 3 -24 -3 -6 -17 10
-8 13 -13 6 -9 -18 10 -42 -13 -34 -33 5 -15 4 -15 -12 0 -22 23 -26 23 -26
-3 0 -11 4 -17 10 -14 5 3 7 0 4 -9 -3 -8 -13 -17 -22 -19 -10 -3 2 -5 26 -6
23 0 42 4 42 9 0 6 5 10 11 10 5 0 7 -5 4 -10 -4 -7 98 -10 306 -10 l312 1 53
48 c71 65 136 96 199 95 57 0 180 -35 210 -59 20 -16 20 -16 -1 -10 -13 3 -26
-1 -34 -10 -7 -8 -18 -15 -24 -15 -6 0 -24 -11 -41 -25 l-30 -24 434 -1 c365
0 432 2 428 14 -6 15 46 70 56 59 4 -3 7 -1 7 5 0 6 10 12 22 14 12 2 23 9 26
16 2 7 -2 10 -12 6 -9 -3 -16 -1 -16 6 0 6 8 10 18 9 9 -1 30 3 45 9 16 7 61
13 101 14 62 3 80 -1 128 -25 62 -31 101 -66 77 -68 -8 -1 -20 -1 -26 0 -7 1
-13 -3 -13 -9 0 -5 8 -10 17 -10 12 0 14 -3 7 -10 -7 -7 -19 -6 -37 3 -15 8
-24 17 -21 20 13 13 -9 45 -44 65 -32 17 -48 20 -90 15 -50 -6 -65 -16 -39
-26 10 -4 10 -6 0 -6 -22 -2 -14 -30 12 -47 14 -9 22 -20 19 -26 -3 -5 -11 -4
-20 3 -7 6 -22 8 -31 4 -10 -4 -29 -9 -43 -11 -14 -3 -29 -9 -35 -15 -5 -5
204 -9 559 -9 540 0 568 1 555 18 -13 16 -13 16 6 0 18 -15 60 -17 421 -18
l401 -1 19 28 18 28 6 -25 6 -25 289 0 289 0 30 57 c16 32 31 80 34 108 4 48
5 50 31 42 36 -10 136 -5 161 8 11 6 20 19 20 28 0 10 16 33 35 52 71 68 87
221 32 294 -27 35 -93 61 -118 46 -7 -5 -26 -6 -43 -3 -17 2 -50 0 -73 -5 -27
-6 -43 -6 -43 0 0 5 -5 6 -11 3 -9 -6 -38 20 -39 35 0 12 68 30 113 30 25 0
49 5 52 10 11 18 -5 88 -28 121 -37 54 -66 69 -145 76 -79 6 -85 2 -57 -47 8
-14 14 -38 14 -55 -1 -30 -1 -30 -9 -4 -4 14 -20 44 -35 68 -21 31 -31 39 -37
29 -8 -10 -11 -11 -15 0 -16 39 -163 51 -190 15 -7 -9 -16 -14 -19 -10 -10 10
-64 -25 -64 -41 0 -9 -7 -11 -20 -7 -13 4 -20 2 -18 -5 4 -15 -23 -21 -84 -20
-25 0 -49 -4 -53 -10 -4 -6 -20 1 -43 20 -20 16 -40 30 -44 30 -14 0 -48 -45
-44 -57 3 -7 -2 -13 -11 -13 -13 0 -13 -3 -3 -15 8 -9 9 -15 2 -15 -21 0 -22
19 -6 67 29 85 17 208 -27 277 -16 25 -33 46 -39 46 -6 0 -15 12 -20 26 -6 16
-14 23 -22 18 -7 -4 -10 -3 -5 1 4 5 0 17 -10 27 -19 22 -41 25 -23 3 7 -8 8
-15 2 -15 -5 0 -15 7 -22 15 -21 25 -38 17 -60 -26 -18 -34 -19 -45 -10 -75 6
-19 14 -34 17 -34 3 0 18 9 34 21 16 11 29 17 29 12 0 -5 -14 -17 -31 -27 -26
-15 -30 -23 -27 -47 7 -44 -8 -21 -21 34 -13 52 -56 119 -101 154 l-28 23 -16
-25 c-9 -13 -16 -28 -16 -32 0 -4 -11 -21 -24 -38 l-25 -30 25 55 c14 30 29
62 33 70 9 16 -37 60 -63 60 -14 0 -20 12 -17 33 0 4 -9 7 -21 7 -21 -1 -21
-2 -5 -11 9 -6 15 -15 11 -20 -3 -6 -14 0 -25 12 -14 17 -22 19 -32 10 -8 -6
-16 -9 -19 -6 -7 7 -68 -15 -68 -25 0 -4 24 -22 53 -38 29 -16 59 -37 66 -46
11 -13 17 -14 30 -4 14 11 14 11 3 -3 -10 -13 -9 -23 3 -52 8 -20 15 -44 14
-54 0 -10 -7 0 -15 22 -16 43 -41 76 -30 38 4 -12 2 -24 -5 -29 -9 -5 -10 -2
-6 9 3 10 2 17 -3 17 -6 0 -10 9 -10 21 0 13 4 18 13 13 8 -6 8 -3 -2 9 -7 9
-30 27 -50 38 -20 12 -46 31 -58 42 -24 22 -43 16 -43 -14 0 -11 5 -17 10 -14
6 4 10 -5 10 -19 0 -29 14 -34 28 -10 6 11 12 13 16 6 4 -6 -2 -20 -12 -30
-11 -11 -22 -36 -26 -56 -8 -40 -25 -41 -21 -1 2 16 -2 25 -11 25 -12 0 -12 4
2 26 13 19 14 28 5 37 -8 8 -11 8 -11 -1 0 -8 -7 -9 -25 -2 -17 6 -25 6 -25
-1 0 -6 -5 -7 -11 -4 -6 4 -8 14 -5 22 5 12 1 14 -21 8 -38 -9 -88 -39 -89
-53 -5 -49 -5 -48 -14 -27 -5 11 -9 15 -9 8 -1 -6 -4 -18 -7 -27 -4 -11 0 -16
13 -16 11 0 28 -9 38 -20 21 -23 9 -26 -19 -5 -21 16 -47 4 -42 -18 1 -7 1 -9
-1 -4 -8 13 -43 7 -43 -8 0 -19 4 -30 10 -29 3 1 19 4 37 7 31 6 32 6 15 -12
-9 -9 -23 -16 -30 -13 -7 2 -19 -4 -26 -13 -12 -17 -14 -15 -20 19 -6 29 -2
45 14 71 12 19 26 35 31 35 5 0 9 8 9 18 0 11 9 27 19 36 11 10 21 28 23 40 4
29 102 77 141 69 15 -3 47 2 70 11 24 9 84 22 133 29 l89 13 0 56 c0 45 -6 62
-29 92 -23 31 -32 36 -50 30 -11 -4 -66 -8 -121 -9 -86 -1 -106 -5 -144 -26
-68 -38 -73 -53 -30 -92 20 -18 41 -45 48 -62 11 -30 11 -30 -6 -8 -21 25
-147 87 -151 73 -2 -4 6 -26 16 -47 21 -42 40 -114 25 -98 -5 6 -20 37 -33 70
-37 94 -43 100 -133 128 -85 27 -147 31 -169 9 -7 -7 -25 -12 -40 -12 -15 0
-28 -5 -28 -11 0 -13 -41 -48 -56 -49 -17 0 -94 -80 -94 -97 0 -8 -5 -11 -11
-8 -6 4 -8 10 -4 13 3 3 -20 18 -52 34 -55 26 -133 38 -133 19 0 -4 -12 -6
-26 -3 -18 3 -33 -3 -52 -20 -39 -35 -113 -64 -97 -38 3 6 2 10 -4 10 -6 0
-15 -9 -21 -20 -6 -11 -17 -20 -25 -20 -7 0 -17 -9 -20 -20 -7 -21 -16 -24
-52 -14 -25 7 -30 28 -11 40 6 4 26 7 45 6 23 -1 33 3 33 13 0 10 -10 15 -29
15 -19 0 -30 6 -33 18 -7 30 3 52 24 52 19 0 18 2 -6 21 -22 17 -26 27 -22 53
5 24 4 26 -3 11 -7 -14 -10 -15 -10 -5 -1 8 -12 29 -25 45 l-24 30 -124 1
c-87 0 -129 -4 -144 -13 -12 -8 -26 -13 -30 -12 -19 5 -63 -21 -69 -40 -7 -24
-35 -36 -35 -15 0 20 17 53 41 80 19 20 18 20 -18 21 -39 1 -87 -24 -144 -77
-31 -28 -34 -29 -37 -11 -4 26 29 89 65 123 15 15 48 36 73 46 l45 20 -50 7
c-92 15 -260 -33 -283 -80 -18 -35 -36 -40 -75 -22 -44 20 -134 40 -152 33 -8
-3 -33 -44 -56 -91 -58 -121 -183 -246 -208 -207 -7 10 -36 9 -63 -3 -29 -12
-50 2 -42 27 6 20 5 21 -10 9 -17 -15 -22 -61 -6 -61 6 0 10 -4 10 -10 0 -5
-8 -10 -18 -10 -10 0 -23 -5 -30 -12 -15 -15 -15 0 -2 107 19 151 22 170 44
251 23 87 21 109 -11 132 -58 40 -107 48 -191 31z m1358 -360 c65 -35 190
-148 190 -172 0 -14 -4 -15 -37 -1 -34 15 -82 42 -93 54 -3 3 -25 22 -49 44
l-44 39 -84 -7 c-98 -7 -121 -17 -190 -83 -50 -46 -93 -123 -93 -164 0 -11 -8
-23 -17 -26 -10 -4 -27 -15 -37 -25 -28 -26 -38 -12 -21 29 8 19 15 39 15 43
0 8 -84 -5 -102 -16 -6 -4 -6 2 1 15 13 23 101 77 141 86 17 4 36 24 60 66 39
68 88 112 158 140 63 26 126 19 202 -22z m-440 15 c22 -9 40 -19 40 -23 -1
-19 -20 -33 -39 -28 -35 9 -144 -10 -157 -28 -7 -9 -18 -13 -28 -9 -9 3 -30 1
-46 -6 -86 -36 -38 35 55 80 68 33 117 37 175 14z m-616 -221 c4 -4 44 -8 89
-8 70 0 90 -4 137 -28 61 -32 100 -64 100 -83 0 -10 -8 -10 -32 -2 -18 5 -44
12 -58 15 -14 3 -37 16 -52 29 -22 18 -34 21 -55 15 -16 -4 -44 -6 -63 -4 -28
4 -40 -1 -59 -21 -14 -14 -28 -26 -32 -26 -4 0 -20 -5 -36 -12 -28 -11 -37
-14 -60 -16 -19 -3 -53 -44 -46 -56 3 -6 2 -8 -2 -3 -5 4 -17 0 -27 -10 -17
-15 -18 -15 -18 1 0 30 28 73 76 115 26 22 42 41 36 41 -12 0 -71 -47 -90 -72
-15 -21 -52 -24 -52 -5 1 20 33 52 81 80 48 28 79 35 79 16 0 -16 45 -6 46 11
1 8 2 18 3 23 1 9 25 9 35 0z m2914 -123 c15 -1 15 -2 -1 -11 -20 -12 -52 -71
-61 -115 -7 -30 -5 -32 35 -48 23 -9 39 -19 37 -22 -3 -2 -31 7 -63 22 -32 14
-77 32 -99 39 -37 13 -41 12 -66 -9 l-27 -22 34 0 c18 0 39 -6 46 -13 10 -11
9 -13 -3 -6 -8 4 0 -5 18 -20 17 -14 32 -31 32 -36 0 -14 -21 -33 -45 -43 -17
-7 -14 -10 20 -21 29 -11 42 -11 50 -3 7 7 7 9 0 5 -6 -3 -17 -2 -25 4 -13 7
-12 9 2 9 9 0 24 3 33 6 9 4 15 3 13 -2 -1 -5 6 -23 15 -41 22 -41 21 -50 -2
-56 -15 -3 -20 2 -25 24 -3 16 -10 29 -16 29 -6 0 -6 -9 1 -26 12 -32 3 -65
-16 -58 -7 3 -16 1 -20 -5 -4 -7 3 -11 16 -11 12 0 19 -3 16 -7 -8 -7 -85 15
-105 30 -7 6 -15 7 -19 3 -3 -3 -11 4 -18 17 -8 16 -20 22 -45 22 -19 0 -44 6
-55 13 -18 11 -16 12 16 6 43 -7 63 12 53 50 -6 25 -34 37 -34 15 0 -8 -4 -8
-15 1 -8 6 -20 8 -26 4 -8 -4 -9 -3 -5 4 5 8 -8 11 -44 9 -40 -2 -50 1 -48 13
2 8 14 17 28 21 17 5 19 7 7 8 -10 1 -27 -4 -38 -9 -10 -6 -19 -7 -19 -2 0 5
20 15 45 22 24 7 50 20 57 28 11 14 10 15 -7 8 -11 -4 -22 -8 -25 -9 -3 -1
-24 2 -47 6 -28 5 -43 12 -43 22 0 8 -9 15 -20 15 -11 0 -20 5 -20 10 0 13 77
13 85 1 3 -6 17 -6 35 -1 17 5 30 5 30 0 0 -9 100 -5 132 6 10 3 18 0 18 -6 0
-6 5 -8 10 -5 22 14 6 24 -74 51 -47 15 -97 37 -113 50 -24 19 -19 18 35 -7
34 -17 71 -32 82 -34 11 -2 25 -7 30 -10 5 -3 7 0 4 8 -6 18 12 32 21 17 4 -6
11 -8 16 -5 5 4 9 2 9 -4 0 -5 -5 -13 -11 -17 -8 -4 -7 -9 2 -15 9 -6 18 -3
27 8 11 15 12 15 12 1 0 -9 6 -18 12 -20 13 -5 27 14 48 61 6 13 13 21 16 18
3 -3 -4 -24 -15 -47 -20 -42 -20 -42 -1 -25 11 10 20 24 20 31 0 7 4 16 10 19
12 7 1 -55 -13 -72 -7 -9 -5 -13 5 -13 17 0 38 62 33 100 -3 30 13 53 32 45 8
-3 22 -5 31 -5z m-948 -97 c30 -16 65 -43 79 -62 l26 -35 -32 24 c-33 24 -83
35 -93 21 -8 -13 -63 -24 -55 -11 5 8 -4 10 -30 6 -21 -4 -40 -8 -44 -11 -4
-2 -18 -6 -32 -9 -13 -2 -33 -8 -44 -12 -11 -4 5 12 35 35 30 23 55 45 55 49
1 40 62 42 135 5z m-1259 -3 c26 0 24 -14 -6 -30 -14 -7 -25 -20 -25 -28 0 -8
-6 -12 -14 -9 -7 3 -29 -5 -47 -17 -19 -13 -49 -27 -67 -30 -18 -4 -30 -12
-26 -17 3 -5 0 -9 -5 -9 -6 0 -11 -7 -11 -15 0 -8 -5 -15 -10 -15 -6 0 -8 11
-4 27 6 24 5 25 -8 12 -9 -8 -14 -17 -11 -22 2 -4 -6 -20 -18 -35 l-22 -27 7
29 c10 41 58 107 101 141 40 30 111 56 133 49 8 -2 22 -4 33 -4z m567 -59 c51
-26 104 -77 132 -126 l23 -40 -32 35 c-20 22 -28 27 -21 13 14 -30 13 -33 -10
-33 -10 0 -24 10 -31 21 -9 17 -13 19 -20 8 -5 -8 -9 -9 -9 -3 0 15 -54 23
-74 12 -16 -9 -66 9 -66 24 0 4 -6 8 -14 8 -8 0 -22 7 -31 16 -14 15 -17 14
-36 -10 -11 -15 -34 -33 -50 -42 -30 -15 -54 -11 -43 7 3 6 -3 5 -14 -2 -12
-7 -19 -15 -17 -17 5 -5 -21 -32 -30 -32 -13 0 -36 -30 -38 -49 0 -11 -4 -18
-8 -15 -4 2 -15 -6 -23 -18 -21 -29 -20 -7 0 40 10 20 18 42 20 49 4 21 66
102 82 108 12 5 12 1 -3 -17 -11 -13 -13 -17 -5 -10 8 6 22 12 31 12 10 0 21
4 24 10 4 6 -1 7 -11 3 -12 -4 -15 -3 -10 6 4 7 15 10 24 8 10 -2 31 3 47 12
l30 15 -30 6 -30 7 30 7 c17 4 35 10 40 12 24 9 137 -7 173 -25z m-1573 -411
c-3 -5 -15 -10 -26 -10 -10 0 -19 -2 -19 -4 0 -2 -3 -12 -7 -22 -5 -15 -2 -16
29 -11 19 3 41 2 48 -3 19 -12 40 -1 33 18 -5 11 -2 14 10 9 9 -3 19 -2 22 4
12 18 25 -2 15 -21 -12 -22 -13 -33 -2 -27 4 3 12 -1 18 -7 16 -17 -49 -20
-92 -4 -39 14 -122 -11 -176 -53 -46 -36 -52 -36 -43 -1 4 15 7 35 7 44 -1 30
62 76 115 83 26 4 53 8 58 10 6 2 11 4 13 4 2 1 0 -3 -3 -9z m3338 -146 c-18
-8 1 -60 20 -56 10 2 17 -4 17 -13 0 -13 4 -14 20 -5 12 6 28 10 38 9 9 -2 30
0 46 4 28 8 28 8 10 29 -17 18 -14 18 21 -4 48 -30 58 -58 21 -58 -14 0 -27
-4 -30 -8 -7 -12 -114 -14 -121 -2 -7 12 -26 14 -22 3 1 -5 -2 -8 -8 -8 -5 0
-8 8 -7 18 2 11 -3 17 -15 17 -34 0 -63 -12 -63 -26 0 -8 -4 -14 -9 -14 -11 0
-25 30 -22 48 1 6 -3 12 -9 12 -5 0 -10 5 -10 10 0 6 6 10 14 10 7 0 19 6 26
14 6 8 21 17 33 19 31 6 64 6 50 1z m532 -64 c-10 -11 -16 -22 -14 -24 17 -15
73 -36 85 -32 8 3 14 2 14 -2 0 -5 16 -6 35 -4 22 3 35 10 35 19 0 12 3 12 21
-1 12 -8 28 -12 35 -9 8 3 14 0 14 -7 0 -6 -4 -8 -10 -5 -13 8 -13 -1 0 -26
11 -19 -3 -29 -14 -10 -3 5 -21 9 -40 8 -27 -1 -32 -4 -28 -19 3 -12 -1 -18
-12 -18 -9 0 -16 7 -16 15 0 26 -51 31 -103 10 -10 -4 -17 -4 -16 1 3 20 -2
35 -10 29 -5 -3 -21 0 -35 6 -21 10 -33 8 -76 -13 -27 -14 -50 -21 -50 -16 0
4 5 8 10 8 6 0 10 7 10 15 0 20 39 44 101 60 29 8 57 19 62 24 19 19 21 12 2
-9z m-1027 -105 c73 -23 143 -68 128 -82 -3 -4 -18 4 -32 18 -14 13 -26 23
-27 21 -1 -2 -9 -1 -17 2 -80 27 -191 27 -220 1 -9 -8 -26 -15 -38 -15 -11 0
-24 -4 -27 -10 -7 -12 -45 -13 -45 -2 0 5 9 17 20 27 11 10 17 21 15 25 -8 12
74 38 122 39 23 1 78 -10 121 -24z"/>
<path d="M8554 1500 c-28 -16 -61 -31 -75 -33 -19 -3 -24 -10 -26 -35 -1 -22
3 -32 13 -32 14 0 73 37 85 53 3 5 44 9 90 10 75 2 90 -1 141 -27 31 -15 61
-27 68 -24 6 2 -4 21 -24 44 -65 76 -184 95 -272 44z"/>
<path d="M6078 1443 c-9 -10 -23 -40 -30 -66 -10 -40 -10 -54 2 -90 10 -28 22
-43 35 -45 58 -9 119 -36 144 -64 l28 -32 59 22 c32 12 70 22 84 24 32 4 50
40 50 101 0 66 -21 110 -66 138 -34 21 -53 24 -164 27 -112 4 -127 2 -142 -15z"/>
<path d="M540 1245 l0 -165 35 0 35 0 0 59 0 58 62 6 c54 5 67 10 90 36 47 52
32 121 -32 153 -24 13 -59 18 -112 18 l-78 0 0 -165z"/>
<path d="M911 1393 c-54 -28 -75 -64 -79 -136 -2 -46 2 -71 15 -96 52 -99 183
-105 238 -11 26 45 27 141 2 187 -34 64 -113 89 -176 56z m105 -54 c27 -30 27
-158 0 -188 -27 -30 -70 -27 -95 5 -16 21 -21 41 -21 89 0 48 5 68 21 89 25
32 68 35 95 5z"/>
<path d="M1150 1245 l0 -165 35 0 c19 0 34 3 34 8 -1 4 -1 30 0 58 l1 51 62 6
c54 5 67 10 90 36 47 52 32 121 -32 153 -24 13 -59 18 -112 18 l-78 0 0 -165z"/>
<path d="M1450 1280 c0 -127 0 -130 28 -160 50 -56 162 -49 202 12 10 17 15
59 17 151 l3 127 -35 0 -35 0 0 -124 c0 -138 -7 -156 -60 -156 -50 0 -60 28
-60 162 l0 118 -30 0 -30 0 0 -130z"/>
<path d="M1750 1246 l0 -166 105 0 105 0 0 25 c0 24 -2 25 -70 25 -60 0 -70 3
-70 18 -1 9 -2 71 -3 137 l-2 120 -32 3 -33 3 0 -165z"/>
<path d="M2078 1338 c-15 -40 -42 -115 -61 -166 l-35 -93 36 3 c31 3 38 7 46
36 9 32 9 32 71 32 62 0 62 0 71 -32 8 -28 15 -33 46 -36 l36 -3 -62 165 c-61
165 -61 166 -92 166 -29 0 -32 -4 -56 -72z"/>
<path d="M2320 1245 l0 -165 35 0 35 0 0 65 c0 63 1 65 25 65 21 0 31 -11 57
-65 30 -60 35 -65 65 -65 18 0 33 3 33 8 -1 4 -16 36 -34 71 l-32 63 28 28
c30 30 37 75 17 112 -17 31 -71 48 -154 48 l-75 0 0 -165z"/>
<path d="M2720 1245 l0 -165 75 0 c118 0 165 28 165 99 0 20 -8 36 -25 49 -24
19 -24 20 -5 37 28 25 27 88 -1 113 -25 24 -62 32 -145 32 l-64 0 0 -165z"/>
<path d="M3020 1245 l0 -165 105 0 105 0 0 25 c0 24 -2 25 -70 25 l-70 0 0 33
c-1 17 -1 80 -1 140 l0 107 -35 0 -34 0 0 -165z"/>
<path d="M3260 1281 c0 -114 2 -131 21 -154 42 -54 143 -60 192 -12 29 30 37
69 37 198 l0 97 -35 0 -35 0 0 -123 c0 -136 -8 -157 -63 -157 -46 0 -57 31
-57 162 l0 118 -30 0 -30 0 0 -129z"/>
<path d="M3560 1245 l0 -165 110 0 110 0 0 25 c0 23 -3 24 -77 27 l-76 3 0 45
0 45 66 3 c64 3 67 4 67 27 0 24 -3 25 -65 25 l-65 0 0 40 0 40 75 0 c73 0 75
1 75 25 l0 25 -110 0 -110 0 0 -165z"/>
<path d="M3820 1244 l0 -166 96 4 c91 4 98 6 120 32 33 37 32 88 -1 114 -24
19 -24 20 -5 37 28 25 27 88 -1 113 -25 24 -62 32 -145 32 l-64 0 0 -166z"/>
<path d="M4120 1245 l0 -165 110 0 110 0 0 25 c0 23 -3 24 -77 27 l-76 3 0 45
0 45 66 3 c64 3 67 4 67 27 0 24 -3 25 -65 25 l-65 0 0 40 0 40 75 0 c73 0 75
1 75 25 l0 25 -110 0 -110 0 0 -165z"/>
<path d="M4380 1245 l0 -165 35 0 35 0 0 65 c0 63 1 65 25 65 21 0 31 -11 57
-65 30 -60 35 -65 65 -65 18 0 33 3 33 8 -1 4 -16 36 -34 71 l-32 63 28 28
c30 30 37 75 17 112 -17 31 -71 48 -154 48 l-75 0 0 -165z"/>
<path d="M4670 1245 l0 -165 33 0 34 0 1 55 c0 30 1 60 1 65 1 6 12 10 26 10
21 0 31 -11 57 -65 30 -60 35 -65 65 -65 18 0 33 3 33 8 -1 4 -16 36 -34 71
l-32 63 28 28 c30 30 37 75 17 112 -17 31 -71 48 -154 48 l-75 0 0 -165z"/>
<path d="M4975 1306 c49 -94 55 -111 55 -165 l0 -61 35 0 35 0 0 68 c0 61 5
75 50 161 28 51 50 95 50 97 0 2 -16 4 -35 4 -33 0 -36 -3 -69 -72 l-34 -73
-33 72 c-33 72 -35 73 -72 73 l-37 0 55 -104z"/>
<path d="M9833 1355 c2 -5 12 -12 23 -14 25 -5 126 -93 144 -125 19 -36 33
-33 53 13 15 33 21 38 45 34 25 -4 26 -3 9 11 -11 8 -26 12 -35 9 -10 -4 -13
-2 -8 5 4 7 -6 18 -25 27 -29 15 -32 15 -45 -2 -13 -16 -13 -16 -8 0 8 22 -12
22 -25 0 -5 -10 -13 -15 -16 -11 -8 8 13 32 35 41 12 4 12 6 -2 6 -9 1 -23 4
-31 7 -10 3 -17 -2 -20 -13 -4 -14 -5 -14 -6 5 -1 23 -31 32 -31 10 0 -9 -3
-9 -8 -2 -9 13 -53 13 -49 -1z"/>
</g>
</svg>
