<?xml version="1.0" standalone="no"?>
<!DOCTYPE svg PUBLIC "-//W3C//DTD SVG 20010904//EN"
 "http://www.w3.org/TR/2001/REC-SVG-20010904/DTD/svg10.dtd">
<svg version="1.0" xmlns="http://www.w3.org/2000/svg"
 width="380.000000pt" height="480.000000pt" viewBox="0 0 380.000000 480.000000"
 preserveAspectRatio="xMidYMid meet">
<metadata>
Created by potrace 1.16, written by Peter Selinger 2001-2019
</metadata>
<g transform="translate(0.000000,480.000000) scale(0.100000,-0.100000)"
fill="#000000" stroke="none">
<path d="M1655 2536 c104 -43 228 -106 222 -112 -5 -5 -92 14 -122 27 -11 5
-45 22 -75 39 -58 31 -75 37 -65 20 3 -5 -2 -10 -12 -10 -17 -1 -17 -1 0 -11
10 -6 25 -8 33 -5 8 3 14 1 14 -4 0 -15 -24 -12 -76 11 -29 12 -58 18 -72 14
-15 -4 -21 -2 -17 4 3 6 0 8 -9 5 -21 -8 -16 -46 5 -39 9 3 19 -1 22 -9 4 -10
1 -13 -8 -10 -7 3 -24 -2 -38 -10 -22 -15 -25 -15 -38 0 -27 33 -99 72 -121
66 -14 -3 -19 -1 -14 6 4 7 2 12 -3 12 -6 0 -11 -4 -11 -10 0 -5 -9 -10 -21
-10 -11 0 -18 4 -14 9 3 5 1 12 -5 16 -5 3 -10 1 -10 -5 0 -7 -7 -9 -17 -5
-12 4 -9 -2 7 -16 14 -12 33 -31 44 -43 l18 -21 -3 24 c-3 14 2 26 10 29 9 3
11 -1 7 -16 -4 -12 -2 -23 5 -28 9 -5 10 -2 6 9 -7 19 1 21 23 7 12 -7 11 -12
-5 -30 -13 -14 -22 -17 -29 -10 -14 14 -23 13 -30 -6 -4 -12 -1 -14 14 -9 11
4 20 2 20 -3 0 -5 12 -7 28 -5 21 4 24 2 12 -6 -10 -7 -11 -11 -2 -11 6 0 12
-4 12 -9 0 -4 -11 -6 -25 -3 -21 4 -24 1 -19 -14 6 -17 5 -17 -9 1 -8 11 -19
17 -23 13 -4 -4 -14 0 -23 10 -20 21 -51 25 -51 6 0 -8 -4 -14 -8 -14 -4 0 -8
15 -7 33 0 28 3 32 24 29 20 -2 22 0 11 13 -7 8 -19 15 -26 15 -17 0 -19 20
-1 21 6 0 -1 5 -16 9 -16 5 -35 6 -43 3 -8 -3 -14 0 -14 6 0 6 -7 11 -16 11
-24 0 -1 -24 41 -45 39 -18 42 -26 19 -50 -14 -13 -19 -14 -25 -4 -6 10 -9 10
-14 -4 -5 -12 -16 -16 -38 -13 -20 2 -37 -3 -45 -13 -7 -9 -11 -11 -9 -6 3 6
-2 19 -10 30 -15 19 -15 19 -8 -5 4 -14 4 -22 0 -18 -5 4 -14 0 -22 -10 -8
-11 -12 -12 -11 -3 2 7 -2 15 -9 18 -15 5 -13 -39 2 -49 16 -12 -13 -10 -36 2
-10 6 -19 8 -19 6 0 -3 14 -13 31 -22 l31 -16 -31 -21 c-29 -21 -55 -57 -29
-41 7 5 9 2 5 -9 -5 -13 10 -27 29 -26 3 0 12 -8 20 -18 7 -10 14 -13 14 -7 0
7 21 10 63 7 34 -3 68 -5 75 -6 6 0 12 -5 12 -10 0 -5 7 -7 15 -3 18 7 20 -5
3 -23 -11 -11 -10 -13 4 -8 9 3 33 9 52 13 29 5 36 3 36 -9 0 -8 -6 -18 -12
-20 -10 -4 -10 -6 0 -6 6 -1 12 -6 12 -12 0 -7 -7 -8 -17 -4 -50 20 -49 20
-36 3 14 -16 8 -28 -14 -28 -7 0 -13 7 -13 15 0 26 -25 6 -43 -35 -13 -31 -21
-38 -34 -33 -15 6 -16 4 -6 -8 10 -12 8 -17 -7 -27 -14 -8 -21 -8 -26 -1 -4 6
0 15 7 20 7 4 10 11 5 16 -4 4 -12 0 -17 -9 -18 -33 -61 -78 -74 -78 -7 0 -18
-7 -25 -15 -10 -12 -7 -13 21 -5 18 6 37 6 41 2 4 -4 -6 -9 -22 -10 -53 -4
-77 -19 -83 -52 -7 -34 -30 -63 -41 -52 -4 3 -4 -1 0 -11 6 -17 7 -17 20 0 12
17 13 16 14 -9 0 -32 -15 -36 -44 -10 -19 15 -19 15 -7 0 7 -9 10 -21 7 -27
-3 -5 1 -12 10 -15 20 -8 8 -27 -14 -24 -11 2 -18 -5 -20 -21 -3 -20 0 -23 15
-17 14 6 15 5 6 -5 -10 -10 -16 -9 -29 2 -16 13 -17 12 -11 -13 6 -21 4 -26
-7 -22 -9 3 -13 -1 -13 -13 1 -10 -3 -17 -10 -16 -7 2 -10 -4 -7 -12 4 -8 1
-15 -5 -15 -7 0 -11 -6 -10 -12 4 -34 -2 -47 -18 -41 -13 5 -15 2 -11 -15 4
-15 2 -22 -7 -22 -16 0 -29 -35 -20 -50 4 -6 11 -7 17 -4 6 4 5 10 -3 16 -11
7 -9 8 4 4 10 -3 23 -6 28 -6 6 0 7 -5 4 -10 -4 -6 -11 -8 -16 -5 -5 4 -9 -4
-9 -17 0 -19 -2 -20 -10 -8 -9 13 -11 13 -19 0 -7 -9 -6 -17 1 -21 6 -4 8 -19
5 -35 -6 -32 1 -56 14 -48 5 3 9 0 9 -5 0 -6 -6 -11 -12 -11 -10 0 -10 -3 0
-9 8 -5 12 -17 10 -27 -2 -11 6 -27 19 -37 13 -10 23 -25 23 -33 0 -8 7 -14
15 -14 8 0 15 -6 15 -13 0 -8 12 -19 27 -26 22 -10 24 -14 12 -22 -9 -7 11 -8
61 -3 41 4 84 8 95 9 36 2 140 28 152 38 7 5 19 7 27 4 8 -3 36 4 63 17 64 30
134 43 394 69 25 3 28 -2 49 -72 12 -42 27 -82 34 -90 8 -11 8 -13 0 -8 -27
16 -166 -119 -205 -197 -21 -42 -40 -101 -60 -191 -7 -27 -14 -44 -17 -36 -3
10 -6 11 -12 1 -15 -24 -168 -50 -296 -50 l-121 0 -47 -35 c-48 -38 -60 -53
-26 -35 15 8 20 8 20 -1 0 -7 2 -10 6 -7 3 3 25 0 49 -7 24 -8 46 -12 49 -9 3
2 4 1 1 -2 -6 -9 35 -44 52 -44 7 0 13 -4 13 -9 0 -5 3 -17 6 -25 4 -11 2 -15
-8 -11 -14 6 -46 -21 -37 -30 3 -2 25 3 49 11 25 9 71 18 102 21 46 5 62 11
82 33 13 15 40 33 60 40 22 7 36 18 36 28 0 9 4 24 10 32 6 10 9 5 8 -20 0
-19 2 -46 6 -60 6 -23 6 -24 -3 -3 -9 20 -14 21 -38 13 -52 -19 -71 -32 -76
-52 -5 -17 -2 -19 19 -15 13 2 24 0 24 -6 0 -5 14 -7 30 -5 17 3 30 2 30 -2 0
-3 9 -6 19 -6 16 0 18 4 9 19 -5 10 -8 21 -5 23 11 11 50 -94 50 -131 -2 -64
-12 -155 -20 -168 -3 -7 2 -5 13 4 26 21 71 39 78 32 12 -12 6 -21 -26 -37
l-33 -17 50 6 c28 3 71 11 96 16 30 7 76 7 133 1 70 -8 98 -7 139 5 29 8 93
25 143 38 50 12 113 35 140 49 63 34 170 109 212 149 20 20 32 26 32 16 0 -9
3 -10 8 -3 4 6 30 19 57 28 61 22 393 38 500 25 38 -5 85 -6 105 -3 41 7 87
33 74 43 -5 3 -10 17 -12 31 -1 13 -8 27 -14 32 -7 4 -9 10 -5 14 11 11 -13
34 -35 34 -21 0 -51 24 -41 34 4 3 -8 6 -25 6 -18 0 -32 5 -32 10 0 6 -9 10
-20 10 -11 0 -20 6 -20 13 0 9 -2 9 -8 -1 -6 -9 -17 -8 -48 7 -39 20 -39 20
-55 -1 -9 -11 -19 -17 -22 -12 -6 11 12 38 33 47 8 4 0 4 -17 1 -21 -3 -33 -1
-33 5 0 6 4 11 8 11 5 0 8 10 7 22 -1 19 -8 23 -43 26 -29 2 -42 8 -42 18 0
16 16 19 25 4 3 -5 13 -6 21 -3 30 11 -9 27 -60 24 -12 -1 -16 -6 -12 -16 3
-8 1 -15 -4 -15 -15 0 -12 28 4 37 7 4 17 19 20 33 4 14 4 20 -1 13 -5 -7 -14
-9 -22 -4 -7 5 -21 7 -30 6 -9 -1 -10 0 -3 2 15 5 16 23 1 23 -5 0 -7 5 -4 10
9 14 -8 13 -23 -2 -9 -9 -12 -9 -12 0 0 7 -10 12 -22 12 -22 1 -23 1 -4 15 18
13 15 20 -6 16 -5 0 -8 5 -8 13 0 21 -20 30 -33 17 -14 -14 -37 -14 -37 -1 0
6 7 10 15 10 8 0 15 5 15 11 0 5 -5 7 -10 4 -6 -3 -10 -1 -10 4 0 6 -10 10
-21 8 -12 -1 -24 4 -27 12 -3 10 2 13 22 9 22 -4 26 -2 25 16 0 11 -3 15 -6 9
-7 -18 -23 -16 -23 3 0 9 -6 14 -12 12 -7 -3 -19 2 -26 9 -8 8 -23 11 -36 8
-19 -5 -19 -5 -3 5 18 12 18 13 -1 30 -12 12 -28 17 -41 13 -20 -5 -26 4 -22
30 1 5 -3 6 -8 3 -5 -4 -12 -2 -16 4 -9 15 -25 12 -19 -4 6 -14 -22 -30 -37
-20 -15 9 -10 34 7 34 14 0 14 3 4 15 -7 9 -21 13 -31 10 -12 -4 -21 -1 -25 9
-3 9 -11 16 -16 16 -6 0 -6 -6 1 -14 8 -10 9 -16 1 -21 -5 -3 -10 -3 -10 2 -1
4 -8 -4 -16 -20 -16 -29 -12 -47 12 -47 16 0 19 -16 4 -25 -5 -3 -10 -3 -10 2
0 4 -12 13 -26 20 -22 10 -25 10 -20 -3 3 -7 1 -14 -4 -14 -5 0 -10 8 -12 19
-2 13 -8 16 -21 12 -17 -6 -17 -8 1 -29 11 -12 26 -22 34 -22 25 0 27 -11 6
-36 -24 -26 -42 -22 -33 7 4 11 1 26 -5 34 -16 19 -31 19 -24 0 4 -8 2 -15 -4
-15 -5 0 -12 9 -15 20 -3 11 -11 20 -17 20 -9 0 -9 -4 1 -17 12 -15 12 -16 -4
-10 -11 4 -16 3 -12 -3 3 -5 1 -18 -4 -29 -8 -14 -7 -20 4 -25 17 -6 20 -26 4
-26 -5 0 -7 5 -3 12 5 7 2 9 -9 5 -9 -3 -18 0 -21 9 -3 8 -11 14 -17 14 -8 0
-7 -5 2 -16 12 -15 11 -16 -9 -10 -17 6 -21 4 -16 -7 10 -28 -33 -26 -68 4
-37 31 -53 37 -44 14 9 -26 -52 26 -73 60 -20 35 -32 85 -20 85 5 0 6 7 3 15
-4 8 -11 15 -16 15 -6 0 -17 8 -25 18 -8 10 -11 11 -7 2 7 -13 5 -13 -9 -1
-13 10 -20 11 -31 2 -12 -10 -16 -3 -25 39 -17 79 -15 93 12 85 18 -6 20 -5
10 6 -20 20 -15 34 5 16 10 -10 24 -17 30 -17 17 0 32 -34 32 -72 0 -37 15
-67 27 -54 4 5 2 11 -4 13 -19 7 -16 23 3 23 14 0 16 8 12 45 -4 31 -1 48 8
56 8 6 14 17 14 23 0 7 -3 6 -8 -2 -5 -7 -17 -10 -28 -6 -15 5 -16 4 -4 -5 8
-5 11 -13 7 -17 -3 -4 -14 -1 -22 6 -11 9 -13 16 -6 23 7 7 6 16 -6 29 -13 14
-13 20 -3 33 7 9 10 18 7 21 -9 9 -27 -6 -38 -30 -9 -21 -10 -21 -5 1 2 13 0
26 -5 29 -15 9 -10 21 12 27 16 4 18 3 8 -9 -7 -9 -8 -14 -1 -14 16 0 24 18
18 38 -7 21 -36 26 -36 7 0 -20 -27 -38 -33 -23 -3 7 -6 3 -6 -10 -1 -13 -5
-21 -10 -17 -6 3 -8 41 -6 84 4 94 22 140 92 232 65 86 70 94 52 87 -10 -4
-14 3 -14 23 0 18 4 27 11 25 7 -3 24 8 39 24 l27 28 -21 21 c-12 12 -17 21
-12 21 6 0 13 -5 16 -11 4 -6 13 -8 21 -5 8 3 13 0 11 -7 -1 -7 8 -12 20 -11
12 0 20 -3 17 -7 -25 -41 115 25 178 84 15 14 35 27 45 29 27 5 27 33 1 58
l-23 21 -3 -23 c-7 -47 -45 -66 -55 -27 -4 16 -10 19 -29 14 -33 -11 -34 -13
-8 -40 13 -14 19 -25 14 -25 -5 0 -27 25 -49 55 -22 30 -46 55 -55 56 -8 0
-37 1 -64 2 -34 1 -51 7 -53 17 -3 10 -2 11 4 4 5 -7 53 -11 128 -12 66 0 111
3 101 7 -14 5 -16 10 -8 15 8 5 -10 26 -50 61 -34 30 -64 52 -66 50 -7 -7 -62
24 -62 35 0 6 11 5 28 -1 15 -6 28 -10 30 -10 1 1 16 -6 33 -14 17 -9 35 -15
41 -13 6 2 -17 18 -50 36 -35 19 -69 46 -81 64 -27 43 -19 47 21 9 43 -40 54
-40 17 0 -16 18 -27 34 -24 37 7 7 145 -129 145 -143 0 -5 11 -23 25 -40 17
-21 12 -7 -16 45 -23 41 -48 82 -55 91 -8 9 -12 18 -9 21 3 3 -8 17 -26 32
-21 18 -38 25 -51 20 -14 -4 -18 -2 -14 5 4 6 3 11 -3 11 -5 0 -13 -4 -16 -10
-7 -12 -105 -14 -105 -2 0 4 -16 14 -36 21 -19 7 -34 14 -32 16 2 2 39 -3 82
-11 44 -7 81 -12 84 -10 10 10 -146 36 -215 36 l-78 -1 80 -33z"/>
<path d="M2066 1808 c33 -35 113 -121 179 -193 236 -256 327 -345 353 -345 20
0 22 2 12 15 -16 19 -5 34 20 28 29 -8 25 -31 -7 -45 -16 -7 -30 -13 -32 -15
-5 -3 47 -53 55 -53 3 0 21 -16 39 -36 19 -20 39 -33 45 -29 7 4 -8 26 -41 57
-41 39 -49 52 -38 59 8 5 10 9 5 9 -5 0 -3 6 3 14 17 20 4 62 -25 81 -14 9
-50 40 -82 69 -31 29 -86 78 -122 107 -36 30 -74 61 -85 70 -11 9 -49 41 -84
70 -162 135 -242 199 -248 199 -3 0 20 -28 53 -62z"/>
<path d="M2730 1123 c0 -19 565 -563 584 -563 11 0 26 20 26 35 0 2 -34 38
-75 80 -41 43 -75 84 -75 91 0 8 -7 17 -15 20 -8 4 -13 10 -10 14 12 20 -148
196 -167 184 -4 -3 -8 4 -8 15 0 14 -6 21 -20 21 -11 0 -20 4 -20 10 0 5 -7 7
-15 4 -23 -9 -18 -19 21 -37 37 -18 42 -42 8 -42 -22 0 -55 25 -48 37 3 4 0 8
-5 8 -6 0 -11 7 -11 15 0 18 -16 20 -23 3 -3 -9 -9 -7 -20 7 -8 11 -13 23 -10
28 2 4 -1 6 -8 5 -7 -2 -13 4 -14 12 0 8 -13 21 -30 29 -16 8 -31 18 -33 23
-4 10 -32 11 -32 1z"/>
</g>
</svg>
