<?xml version="1.0" standalone="no"?>
<!DOCTYPE svg PUBLIC "-//W3C//DTD SVG 20010904//EN"
 "http://www.w3.org/TR/2001/REC-SVG-20010904/DTD/svg10.dtd">
<svg version="1.0" xmlns="http://www.w3.org/2000/svg"
 width="380.000000pt" height="480.000000pt" viewBox="0 0 380.000000 480.000000"
 preserveAspectRatio="xMidYMid meet">
<metadata>
Created by potrace 1.16, written by Peter Selinger 2001-2019
</metadata>
<g transform="translate(0.000000,480.000000) scale(0.100000,-0.100000)"
fill="#000000" stroke="none">
<path d="M1894 4379 c-3 -6 2 -19 12 -30 20 -22 11 -36 -26 -39 -55 -5 -71 0
-82 25 -6 14 -17 25 -25 25 -11 0 -11 -5 -3 -20 8 -16 8 -20 -4 -20 -13 0 -13
-4 0 -35 7 -19 14 -47 13 -62 l-1 -28 -9 31 c-5 19 -17 34 -30 37 -15 4 -19 2
-15 -8 3 -8 -4 -37 -16 -65 -21 -50 -21 -50 -59 -46 -22 3 -39 1 -39 -3 0 -5
23 -11 50 -14 28 -3 64 -16 81 -28 37 -26 32 -38 -6 -13 -21 14 -28 15 -35 5
-6 -11 -9 -11 -13 0 -3 8 -4 -4 -3 -26 1 -22 5 -46 9 -52 5 -7 5 -13 2 -13 -3
0 1 -10 9 -22 18 -25 21 -64 6 -73 -16 -10 -12 -38 4 -32 21 8 28 -4 13 -22
-10 -14 -10 -14 4 -4 9 7 19 11 22 8 4 -3 5 -2 2 2 -3 3 3 12 13 19 17 12 59
5 143 -21 9 -3 -1 13 -22 35 -22 23 -39 46 -39 53 0 7 7 3 16 -8 8 -11 19 -20
25 -20 6 0 24 -16 40 -35 16 -19 26 -27 23 -17 -3 9 -2 17 3 17 17 0 53 -31
53 -47 0 -12 -3 -13 -15 -3 -26 22 -40 5 -15 -18 25 -23 22 -28 -8 -13 -24 13
-123 51 -132 51 -15 0 -6 -31 14 -47 20 -17 20 -17 7 2 -8 11 4 1 27 -23 55
-55 55 -68 -2 -62 -10 1 -29 -9 -42 -21 l-24 -22 0 28 0 28 -26 -26 c-31 -31
-65 -30 -94 4 -11 13 -20 20 -19 14 3 -25 -2 -28 -17 -7 -10 14 -22 21 -31 18
-11 -5 -13 -2 -9 10 6 15 4 15 -11 3 -15 -12 -16 -12 -10 4 13 33 -21 17 -59
-28 -20 -25 -39 -43 -42 -40 -3 3 2 13 11 23 21 23 21 32 0 48 -21 15 -13 25
19 28 18 1 25 7 26 25 1 17 -2 22 -13 17 -21 -8 -31 15 -11 26 21 12 21 46 -1
70 -13 15 -14 19 -3 16 8 -2 14 5 15 17 0 11 4 25 8 32 4 6 4 18 1 26 -3 8 3
21 14 28 10 8 24 24 31 37 10 18 9 22 -3 22 -9 0 -13 -6 -10 -13 5 -15 -42
-41 -57 -32 -5 4 -6 -2 -2 -12 3 -10 3 -15 -2 -11 -9 8 -45 -34 -45 -54 0 -7
-7 -22 -15 -32 -8 -11 -15 -32 -15 -47 0 -15 -4 -31 -10 -34 -5 -3 -10 -21
-10 -38 0 -18 -8 -41 -16 -52 -15 -19 -15 -16 -10 35 5 48 4 52 -7 29 -6 -14
-22 -38 -34 -53 -19 -24 -23 -40 -21 -93 1 -37 -3 -67 -9 -71 -6 -4 -11 -35
-10 -70 0 -56 2 -63 18 -59 12 3 16 0 12 -10 -3 -7 -8 -12 -10 -9 -12 12 -40
-34 -36 -58 4 -21 2 -25 -11 -20 -10 4 -16 1 -16 -7 0 -7 -15 19 -34 58 -19
39 -40 74 -48 78 -10 6 -11 5 0 -6 20 -22 14 -34 -8 -14 -11 10 -20 13 -20 7
0 -5 -13 -23 -29 -38 -25 -23 -28 -31 -19 -50 6 -12 16 -20 23 -18 7 3 16 0
20 -6 6 -9 10 -9 16 1 7 11 9 10 9 -3 0 -10 6 -18 13 -18 8 0 19 -16 25 -36 8
-28 8 -36 -4 -41 -20 -8 -17 -23 4 -17 12 4 12 2 -3 -6 -11 -7 -34 -29 -52
-49 -24 -27 -32 -31 -33 -18 0 9 3 17 8 17 4 0 15 13 24 30 16 29 16 29 -7 20
-13 -5 -26 -6 -29 -3 -3 4 -6 2 -6 -4 0 -7 -12 -8 -37 -2 -50 11 -65 11 -58
-1 6 -10 -13 -15 -53 -11 -12 1 -25 -5 -28 -13 -6 -15 28 -56 46 -56 6 0 13
-7 17 -16 6 -15 7 -15 19 1 13 17 41 21 94 12 41 -6 126 16 166 44 23 16 48
29 55 29 17 0 -18 -38 -42 -45 -11 -4 -19 -15 -19 -26 0 -10 -4 -19 -10 -19
-5 0 -10 4 -10 9 0 8 -66 -2 -76 -11 -2 -3 17 -19 44 -37 26 -17 57 -38 69
-47 21 -15 21 -15 20 48 -2 62 -1 63 23 60 14 -1 42 -2 63 -2 27 1 37 -3 37
-15 0 -10 -7 -16 -17 -14 -34 3 -38 -1 -38 -34 0 -68 37 -76 90 -19 l34 37 0
-35 c0 -19 -6 -44 -14 -54 -20 -26 -19 -55 2 -78 15 -17 15 -20 -7 -43 -13
-14 -31 -25 -39 -26 -12 0 -12 -2 -3 -6 10 -4 7 -9 -10 -17 -12 -7 -26 -8 -29
-4 -3 5 -18 -1 -33 -13 -23 -18 -34 -20 -74 -13 -63 11 -93 6 -110 -17 -7 -10
-21 -19 -30 -18 -14 0 -13 2 3 9 11 5 16 9 10 9 -5 1 -3 6 5 11 12 8 9 12 -17
22 -36 13 -43 32 -16 42 14 6 14 8 -3 21 -10 8 -14 15 -9 15 16 1 -52 37 -104
56 -11 3 -12 7 -3 16 7 7 12 28 11 48 0 35 0 35 -16 13 -8 -13 -21 -23 -27
-23 -13 0 -49 -37 -84 -87 -26 -38 -27 -38 33 -18 43 15 46 15 67 -4 20 -19
20 -22 5 -39 -22 -24 -13 -32 37 -32 l41 -1 -27 -15 c-36 -19 -36 -34 0 -35
23 0 24 -1 7 -8 -18 -7 -16 -9 12 -15 18 -4 36 -5 41 -2 4 2 14 1 21 -3 11 -7
11 -20 1 -67 -7 -33 -12 -70 -12 -84 2 -51 27 -160 41 -172 8 -7 11 -8 8 -2
-4 7 -1 14 7 17 8 3 17 -1 20 -9 9 -24 7 -54 -3 -54 -13 0 -24 -38 -23 -77 1
-18 -4 -35 -10 -39 -17 -11 -59 -14 -53 -4 3 4 -2 11 -11 14 -22 9 -24 8 -24
-10 0 -8 4 -12 10 -9 5 3 7 0 4 -8 -3 -8 -1 -18 5 -22 6 -3 11 -13 11 -22 0
-19 59 -74 134 -124 47 -31 68 -39 104 -39 25 0 42 -3 39 -7 -4 -3 -37 -6 -74
-6 -58 0 -63 -1 -33 -8 38 -10 313 6 396 22 40 8 63 21 111 64 69 63 95 114
114 220 11 62 29 110 29 77 0 -22 74 -95 135 -134 43 -27 54 -38 39 -38 -12 0
-45 -8 -74 -17 l-52 -17 26 -13 c72 -38 653 -47 716 -12 12 7 11 8 -4 9 -19 0
-19 1 2 20 25 24 32 61 8 41 -10 -9 -16 -9 -21 -1 -4 6 -13 9 -20 6 -7 -2 -22
2 -33 10 -18 12 -22 11 -47 -22 -15 -20 -43 -42 -61 -50 -39 -16 -114 -19
-114 -3 0 6 8 8 20 4 25 -8 80 3 104 21 27 19 16 26 -16 10 -16 -9 -31 -10
-41 -4 -11 6 -30 2 -58 -13 -35 -18 -51 -20 -98 -13 -54 7 -55 7 -22 15 18 4
40 14 48 22 18 18 21 69 4 75 -6 2 -11 8 -11 13 0 4 7 6 15 3 8 -4 15 -2 15 4
0 13 -32 25 -39 14 -3 -5 -14 -11 -23 -15 -12 -4 -16 -13 -12 -24 4 -11 3 -14
-3 -7 -4 6 -21 14 -37 18 -47 11 -70 56 -29 56 9 0 13 -6 9 -15 -9 -24 23 -18
87 16 32 17 65 28 73 25 17 -7 19 -42 2 -50 -7 -4 -3 -4 10 -2 15 3 31 -3 43
-15 17 -17 20 -17 25 -4 4 10 20 15 46 15 35 0 39 -2 28 -15 -11 -13 -10 -14
5 -9 13 6 16 4 10 -6 -5 -8 -3 -11 6 -8 8 3 14 16 14 31 1 14 4 29 8 33 11 11
8 54 -3 54 -6 0 -28 12 -50 26 -44 29 -45 46 -9 93 24 30 23 40 -2 70 -27 32
-38 18 -12 -17 19 -26 20 -28 2 -28 -11 0 -19 4 -19 8 0 4 -10 8 -22 8 -21 0
-21 1 -4 13 18 13 18 15 1 40 -16 26 -16 28 0 55 33 50 63 74 103 79 34 5 42
2 60 -22 12 -15 22 -36 22 -46 0 -10 4 -20 8 -23 4 -2 6 11 4 30 -3 21 -15 45
-33 61 -15 15 -25 32 -21 37 3 6 -6 3 -22 -7 -15 -10 -34 -16 -42 -13 -7 3
-28 -7 -46 -22 -18 -15 -29 -22 -25 -15 4 6 4 13 0 16 -5 2 -3 3 4 1 6 -1 19
6 29 17 9 10 30 19 45 19 19 0 30 6 34 20 3 11 12 20 18 21 7 0 3 4 -8 9 -14
5 -4 8 32 7 l52 -2 17 -45 c9 -25 25 -60 35 -78 19 -33 19 -34 -2 -63 -13 -19
-23 -52 -27 -91 -3 -39 -15 -79 -33 -112 l-27 -51 35 -36 c19 -20 36 -45 37
-55 2 -11 10 -20 19 -22 11 -2 15 1 11 11 -3 9 7 22 29 36 19 12 37 31 40 43
8 31 1 34 -13 6 -14 -26 -49 -57 -67 -58 -12 0 -37 60 -28 69 3 3 8 -5 11 -17
l6 -21 34 26 c19 14 34 33 34 43 0 21 24 43 35 32 5 -4 -1 7 -13 24 -12 17
-20 33 -18 35 2 2 6 26 9 52 5 47 4 49 -29 64 -44 21 -43 35 2 31 31 -2 38 2
57 32 19 30 19 33 4 27 -10 -4 -16 -3 -12 2 3 6 0 13 -7 18 -19 12 -41 59 -34
71 4 6 -1 15 -11 21 -17 9 -17 10 0 29 14 15 15 21 5 25 -10 3 -11 8 0 26 6
11 12 32 12 46 0 14 7 28 15 31 12 5 13 9 4 20 -9 11 -9 13 2 9 10 -4 15 1 15
15 0 15 -5 19 -21 14 -15 -4 -13 0 9 19 32 26 28 32 -24 36 -19 1 -38 7 -42
14 -5 7 -8 1 -8 -15 0 -37 -12 -35 -30 5 -11 24 -26 36 -60 47 -25 8 -50 18
-55 22 -10 6 -29 5 -90 -6 -11 -2 -21 -4 -23 -5 -2 0 6 -15 18 -31 12 -17 23
-41 24 -53 3 -23 2 -23 -63 10 -116 60 -344 123 -391 108 -11 -3 -20 -4 -20
-1 0 9 77 77 162 145 91 71 123 124 113 179 -4 24 -9 31 -15 22 -6 -9 -10 -7
-15 9 -3 12 -19 29 -33 38 -15 9 -43 29 -62 44 -19 14 -47 28 -62 31 -24 4
-26 3 -20 -21 13 -59 8 -86 -15 -89 -13 -2 -23 -7 -23 -11 0 -3 -12 -8 -27 -9
-16 -1 -29 -7 -31 -12 -5 -14 -32 16 -32 35 0 11 5 15 14 12 26 -10 42 87 20
120 -14 22 -14 23 23 23 21 0 52 -9 70 -20 l32 -19 3 27 c3 27 3 27 29 -13 15
-23 57 -61 98 -88 39 -27 71 -52 71 -58 0 -5 4 -9 9 -9 5 0 14 23 20 51 18 82
-2 167 -45 189 -13 8 -22 15 -20 18 6 6 -35 45 -63 60 -39 20 -35 6 5 -17 22
-13 34 -27 31 -35 -3 -8 0 -17 8 -19 7 -3 20 -28 30 -56 18 -55 13 -106 -10
-115 -8 -3 -14 -2 -14 2 4 23 -4 32 -28 32 -22 0 -25 2 -13 10 12 7 8 11 -17
16 -18 4 -33 11 -33 16 0 5 -5 6 -12 2 -7 -4 -8 -3 -4 5 6 9 11 9 24 -1 14
-12 14 -10 3 10 -6 12 -9 28 -5 34 4 7 3 8 -5 4 -6 -4 -14 0 -17 8 -7 17 -48
16 -97 -3 -18 -7 -26 -7 -22 -1 3 6 1 10 -4 10 -6 0 -11 5 -11 10 0 6 9 10 21
10 11 0 19 5 17 12 -6 18 -37 18 -49 0 -7 -11 -8 -12 -5 -2 3 8 9 23 12 33 5
13 12 16 28 11 11 -4 22 -10 24 -14 1 -4 9 -16 17 -26 13 -18 14 -18 9 3 -6
22 24 48 56 48 8 0 14 8 14 18 -1 12 6 17 27 17 25 0 29 4 29 28 0 15 5 33 12
40 6 6 9 15 5 18 -7 7 -71 8 -97 1 -8 -2 -32 -7 -52 -11 -21 -5 -42 -14 -49
-22 -6 -8 -18 -14 -25 -14 -8 0 -14 -4 -14 -10 0 -5 7 -10 15 -10 8 0 15 -4
15 -10 0 -5 -7 -10 -16 -10 -20 0 -44 -24 -44 -44 0 -24 -14 -26 -70 -8 -41
13 -56 23 -64 44 -10 27 -35 41 -83 46 -7 1 -13 10 -13 19 0 15 2 14 15 -3 18
-24 19 -14 1 21 -9 17 -16 22 -19 13 -8 -18 -6 61 2 97 4 21 12 30 26 30 13 0
19 6 17 18 -2 9 2 17 8 17 5 0 10 -7 10 -15 0 -10 7 -15 17 -13 10 2 18 -2 18
-9 0 -6 3 -15 8 -19 12 -12 8 -22 -11 -29 -11 -3 -25 -18 -31 -33 -12 -26 -11
-26 23 8 20 19 35 39 32 45 -5 15 18 45 30 37 5 -4 9 -13 9 -21 0 -8 8 -15 18
-17 9 -1 15 1 12 6 -3 4 6 32 19 61 13 30 21 59 19 66 -2 6 1 14 7 18 6 4 0
20 -17 43 -32 43 -55 62 -65 56 -4 -3 -23 2 -42 10 -23 10 -38 11 -42 5z m-21
-1208 c29 -6 63 -12 77 -14 23 -2 21 -6 -38 -65 -66 -66 -72 -70 -72 -48 0 7
-16 34 -35 59 -19 25 -35 52 -35 61 0 8 -9 35 -20 61 -11 26 -20 49 -20 52 0
3 20 -18 45 -45 39 -43 54 -52 98 -61z m521 -96 c28 -10 45 -11 61 -3 26 12
75 3 75 -13 0 -5 -13 -18 -30 -27 -36 -21 -34 -37 6 -38 49 -2 52 -3 50 -21
-3 -21 -31 -29 -41 -13 -5 8 -11 6 -19 -6 -14 -19 -36 -11 -36 12 0 8 -3 14
-7 14 -13 0 -43 -33 -43 -47 0 -10 -6 -12 -20 -8 -12 4 -27 1 -35 -5 -8 -7
-24 -10 -35 -7 -17 4 -20 2 -15 -16 5 -17 4 -19 -4 -7 -12 16 -15 108 -5 134
3 9 10 13 15 10 17 -10 9 9 -8 22 -10 7 -15 16 -11 20 4 4 14 1 23 -6 12 -10
15 -10 15 4 0 19 13 20 64 1z m-13 -234 c25 -27 10 -28 -19 -1 -28 26 -28 26
-46 -12 -15 -31 -16 -81 -3 -94 3 -3 0 -15 -6 -26 -10 -16 -9 -22 7 -33 11 -8
30 -12 46 -8 15 3 31 0 34 -6 4 -6 0 -11 -10 -11 -13 0 -14 -3 -5 -14 10 -12
7 -18 -14 -32 -14 -9 -24 -23 -21 -30 4 -10 -3 -14 -19 -14 -13 0 -31 -7 -40
-16 -8 -9 -22 -14 -30 -11 -7 3 -16 1 -19 -6 -3 -7 -3 -2 0 11 4 15 1 22 -10
22 -30 0 -28 23 4 51 29 26 43 33 61 31 3 -1 6 6 6 14 0 18 -11 18 -27 -1 -10
-12 -14 -12 -31 3 -19 19 -19 29 0 122 5 25 7 55 4 67 -5 22 -3 23 56 19 47
-2 66 -8 82 -25z"/>
<path d="M2060 4299 c0 -6 7 -9 15 -5 8 3 14 2 14 -2 -3 -20 2 -32 15 -32 14
0 31 -29 22 -38 -3 -2 -17 -4 -32 -4 -18 0 -22 -3 -13 -9 13 -8 12 -10 -10
-13 -19 -2 -22 -15 -11 -37 11 -20 10 -21 -6 -15 -14 5 -16 4 -8 -4 8 -8 36
-7 105 6 52 10 96 19 98 20 2 2 -10 23 -25 48 -30 45 -70 77 -90 69 -6 -2 -17
3 -24 12 -14 17 -50 20 -50 4z"/>
<path d="M980 1767 c-31 -16 -50 -52 -50 -98 0 -72 67 -116 128 -85 64 33 65
148 2 181 -35 18 -48 18 -80 2z"/>
<path d="M1140 1675 c0 -98 1 -105 20 -105 17 0 20 7 20 40 0 33 3 40 20 40
13 0 27 -14 40 -40 14 -27 27 -40 41 -40 11 0 19 3 17 8 -2 4 -12 24 -23 45
-18 35 -18 38 -1 50 12 9 17 23 14 47 -4 42 -33 60 -100 60 l-48 0 0 -105z"/>
<path d="M1380 1768 c-35 -19 -52 -56 -47 -106 8 -73 60 -106 132 -82 33 11
35 14 35 56 l0 44 -40 0 c-29 0 -40 -4 -40 -15 0 -8 9 -15 20 -15 15 0 20 -7
20 -25 0 -22 -4 -25 -35 -25 -29 0 -37 5 -45 26 -13 33 -13 80 0 105 15 27 70
26 77 -1 3 -11 14 -20 24 -20 24 0 24 12 2 39 -23 27 -71 35 -103 19z"/>
<path d="M1591 1758 c-43 -111 -71 -183 -71 -185 0 -2 9 -3 20 -3 13 0 22 9
26 25 5 22 12 25 50 25 38 0 44 -3 50 -25 4 -16 13 -25 25 -25 24 0 25 -2 -19
110 -39 100 -64 123 -81 78z"/>
<path d="M1740 1676 c0 -99 1 -106 20 -106 18 0 20 7 20 73 l1 72 45 -72 c31
-49 53 -73 65 -73 17 0 19 9 19 105 0 98 -1 105 -20 105 -18 0 -20 -7 -20 -72
l0 -72 -43 69 c-29 47 -51 71 -65 73 -21 3 -22 0 -22 -102z"/>
<path d="M2291 1758 c-42 -107 -71 -183 -71 -185 0 -2 9 -3 20 -3 13 0 22 9
26 25 5 22 12 25 49 25 37 0 44 -3 49 -25 4 -17 13 -25 27 -25 15 0 19 4 15
16 -4 9 -21 56 -39 105 -24 66 -37 89 -50 89 -10 0 -21 -10 -26 -22z"/>
<path d="M915 1409 c-35 -20 -45 -41 -45 -96 0 -79 45 -115 121 -96 32 9 34
12 37 56 l3 47 -35 0 c-25 0 -36 -4 -36 -15 0 -9 9 -15 21 -15 15 0 20 -5 17
-22 -4 -27 -50 -37 -74 -17 -17 14 -19 110 -2 127 19 19 56 14 70 -8 14 -23
38 -27 38 -7 0 41 -73 70 -115 46z"/>
<path d="M1080 1316 c0 -88 3 -106 15 -106 11 0 15 11 15 40 0 35 3 40 23 40
18 0 28 -10 42 -40 14 -30 24 -40 42 -40 l24 0 -26 43 c-25 44 -25 44 -5 62
23 21 26 53 6 80 -10 13 -30 20 -75 23 l-61 4 0 -106z"/>
<path d="M1313 1410 c-37 -15 -56 -55 -50 -106 8 -72 59 -108 121 -84 54 20
70 119 28 169 -20 24 -68 34 -99 21z"/>
<path d="M1482 1338 c10 -46 21 -93 23 -105 3 -14 13 -23 25 -23 19 0 29 23
46 109 9 41 17 27 34 -52 10 -51 14 -58 33 -55 17 2 24 16 37 78 9 41 20 87
23 103 6 22 4 27 -12 27 -16 0 -21 -12 -32 -70 -7 -38 -15 -70 -19 -70 -4 0
-13 30 -20 66 -11 59 -30 87 -46 71 -3 -3 -12 -35 -21 -72 -16 -72 -27 -72
-38 0 -10 64 -15 75 -34 75 -17 0 -17 -4 1 -82z"/>
<path d="M1740 1315 c0 -87 3 -105 15 -105 12 0 15 14 15 65 0 36 4 65 9 65 5
0 26 -29 47 -65 24 -40 46 -65 57 -65 15 0 17 12 17 105 0 87 -3 105 -15 105
-12 0 -15 -14 -15 -65 0 -36 -3 -65 -7 -65 -5 0 -26 29 -48 65 -25 41 -46 65
-57 65 -16 0 -18 -11 -18 -105z"/>
<path d="M2070 1408 c-35 -19 -52 -56 -47 -107 6 -59 35 -86 91 -86 56 0 76
17 76 66 0 39 0 39 -40 39 -29 0 -40 -4 -40 -15 0 -8 9 -15 20 -15 15 0 20 -7
20 -25 0 -21 -5 -25 -29 -25 -51 0 -80 76 -51 131 15 26 66 26 75 -1 3 -11 15
-20 26 -20 24 0 24 12 2 39 -23 27 -71 35 -103 19z"/>
<path d="M2230 1315 c0 -98 1 -105 20 -105 17 0 20 7 20 40 0 33 3 40 20 40
13 0 27 -14 40 -40 14 -27 27 -40 41 -40 11 0 19 3 17 8 -2 4 -12 24 -23 45
-18 35 -18 38 -1 50 12 9 17 23 14 47 -4 42 -33 60 -100 60 l-48 0 0 -105z"/>
<path d="M2420 1315 l0 -105 70 0 c56 0 70 3 70 15 0 11 -12 15 -50 15 -49 0
-50 1 -50 30 0 28 2 30 40 30 29 0 40 4 40 15 0 11 -11 15 -40 15 -38 0 -40 2
-40 30 0 29 1 30 50 30 38 0 50 4 50 15 0 12 -14 15 -70 15 l-70 0 0 -105z"/>
<path d="M2590 1315 l0 -105 70 0 c56 0 70 3 70 15 0 11 -12 15 -50 15 -49 0
-50 1 -50 30 0 28 2 30 40 30 29 0 40 4 40 15 0 11 -11 15 -40 15 -38 0 -40 2
-40 30 0 29 1 30 50 30 38 0 50 4 50 15 0 12 -14 15 -70 15 l-70 0 0 -105z"/>
<path d="M2760 1315 c0 -87 3 -105 15 -105 12 0 15 14 15 65 0 36 4 65 9 65 5
0 26 -29 47 -65 24 -40 46 -65 57 -65 15 0 17 12 17 105 0 87 -3 105 -15 105
-12 0 -15 -14 -15 -65 0 -36 -3 -65 -7 -65 -5 0 -26 29 -48 65 -25 41 -46 65
-57 65 -16 0 -18 -11 -18 -105z"/>
</g>
</svg>
