<?xml version="1.0" standalone="no"?>
<!DOCTYPE svg PUBLIC "-//W3C//DTD SVG 20010904//EN"
 "http://www.w3.org/TR/2001/REC-SVG-20010904/DTD/svg10.dtd">
<svg version="1.0" xmlns="http://www.w3.org/2000/svg"
 width="1590.000000pt" height="1408.000000pt" viewBox="0 0 1590.000000 1408.000000"
 preserveAspectRatio="xMidYMid meet">
<metadata>
Created by potrace 1.16, written by Peter Selinger 2001-2019
</metadata>
<g transform="translate(0.000000,1408.000000) scale(0.100000,-0.100000)"
fill="#000000" stroke="none">
<path d="M8600 9125 c0 -90 4 -145 10 -145 6 0 10 7 10 15 0 19 9 19 34 0 33
-25 99 -19 127 11 35 38 34 113 -3 150 -31 32 -97 37 -126 10 -10 -9 -22 -16
-25 -16 -4 0 -7 27 -7 60 0 33 -4 60 -10 60 -6 0 -10 -55 -10 -145z m160 15
c28 -28 27 -87 -2 -117 -23 -24 -66 -30 -98 -13 -42 23 -44 106 -3 138 26 19
80 15 103 -8z"/>
<path d="M9170 9217 c0 -30 -3 -56 -6 -60 -4 -3 -17 1 -30 10 -32 20 -86 21
-118 0 -48 -32 -51 -132 -5 -169 32 -27 103 -24 129 4 l21 23 6 -23 c14 -56
23 -10 23 123 0 90 -4 145 -10 145 -5 0 -10 -24 -10 -53z m-31 -83 c45 -57 11
-134 -59 -134 -30 0 -43 6 -59 26 -45 57 -11 134 59 134 30 0 43 -6 59 -26z"/>
<path d="M9450 9217 c0 -30 -3 -56 -6 -60 -4 -3 -17 1 -30 10 -32 20 -86 21
-118 0 -48 -32 -51 -132 -5 -169 32 -27 103 -24 129 4 l21 23 6 -23 c14 -56
23 -10 23 123 0 90 -4 145 -10 145 -5 0 -10 -24 -10 -53z m-31 -83 c45 -57 11
-134 -59 -134 -30 0 -43 6 -59 26 -45 57 -11 134 59 134 30 0 43 -6 59 -26z"/>
<path d="M7362 9245 c-39 -17 -62 -65 -62 -129 0 -55 12 -88 41 -115 31 -29
106 -29 142 -1 69 55 57 214 -19 246 -41 17 -60 17 -102 -1z m112 -35 c20 -20
33 -101 22 -145 -16 -65 -94 -88 -141 -40 -21 20 -25 34 -25 87 0 68 16 103
54 118 28 12 66 3 90 -20z"/>
<path d="M6477 9154 c-42 -41 -42 -107 0 -149 20 -20 36 -25 73 -25 66 0 100
34 100 100 0 38 -5 53 -26 74 -38 37 -110 37 -147 0z m132 -20 c28 -36 27 -79
-4 -109 -34 -35 -86 -34 -114 1 -45 57 -11 134 59 134 30 0 43 -6 59 -26z"/>
<path d="M8187 9154 c-42 -41 -42 -107 0 -149 20 -20 36 -25 73 -25 66 0 100
34 100 100 0 38 -5 53 -26 74 -38 37 -110 37 -147 0z m132 -20 c28 -36 27 -79
-4 -109 -34 -35 -86 -34 -114 1 -45 57 -11 134 59 134 30 0 43 -6 59 -26z"/>
<path d="M9582 9165 c-12 -9 -25 -30 -30 -47 -20 -79 21 -138 95 -138 48 0 87
15 78 31 -4 5 -15 3 -28 -6 -32 -22 -74 -19 -102 10 -46 45 -35 55 60 55 l85
0 0 29 c0 15 -9 40 -21 55 -17 21 -29 26 -68 26 -26 0 -56 -7 -69 -15z"/>
</g>
</svg>
