<?xml version="1.0" standalone="no"?>
<!DOCTYPE svg PUBLIC "-//W3C//DTD SVG 20010904//EN"
 "http://www.w3.org/TR/2001/REC-SVG-20010904/DTD/svg10.dtd">
<svg version="1.0" xmlns="http://www.w3.org/2000/svg"
 width="1590.000000pt" height="1407.000000pt" viewBox="0 0 1590.000000 1407.000000"
 preserveAspectRatio="xMidYMid meet">
<metadata>
Created by potrace 1.16, written by Peter Selinger 2001-2019
</metadata>
<g transform="translate(0.000000,1407.000000) scale(0.100000,-0.100000)"
fill="#000000" stroke="none">
<path d="M10590 9187 c0 -30 -3 -56 -6 -60 -4 -3 -17 1 -30 10 -32 20 -86 21
-118 0 -48 -32 -51 -132 -5 -169 32 -27 103 -24 129 4 l21 23 6 -23 c14 -56
23 -10 23 123 0 90 -4 145 -10 145 -5 0 -10 -24 -10 -53z m-31 -83 c45 -57 11
-134 -59 -134 -30 0 -43 6 -59 26 -45 57 -11 134 59 134 30 0 43 -6 59 -26z"/>
<path d="M6752 9215 c-39 -17 -62 -65 -62 -129 0 -55 12 -88 41 -115 31 -29
106 -29 142 -1 69 55 57 214 -19 246 -41 17 -60 17 -102 -1z m112 -35 c20 -20
33 -101 22 -145 -16 -65 -94 -88 -141 -40 -21 20 -25 34 -25 87 0 68 16 103
54 118 28 12 66 3 90 -20z"/>
<path d="M7350 9091 c0 -81 4 -141 9 -141 6 0 11 19 13 43 l3 42 65 6 c36 4
72 9 81 13 25 11 41 49 37 91 -5 56 -38 77 -132 83 l-76 5 0 -142z m164 93
c60 -59 7 -124 -101 -124 l-33 0 0 70 0 70 59 0 c41 0 65 -5 75 -16z"/>
<path d="M8500 9090 c0 -87 4 -140 10 -140 6 0 10 41 10 104 0 58 4 107 10
111 5 3 46 -44 92 -105 45 -60 88 -110 95 -110 10 0 13 34 13 140 0 87 -4 140
-10 140 -6 0 -10 -45 -10 -116 0 -138 5 -139 -107 12 -43 57 -83 104 -90 104
-10 0 -13 -33 -13 -140z"/>
<path d="M7672 9149 c-19 -4 -39 -12 -45 -19 -10 -10 -8 -11 8 -5 50 18 90 17
108 -3 34 -38 19 -56 -51 -62 -66 -5 -82 -16 -82 -57 0 -12 7 -29 16 -37 18
-19 76 -21 107 -5 16 9 22 9 25 0 2 -6 8 -11 13 -11 5 0 9 38 9 83 0 67 -3 87
-17 99 -24 21 -51 26 -91 17z"/>
<path d="M7913 9152 c-61 -10 -86 -120 -38 -167 29 -29 88 -34 123 -9 18 13
23 13 27 1 9 -22 -12 -64 -40 -83 -24 -16 -44 -16 -105 1 -24 6 -24 6 -6 -9
31 -25 109 -21 143 8 27 23 28 28 31 140 3 73 0 116 -6 116 -5 0 -13 -7 -16
-16 -5 -13 -9 -14 -20 -5 -19 16 -66 28 -93 23z m87 -44 c44 -48 9 -128 -57
-128 -44 0 -73 30 -73 75 0 22 8 43 20 55 27 27 83 27 110 -2z"/>
<path d="M5857 9124 c-42 -41 -42 -107 0 -149 20 -20 36 -25 73 -25 66 0 100
34 100 100 0 38 -5 53 -26 74 -38 37 -110 37 -147 0z m132 -20 c28 -36 27 -79
-4 -109 -34 -35 -86 -34 -114 1 -45 57 -11 134 59 134 30 0 43 -6 59 -26z"/>
<path d="M8152 9135 c-12 -9 -25 -30 -30 -47 -20 -79 21 -138 95 -138 48 0 87
15 78 31 -4 5 -15 3 -28 -6 -32 -22 -74 -19 -102 10 -46 45 -35 55 60 55 l85
0 0 29 c0 15 -9 40 -21 55 -17 21 -29 26 -68 26 -26 0 -56 -7 -69 -15z"/>
<path d="M8847 9124 c-42 -41 -42 -107 0 -149 20 -20 36 -25 73 -25 66 0 100
34 100 100 0 38 -5 53 -26 74 -38 37 -110 37 -147 0z m132 -20 c28 -36 27 -79
-4 -109 -34 -35 -86 -34 -114 1 -45 57 -11 134 59 134 30 0 43 -6 59 -26z"/>
<path d="M9617 9124 c-42 -41 -42 -107 0 -149 20 -20 36 -25 73 -25 66 0 100
34 100 100 0 38 -5 53 -26 74 -38 37 -110 37 -147 0z m132 -20 c28 -36 27 -79
-4 -109 -34 -35 -86 -34 -114 1 -45 57 -11 134 59 134 30 0 43 -6 59 -26z"/>
</g>
</svg>
