<?xml version="1.0" standalone="no"?>
<!DOCTYPE svg PUBLIC "-//W3C//DTD SVG 20010904//EN"
 "http://www.w3.org/TR/2001/REC-SVG-20010904/DTD/svg10.dtd">
<svg version="1.0" xmlns="http://www.w3.org/2000/svg"
 width="49.000000pt" height="41.000000pt" viewBox="0 0 49.000000 41.000000"
 preserveAspectRatio="xMidYMid meet">
<metadata>
Created by potrace 1.16, written by Peter Selinger 2001-2019
</metadata>
<g transform="translate(0.000000,41.000000) scale(0.100000,-0.100000)"
fill="#000000" stroke="none">
<path d="M55 378 c3 -13 17 -72 30 -131 22 -105 22 -108 4 -118 -11 -5 -19
-20 -19 -33 0 -22 27 -56 46 -56 5 0 15 -9 22 -20 18 -29 67 -27 88 5 22 34
84 36 99 2 7 -16 20 -23 47 -25 32 -3 40 1 50 22 6 14 19 26 30 26 10 0 18 5
18 10 0 6 -11 10 -24 10 -13 0 -26 7 -30 15 -7 20 -70 20 -86 0 -7 -9 -29 -15
-55 -15 -26 0 -48 6 -55 15 -16 20 -59 19 -81 -1 -19 -17 -39 -11 -39 12 0 12
30 14 183 14 129 0 187 4 195 12 8 8 12 50 12 125 l0 113 -200 0 c-193 0 -200
1 -200 20 0 14 -7 20 -21 20 -18 0 -20 -4 -14 -22z m415 -143 l0 -95 -169 0
-168 0 -17 89 c-9 49 -16 92 -16 95 0 3 83 6 185 6 l185 0 0 -95z"/>
</g>
</svg>
