<?xml version="1.0" standalone="no"?>
<!DOCTYPE svg PUBLIC "-//W3C//DTD SVG 20010904//EN"
 "http://www.w3.org/TR/2001/REC-SVG-20010904/DTD/svg10.dtd">
<svg version="1.0" xmlns="http://www.w3.org/2000/svg"
 width="210.000000pt" height="51.000000pt" viewBox="0 0 210.000000 51.000000"
 preserveAspectRatio="xMidYMid meet">
<metadata>
Created by potrace 1.16, written by Peter Selinger 2001-2019
</metadata>
<g transform="translate(0.000000,51.000000) scale(0.100000,-0.100000)"
fill="#000000" stroke="none">
<path d="M140 434 c0 -17 12 -38 34 -59 19 -17 31 -36 28 -41 -4 -5 -29 -10
-56 -10 -84 -3 -146 -69 -146 -158 0 -94 62 -156 155 -156 92 0 155 62 155
153 0 56 -18 95 -59 130 l-31 25 31 26 c17 14 35 26 40 26 5 0 9 7 9 16 0 12
-6 15 -21 11 -16 -4 -30 4 -54 29 -41 44 -85 48 -85 8z m20 -145 c0 -6 9 -8
20 -4 14 5 20 2 20 -9 0 -9 5 -16 10 -16 6 0 10 5 10 10 0 19 40 -15 55 -46
30 -65 7 -135 -57 -174 -43 -26 -87 -25 -129 3 -69 46 -85 131 -37 192 31 39
108 71 108 44z"/>
<path d="M1680 380 c0 -5 7 -10 15 -10 12 0 15 -13 15 -58 l0 -58 -51 0 c-44
1 -54 -3 -75 -27 -20 -24 -24 -39 -24 -98 0 -65 2 -73 29 -100 33 -33 74 -38
109 -13 12 8 22 10 22 5 0 -7 25 -11 63 -10 34 0 56 3 50 6 -10 3 -13 51 -13
189 l0 184 -70 0 c-40 0 -70 -4 -70 -10z"/>
<path d="M383 353 c15 -4 17 -21 17 -168 0 -147 -2 -164 -17 -168 -10 -3 27
-4 82 -4 55 0 85 2 68 4 l-33 4 0 75 c0 65 2 74 18 74 20 0 52 -29 52 -48 0
-6 5 -14 10 -17 6 -4 10 24 10 76 l0 82 -23 -34 c-12 -19 -33 -35 -45 -37 -21
-3 -22 0 -22 77 l0 81 28 -6 c42 -10 68 -30 82 -63 19 -47 31 -37 28 22 l-3
52 -135 1 c-74 1 -127 0 -117 -3z"/>
<path d="M852 244 c-12 -8 -22 -10 -22 -5 0 7 -26 11 -67 10 -38 -1 -60 -3
-50 -6 15 -4 17 -18 17 -113 0 -95 -2 -109 -17 -113 -10 -3 20 -5 67 -5 47 0
77 2 68 5 -27 7 -26 161 1 194 11 13 23 20 27 16 5 -4 3 -12 -5 -16 -7 -5 -11
-19 -9 -32 2 -18 10 -25 31 -27 36 -4 57 13 57 49 0 29 -30 59 -60 59 -9 0
-26 -7 -38 -16z"/>
<path d="M1954 249 c-24 -12 -54 -59 -54 -86 0 -35 30 -62 85 -79 30 -8 57
-20 61 -25 10 -17 -17 -39 -48 -39 -30 0 -78 41 -78 66 0 8 -4 14 -10 14 -5 0
-10 -22 -10 -50 0 -46 10 -63 24 -41 3 4 23 4 44 -2 76 -20 132 15 132 83 0
47 -22 72 -80 89 -33 10 -40 16 -40 36 0 19 5 25 20 25 22 0 70 -41 70 -60 0
-5 5 -10 10 -10 6 0 10 20 10 45 0 42 -11 58 -25 35 -4 -6 -15 -6 -31 0 -31
12 -53 12 -80 -1z"/>
<path d="M1003 243 c15 -4 17 -18 17 -104 0 -86 3 -102 20 -119 24 -24 77 -26
108 -4 12 8 22 10 22 5 0 -7 25 -11 63 -10 34 1 54 3 45 6 -16 4 -18 18 -18
119 l0 114 -62 -1 c-35 0 -57 -3 -50 -6 18 -7 17 -187 -1 -202 -23 -18 -27 -2
-27 106 l0 103 -67 -1 c-38 -1 -60 -3 -50 -6z"/>
<path d="M1353 243 c15 -4 17 -18 17 -113 0 -95 -2 -109 -17 -113 -10 -3 20
-5 67 -5 47 0 77 2 68 5 -16 4 -18 18 -18 119 l0 114 -67 -1 c-38 -1 -60 -3
-50 -6z"/>
</g>
</svg>
