<?xml version="1.0" standalone="no"?>
<!DOCTYPE svg PUBLIC "-//W3C//DTD SVG 20010904//EN"
 "http://www.w3.org/TR/2001/REC-SVG-20010904/DTD/svg10.dtd">
<svg version="1.0" xmlns="http://www.w3.org/2000/svg"
 width="50.000000pt" height="77.000000pt" viewBox="0 0 50.000000 77.000000"
 preserveAspectRatio="xMidYMid meet">
<metadata>
Created by potrace 1.16, written by Peter Selinger 2001-2019
</metadata>
<g transform="translate(0.000000,77.000000) scale(0.100000,-0.100000)"
fill="#000000" stroke="none">
<path d="M284 754 c9 -8 16 -19 16 -24 0 -17 -22 -23 -32 -9 -8 11 -9 10 -4
-3 6 -21 -14 -24 -33 -5 -11 10 -11 8 -2 -11 11 -21 10 -22 -14 -16 -25 6 -26
5 -23 -27 3 -32 6 -34 46 -40 56 -7 74 -25 34 -33 -58 -13 -103 -74 -104 -141
-1 -28 -5 -44 -12 -42 -6 2 -11 11 -10 19 1 11 -10 14 -52 10 -62 -5 -80 14
-49 48 14 16 15 20 4 20 -10 1 -8 5 5 15 11 8 16 15 11 15 -5 0 -4 5 3 12 7 7
12 23 12 38 0 20 -2 22 -10 10 -9 -13 -11 -13 -21 0 -8 11 -9 6 -4 -23 4 -28
2 -39 -9 -43 -28 -11 -45 -122 -18 -117 6 2 9 -3 6 -11 -6 -16 46 -29 80 -20
38 9 73 -41 105 -152 36 -126 79 -218 105 -223 12 -2 27 6 37 20 20 26 26 50
8 32 -13 -13 -39 -6 -57 15 -18 23 -15 32 12 32 13 0 26 6 29 13 3 9 -4 12
-27 9 -28 -3 -34 1 -49 32 l-17 36 35 0 c19 0 35 5 35 10 0 6 -15 10 -34 10
-37 0 -37 1 -61 128 -6 31 1 38 37 33 3 0 5 12 3 27 -2 15 1 34 6 43 11 22
-10 39 -35 29 -19 -6 -19 -7 2 -12 25 -7 30 -28 7 -28 -8 0 -15 -7 -15 -16 0
-10 6 -14 15 -10 8 3 15 1 15 -4 0 -16 -21 -22 -36 -9 -22 18 -14 70 16 97 14
13 20 21 13 18 -23 -12 -18 29 6 49 31 25 94 25 136 1 17 -10 21 -14 10 -10
-33 12 -105 17 -105 6 0 -5 25 -12 56 -15 57 -6 78 -16 96 -50 9 -17 5 -16
-23 5 -55 40 -63 44 -50 21 6 -11 7 -23 3 -27 -3 -4 2 -4 13 0 18 7 18 6 6 -9
-7 -9 -17 -15 -21 -12 -4 2 -6 -6 -5 -19 4 -34 -22 -68 -48 -64 -12 2 -21 9
-20 15 2 7 -4 10 -12 7 -9 -4 -13 -17 -11 -42 3 -34 6 -36 40 -37 22 -1 41 4
49 13 9 13 9 14 0 8 -7 -4 -13 -3 -13 3 0 18 12 41 22 41 5 0 7 -4 4 -8 -8
-13 31 -7 48 7 9 8 15 23 15 35 -2 19 -2 19 -6 -2 -6 -30 -30 -39 -50 -19 -12
12 -12 15 -2 14 8 -1 14 3 14 8 0 6 -6 9 -13 9 -20 -3 5 23 28 29 39 10 45
-19 26 -118 -2 -11 -4 -24 -5 -28 0 -5 -5 -5 -11 -2 -6 4 -7 -1 -3 -11 5 -13
2 -16 -9 -12 -35 14 -108 20 -108 10 0 -6 17 -14 38 -17 87 -14 82 -10 69 -57
-10 -33 -19 -43 -41 -49 -16 -5 -34 -5 -39 -2 -5 3 -7 0 -5 -8 3 -8 18 -13 36
-13 22 1 29 -2 25 -12 -3 -8 -9 -14 -15 -14 -5 0 -6 -4 -3 -10 3 -5 -6 -21
-22 -35 -15 -13 -22 -25 -15 -25 7 0 15 7 19 16 4 10 8 12 13 5 6 -10 32 59
75 199 49 158 28 259 -63 298 -44 19 -44 20 -22 32 12 6 34 10 48 7 26 -5 26
-5 7 10 -11 8 -19 19 -17 24 3 14 -21 11 -47 -8 -14 -9 -21 -11 -16 -4 4 7 27
22 51 33 35 15 49 17 66 8 21 -10 22 -10 4 4 -11 9 -15 20 -11 28 6 10 5 11
-6 1 -7 -7 -24 -13 -37 -13 -18 0 -23 4 -18 16 5 14 4 15 -9 4 -12 -10 -15
-10 -15 2 0 8 5 19 12 26 7 7 8 12 4 12 -4 0 -17 -12 -28 -26 l-21 -26 -19 31
c-11 17 -24 31 -30 31 -5 0 -2 -7 6 -16z"/>
</g>
</svg>
