<?xml version="1.0" standalone="no"?>
<!DOCTYPE svg PUBLIC "-//W3C//DTD SVG 20010904//EN"
 "http://www.w3.org/TR/2001/REC-SVG-20010904/DTD/svg10.dtd">
<svg version="1.0" xmlns="http://www.w3.org/2000/svg"
 width="39.000000pt" height="120.000000pt" viewBox="0 0 39.000000 120.000000"
 preserveAspectRatio="xMidYMid meet">
<metadata>
Created by potrace 1.16, written by Peter Selinger 2001-2019
</metadata>
<g transform="translate(0.000000,120.000000) scale(0.100000,-0.100000)"
fill="#000000" stroke="none">
<path d="M101 1133 c-33 -38 -60 -75 -60 -83 0 -15 120 -120 137 -120 12 0 22
25 22 56 0 14 6 24 14 24 25 0 27 -17 6 -70 -11 -28 -20 -55 -20 -60 0 -24 32
-6 74 41 46 51 67 98 58 133 -6 22 -56 54 -99 62 -31 6 -33 9 -33 45 0 59 -27
51 -99 -28z"/>
<path d="M100 372 c-16 -16 -34 -49 -40 -73 -7 -24 -21 -49 -31 -57 -14 -10
-19 -25 -19 -61 0 -57 12 -71 62 -71 l38 0 0 70 c0 56 -3 70 -15 70 -18 0 -19
9 -4 47 19 52 48 73 99 73 51 0 80 -21 99 -73 15 -38 14 -47 -4 -47 -12 0 -15
-14 -15 -70 0 -40 4 -70 10 -70 16 0 12 -26 -7 -43 -16 -13 -20 -14 -37 -1
-42 30 -93 5 -82 -39 5 -23 12 -27 41 -27 48 0 114 43 121 78 3 16 15 32 27
37 31 14 37 107 8 127 -10 7 -24 33 -31 57 -6 24 -24 57 -40 73 -25 25 -36 28
-90 28 -54 0 -65 -3 -90 -28z"/>
</g>
</svg>
