<?xml version="1.0" standalone="no"?>
<!DOCTYPE svg PUBLIC "-//W3C//DTD SVG 20010904//EN"
 "http://www.w3.org/TR/2001/REC-SVG-20010904/DTD/svg10.dtd">
<svg version="1.0" xmlns="http://www.w3.org/2000/svg"
 width="728.000000pt" height="410.000000pt" viewBox="0 0 728.000000 410.000000"
 preserveAspectRatio="xMidYMid meet">
<metadata>
Created by potrace 1.16, written by Peter Selinger 2001-2019
</metadata>
<g transform="translate(0.000000,410.000000) scale(0.100000,-0.100000)"
fill="#000000" stroke="none">
<path d="M203 4090 c-15 -6 -20 -15 -16 -29 4 -16 1 -21 -15 -21 -13 0 -23 -9
-28 -22 -10 -35 -65 -77 -100 -78 -28 0 -30 -3 -30 -32 0 -18 -4 -42 -9 -53
-8 -18 -7 -18 19 3 16 12 34 22 41 22 7 0 16 11 19 25 5 18 23 34 66 55 64 32
89 37 107 19 6 -6 17 -8 24 -4 8 6 4 12 -15 22 -21 11 -26 19 -20 36 8 29 32
47 63 48 14 0 35 4 46 9 27 12 -123 12 -152 0z"/>
<path d="M715 4087 c-11 -7 -21 -13 -23 -14 -2 0 3 -10 10 -22 14 -23 28 -28
28 -9 0 6 8 20 17 30 16 18 17 17 29 -11 9 -20 28 -37 58 -52 55 -25 61 -56
20 -88 -49 -39 -108 -17 -119 43 l-7 33 -27 -28 c-30 -29 -114 -47 -172 -35
-27 5 -29 4 -18 -15 9 -17 17 -20 42 -14 68 14 159 17 186 5 22 -9 30 -20 35
-48 3 -20 1 -41 -4 -46 -7 -7 -10 -6 -10 1 0 27 -32 43 -86 43 -50 0 -55 -2
-64 -26 -9 -21 -7 -29 7 -40 11 -8 13 -13 6 -14 -7 0 -13 -7 -13 -15 0 -10
-10 -15 -29 -15 -21 0 -30 -6 -34 -21 -3 -11 -15 -23 -26 -26 -20 -5 -20 -5 1
-34 31 -41 46 -37 44 11 0 24 5 44 13 49 7 5 49 11 94 14 70 5 84 3 95 -11 22
-29 11 -74 -24 -97 l-31 -21 21 -27 c30 -37 106 -40 106 -5 0 6 -3 8 -7 5 -3
-4 -12 -2 -20 4 -15 13 -18 79 -2 79 5 0 8 4 4 9 -6 11 33 41 53 41 8 0 10 -5
6 -12 -4 -7 -3 -9 2 -5 4 4 7 24 5 43 -2 26 4 40 26 62 15 16 34 31 41 33 10
3 11 11 4 29 -6 14 -20 56 -32 94 -22 67 -22 70 -4 83 10 7 24 13 32 13 7 0
11 4 7 9 -3 6 3 14 12 20 17 10 17 10 -1 11 -11 0 -27 -7 -37 -16 -13 -12 -28
-14 -63 -9 -25 4 -46 11 -46 16 0 13 -82 10 -105 -4z"/>
<path d="M1454 4083 c7 -18 -29 -63 -51 -63 -11 0 -9 -8 7 -30 17 -24 21 -39
16 -65 -10 -53 -64 -87 -158 -100 -31 -4 -48 -11 -48 -20 0 -7 -3 -21 -7 -31
-5 -14 -3 -16 11 -11 17 7 59 -16 94 -50 7 -7 25 -16 40 -19 15 -3 37 -10 50
-15 31 -12 42 -4 42 30 0 51 75 111 137 111 32 0 45 -5 50 -17 3 -10 15 -31
26 -46 18 -27 18 -28 0 -54 -17 -25 -37 -55 -39 -61 0 -1 -27 -5 -60 -8 -32
-3 -62 -8 -66 -12 -4 -4 -2 -26 4 -48 9 -32 8 -49 -1 -72 -13 -30 -42 -47 -58
-32 -4 5 -20 6 -35 3 -27 -5 -27 -5 -11 -37 8 -17 17 -32 18 -34 2 -2 26 13
54 32 58 41 76 44 91 16 15 -27 34 -25 48 5 15 33 15 38 0 29 -8 -5 -9 -2 -5
9 5 12 1 17 -12 17 -31 0 -46 26 -31 55 13 24 74 55 110 55 21 0 28 -24 10
-35 -5 -3 -10 -15 -10 -26 0 -19 1 -19 16 -5 8 9 23 16 31 16 14 0 14 -2 0
-18 -36 -40 -6 -75 39 -46 14 10 24 26 24 41 0 46 36 91 95 118 l30 13 -35 15
-35 15 53 1 c37 1 52 -3 52 -12 0 -7 16 -21 35 -30 39 -19 41 -23 20 -63 -8
-16 -11 -31 -7 -34 15 -10 -3 -68 -21 -67 -36 1 -49 -4 -44 -17 30 -77 5 -134
-52 -121 -24 5 -31 3 -31 -9 0 -9 5 -16 12 -16 6 0 26 -11 44 -25 37 -28 63
-23 83 14 6 10 25 21 43 25 l33 7 -40 33 -40 34 21 29 c11 15 39 35 62 43 39
13 43 13 69 -6 22 -17 28 -29 28 -60 0 -36 -2 -39 -45 -56 -28 -11 -37 -17
-24 -17 12 -1 32 -9 44 -19 22 -18 23 -17 56 16 19 19 34 39 34 46 0 6 7 22
16 34 17 25 58 28 113 8 44 -16 50 -33 17 -46 -26 -9 -32 -21 -19 -34 4 -3 12
-22 18 -40 10 -28 10 -33 -1 -29 -8 3 -16 -5 -20 -21 -7 -28 -29 -38 -89 -40
-22 0 -54 -9 -69 -19 -19 -13 -41 -18 -67 -15 -27 2 -39 0 -39 -9 0 -7 -9 -22
-20 -33 -16 -16 -20 -17 -20 -5 0 17 -32 20 -61 5 -13 -8 -25 -7 -39 0 -20 10
-20 9 -14 -58 6 -62 5 -70 -18 -96 -28 -33 -118 -54 -153 -36 -22 12 -64 78
-74 118 -5 17 -16 26 -31 29 -14 2 -26 8 -28 13 -2 6 -10 10 -18 10 -10 0 -13
-7 -8 -25 5 -22 3 -25 -20 -25 -21 0 -26 -5 -26 -25 0 -17 -9 -29 -30 -40 -36
-19 -41 -19 -34 0 9 22 -19 19 -35 -4 -11 -15 -23 -18 -67 -14 -56 5 -60 0
-35 -42 3 -5 6 -21 6 -35 1 -30 34 -39 58 -16 32 32 62 13 91 -58 9 -21 16
-40 16 -42 0 -2 -18 -4 -40 -4 -22 0 -40 -4 -40 -10 0 -5 -7 -10 -15 -10 -8 0
-15 5 -15 11 0 7 -12 -1 -26 -16 -15 -17 -24 -35 -21 -46 3 -12 0 -19 -9 -19
-19 0 -18 -10 5 -34 11 -12 21 -30 23 -41 2 -16 -2 -19 -24 -17 -20 2 -28 -2
-28 -13 0 -8 4 -15 8 -15 11 0 42 -55 42 -73 0 -9 -12 -29 -26 -44 -14 -15
-22 -22 -19 -15 6 11 3 12 -14 3 -11 -7 -21 -14 -21 -17 0 -3 5 -2 12 2 7 4 8
3 4 -4 -13 -21 -28 -13 -24 12 4 22 3 23 -16 14 -49 -25 -57 -28 -84 -28 -23
0 -28 -4 -27 -25 0 -13 6 -30 13 -37 21 -21 13 -47 -20 -68 -17 -10 -35 -17
-40 -14 -4 3 -8 -2 -8 -10 0 -9 -6 -17 -12 -17 -7 -1 9 -5 35 -9 59 -10 77
-24 77 -60 0 -33 -16 -48 -58 -56 -18 -4 -29 -10 -27 -14 3 -5 -1 -11 -7 -14
-7 -4 2 -4 21 -1 18 3 44 5 57 5 18 0 24 5 24 23 0 35 37 87 73 102 l32 13
-27 11 c-57 22 -89 91 -55 120 8 6 44 10 81 9 65 -2 67 -1 109 40 24 23 48 42
55 42 7 0 12 5 12 10 0 6 -11 8 -25 4 -25 -6 -35 9 -14 21 7 5 4 14 -7 26 -31
35 -20 75 37 134 31 33 61 55 73 55 24 -1 69 -36 85 -67 24 -46 7 -151 -23
-140 -7 3 -30 -3 -52 -14 l-39 -18 37 -1 c28 0 42 -7 63 -32 24 -28 25 -32 10
-41 -12 -7 -14 -11 -6 -17 9 -5 7 -11 -5 -21 -12 -9 -15 -10 -10 -1 4 6 2 12
-3 12 -6 0 -11 -8 -11 -18 0 -10 -6 -24 -12 -31 -11 -11 -10 -12 0 -6 11 6 11
3 1 -13 -24 -39 -99 -53 -99 -19 0 15 -29 -25 -30 -41 0 -7 21 -22 48 -34 26
-11 51 -27 55 -35 5 -7 24 -29 43 -48 19 -19 34 -43 34 -53 0 -22 -50 -73 -50
-51 -1 11 -4 10 -14 -3 -7 -10 -18 -18 -24 -18 -6 0 -12 -5 -14 -11 -2 -5 -11
-7 -21 -4 -9 4 -15 10 -12 15 2 4 -6 5 -19 3 -22 -5 -23 -8 -14 -34 18 -53
-10 -72 -49 -33 -17 17 -16 24 4 39 16 12 16 15 -2 50 -25 47 -38 52 -66 26
-25 -23 -35 -26 -44 -11 -14 22 -25 8 -25 -33 0 -32 -7 -51 -26 -75 -25 -29
-28 -31 -40 -14 -12 16 -14 16 -29 -3 -9 -11 -20 -30 -25 -42 -5 -13 -17 -23
-27 -23 -28 0 -80 36 -88 60 l-7 22 -24 -23 c-13 -12 -24 -28 -24 -36 0 -7 -4
-13 -10 -13 -5 0 -10 -7 -10 -15 0 -12 -5 -13 -26 -4 -31 11 -39 7 -30 -17 4
-9 9 -14 13 -10 3 3 15 -1 25 -11 20 -18 25 -87 8 -98 -5 -3 -10 -1 -10 5 0 6
-4 9 -9 6 -5 -4 -12 0 -15 6 -4 10 -8 9 -18 -2 -7 -8 -24 -14 -37 -12 -15 3
-21 0 -16 -8 11 -19 -13 -38 -43 -32 -32 5 -61 29 -72 57 -9 22 -13 15 -24
-36 -12 -54 -115 -45 -161 15 -29 38 -30 43 -10 62 20 20 19 38 -1 30 -9 -3
-22 -6 -29 -6 -9 0 -13 -11 -13 -29 1 -31 -36 -100 -55 -102 -7 -1 -29 -3 -49
-4 -26 -3 -38 0 -40 11 -2 11 -23 16 -85 19 -45 2 -91 8 -101 14 -11 6 -22 7
-26 4 -3 -3 -6 3 -6 15 0 21 24 52 40 52 5 0 16 7 25 16 23 23 56 11 83 -31
27 -43 37 -44 57 -6 24 47 64 70 111 64 30 -4 47 0 75 19 19 14 52 27 72 31
31 5 41 1 67 -23 17 -16 35 -42 41 -59 14 -41 23 -39 38 6 7 21 15 43 17 50 3
7 -7 13 -27 15 -27 2 -34 9 -44 37 -9 28 -13 31 -23 18 -11 -13 -28 -17 -122
-32 -13 -2 -29 -10 -35 -19 -10 -12 -13 -11 -25 7 -8 12 -13 29 -12 37 2 11
-2 9 -13 -4 -8 -11 -15 -26 -15 -33 0 -18 -17 -16 -24 2 -3 8 -12 15 -20 15
-12 0 -14 -5 -6 -26 13 -33 13 -34 -5 -28 -8 4 -15 1 -15 -5 0 -5 -18 -16 -41
-22 -66 -20 -74 16 -21 94 23 34 30 38 60 35 26 -3 36 0 44 16 20 40 62 76
100 86 31 9 44 7 78 -10 29 -15 44 -18 57 -10 10 5 31 15 47 20 l29 11 -22 23
c-15 15 -30 22 -45 19 -32 -7 -39 9 -32 71 7 49 9 54 46 70 22 10 49 15 59 11
11 -3 22 -1 26 5 4 6 -4 10 -18 10 -32 0 -67 39 -74 84 -3 22 -9 33 -13 26 -5
-9 -13 -9 -27 -2 -16 9 -22 6 -37 -19 -9 -16 -22 -27 -27 -24 -5 4 -9 -2 -9
-12 0 -24 -19 -43 -42 -43 -25 0 -22 -14 7 -36 29 -22 32 -34 8 -34 -18 0 -9
-14 10 -16 7 0 20 -2 30 -2 25 -3 21 -39 -5 -53 -13 -7 -38 -12 -55 -10 -21 1
-33 -3 -33 -11 0 -9 -20 -14 -61 -16 -60 -3 -116 -23 -131 -46 -5 -8 -8 -7 -8
2 0 7 12 24 27 38 23 21 36 25 74 22 l46 -3 -23 31 c-13 17 -24 39 -24 48 0
28 50 86 73 86 20 0 20 2 -6 28 -19 18 -38 27 -60 27 -30 0 -32 2 -30 35 1 19
6 36 12 38 6 2 11 10 11 18 0 17 45 47 62 41 16 -5 68 20 68 33 0 19 -32 41
-52 35 -30 -10 -50 13 -43 49 4 17 14 37 23 44 22 17 83 15 109 -3 20 -14 21
-13 28 21 3 19 9 43 12 52 5 14 3 15 -8 5 -16 -16 -83 -17 -110 -3 -10 6 -19
20 -19 31 0 18 -28 58 -33 48 -1 -2 -7 -13 -13 -24 -6 -11 -20 -20 -32 -20
-11 0 -24 -3 -28 -7 -12 -13 -23 -9 -34 11 -16 30 -2 52 27 45 24 -6 24 -5 13
17 -7 13 -14 25 -15 27 -7 8 -65 -59 -71 -82 -6 -25 -44 -67 -44 -49 0 6 6 16
14 22 8 7 19 25 25 42 10 28 9 29 -16 25 -21 -4 -24 -2 -20 14 3 11 1 18 -4
14 -5 -3 -9 0 -9 5 0 6 -7 11 -15 11 -8 0 -15 -5 -15 -11 0 -7 -9 -9 -21 -6
-14 4 -28 -2 -44 -19 -12 -13 -27 -24 -34 -24 -6 0 -11 -4 -11 -10 0 -5 -5
-10 -10 -10 -6 0 -26 -16 -45 -35 -28 -28 -35 -42 -35 -75 0 -29 4 -40 15 -40
9 0 18 -7 21 -15 3 -8 24 -28 45 -44 l40 -29 -33 -20 c-18 -11 -46 -22 -61
-26 l-28 -7 5 -437 c3 -240 6 -455 7 -477 1 -22 -2 -53 -6 -70 -6 -24 -5 -28
5 -18 10 9 16 9 26 -2 23 -22 17 -54 -11 -61 -29 -7 -34 -44 -10 -64 14 -12
14 -15 0 -30 -24 -26 -19 -48 9 -43 17 4 23 10 19 20 -6 15 11 83 29 117 7 13
6 21 -1 25 -6 4 8 23 35 46 25 22 58 51 72 63 22 19 34 23 64 18 30 -5 38 -3
38 9 0 8 -11 17 -25 21 -44 11 -30 75 22 102 29 16 58 15 72 -2 15 -18 94 -28
126 -16 60 23 137 -20 151 -83 8 -35 14 -38 53 -27 19 5 42 5 56 0 27 -10 41
-45 26 -64 -14 -17 6 -26 52 -26 l32 1 -27 24 c-16 13 -28 28 -28 33 0 6 -7
12 -15 16 -8 3 -15 17 -15 30 0 23 -2 25 -26 16 -14 -6 -39 -10 -55 -10 -24 0
-29 4 -29 24 0 20 10 27 77 49 51 17 80 22 84 15 4 -7 17 -4 38 8 27 16 35 17
68 5 42 -15 82 -42 83 -54 0 -4 -9 -3 -21 3 -23 13 -35 8 -24 -9 3 -6 17 -11
29 -11 21 0 24 6 30 58 10 79 13 87 36 90 46 6 86 5 103 -2 14 -7 17 -3 17 18
0 15 7 29 15 32 8 4 15 16 15 28 0 27 18 46 42 46 10 0 18 5 18 10 0 6 8 14
18 17 9 4 23 13 30 20 17 17 78 17 89 1 10 -17 13 -100 3 -113 -13 -18 -22
-55 -12 -55 5 0 17 20 26 43 9 24 28 54 41 67 16 15 23 30 19 42 -4 13 0 18
15 18 21 0 29 -15 12 -22 -15 -5 24 -46 51 -53 36 -9 46 21 17 51 -44 47 1 89
86 79 50 -6 79 -21 70 -35 -3 -4 1 -13 9 -19 11 -9 12 -6 9 16 -3 16 -9 38
-15 50 -32 66 56 190 117 167 17 -7 20 -24 4 -24 -15 0 -37 -25 -49 -54 -9
-25 -8 -26 30 -26 43 0 39 -7 55 108 l5 43 -29 -16 c-40 -20 -44 -19 -37 9 5
20 0 28 -28 44 l-34 20 -17 -39 c-10 -22 -24 -44 -31 -49 -35 -30 -105 -10
-126 35 -12 27 5 55 83 137 22 23 41 55 45 74 8 44 23 62 59 69 24 5 27 4 15
-5 -13 -9 -12 -10 5 -6 107 28 206 28 251 0 44 -27 34 -114 -13 -110 -12 1
-19 -7 -21 -24 -2 -14 -10 -44 -19 -68 -9 -23 -14 -44 -12 -45 11 -8 81 -47
85 -47 2 0 4 9 4 19 0 11 5 23 11 26 6 5 4 12 -8 21 -17 13 -17 13 4 14 28 0
53 10 53 21 0 4 -25 6 -55 3 -58 -6 -67 2 -37 29 24 22 63 30 92 19 16 -6 42
-6 73 2 42 9 47 13 47 38 0 22 5 28 21 28 16 0 20 -5 16 -20 -4 -17 -1 -18 27
-13 40 7 54 20 32 29 -14 5 -16 14 -11 48 4 23 3 37 -1 33 -5 -5 -9 -13 -9
-19 0 -24 -31 -31 -53 -12 -31 26 -27 54 13 102 65 75 153 73 198 -6 20 -34
17 -89 -5 -76 -6 4 -8 3 -5 -3 9 -14 -30 -62 -60 -74 l-24 -9 41 -38 c27 -27
40 -47 40 -66 0 -16 -4 -25 -10 -21 -5 3 -10 2 -10 -3 0 -8 82 -46 84 -39 1 1
17 24 35 51 33 46 33 48 10 41 -13 -4 -27 -12 -30 -17 -4 -6 -13 0 -22 12 -14
20 -14 26 2 63 15 36 24 44 65 56 44 14 51 14 78 -2 52 -30 74 -23 87 26 18
71 52 120 94 136 35 13 40 13 55 -4 10 -10 11 -15 3 -10 -11 6 -13 2 -7 -19 6
-23 -6 -37 -17 -18 -2 4 -2 1 -1 -5 2 -7 -5 -17 -14 -22 -10 -5 -24 -32 -31
-60 -7 -28 -17 -53 -22 -57 -5 -3 -9 -21 -9 -40 0 -26 -8 -44 -30 -66 l-31
-30 26 6 c15 4 36 15 47 26 21 20 90 36 107 25 6 -3 20 -1 31 5 27 15 169 14
205 -1 29 -12 29 -13 7 -17 -22 -3 -22 -5 -6 -16 9 -7 26 -11 38 -9 18 4 21
10 18 46 -4 60 27 107 70 107 64 0 148 -73 148 -128 0 -30 -25 -78 -47 -91
-15 -8 -16 -12 -5 -23 7 -7 17 -13 21 -13 20 0 91 -67 91 -86 0 -11 6 -22 14
-25 16 -6 14 -86 -3 -92 -7 -2 -1 -20 15 -48 17 -29 25 -54 22 -73 -4 -26 -2
-28 14 -18 13 9 21 8 30 -1 19 -19 25 -14 24 23 -1 28 -8 39 -33 55 -17 10
-34 28 -38 40 -8 27 3 80 22 102 19 21 8 58 -17 58 -11 0 -24 -8 -29 -17 -6
-10 -11 -13 -11 -6 0 24 13 43 31 43 25 0 24 12 -1 27 -16 11 -18 10 -13 -3 5
-14 3 -15 -18 -4 -49 26 -60 65 -38 129 8 23 25 39 60 56 26 14 56 25 66 25
11 1 26 18 41 49 28 60 28 65 -2 79 -15 7 -27 23 -31 43 -6 26 -3 36 18 57 21
21 31 24 63 18 42 -8 94 -54 94 -84 0 -18 -14 -27 -73 -46 -17 -5 -17 -7 -1
-31 10 -15 14 -37 12 -55 -3 -20 0 -30 9 -30 7 0 13 -6 13 -14 0 -19 47 -17
55 2 9 25 -6 82 -26 96 -25 17 -15 46 16 46 13 0 37 -11 54 -25 l30 -26 25 26
c14 14 33 25 42 25 16 0 15 2 -3 23 -30 32 -43 62 -43 96 0 35 33 71 66 71 17
0 24 7 27 28 l4 27 2 -27 c0 -16 9 -32 22 -38 26 -15 31 -9 35 39 2 29 -4 48
-21 71 -23 31 -23 31 -30 8 -11 -32 -22 -38 -83 -38 l-53 0 20 -26 c29 -37 26
-58 -10 -88 -35 -30 -67 -33 -109 -11 -28 15 -35 29 -32 65 1 8 3 35 4 60 3
44 3 45 41 48 30 3 37 7 33 18 -3 9 -6 22 -6 30 0 11 -4 12 -19 4 -11 -5 -29
-10 -40 -10 -18 0 -21 6 -21 43 0 64 10 74 57 56 32 -13 38 -19 35 -41 -3 -27
23 -61 41 -55 6 2 14 14 17 28 5 18 12 23 29 21 17 -1 22 2 17 13 -10 26 15
16 52 -21 32 -32 39 -35 74 -29 53 9 43 29 -17 35 -42 4 -50 9 -58 33 -11 35
13 76 46 78 83 6 154 -3 180 -21 l27 -21 0 24 c0 30 -27 55 -67 63 -22 4 -32
2 -36 -10 -9 -22 -27 -20 -27 2 0 29 -32 51 -82 58 -40 6 -46 4 -50 -14 -3
-12 -1 -23 6 -26 6 -2 1 -5 -11 -5 -13 -1 -28 8 -35 19 -7 11 -16 20 -19 20
-11 0 -48 -36 -51 -50 -10 -46 -109 -68 -140 -32 -18 21 -32 53 -29 69 1 8 -4
10 -14 7 -12 -5 -15 2 -15 30 0 20 5 36 10 36 6 0 10 7 10 15 0 27 46 48 90
40 l40 -7 0 40 c0 54 16 93 48 117 23 17 40 20 115 17 49 -1 98 -7 109 -13 11
-6 19 -7 16 -2 -2 4 -10 20 -17 35 -12 23 -11 29 1 42 13 12 19 13 34 2 20
-14 54 -17 54 -6 0 4 -7 13 -16 21 -8 7 -22 25 -30 41 -41 80 50 130 129 71
42 -33 57 -60 50 -94 -3 -19 3 -28 26 -41 17 -9 33 -28 37 -44 6 -24 2 -33
-31 -61 -41 -35 -39 -37 29 -47 22 -3 43 -11 47 -18 9 -14 8 -14 29 26 21 40
63 53 106 33 33 -16 34 -16 63 13 26 26 37 30 86 30 31 0 69 -7 84 -14 35 -18
91 -81 91 -102 0 -18 -20 -9 -20 9 -1 25 -27 45 -68 52 -38 6 -42 5 -42 -13 0
-12 -5 -33 -12 -49 -6 -15 -11 -31 -10 -35 1 -5 -7 -8 -19 -8 -20 0 -20 0 3
-28 l23 -28 25 38 c22 34 29 38 61 36 21 -2 35 -6 33 -9 -2 -3 3 -15 10 -25
14 -18 15 -18 33 -1 11 9 31 17 45 17 21 0 28 6 33 31 4 17 21 46 38 66 20 22
27 37 19 42 -6 3 -16 20 -22 36 -9 25 -8 31 6 42 22 16 36 16 68 1 32 -14 41
-41 26 -77 -9 -24 -8 -33 8 -60 l19 -31 20 23 c11 12 28 36 37 54 15 31 15 33
-6 53 l-23 21 25 19 25 19 18 -40 c10 -22 20 -63 22 -90 2 -28 6 -53 9 -56 12
-12 6 -35 -13 -51 -24 -22 -63 -140 -55 -169 6 -23 24 -32 24 -13 0 6 18 10
41 10 23 0 56 7 75 16 66 31 85 -8 37 -77 -16 -21 -34 -39 -40 -39 -7 0 -13
-7 -13 -15 0 -17 16 -20 25 -5 21 34 97 -23 110 -82 6 -26 3 -35 -15 -50 -12
-10 -31 -18 -41 -18 -16 0 -19 8 -19 43 0 44 -13 67 -38 67 -9 0 -12 -6 -8
-16 4 -9 -1 -28 -9 -41 -15 -22 -15 -25 7 -43 19 -15 23 -27 21 -68 -3 -60 11
-67 72 -40 22 10 54 18 70 18 19 0 35 7 43 20 9 16 23 20 63 20 88 0 126 -34
117 -106 -3 -26 -7 -29 -41 -32 -21 -2 -45 2 -53 9 -11 9 -14 7 -14 -15 0 -18
5 -26 17 -26 9 0 32 -5 50 -12 41 -15 54 -4 72 59 8 31 18 44 35 49 33 8 101
-12 133 -40 23 -20 28 -32 28 -70 0 -27 -5 -50 -12 -54 -18 -11 6 -62 29 -62
9 0 22 -2 30 -5 9 -4 14 6 15 31 4 75 43 70 43 -5 0 -40 -3 -49 -17 -47 -14 1
-17 -6 -14 -36 1 -21 -1 -43 -6 -50 -4 -7 -8 -33 -8 -56 0 -42 -2 -45 -54 -74
-31 -17 -61 -28 -73 -25 -14 4 -18 1 -14 -8 5 -14 -30 -32 -41 -21 -8 8 7 95
17 101 11 7 -10 45 -23 45 -5 0 -6 -11 -3 -25 10 -39 -5 -104 -29 -127 l-23
-22 21 -27 20 -28 -26 -30 c-14 -17 -31 -47 -37 -68 -7 -21 -21 -48 -32 -60
-19 -20 -19 -23 -4 -45 9 -12 16 -30 16 -40 0 -11 8 -18 20 -18 23 0 24 4 10
31 -15 27 29 72 62 64 26 -7 64 16 55 32 -4 6 -19 13 -34 16 -16 3 -36 12 -47
20 -17 12 -17 14 -1 30 25 25 69 22 84 -6 7 -13 11 -27 10 -33 -4 -23 2 -26
21 -9 23 21 26 45 6 45 -7 0 -25 9 -40 21 -31 24 -37 88 -10 110 19 15 85 18
128 5 22 -7 27 -6 22 3 -9 15 18 48 56 67 36 19 51 18 79 -5 19 -15 21 -21 11
-34 -10 -12 -10 -16 0 -20 7 -3 4 -6 -7 -6 -14 -1 -7 -8 23 -22 29 -15 42 -27
42 -42 0 -11 -3 -17 -7 -14 -3 4 -12 2 -20 -4 -7 -7 -26 -9 -44 -5 -18 3 -28
2 -24 -4 3 -6 15 -10 26 -10 25 0 59 -34 59 -60 0 -31 -36 -60 -74 -60 -38 0
-81 30 -92 63 -7 21 -7 21 -15 2 -4 -11 -8 -32 -8 -47 -1 -16 -9 -33 -21 -40
-19 -12 -19 -13 1 -24 18 -9 25 -7 45 13 24 24 68 31 79 13 4 -6 14 -10 23 -9
10 1 23 1 29 0 19 -2 44 -58 38 -84 -5 -18 0 -28 19 -41 14 -9 26 -23 26 -31
0 -19 9 -19 54 0 33 14 35 17 24 40 -14 30 -24 32 -33 5 -7 -22 -35 -26 -53
-8 -9 9 -7 17 10 35 12 13 30 23 40 23 10 0 18 7 18 15 0 9 7 18 15 21 23 9 7
24 -25 24 -16 0 -31 4 -34 9 -3 5 -14 7 -25 4 -20 -5 -34 27 -24 53 12 31 61
7 124 -60 31 -33 43 -40 71 -38 28 2 38 -3 57 -28 39 -53 11 -89 -73 -92 l-44
-2 34 -34 c19 -19 34 -39 34 -45 0 -7 9 2 20 20 10 17 28 37 39 43 12 6 21 21
21 34 0 13 7 29 15 36 14 12 12 17 -15 41 -44 40 -48 77 -15 117 31 37 59 40
115 13 46 -22 50 -18 15 15 -33 30 -33 77 -1 119 14 18 23 40 20 51 -8 33 31
82 71 90 29 5 35 10 29 23 -19 42 -16 89 6 111 12 12 26 18 30 13 7 -6 50
-128 50 -140 0 -1 -13 -3 -30 -3 -29 0 -40 -13 -20 -25 5 -3 -6 -20 -25 -37
-38 -33 -47 -55 -16 -39 10 6 21 7 25 4 3 -3 6 5 6 20 0 22 7 28 38 38 35 10
38 14 34 40 -3 24 1 32 27 46 34 20 40 33 16 33 -9 0 -29 7 -45 15 -28 14 -30
20 -31 73 0 31 -3 50 -6 42 -13 -32 -28 -38 -59 -25 -43 18 -58 39 -45 64 6
11 11 28 11 38 -1 15 -5 13 -23 -9 -13 -16 -29 -28 -37 -28 -11 -1 -10 -4 4
-15 10 -8 25 -26 32 -41 13 -24 12 -30 -6 -59 -15 -24 -29 -34 -53 -36 -57 -7
-78 1 -99 37 -23 40 -38 44 -38 10 0 -26 -51 -76 -77 -76 -12 0 -13 -3 -4 -13
6 -8 10 -43 8 -83 -2 -60 -5 -70 -24 -80 -13 -6 -20 -14 -15 -19 4 -4 -1 -5
-10 -2 -15 5 -18 1 -18 -24 0 -24 4 -30 15 -25 8 3 26 1 39 -4 19 -7 28 -4 45
16 30 35 80 30 99 -9 12 -25 12 -31 -3 -47 -9 -10 -22 -17 -29 -14 -7 3 -23
-7 -36 -21 -13 -14 -35 -25 -49 -26 -25 -1 -25 -1 -3 -7 31 -9 31 -24 1 -41
-37 -20 -79 -8 -79 24 0 13 5 27 10 30 7 4 7 13 0 26 -7 12 -16 17 -23 12 -33
-21 -67 11 -67 64 0 27 41 73 66 73 13 0 15 6 10 34 -4 23 -3 35 5 38 7 2 9
10 5 17 -6 9 -14 4 -27 -18 -11 -18 -31 -36 -47 -42 -38 -15 -95 4 -110 36
-10 20 -19 25 -51 25 -49 0 -80 25 -87 70 -4 27 -1 42 16 63 23 29 45 33 84
16 48 -22 74 30 40 80 -24 34 -13 99 22 129 34 30 59 25 59 -11 -1 -38 34 -36
60 3 14 20 26 28 38 24 14 -4 17 1 17 34 0 28 7 45 25 62 14 13 25 30 25 39 0
9 -16 -1 -40 -27 -57 -59 -76 -67 -106 -47 -20 13 -24 23 -24 66 0 44 4 55 30
79 38 35 81 46 116 28 35 -17 54 -46 37 -56 -17 -11 -4 -52 16 -52 10 0 27 13
39 29 24 33 80 51 93 30 4 -7 3 -19 -2 -26 -17 -20 -1 -32 41 -31 22 0 50 -6
63 -14 13 -9 35 -13 55 -10 38 5 42 -10 7 -26 -23 -11 -44 -56 -31 -69 3 -3
15 5 26 19 10 14 33 31 50 38 18 7 37 27 46 47 16 33 16 35 -6 58 -28 30 -13
33 23 5 14 -11 37 -20 52 -20 54 0 98 -40 89 -80 -7 -33 -43 -70 -66 -70 -18
0 -48 -22 -48 -34 0 -4 11 -4 25 0 14 3 31 1 39 -5 12 -10 15 -6 21 19 4 19
17 36 35 45 21 11 28 21 26 40 -2 17 3 26 17 31 24 8 71 -26 73 -52 1 -11 2
-27 3 -38 1 -20 12 -19 94 10 44 15 49 15 66 0 22 -20 31 -20 31 -1 0 9 -7 18
-15 21 -8 4 -15 10 -15 15 0 4 7 6 15 3 23 -9 19 49 -5 71 -21 19 -23 17 -20
-32 3 -62 -77 -74 -134 -19 -42 39 -45 58 -11 91 29 30 44 31 95 5 44 -23 47
-21 24 16 -26 39 -13 102 29 141 l35 32 1 114 c1 113 0 114 -25 126 -14 6 -22
16 -19 21 3 6 -1 10 -10 10 -16 0 -85 65 -85 80 0 15 100 90 119 90 18 0 21 6
21 45 0 48 -12 56 -49 34 -15 -10 -28 -6 -72 17 -52 28 -54 31 -57 74 -2 24
-7 49 -11 55 -13 16 -21 45 -13 45 4 0 12 -10 17 -22 6 -15 18 -23 33 -22 12
0 51 1 87 2 l65 2 0 189 c0 122 -4 192 -10 196 -8 5 -7 11 1 21 14 17 -1 19
-51 4 -43 -13 -110 -3 -110 16 0 18 52 44 109 54 29 5 -37 8 -181 9 l-228 1 0
-29 c0 -33 -16 -49 -32 -33 -8 8 -6 18 6 36 l16 26 -416 0 -416 0 -18 -22 -18
-23 -31 23 c-28 21 -40 22 -199 22 l-169 0 4 -27 c4 -27 4 -27 -11 -9 -9 11
-16 23 -16 28 0 13 -761 10 -777 -3 -9 -8 -13 -8 -13 -1 0 8 -102 11 -345 12
-334 0 -345 -1 -355 -20 -14 -26 -40 -26 -40 0 0 11 -7 20 -15 20 -8 0 -15 -4
-15 -10 0 -5 -7 -10 -15 -10 -8 0 -15 5 -15 10 0 6 -26 10 -57 10 -45 0 -62
-5 -80 -22 l-24 -22 -6 22 -5 22 -973 0 -973 0 -7 -22 -8 -23 -4 23 c-4 21 -8
22 -113 22 -93 0 -109 -2 -104 -15 4 -8 2 -15 -2 -16 -5 0 -17 -2 -26 -4 -20
-4 -25 21 -5 28 6 3 -10 6 -37 6 -41 1 -47 -1 -42 -16z m2126 -158 c0 -13 6
-25 13 -28 8 -3 6 -13 -10 -35 -13 -17 -23 -41 -23 -53 0 -26 -27 -59 -48 -59
-11 0 -13 8 -9 37 4 24 3 33 -4 26 -5 -5 -21 -8 -35 -5 -29 5 -31 30 -5 63 10
13 22 43 26 67 4 28 11 42 19 39 7 -3 19 -1 27 4 18 11 49 -24 49 -56z m170
-40 c7 -8 10 -29 8 -47 -3 -18 0 -40 5 -50 9 -13 7 -21 -6 -36 -10 -11 -15
-26 -12 -35 4 -8 2 -18 -4 -22 -6 -3 -11 1 -11 10 0 26 -18 8 -25 -25 -8 -36
-12 -37 -36 -5 -13 15 -26 22 -36 18 -14 -5 -15 -1 -10 33 4 21 14 44 23 51 9
6 13 16 10 22 -4 5 -2 12 3 16 6 3 8 11 5 18 -7 18 34 67 56 67 9 0 23 -7 30
-15z m178 -127 c16 -16 15 -29 -1 -22 -8 3 -14 -1 -15 -8 -9 -63 -17 -96 -28
-113 -8 -11 -14 -14 -14 -7 0 6 -6 12 -13 12 -7 0 -13 -12 -12 -27 0 -17 -5
-27 -12 -25 -7 1 -13 -2 -13 -7 0 -5 6 -12 13 -14 7 -4 6 -6 -4 -6 -9 -1 -20
-8 -23 -17 -11 -28 -26 -4 -26 40 0 48 37 156 63 186 19 22 67 26 85 8z m-392
-50 c5 -3 21 -8 37 -12 15 -3 27 -11 27 -16 0 -5 9 -18 21 -28 19 -18 19 -21
3 -36 -9 -10 -23 -15 -31 -12 -8 3 -21 6 -29 6 -9 0 -13 4 -9 9 3 5 1 12 -5
16 -6 4 -4 12 5 22 9 8 13 18 10 21 -8 8 -55 -39 -49 -49 10 -17 -46 -30 -86
-19 -43 12 -49 22 -43 67 5 28 9 32 42 35 45 5 95 3 107 -4z m202 -145 c5 -10
8 -34 8 -53 -1 -27 -5 -35 -19 -33 -13 1 -17 -4 -13 -14 5 -11 2 -14 -11 -9
-17 6 -17 5 0 -8 39 -30 -12 -63 -79 -50 -37 7 -40 3 -23 -28 6 -11 8 -22 6
-25 -6 -5 -49 17 -58 31 -7 9 -29 0 -29 -12 0 -4 18 -16 41 -26 49 -24 63 -42
25 -32 -22 5 -26 3 -26 -14 0 -17 -5 -19 -41 -16 -23 3 -46 9 -52 15 -23 23
-29 9 -6 -15 13 -14 23 -29 21 -32 -5 -11 22 -92 30 -92 13 0 28 -38 22 -54
-4 -11 -11 -13 -29 -6 -15 6 -27 6 -30 0 -10 -16 -23 -12 -30 9 -3 11 -23 38
-45 60 -33 33 -39 46 -36 75 2 19 13 51 24 70 17 29 19 42 12 62 -22 56 -1 94
51 94 20 0 29 5 29 16 0 8 14 29 30 46 28 27 36 30 76 25 25 -2 53 -12 63 -21
19 -18 36 -22 26 -6 -8 13 24 60 41 60 7 0 17 -8 22 -17z m1002 -28 c15 -8 38
-27 49 -41 20 -26 20 -27 3 -43 -10 -9 -27 -28 -36 -43 -31 -48 -56 -34 -118
68 -4 6 2 25 12 42 22 36 45 40 90 17z m-1898 -64 c-3 -16 0 -21 8 -16 23 14
82 7 103 -13 22 -21 22 -21 47 -2 32 25 85 27 76 4 -5 -13 -1 -14 27 -9 17 4
39 14 48 21 30 26 79 35 109 19 31 -16 45 -52 28 -72 -9 -11 -5 -16 12 -15 3
0 6 -8 7 -18 3 -31 -23 -30 -54 0 -28 29 -51 40 -37 19 3 -6 3 -14 -2 -18 -5
-3 -15 -16 -22 -29 -11 -19 -10 -24 5 -30 10 -4 35 -18 55 -31 32 -19 36 -26
27 -42 -7 -14 -7 -19 2 -17 7 2 14 -6 16 -17 3 -16 2 -17 -6 -5 -10 13 -11 13
-11 0 0 -11 -4 -9 -12 5 -7 11 -18 26 -25 33 -7 8 -10 18 -7 24 4 7 2 8 -4 4
-7 -4 -12 -17 -12 -29 0 -18 -6 -23 -27 -22 -16 0 -33 4 -40 8 -6 4 -14 3 -18
-2 -3 -5 2 -14 12 -20 17 -9 17 -10 -1 -30 -16 -18 -17 -21 -3 -21 9 0 19 -5
23 -11 4 -8 -1 -9 -17 -4 -13 4 -20 4 -16 -1 4 -4 20 -8 35 -9 24 0 27 -4 25
-33 -1 -31 -30 -68 -43 -55 -3 2 2 10 11 16 12 9 13 15 5 23 -13 12 -36 -5
-36 -26 0 -6 -6 -8 -12 -5 -7 4 -5 0 5 -8 16 -13 16 -16 1 -28 -9 -7 -41 -14
-72 -16 -65 -4 -74 -9 -47 -29 11 -8 28 -21 38 -29 9 -8 23 -15 30 -15 6 0 -7
-9 -30 -21 -28 -14 -40 -25 -36 -35 4 -10 -3 -14 -26 -14 -17 0 -38 -8 -48
-19 -25 -26 -81 -40 -116 -29 -40 14 -45 50 -12 93 27 36 110 85 144 85 19 0
37 28 25 39 -4 3 -9 0 -11 -7 -4 -10 -14 -6 -34 14 -33 31 -37 68 -13 102 16
23 15 23 -12 19 -41 -5 -84 -28 -84 -44 0 -7 4 -13 9 -13 9 0 9 -14 -2 -40 -4
-8 -11 -27 -16 -42 -6 -16 -14 -28 -19 -28 -16 0 -47 129 -34 145 4 6 26 19
49 29 48 21 78 50 68 65 -3 6 1 11 9 11 27 0 65 -22 71 -42 5 -15 17 -18 61
-18 l54 0 0 53 c0 31 6 61 15 75 15 20 14 23 -17 51 -18 17 -40 30 -48 30 -10
0 -8 -3 4 -8 19 -7 18 -8 -4 -14 -13 -3 -21 -9 -18 -12 7 -7 -22 -45 -34 -45
-5 0 -17 -9 -28 -20 -31 -31 -63 -25 -104 20 -40 45 -45 74 -20 123 l17 32
-22 -19 c-15 -13 -21 -15 -21 -6 0 9 -9 5 -25 -10 -30 -28 -30 -33 -5 -85 24
-49 25 -69 5 -61 -9 3 -15 0 -15 -9 0 -10 -11 -15 -36 -15 -23 0 -33 -4 -28
-11 4 -8 0 -8 -15 0 -30 17 -66 69 -64 94 1 17 1 18 -4 4 -3 -14 -12 -18 -29
-14 -13 2 -24 -1 -24 -6 0 -18 -53 -67 -72 -67 -23 0 -50 42 -46 72 2 18 15
27 63 43 48 16 64 26 75 50 12 24 22 31 53 33 25 2 43 -2 54 -14 16 -16 18
-15 29 11 15 36 49 54 99 51 35 -2 40 -5 37 -25z m4195 -106 c32 -21 83 -102
83 -132 0 -30 -53 -63 -100 -63 -25 1 -45 9 -68 31 -18 16 -31 33 -28 38 3 4
-10 22 -29 40 -19 17 -35 40 -35 49 0 65 102 86 177 37z m-4507 -150 c17 -9
30 -20 30 -26 0 -6 7 -3 16 5 17 18 79 22 89 6 3 -5 -1 -10 -9 -10 -23 0 -19
-14 7 -25 18 -8 22 -18 22 -53 0 -24 -5 -47 -10 -50 -6 -4 -16 -19 -24 -34 -9
-18 -22 -28 -37 -28 -13 0 -25 -4 -28 -8 -3 -5 8 -9 25 -9 16 0 37 -7 47 -16
15 -16 15 -17 -1 -17 -10 0 -16 -4 -13 -8 3 -5 -10 -14 -29 -21 -22 -8 -32
-17 -29 -26 4 -8 -3 -15 -18 -17 -19 -2 -23 -9 -23 -38 -1 -41 -10 -60 -31
-60 -8 0 -14 -4 -14 -10 0 -17 -29 -11 -39 9 -6 10 -8 35 -4 55 3 20 3 36 0
36 -3 0 -21 -10 -39 -22 -28 -20 -33 -28 -30 -57 8 -77 -62 -134 -161 -133
-63 1 -81 28 -74 115 6 93 27 121 92 125 38 3 55 -2 87 -24 l39 -28 25 27 c14
15 31 27 39 27 18 0 47 42 71 103 25 64 45 84 93 92 23 4 41 11 41 17 0 5 -13
23 -29 39 -23 23 -30 26 -33 13 -2 -11 -17 -17 -55 -19 -35 -3 -58 -10 -72
-24 -13 -13 -27 -18 -42 -14 -19 5 -21 3 -17 -19 3 -14 -1 -36 -7 -48 -14 -27
-65 -37 -65 -14 0 8 -5 12 -11 9 -6 -4 -17 1 -24 11 -35 46 -6 87 105 148 72
40 97 43 140 21z m4678 -157 c7 -7 12 -20 12 -29 0 -10 6 -19 13 -22 9 -3 8
-8 -3 -22 -9 -11 -10 -16 -2 -11 18 11 10 -29 -10 -51 -9 -10 -17 -22 -18 -28
-1 -5 -7 -23 -14 -40 -7 -16 -13 -34 -14 -39 -1 -17 -34 -29 -42 -16 -5 9 -9
9 -14 1 -13 -20 -42 -12 -54 14 -25 55 -7 171 35 217 32 36 88 49 111 26z
m-5531 -24 c3 -8 1 -20 -6 -27 -6 -6 -11 -16 -11 -21 0 -6 5 -3 11 7 11 18 15
16 47 -25 12 -15 12 -20 -2 -33 -26 -26 -19 -31 37 -31 38 1 59 6 72 20 10 10
38 26 61 36 23 10 45 23 48 29 8 13 35 3 63 -23 12 -12 32 -29 43 -38 51 -45
-6 -146 -83 -146 -31 0 -37 3 -37 22 1 28 23 56 44 56 21 0 16 24 -6 28 -9 2
-18 -6 -21 -17 -7 -27 -44 -40 -81 -30 l-28 8 4 -60 c4 -55 2 -62 -21 -80 -14
-11 -27 -16 -29 -11 -2 7 -15 7 -35 1 -49 -14 -64 -11 -93 16 -15 14 -30 25
-35 25 -16 0 -19 59 -6 99 l15 41 -28 0 c-31 0 -45 13 -55 53 -6 22 -2 32 22
54 16 16 32 36 36 46 8 22 65 24 74 1z m1717 -55 c-3 -5 2 -9 10 -9 11 0 16
-10 16 -34 0 -55 -12 -126 -21 -121 -4 3 -10 1 -14 -5 -7 -12 -26 -14 -24 -2
5 29 -2 34 -20 18 -24 -22 -36 -77 -19 -88 10 -5 8 -8 -4 -8 -10 0 -24 -12
-32 -27 -8 -16 -15 -22 -16 -15 0 7 -6 20 -14 28 -22 21 -9 79 32 152 33 56
60 79 63 52 1 -5 2 -14 3 -19 0 -5 4 -13 9 -17 4 -4 7 -20 7 -36 0 -20 4 -28
13 -25 7 2 11 19 10 43 -3 38 -12 50 -59 81 -18 12 -18 13 -1 26 19 16 70 20
61 6z m-1264 -216 c0 -13 -5 -23 -11 -23 -8 0 -8 -4 0 -14 13 -15 3 -47 -27
-84 l-18 -23 -26 20 c-34 27 -40 26 -28 -5 13 -33 13 -67 0 -59 -5 3 -10 -1
-10 -9 0 -36 -104 -59 -165 -36 -36 13 -50 30 -59 64 -22 87 97 154 188 106
31 -15 42 -17 48 -7 4 6 8 14 8 17 0 3 16 22 35 42 20 20 35 41 34 45 -4 22 2
25 16 7 8 -10 15 -29 15 -41z m666 0 c3 -10 10 -26 15 -35 12 -23 12 -21 -11
-48 -13 -15 -18 -31 -14 -44 6 -21 6 -21 -10 -1 -15 20 -15 20 -16 -5 0 -19
-2 -22 -10 -10 -5 8 -12 11 -16 8 -10 -11 -33 17 -56 69 -21 47 -21 47 -1 63
11 9 41 17 67 19 37 1 47 -2 52 -16z m881 2 c18 -13 21 -22 16 -48 -3 -18 -10
-34 -16 -36 -13 -5 -62 -48 -109 -95 -33 -34 -45 -39 -86 -41 -62 -2 -82 9
-82 44 0 33 51 102 90 123 13 7 38 25 54 41 34 31 97 37 133 12z m-496 -32
c16 -10 29 -26 29 -36 0 -10 -5 -15 -11 -12 -5 4 -18 0 -28 -9 -19 -18 -55
-11 -44 8 3 6 -6 0 -21 -14 -20 -18 -25 -20 -20 -7 5 13 2 16 -10 11 -9 -3
-13 -10 -10 -15 3 -5 0 -9 -6 -9 -6 0 -9 -4 -5 -9 6 -11 -33 -26 -42 -17 -9 9
-34 -15 -27 -26 4 -5 -6 -8 -22 -6 -27 3 -29 6 -28 51 0 32 -4 47 -13 47 -7 0
-13 9 -13 20 0 18 4 20 33 15 20 -4 43 -1 62 9 41 22 139 21 176 -1z m4 -145
c14 -6 25 -14 25 -18 0 -13 -25 -30 -44 -30 -12 0 -30 -7 -40 -15 -11 -8 -30
-15 -42 -15 -15 0 -24 -8 -28 -25 -4 -16 -11 -23 -18 -19 -7 4 -8 3 -4 -4 4
-7 1 -19 -6 -27 -46 -56 -73 -69 -84 -40 -11 26 5 62 51 119 36 43 56 59 93
70 59 18 65 19 97 4z m3335 -348 c31 -31 54 -38 65 -20 3 6 23 9 43 9 22 -1
29 -3 17 -6 -11 -3 -31 -10 -45 -16 -14 -6 -29 -9 -34 -8 -5 1 -5 -4 1 -11 20
-24 -22 -88 -48 -73 -6 4 -15 2 -19 -5 -12 -19 -47 -3 -77 37 -22 29 -25 38
-15 54 7 10 12 26 12 34 0 9 6 15 13 14 25 -3 38 1 32 11 -14 23 26 8 55 -20z"/>
<path d="M1238 4021 c-5 -67 -24 -73 -92 -28 -31 20 -58 37 -60 37 -3 0 0 -15
5 -32 13 -46 11 -94 -3 -105 -7 -6 -26 -13 -42 -17 -28 -7 -29 -18 -2 -22 7
-1 23 -5 34 -8 15 -5 25 -1 34 13 15 25 31 27 48 6 19 -23 30 -18 30 15 0 24
8 35 43 56 23 14 53 33 66 41 l23 15 -30 18 c-17 10 -35 27 -40 37 -9 15 -11
10 -14 -26z"/>
<path d="M337 3808 c-11 -5 -38 -7 -62 -4 -41 7 -43 6 -38 -14 4 -13 -2 -32
-15 -50 l-21 -28 35 -7 c49 -9 71 -68 40 -110 -13 -18 -14 -18 -41 3 -48 38
-128 27 -144 -19 -8 -24 -16 -29 -41 -29 -17 0 -29 -4 -25 -9 3 -5 -2 -16 -10
-24 -12 -13 -15 -44 -15 -156 0 -91 4 -141 10 -141 24 0 49 -36 48 -68 -1 -18
4 -38 9 -43 16 -16 -8 -57 -40 -68 -17 -7 -27 -17 -27 -30 0 -25 13 -27 31 -5
11 13 27 15 86 12 40 -3 78 -10 85 -16 15 -12 17 -89 4 -111 -5 -7 -4 -17 2
-23 7 -7 12 4 17 32 5 30 18 51 44 76 l36 34 -35 -3 c-24 -1 -34 2 -32 11 2
13 -14 17 -20 4 -5 -14 -65 7 -72 24 -15 39 62 134 109 134 26 0 39 22 36 60
-2 31 64 90 102 90 42 0 78 -51 86 -122 1 -4 14 1 31 10 28 16 30 16 42 0 9
-12 18 -15 27 -9 11 7 2 14 -32 30 -40 18 -52 31 -77 81 -34 67 -39 124 -13
152 15 17 15 19 -3 36 -27 24 -82 62 -89 62 -3 0 -15 9 -27 20 -18 17 -20 23
-10 44 6 14 23 33 37 42 24 15 40 20 81 23 6 1 10 16 10 35 -1 19 -3 32 -5 30
-2 -2 -12 3 -22 11 -21 20 -69 10 -69 -13 0 -12 -3 -13 -11 -5 -8 8 -8 17 1
33 14 27 11 32 -13 18z m3 -262 c55 -3 90 -23 90 -52 0 -26 -58 -53 -71 -32
-4 7 -12 -7 -19 -33 -7 -24 -21 -59 -32 -76 -17 -28 -25 -33 -59 -33 -28 0
-39 -4 -39 -15 0 -28 -20 -15 -21 13 0 26 -1 26 -9 5 -5 -13 -11 -23 -13 -23
-1 0 -1 29 1 65 4 56 2 66 -14 72 -11 4 -28 15 -39 25 -17 16 -17 20 -5 33 8
8 32 21 54 30 l38 16 -4 -40 c-2 -23 0 -41 4 -41 11 0 21 47 14 66 -10 27 4
37 43 29 20 -4 56 -8 81 -9z"/>
<path d="M583 3604 c-7 -3 -17 -22 -24 -41 -10 -33 -10 -38 8 -52 11 -9 18
-21 16 -27 -2 -6 14 -14 36 -18 42 -6 77 -41 62 -60 -9 -12 -7 -93 2 -103 4
-3 18 2 31 11 14 9 36 16 48 16 13 0 30 5 38 10 13 9 13 11 0 20 -20 13 -37
13 -42 0 -5 -15 -68 0 -68 16 0 7 7 17 17 22 9 5 17 22 19 38 1 16 5 43 9 59
6 25 5 28 -6 18 -7 -7 -18 -13 -23 -13 -6 0 -4 5 4 10 12 7 10 11 -10 19 -18
7 -20 10 -7 10 37 2 7 47 -41 61 -40 11 -50 11 -69 4z"/>
<path d="M1312 3388 c-7 -7 -12 -17 -12 -24 0 -6 -11 -28 -26 -49 l-25 -37 19
-41 c21 -44 13 -68 -20 -59 -21 5 -44 -16 -43 -41 0 -18 -28 -39 -69 -52 -18
-5 -16 -8 12 -25 35 -21 87 -26 112 -10 8 5 11 10 6 10 -4 0 6 13 23 29 23 22
31 38 31 64 0 20 5 37 12 39 8 3 9 11 3 24 -11 26 -15 153 -4 160 11 7 12 24
1 24 -4 0 -13 -5 -20 -12z"/>
<path d="M3987 3313 c5 -36 5 -37 -10 -18 -16 20 -16 20 -17 -2 0 -12 5 -25
10 -28 17 -11 11 -25 -11 -25 -16 0 -19 -4 -14 -21 5 -14 3 -19 -4 -15 -5 4
-19 -2 -31 -14 -25 -25 -29 -25 -23 0 5 19 4 19 -27 4 -31 -16 -31 -17 -13
-38 38 -46 45 -48 72 -22 27 24 73 41 103 37 23 -3 88 26 88 38 0 6 -6 11 -14
11 -16 0 -26 21 -26 54 0 29 -10 39 -27 25 -15 -13 -43 4 -43 27 0 7 -4 15 -9
19 -6 3 -8 -10 -4 -32z"/>
<path d="M1587 3303 c-4 -3 -7 -14 -7 -22 0 -9 -11 -28 -24 -41 l-23 -25 19
-38 c10 -21 24 -37 31 -34 7 2 21 21 33 43 21 41 45 51 90 40 16 -4 22 -11 18
-18 -4 -7 6 -3 22 9 46 32 73 37 95 17 13 -12 23 -14 30 -7 16 16 0 61 -24 69
-38 12 -77 11 -77 -2 0 -19 -95 -29 -133 -13 -18 7 -35 17 -38 21 -3 5 -8 5
-12 1z"/>
<path d="M866 3238 c-34 -51 -82 -98 -100 -98 -9 0 -19 -6 -22 -13 -2 -7 -14
-13 -25 -14 -22 -2 -49 -20 -49 -34 0 -5 11 -11 25 -15 13 -3 29 -12 36 -20 9
-11 15 -11 25 -3 18 15 18 29 -1 29 -8 0 -15 5 -15 10 0 6 9 10 20 10 11 0 20
-4 20 -9 0 -6 12 -3 28 5 42 22 66 17 112 -21 68 -57 85 -57 160 4 18 15 21
21 9 21 -8 0 -26 10 -38 21 -18 17 -22 29 -18 55 5 29 3 34 -13 34 -13 0 -17
-5 -14 -14 3 -8 -5 -24 -18 -35 -12 -12 -24 -17 -26 -11 -2 5 -10 10 -17 10
-19 0 -53 50 -57 85 l-3 30 -19 -27z"/>
<path d="M460 3097 c0 -10 -4 -15 -10 -12 -6 3 -10 -4 -11 -17 0 -13 -3 -17
-6 -10 -2 6 -12 12 -21 12 -15 0 -15 -2 -2 -10 12 -8 11 -10 -8 -10 -37 0 -53
-50 -33 -106 9 -24 22 -44 29 -44 8 0 12 -6 10 -12 -10 -29 43 -51 59 -25 7
12 9 16 11 48 1 9 11 19 22 22 28 7 25 41 -6 62 -25 16 -26 26 -10 65 4 9 0
24 -8 35 -14 19 -15 19 -16 2z"/>
<path d="M750 2975 c0 -9 -6 -18 -14 -21 -8 -3 -11 -15 -9 -29 6 -27 -19 -45
-67 -48 -18 -1 -31 -9 -34 -19 -3 -13 -15 -18 -38 -19 l-33 -1 29 -8 c38 -12
47 -27 39 -70 l-6 -34 32 27 c18 15 39 27 47 27 8 0 14 9 14 19 0 10 7 21 15
25 8 3 15 16 15 28 0 13 9 38 20 56 13 21 18 41 14 57 -7 27 -24 34 -24 10z"/>
<path d="M1133 2925 c2 -26 0 -45 -6 -45 -6 0 -7 -3 -4 -7 12 -12 -28 -32 -52
-26 -17 4 -22 2 -19 -8 3 -8 -4 -19 -16 -26 -26 -14 -66 4 -86 41 -15 29 -25
33 -33 13 -3 -8 -21 -22 -41 -31 -29 -14 -36 -22 -36 -46 0 -16 -5 -32 -11
-35 -6 -4 -8 -13 -5 -21 3 -7 0 -16 -5 -20 -6 -3 -8 -16 -5 -27 6 -24 -27 -90
-66 -128 -22 -22 -35 -27 -77 -27 -48 0 -51 2 -51 25 0 34 -21 25 -38 -16
l-13 -34 54 5 c52 4 54 3 65 -24 l11 -29 20 20 c22 22 79 36 114 27 19 -4 25
0 33 26 8 29 24 40 107 80 10 5 22 6 27 3 6 -4 17 0 25 8 8 9 20 17 26 19 8 3
7 13 -5 35 -24 48 -20 78 15 107 25 21 41 26 89 26 41 0 61 -5 71 -16 11 -14
11 -18 -2 -28 -8 -6 -18 -19 -22 -29 -4 -10 -20 -23 -36 -28 -24 -9 -28 -13
-18 -24 7 -7 14 -10 17 -6 3 3 30 7 60 9 30 2 59 7 63 11 5 5 7 28 5 52 -3 40
-6 45 -38 55 -37 12 -70 57 -92 127 -15 51 -30 47 -25 -8z"/>
<path d="M4771 2903 c-1 -7 -25 -28 -55 -47 -64 -41 -70 -49 -56 -76 14 -27
28 -25 42 5 13 29 33 31 106 10 58 -18 69 -36 59 -106 -5 -38 -3 -42 35 -70
48 -34 68 -37 68 -8 0 17 -4 20 -28 14 -26 -5 -30 -2 -46 34 -19 42 -16 82 11
134 17 34 12 43 -17 27 -27 -15 -71 -9 -80 10 -4 8 -15 31 -23 50 -9 19 -16
30 -16 23z"/>
<path d="M4453 2792 c4 -16 -4 -32 -28 -57 -27 -29 -39 -35 -74 -35 -27 0 -41
4 -41 13 0 8 -11 24 -25 37 -14 13 -25 19 -25 13 0 -5 9 -18 20 -28 27 -24 25
-64 -6 -99 -22 -25 -30 -28 -70 -23 -40 4 -44 3 -39 -14 4 -10 -7 -40 -25 -72
-31 -55 -42 -103 -18 -79 16 16 36 15 55 -4 22 -21 6 -48 -31 -52 -21 -3 -29
2 -33 17 -3 11 -9 18 -14 16 -4 -3 -6 -12 -2 -20 3 -8 0 -15 -6 -15 -6 0 -11
5 -11 10 0 6 -12 10 -26 10 l-26 0 33 -27 c37 -31 54 -34 86 -15 27 17 69 9
135 -23 l47 -24 18 36 c24 49 45 61 83 46 16 -6 30 -7 30 -2 0 5 -7 9 -15 9
-22 0 -55 59 -56 100 l-1 35 -11 -30 c-24 -59 -62 -95 -103 -95 -29 0 -74 54
-74 88 1 26 1 26 15 8 15 -19 15 -19 15 2 0 19 3 20 31 10 26 -9 34 -8 51 10
27 27 37 109 14 118 -22 8 -20 24 3 24 26 0 71 -55 71 -87 0 -21 2 -24 15 -13
8 7 15 19 15 26 0 8 6 14 14 14 11 0 12 7 4 35 -15 47 0 97 31 105 l23 5 -28
25 -27 25 6 -23z"/>
<path d="M5438 2654 c-4 -3 -4 -20 -1 -36 4 -22 2 -33 -10 -40 -10 -5 -17 -17
-17 -28 0 -37 -12 -50 -44 -50 -18 0 -37 5 -44 12 -9 9 -12 -2 -12 -53 0 -52
-5 -71 -25 -101 -26 -38 -80 -66 -89 -45 -2 7 -5 -2 -5 -20 -1 -17 -6 -35 -12
-39 -10 -6 46 -74 61 -74 4 0 12 12 19 28 10 22 10 25 0 15 -22 -21 -33 -14
-14 7 10 12 25 18 32 16 18 -7 25 10 9 23 -8 7 -25 9 -40 5 -19 -4 -26 -2 -26
9 0 26 65 38 88 15 18 -18 23 -5 12 31 -22 79 26 141 110 141 l49 0 -25 25
c-30 30 -30 70 0 70 11 0 21 6 24 14 2 8 0 11 -5 8 -6 -4 -8 3 -6 16 4 23 -18
63 -29 51z"/>
<path d="M5152 2628 c-5 -7 -19 -34 -30 -60 -21 -49 -52 -73 -83 -65 -30 8
-22 -1 21 -23 49 -25 58 -44 35 -70 -20 -23 -13 -55 11 -46 9 3 22 6 30 6 8 0
11 6 8 15 -5 11 1 15 20 15 14 0 26 5 26 10 0 6 11 10 25 10 15 0 31 10 41 25
21 33 12 42 -20 21 -36 -23 -61 -20 -85 10 -26 33 -27 79 -3 96 10 7 22 25 26
41 7 28 -4 36 -22 15z"/>
<path d="M7047 2496 c-13 -28 -20 -33 -39 -29 -23 6 -22 5 4 -23 32 -34 61
-109 52 -136 -6 -21 -22 -24 -30 -5 -7 18 -78 15 -123 -5 l-33 -15 27 -5 c17
-4 28 -1 32 8 15 39 83 -16 83 -67 0 -25 -3 -30 -17 -25 -10 3 -4 -5 12 -19
17 -14 33 -25 38 -25 9 0 -2 51 -14 65 -5 5 -9 19 -9 32 0 20 2 21 24 11 14
-6 30 -23 37 -39 10 -24 8 -33 -7 -56 -17 -26 -26 -69 -17 -85 5 -10 61 54 71
82 7 18 3 29 -20 54 -15 17 -28 40 -28 52 0 12 -3 29 -6 38 -4 11 -1 16 11 16
11 0 15 6 10 19 -4 14 4 24 37 44 24 13 52 27 63 30 17 4 18 5 2 6 -14 1 -17
6 -12 22 7 20 6 20 -24 5 -31 -16 -126 -24 -138 -12 -4 3 10 23 30 44 42 43
45 52 19 52 -11 0 -25 -14 -35 -34z"/>
<path d="M955 2490 c-23 -24 -26 -32 -16 -44 27 -32 15 -126 -16 -126 -8 0
-12 -4 -9 -9 3 -4 -6 -7 -19 -5 -14 1 -25 -2 -25 -7 0 -5 -10 -9 -22 -10 -15
0 -18 -2 -8 -6 59 -21 80 -37 94 -74 21 -52 20 -69 -3 -69 -11 0 -23 -5 -26
-10 -5 -8 -12 -7 -22 2 -15 12 -15 11 -2 -12 8 -14 19 -29 24 -33 6 -5 3 -7
-7 -3 -13 4 -20 -4 -30 -29 -6 -19 -17 -35 -23 -35 -5 0 -3 -5 5 -10 12 -7 12
-10 1 -10 -9 0 -11 -8 -7 -26 4 -15 2 -32 -5 -40 -6 -8 -8 -14 -4 -14 4 0 1
-8 -6 -17 -13 -15 -11 -16 11 -10 14 4 33 7 43 7 13 0 17 8 17 35 0 19 5 46
12 60 16 36 72 68 108 63 43 -6 47 19 10 57 -35 36 -39 75 -11 121 18 30 18
30 -4 56 -17 20 -24 44 -29 113 -5 61 -4 91 5 101 22 27 -7 14 -36 -16z"/>
<path d="M5603 2474 c-15 -23 -22 -25 -56 -21 -29 4 -36 2 -28 -6 17 -17 13
-62 -7 -80 -24 -22 -31 -21 -25 2 7 27 -16 37 -37 15 -25 -26 -35 -64 -18 -64
8 0 27 -13 43 -30 16 -16 36 -30 44 -30 9 0 29 -7 45 -15 39 -21 73 -10 81 25
3 16 13 34 21 41 8 6 14 20 14 30 0 15 7 19 38 19 21 0 42 -4 48 -9 5 -6 16
-5 26 3 17 12 17 14 -2 31 -26 23 -25 43 2 72 12 13 17 23 12 23 -15 0 -30
-14 -43 -37 -6 -13 -29 -31 -51 -42 -48 -23 -60 -14 -68 54 -5 51 -14 56 -39
19z m36 -90 c38 -32 39 -44 5 -78 -19 -19 -37 -26 -63 -26 -62 0 -78 38 -43
99 22 39 59 41 101 5z"/>
<path d="M4806 2426 c-4 -30 -15 -70 -25 -89 -10 -20 -15 -39 -10 -44 5 -5 10
-24 11 -43 3 -32 0 -35 -24 -38 -22 -3 -28 -8 -28 -28 0 -16 5 -24 13 -21 19
7 47 -12 47 -33 0 -10 6 -20 13 -23 9 -3 7 -9 -5 -24 -10 -11 -18 -34 -18 -51
0 -17 -4 -34 -10 -37 -17 -11 -11 -22 20 -35 85 -35 112 -160 35 -160 -24 0
-72 28 -107 62 -13 14 -31 28 -39 31 -11 4 -8 11 14 29 20 18 24 27 16 35 -6
6 -17 9 -25 6 -8 -3 -14 6 -16 29 -3 30 -6 33 -33 30 -35 -4 -100 -52 -100
-75 0 -9 -4 -19 -8 -23 -4 -4 0 -15 9 -25 19 -21 11 -39 -17 -39 -26 0 -89
-65 -146 -152 -33 -50 -56 -74 -71 -76 -18 -3 -21 -6 -12 -17 14 -16 4 -55
-13 -55 -7 1 -24 11 -39 23 -26 21 -27 25 -16 54 16 43 0 62 -46 56 -27 -3
-41 2 -68 26 -19 17 -47 35 -62 41 -23 8 -25 13 -16 30 15 28 56 42 113 38 50
-3 57 2 32 22 -8 7 -14 24 -14 39 1 17 3 20 6 9 2 -10 11 -18 20 -18 10 0 13
6 9 16 -3 9 -6 22 -6 30 0 9 -5 12 -10 9 -6 -4 1 15 17 43 21 38 32 48 46 44
16 -4 18 -1 12 17 -4 14 -1 29 8 39 8 9 17 29 21 45 6 24 11 27 50 27 23 0 45
3 48 6 3 3 -6 23 -20 44 -24 38 -26 39 -39 20 -8 -11 -22 -20 -32 -20 -15 0
-19 -8 -19 -41 -1 -44 -24 -79 -52 -79 -10 0 -24 16 -35 40 -14 31 -25 41 -51
46 -41 8 -71 -2 -85 -27 -9 -17 -7 -21 10 -26 24 -6 28 -23 6 -23 -10 0 -6 -8
11 -27 19 -20 33 -27 54 -25 21 3 30 -2 34 -16 7 -21 -7 -66 -23 -77 -6 -3
-11 -24 -11 -46 0 -42 -17 -52 -40 -24 -11 13 -11 20 0 40 17 31 10 38 -24 25
-15 -5 -44 -10 -64 -11 -33 0 -35 -2 -16 -11 43 -20 56 -84 24 -113 -16 -15
-30 -16 -84 -10 -36 3 -86 17 -110 29 l-45 23 6 -47 c5 -41 3 -49 -18 -64 -38
-26 -77 -20 -115 18 -19 19 -34 30 -34 25 0 -16 28 -65 44 -78 37 -31 -2 -43
-54 -16 -40 21 -70 62 -70 97 0 26 -3 29 -22 22 -27 -8 -22 -3 -40 -38 -15
-28 -14 -30 10 -51 l26 -22 -21 -29 c-12 -16 -23 -43 -24 -59 -4 -28 -2 -30
26 -27 52 5 90 -28 114 -99 26 -78 26 -90 0 -123 -25 -32 -44 -35 -28 -4 9 17
9 23 0 26 -9 3 -9 7 0 18 19 23 -9 17 -40 -9 -25 -20 -26 -27 -24 -87 2 -44
-2 -77 -13 -102 -15 -34 -15 -40 0 -79 23 -56 14 -89 -40 -144 -24 -25 -44
-48 -44 -50 0 -3 9 -14 20 -25 22 -22 27 -88 10 -121 -6 -10 -28 -28 -49 -39
-82 -41 -165 22 -146 111 4 16 11 29 17 27 6 -2 23 8 38 22 26 23 27 27 14 52
-8 15 -14 34 -14 42 0 8 -16 33 -35 56 -20 24 -35 53 -35 67 0 22 -3 24 -22
18 -62 -20 -94 -17 -126 10 -36 30 -34 45 7 45 15 0 52 7 82 16 30 9 63 17 73
18 11 0 21 7 24 15 3 8 0 11 -6 7 -15 -9 -64 12 -60 26 3 7 15 15 29 18 24 6
24 6 -8 22 -35 18 -37 17 -46 -23 -10 -41 -52 -79 -87 -79 -35 0 -34 -3 -14
67 10 34 13 68 9 90 l-6 36 40 -6 c35 -4 41 -2 41 13 0 24 51 66 89 75 30 6
88 -15 103 -39 5 -6 8 -2 8 10 0 11 9 29 19 38 17 15 35 56 25 56 -2 0 -18 -9
-36 -20 -42 -26 -93 -26 -110 -1 -11 16 -22 18 -60 14 -45 -5 -46 -6 -37 -31
7 -18 6 -31 -6 -48 -15 -23 -16 -23 -58 -8 -23 9 -59 30 -80 46 l-37 29 -10
-27 c-6 -15 -24 -43 -41 -62 -31 -35 -33 -55 -8 -60 9 -2 25 19 42 53 29 59
40 66 57 36 27 -52 -14 -128 -65 -119 -27 6 -38 -11 -30 -45 6 -24 -20 -97
-39 -109 -8 -5 -8 -10 1 -19 10 -10 14 -9 19 4 8 21 34 22 60 2 10 -8 27 -15
36 -15 15 0 17 -7 12 -42 -6 -41 -5 -43 27 -55 30 -11 35 -11 56 9 21 20 24
20 47 4 40 -26 43 -74 10 -152 -16 -36 -37 -70 -48 -76 -18 -10 -18 -9 -2 13
20 29 20 40 2 33 -15 -6 -35 23 -30 44 1 7 0 8 -3 2 -2 -5 -9 -10 -15 -10 -6
0 -26 -11 -44 -25 -32 -24 -64 -33 -64 -17 0 4 -5 24 -9 46 -9 36 -7 40 27 73
l37 35 -34 -17 c-22 -11 -46 -15 -70 -11 -92 13 -86 15 -83 -31 5 -56 -11 -81
-65 -105 -34 -15 -43 -23 -38 -36 4 -9 9 -34 12 -54 4 -24 10 -35 18 -32 7 3
16 0 20 -6 9 -14 -21 -60 -39 -60 -8 0 -36 -9 -62 -20 -33 -14 -51 -17 -58
-10 -16 16 -31 12 -86 -25 -37 -25 -48 -37 -37 -41 9 -3 25 0 37 6 12 6 24 9
27 6 11 -11 -29 -59 -58 -69 -36 -14 -37 -25 -2 -29 59 -7 26 -58 -38 -58 -22
0 -55 7 -74 14 l-35 15 0 -29 c0 -46 -50 -88 -108 -92 l-47 -3 29 -13 c32 -14
29 -22 -19 -46 l-30 -16 44 0 45 0 -29 -29 c-42 -45 -133 -59 -172 -28 -23 18
-13 34 29 47 24 8 44 15 46 16 1 1 -14 18 -34 38 -37 37 -38 37 -53 18 -32
-39 -70 -50 -117 -32 l-27 11 53 36 c29 19 64 36 79 37 14 0 31 7 36 14 8 10
17 11 39 2 41 -15 45 -4 5 13 -25 10 -41 11 -61 3 -21 -8 -35 -6 -61 6 l-34
16 -12 -33 c-6 -19 -25 -45 -41 -59 -17 -14 -30 -29 -30 -35 0 -7 -8 -7 -25
-1 -14 5 -31 7 -38 4 -22 -8 -65 42 -60 70 4 20 0 24 -30 29 -85 14 -129 71
-112 147 6 25 2 37 -16 56 -26 28 -46 30 -70 8 -27 -24 -49 -11 -49 30 0 34 0
34 -44 31 -39 -2 -45 1 -62 29 -9 16 -19 25 -22 18 -2 -7 -10 -12 -17 -12 -7
0 -15 -7 -19 -15 -7 -20 -29 -19 -57 4 -22 18 -22 19 -6 45 22 33 66 45 79 22
9 -16 12 -15 46 5 74 44 85 48 104 38 10 -5 18 -19 18 -29 0 -21 24 -27 35
-10 3 5 19 10 34 10 25 0 28 3 23 28 -7 42 -21 53 -57 46 -60 -11 -137 38
-106 69 19 19 12 62 -14 87 l-25 23 0 -29 c0 -20 -3 -25 -9 -15 -7 11 -11 9
-21 -10 -25 -48 -40 -59 -64 -46 -11 7 -23 13 -25 14 -1 1 4 12 13 25 9 12 16
27 16 33 0 5 -4 4 -9 -3 -6 -11 -13 -11 -30 -3 -64 33 -61 32 -61 9 0 -12 -9
-32 -21 -44 -18 -19 -19 -26 -9 -45 11 -19 10 -21 -5 -15 -30 11 -43 -10 -38
-61 5 -45 5 -46 -22 -39 -29 7 -29 6 -14 -54 3 -12 -10 -15 -83 -15 -48 1 -84
-3 -82 -7 3 -4 0 -8 -6 -8 -6 0 -18 -7 -27 -15 -8 -9 -20 -14 -27 -12 -18 6
-19 54 -1 80 10 16 12 28 6 31 -5 4 -17 20 -25 37 -14 27 -13 31 1 36 28 11
68 -19 68 -51 0 -43 26 -54 63 -28 16 12 35 22 40 22 6 0 14 5 18 11 5 8 -1
10 -20 7 -22 -4 -26 -2 -26 16 0 12 11 37 25 56 14 19 25 35 25 35 0 2 -29 5
-51 6 -9 0 -27 11 -40 25 l-23 24 49 45 c41 39 45 45 25 45 -12 0 -35 14 -51
31 -24 25 -27 34 -18 51 6 11 19 18 32 17 12 -1 34 1 49 5 30 9 68 -8 68 -29
0 -8 5 -15 10 -15 6 0 10 -11 10 -25 0 -25 -14 -33 -25 -15 -4 6 -12 4 -22 -5
-17 -18 -18 -17 20 -33 36 -16 49 -8 41 26 l-6 27 20 -24 c16 -20 31 -25 72
-27 47 -2 52 0 61 23 5 14 8 27 7 28 -2 1 -13 7 -25 13 -17 9 -22 9 -27 -3 -3
-8 0 -15 6 -15 6 0 9 -3 6 -6 -10 -10 -48 20 -69 53 -17 28 -24 31 -40 23 -13
-8 -25 -7 -41 2 -32 19 -48 35 -41 42 4 3 1 6 -5 6 -6 0 -14 -4 -17 -10 -12
-20 -26 -10 -15 10 15 28 100 26 100 -2 0 -5 -5 -6 -10 -3 -5 3 -10 -1 -10 -9
0 -28 19 -26 36 4 23 38 42 45 66 24 20 -19 19 -20 36 18 6 15 22 30 35 33 14
4 30 20 38 38 9 20 22 33 37 35 27 4 29 19 2 27 -30 10 -55 -2 -71 -33 -8 -15
-24 -38 -36 -51 -12 -14 -19 -29 -16 -35 4 -6 -1 -5 -10 3 -25 20 -21 66 8 94
l26 23 -42 1 c-28 1 -48 8 -62 22 -29 29 -15 38 71 43 79 6 91 -4 54 -45 -16
-20 -16 -20 3 -13 11 5 28 11 37 13 14 4 18 16 18 57 0 29 5 57 12 64 9 9 9
12 -2 12 -8 0 -27 6 -42 14 -15 8 -36 12 -48 9 -15 -4 -20 0 -21 13 0 11 -3
14 -6 6 -2 -6 -9 -9 -15 -6 -16 10 -56 -17 -62 -42 -7 -26 -34 -32 -54 -12
-15 15 -28 2 -14 -14 5 -7 13 -30 17 -51 8 -44 -4 -63 -52 -84 -18 -7 -33 -20
-33 -28 0 -8 -4 -15 -10 -15 -5 0 -10 -7 -10 -15 0 -14 -4 -14 -36 0 -47 19
-51 19 -59 -5 -9 -28 -42 -45 -60 -30 -10 8 -12 18 -6 29 8 13 3 16 -27 16
-21 -1 -40 4 -44 10 -5 6 -8 4 -8 -6 0 -18 -78 -89 -97 -89 -7 0 -22 9 -32 19
-18 18 -19 18 -25 -19 -4 -26 -17 -47 -41 -69 -28 -25 -33 -33 -20 -37 30 -12
15 -39 -35 -63 -29 -14 -50 -31 -50 -40 0 -9 -16 -32 -35 -51 -19 -19 -35 -37
-35 -41 0 -3 -12 -19 -26 -35 -28 -29 -20 -43 15 -25 28 15 74 14 97 -4 10 -8
22 -15 27 -15 11 0 8 85 -3 96 -22 22 1 44 45 44 24 0 47 5 50 10 4 6 16 10
27 8 17 -2 21 3 24 32 5 44 47 88 92 96 18 4 45 17 58 31 18 18 33 23 57 21
39 -4 39 -28 0 -64 -23 -21 -24 -26 -13 -56 22 -60 -22 -118 -93 -121 -18 -1
-43 2 -57 6 -23 8 -24 7 -7 -7 10 -8 17 -23 15 -33 -2 -13 5 -21 27 -28 19 -6
37 -24 50 -48 l20 -37 -21 -40 c-19 -34 -20 -41 -7 -51 29 -24 35 -48 21 -87
-17 -51 -25 -60 -59 -67 l-29 -7 32 -22 c31 -21 33 -25 30 -77 -3 -45 -8 -59
-33 -82 -16 -15 -33 -27 -38 -27 -5 0 -6 28 -4 63 4 49 2 65 -10 76 -14 11
-15 9 -11 -21 5 -30 1 -38 -30 -66 -21 -18 -48 -32 -63 -32 -21 0 -23 -2 -13
-15 6 -8 13 -25 14 -39 3 -22 0 -24 -30 -21 -33 2 -74 -23 -74 -46 0 -6 -7 -9
-15 -5 -17 6 -21 -9 -5 -19 5 -3 10 -10 10 -14 0 -16 -42 -51 -68 -57 -15 -4
-46 -16 -69 -27 -35 -17 -45 -18 -58 -7 -8 7 -15 20 -15 29 0 13 -2 13 -9 2
-5 -7 -5 -29 0 -50 13 -57 11 -76 -16 -115 l-24 -36 24 0 c19 0 25 5 25 21 0
25 52 79 75 79 14 0 14 -4 -4 -26 -23 -29 -25 -42 -12 -62 11 -18 61 5 61 28
0 10 7 23 15 30 21 17 39 0 40 -38 0 -25 4 -27 43 -30 41 -3 59 12 27 24 -8 4
-15 12 -15 20 0 25 50 95 81 112 31 18 33 38 3 35 -10 -1 -13 0 -6 3 6 3 12
19 12 35 0 32 16 69 34 81 6 4 27 7 46 7 19 0 29 -3 22 -6 -6 -2 -9 -9 -6 -15
4 -5 16 0 30 12 20 19 31 22 83 18 60 -4 61 -4 61 22 0 31 33 66 72 75 15 4
41 21 58 38 l30 31 0 -33 c0 -26 -11 -43 -54 -87 -30 -30 -59 -54 -65 -54 -6
0 -8 -7 -5 -15 7 -17 -18 -45 -39 -45 -8 0 -20 -7 -27 -14 -6 -8 -30 -16 -52
-18 l-40 -3 21 -27 c12 -14 21 -29 21 -32 0 -11 -44 -6 -90 10 -30 10 -46 12
-48 5 -2 -6 -10 -11 -18 -11 -14 0 -22 -24 -23 -69 0 -14 -9 -37 -21 -52 -38
-53 -27 -56 101 -34 23 4 39 3 43 -4 5 -7 48 -11 117 -11 l109 0 0 28 c0 16 8
37 18 48 9 10 17 28 17 38 0 11 6 21 14 24 10 3 12 -1 9 -15 -4 -14 0 -19 16
-21 19 -1 46 -26 46 -43 0 -4 -9 -9 -19 -12 -10 -2 -24 -14 -30 -26 -11 -20
-10 -21 43 -21 45 0 54 3 50 15 -4 8 -12 15 -20 15 -19 0 -18 26 2 34 21 8 60
-17 69 -44 6 -18 15 -20 104 -20 l98 0 6 35 c7 41 29 67 51 59 16 -6 46 -58
46 -81 0 -7 5 -13 11 -13 6 0 9 8 6 17 -19 60 -19 61 5 76 46 30 64 29 97 -2
18 -17 30 -35 27 -40 -4 -5 -2 -12 3 -16 6 -3 8 -12 4 -20 -4 -12 5 -15 41
-15 27 0 46 5 46 11 0 6 9 9 19 6 15 -4 20 2 25 32 6 41 57 97 116 127 47 24
162 26 186 2 12 -12 13 -16 3 -16 -37 2 -60 -3 -54 -12 3 -5 -3 -10 -15 -10
-11 0 -23 -7 -26 -15 -4 -8 -12 -15 -20 -15 -8 0 -14 -9 -14 -19 0 -15 -6 -19
-27 -17 -21 2 -32 -4 -50 -31 -13 -19 -23 -36 -23 -38 0 -3 72 -5 160 -5 88 0
160 2 160 5 0 2 -9 19 -20 37 -11 18 -20 43 -20 56 0 13 -5 32 -10 43 -9 15
-7 19 6 19 9 0 27 9 41 20 15 12 41 20 62 20 20 0 47 7 59 16 15 10 32 13 52
9 l30 -7 -15 36 c-8 19 -15 49 -15 66 0 26 6 33 35 46 19 7 44 14 55 14 19 0
20 1 5 24 -22 34 -8 40 92 38 l83 -1 0 32 c1 18 8 43 16 57 l15 25 -4 -27 c-3
-23 -1 -26 22 -21 14 2 28 8 29 14 2 5 19 9 37 9 18 0 36 6 39 13 7 18 66 -52
66 -79 0 -16 5 -21 18 -18 9 2 40 -7 67 -20 l50 -25 5 37 c6 45 48 75 74 53
27 -22 14 -133 -14 -116 -7 4 -26 -50 -19 -57 1 -2 -3 -14 -10 -26 -15 -29
-67 -52 -118 -53 l-38 -1 28 -11 c15 -6 26 -16 23 -22 -2 -6 2 -19 10 -29 7
-11 11 -23 8 -28 -3 -5 3 -12 15 -15 16 -4 21 -13 21 -37 -1 -28 -2 -29 -14
-13 -12 16 -14 16 -20 1 -3 -9 -4 -20 0 -25 12 -21 -36 3 -68 34 -10 9 -25 17
-34 17 -13 0 -15 8 -12 34 3 31 1 35 -35 51 -21 9 -39 15 -41 14 -10 -14 -27
-69 -23 -76 3 -5 -1 -17 -9 -28 -13 -18 -14 -17 -14 16 0 19 -5 41 -10 49 -8
12 -10 9 -10 -11 0 -31 -19 -49 -54 -53 -15 -1 -33 -11 -42 -22 -12 -14 -14
-15 -11 -3 5 15 -27 39 -58 45 -5 1 -12 3 -15 4 -10 3 -45 11 -57 12 -7 1 -13
10 -13 20 0 10 -7 18 -16 18 -14 0 -14 -2 0 -22 27 -38 20 -80 -17 -109 -17
-14 -45 -29 -61 -33 -27 -7 -28 -6 -15 11 11 15 9 14 -10 -2 l-23 -20 246 -3
c235 -2 247 -1 266 18 26 26 65 26 92 0 19 -17 36 -20 116 -20 83 0 93 2 82
15 -7 9 -10 28 -6 47 6 35 -3 43 -71 62 -22 7 -52 36 -36 36 5 0 18 -7 31 -15
15 -12 27 -13 40 -6 14 7 130 9 175 2 4 0 7 -12 7 -25 0 -14 5 -28 10 -31 14
-9 -7 -45 -25 -45 -8 0 -15 -7 -15 -15 0 -8 -4 -15 -10 -15 -5 0 -10 6 -10 13
0 9 -2 9 -8 1 -4 -7 -18 -14 -32 -17 -14 -2 102 -5 257 -6 216 -1 283 2 287
12 5 9 7 9 12 0 4 -10 62 -13 240 -13 l234 0 0 25 c0 23 24 45 51 45 11 0 9
-16 -6 -53 -7 -16 6 -17 183 -17 l190 0 7 29 c9 42 98 161 121 161 12 0 0 -43
-31 -107 -19 -40 -35 -75 -35 -78 0 -3 149 -5 331 -5 l332 0 -7 33 c-6 33 0
29 29 -17 9 -15 33 -16 187 -14 l177 3 -16 33 c-15 30 -14 35 2 65 25 46 61
70 117 75 41 4 53 1 73 -18 24 -23 25 -23 45 -5 23 21 27 9 5 -16 -15 -15 -14
-17 11 -23 24 -6 26 -10 19 -44 -3 -20 -8 -45 -11 -54 -5 -16 5 -18 108 -18
l113 0 -1 60 c-1 51 1 60 15 58 11 -3 16 -13 15 -36 -1 -18 0 -32 2 -32 2 0
18 9 36 20 42 25 63 25 88 0 19 -19 70 -38 70 -26 0 14 -35 76 -42 76 -5 0 -6
-5 -3 -10 15 -24 -70 43 -91 72 -30 40 -30 52 -1 75 12 10 27 28 33 38 6 11
30 30 55 42 48 24 63 28 55 14 -3 -5 0 -11 7 -14 8 -3 13 10 14 42 3 64 -5 94
-22 87 -22 -8 -55 33 -55 70 0 35 31 81 48 70 6 -3 13 -20 17 -36 7 -32 26
-51 33 -32 8 25 35 42 66 42 58 0 85 20 88 65 3 37 5 40 35 43 28 3 36 -3 63
-39 16 -23 30 -48 30 -56 0 -7 -17 -21 -37 -31 -21 -9 -41 -21 -44 -26 -9 -11
-29 2 -29 18 0 8 -7 19 -15 26 -13 11 -13 8 -4 -18 6 -17 28 -42 49 -56 36
-24 60 -69 60 -113 0 -17 -37 -36 -45 -23 -3 5 -11 10 -16 10 -6 0 -3 -8 6
-17 16 -16 16 -18 -5 -35 -33 -27 -95 -41 -120 -28 -12 6 -32 10 -44 8 -23 -3
-23 -4 15 -46 l38 -44 36 22 c20 13 43 19 54 15 20 -6 51 17 51 39 0 16 79
174 91 182 5 3 7 8 5 12 -10 16 109 13 146 -4 21 -9 39 -15 41 -13 1 2 16 23
32 47 18 27 38 45 54 48 29 6 74 41 83 65 4 11 -2 15 -27 15 -37 0 -70 27 -61
51 5 12 15 14 49 9 23 -4 47 -13 53 -21 7 -9 14 -11 20 -5 5 5 32 21 59 35 28
14 43 24 34 21 -9 -2 -22 0 -30 5 -10 6 -7 9 13 9 15 0 30 5 33 10 3 6 13 10
22 10 12 0 13 -3 4 -14 -8 -10 -8 -16 1 -23 21 -17 58 -25 58 -14 0 6 7 11 15
11 22 0 18 33 -5 48 -25 15 -25 27 1 63 13 18 19 41 17 61 -3 29 -7 33 -40 39
-37 6 -68 24 -68 40 0 5 25 9 55 9 30 0 55 5 55 10 0 6 -13 10 -28 10 -16 0
-37 6 -47 14 -18 13 -18 15 -3 38 9 14 30 31 47 38 48 19 36 50 -20 50 -14 0
-19 -7 -19 -27 0 -34 -8 -46 -38 -62 -62 -33 -146 -4 -140 48 2 21 9 27 33 29
42 3 105 21 105 30 0 4 -4 13 -8 20 -7 10 -20 8 -61 -10 -48 -19 -56 -20 -79
-7 -39 22 -39 39 0 39 21 0 47 11 72 30 25 19 47 28 58 24 10 -3 18 -1 18 5 0
5 15 13 33 17 29 6 30 8 13 18 -11 6 -37 28 -59 49 -29 27 -48 37 -73 37 -41
0 -50 14 -30 44 22 35 61 41 107 17 24 -13 41 -16 44 -10 6 9 23 7 63 -8 8 -3
12 4 12 21 0 16 -6 26 -15 26 -8 0 -15 5 -15 10 0 6 7 13 15 16 8 4 15 13 15
21 0 11 -7 13 -28 8 -24 -5 -30 -2 -41 21 -10 22 -9 28 6 40 17 13 17 13 0 14
-10 0 -27 -15 -38 -35 -17 -29 -26 -35 -51 -33 -16 1 -34 8 -40 15 -15 19 -24
16 -53 -13 -22 -22 -33 -25 -62 -21 -41 7 -73 32 -73 58 0 18 56 59 81 59 7 0
23 -9 35 -21 23 -21 44 -19 44 5 0 16 43 46 65 46 10 0 15 10 15 33 0 19 9 44
19 56 16 19 26 22 53 16 18 -4 40 -13 49 -21 14 -12 16 -8 17 42 1 45 -1 55
-13 50 -8 -3 -25 -2 -37 3 -17 6 -26 2 -42 -16 -22 -25 -78 -33 -124 -18 -27
8 -51 47 -33 53 24 8 10 18 -19 14 -25 -4 -37 2 -65 33 -48 50 -47 83 3 117
24 16 24 16 3 23 -12 3 -21 13 -21 21 0 8 -4 14 -10 14 -6 0 -6 9 0 25 9 23 7
25 -22 25 -18 0 -36 7 -44 18 -12 15 -13 15 -12 -8 4 -62 -1 -78 -22 -73 -25
7 -25 6 -1 -43 11 -21 17 -43 13 -48 -3 -6 -7 -5 -10 2 -2 7 -10 12 -19 12
-12 0 -12 -3 2 -17 16 -15 15 -18 -7 -34 -12 -10 -24 -14 -26 -9 -2 6 -15 10
-28 10 l-25 0 25 -37 c14 -20 23 -40 20 -45 -3 -4 6 -8 20 -8 16 0 33 -11 49
-31 21 -27 25 -28 36 -15 8 9 20 16 27 16 8 0 14 6 14 13 0 7 3 8 8 2 12 -17
81 -45 112 -45 53 0 83 -76 42 -107 -24 -20 -29 -16 -36 26 -7 46 -25 63 -33
32 -4 -17 -9 -19 -24 -10 -17 9 -19 7 -15 -23 2 -19 -2 -42 -10 -52 -12 -18
-18 -18 -67 -7 -59 13 -97 35 -97 56 0 21 -17 27 -24 9 -4 -9 7 -27 28 -47 18
-18 36 -39 39 -48 4 -13 0 -14 -37 -5 -51 14 -96 43 -105 69 -7 18 -10 16 -30
-17 -27 -42 -53 -51 -115 -38 -37 8 -48 7 -58 -5 -7 -8 -36 -30 -65 -49 -56
-35 -60 -43 -41 -62 9 -9 8 -21 -1 -52 -10 -33 -16 -40 -37 -40 -14 0 -34 9
-46 20 -12 11 -29 20 -37 20 -12 0 -12 -2 2 -12 20 -15 31 -82 17 -106 -5 -9
-10 -12 -10 -5 0 8 -10 8 -37 0 -82 -23 -89 -62 -13 -69 39 -3 40 -2 40 26 l0
30 21 -21 c22 -22 35 -103 17 -103 -6 0 -7 -7 -4 -16 3 -8 2 -12 -4 -9 -6 3
-10 -4 -11 -17 -1 -17 -4 -13 -13 15 -11 35 -13 37 -26 23 -7 -10 -19 -15 -27
-12 -25 10 -13 -8 37 -54 28 -25 50 -52 50 -58 0 -20 -38 -13 -80 14 -45 30
-56 54 -40 85 10 17 9 23 -1 30 -8 5 -16 9 -19 9 -17 0 -40 63 -38 101 3 42 2
43 -29 45 -18 1 -39 9 -48 18 -18 18 -45 22 -45 6 0 -5 8 -10 18 -11 10 0 12
-3 5 -6 -7 -2 -13 -12 -13 -22 0 -9 -6 -25 -13 -35 -11 -15 -17 -16 -33 -6
-17 10 -27 9 -61 -8 -22 -12 -43 -18 -47 -15 -3 4 -6 22 -6 40 0 29 -3 33 -19
28 -11 -3 -39 -7 -62 -8 -41 -1 -52 6 -78 52 -5 7 -13 12 -19 10 -6 -2 14 -30
44 -62 65 -71 69 -93 17 -104 -21 -4 -47 -6 -58 -5 -17 3 -18 1 -5 -8 12 -9 7
-10 -20 -6 -34 6 -53 22 -46 41 2 6 10 9 20 7 13 -2 16 6 16 45 0 26 3 57 6
69 4 17 -8 28 -75 69 -103 62 -105 80 -12 105 57 15 73 2 47 -41 -18 -31 -18
-31 2 -20 11 6 32 11 46 11 16 0 26 6 26 14 0 17 43 46 69 46 22 0 34 -23 19
-38 -14 -14 29 -42 64 -42 30 0 58 -39 58 -82 1 -23 1 -22 15 3 16 29 37 41
59 33 8 -3 16 3 19 16 4 16 -2 26 -25 40 -99 60 -84 180 22 180 33 0 43 -4 47
-20 11 -40 28 -20 31 35 1 30 -2 55 -7 55 -5 0 -15 2 -23 5 -8 3 -18 -6 -24
-23 -9 -22 -23 -33 -63 -48 -29 -10 -57 -24 -62 -30 -10 -12 -3 -67 17 -134
l7 -25 -25 23 c-13 12 -31 22 -39 22 -23 0 -39 21 -39 53 0 36 16 67 35 67 20
0 19 7 -5 37 l-19 24 -9 -33 c-6 -26 -14 -34 -36 -36 -21 -3 -25 -6 -16 -17
17 -21 -20 -28 -66 -13 -31 10 -41 20 -50 48 -6 19 -16 36 -22 38 -11 3 -32
-50 -32 -83 0 -44 -47 -56 -114 -29 -16 6 -18 4 -12 -12 23 -55 22 -58 -19
-51 -20 3 -39 7 -40 9 -1 2 -5 24 -7 51 -5 41 -3 47 13 47 11 0 19 -4 19 -10
0 -5 3 -10 8 -10 4 0 5 22 4 50 -3 32 -9 50 -17 50 -7 0 -15 18 -19 42 -6 36
-3 45 18 66 20 21 28 23 52 15 16 -5 33 -19 39 -30 5 -12 21 -24 35 -27 33 -6
90 14 90 33 0 8 7 22 16 32 14 16 14 18 -4 23 -29 10 -49 53 -34 76 16 27 15
61 -4 88 -17 25 -34 29 -34 7 0 -8 -9 -15 -19 -15 -11 0 -26 -9 -34 -21 -15
-20 -15 -20 -36 8 -16 20 -21 38 -19 68 3 49 -17 57 -60 25 -17 -12 -51 -25
-76 -27 -26 -3 -46 -11 -46 -17 0 -16 -52 -66 -68 -66 -15 0 -15 -13 0 -28 17
-17 25 -15 31 7 3 11 31 33 68 51 l63 32 28 -31 c15 -17 34 -31 41 -31 8 0 42
-14 76 -31 l62 -31 -3 -62 c-3 -54 -5 -61 -22 -58 -26 5 -46 27 -46 51 0 23
-44 61 -72 61 -11 0 -32 -9 -47 -19 -43 -31 -79 -36 -101 -16 -19 18 -20 17
-20 -9 0 -23 3 -26 24 -20 18 4 28 -1 45 -24 12 -17 24 -44 27 -61 6 -28 3
-32 -31 -47 -20 -8 -44 -13 -51 -10 -19 7 -18 -3 3 -26 9 -10 17 -36 17 -60 1
-39 -1 -42 -31 -49 -18 -3 -44 -14 -57 -23 -35 -22 -41 -21 -76 15 -31 33 -38
66 -19 100 10 19 8 20 -25 14 -46 -9 -96 8 -131 45 -16 16 -27 32 -24 34 6 6
120 47 152 55 l29 6 -31 22 c-30 23 -30 23 -36 2 -8 -24 -61 -59 -92 -59 -12
0 -35 11 -51 25 -27 23 -30 29 -21 57 5 18 15 38 22 45 17 17 76 19 105 4 18
-10 22 -9 22 3 0 24 50 76 73 76 20 0 20 0 -3 25 -25 26 -42 26 -20 0 10 -12
9 -16 -4 -21 -9 -3 -23 -1 -31 6 -12 10 -17 6 -29 -22 l-16 -33 6 31 c7 41
-23 67 -79 68 -41 1 -42 0 -40 -31 2 -17 -1 -35 -7 -38 -5 -3 -6 -13 -3 -22 5
-13 2 -15 -11 -10 -10 4 -21 7 -25 7 -11 0 -41 57 -41 79 0 11 11 28 25 37 24
15 24 18 10 34 -16 18 -12 64 6 76 5 3 2 16 -7 29 -9 13 -16 45 -17 71 l-2 48
64 16 c43 11 70 24 79 38 16 24 13 26 -38 23 -16 -1 -36 9 -55 28 -44 47 -61
41 -69 -23z m-1040 -818 c42 -33 53 -50 54 -81 1 -114 -145 -147 -203 -45 -29
50 -22 80 25 116 49 38 84 40 124 10z m2897 -50 c22 -26 32 -67 20 -79 -5 -5
-22 -10 -38 -11 -17 -1 -35 -5 -41 -10 -13 -9 -28 6 -44 43 -8 20 -9 18 -5
-18 5 -49 -12 -64 -72 -66 -44 -1 -63 22 -63 79 0 33 5 46 22 58 26 18 84 21
93 5 5 -6 13 -2 22 11 13 18 22 21 52 15 20 -3 44 -15 54 -27z m318 -69 c35
-12 66 -23 68 -25 2 -2 -8 -8 -23 -14 -19 -7 -37 -6 -66 4 -30 10 -40 11 -40
2 0 -25 -46 -57 -74 -52 -14 4 -36 8 -49 11 -27 5 -53 50 -35 61 21 13 93 33
124 33 17 1 60 -8 95 -20z m70 -112 c37 -20 45 -29 47 -57 2 -18 -2 -43 -8
-55 -14 -27 -64 -48 -92 -40 -28 9 -68 44 -68 60 0 7 -9 10 -23 8 -14 -3 -29
3 -41 16 -19 21 -19 22 0 35 10 8 32 14 47 14 17 -1 37 8 50 20 27 27 34 27
88 -1z m-236 -37 c14 -45 -37 -81 -107 -72 -20 2 -45 -1 -55 -7 -14 -8 -10 -9
18 -5 23 4 47 0 67 -10 19 -10 33 -12 37 -6 23 37 42 -28 20 -70 -19 -36 -28
-39 -19 -6 7 28 -9 42 -25 22 -8 -9 -26 -12 -61 -8 l-50 5 0 -37 c0 -39 -34
-85 -65 -87 -8 -1 -19 -3 -25 -4 -5 -1 -16 -4 -22 -5 -7 -2 7 -6 32 -9 40 -5
45 -9 45 -31 0 -23 4 -25 55 -30 40 -4 55 -9 55 -20 0 -11 -16 -16 -65 -20
-59 -5 -67 -3 -85 18 -14 17 -29 23 -48 20 -26 -3 -25 -4 28 -48 53 -43 79
-78 53 -67 -52 19 -61 19 -55 2 5 -11 3 -15 -5 -12 -7 2 -26 -2 -42 -10 -15
-8 -37 -13 -47 -10 -16 4 -19 -1 -19 -31 0 -47 -19 -83 -50 -99 -14 -7 -18
-13 -10 -13 8 0 28 7 44 15 36 19 36 19 36 -3 0 -30 -33 -52 -99 -64 -54 -10
-64 -10 -78 5 -17 17 -13 21 52 42 18 6 17 8 -10 19 -66 29 -87 92 -48 144 17
22 28 27 59 26 22 -1 51 -5 65 -9 22 -6 27 -3 33 17 11 42 21 51 45 39 25 -14
26 -8 5 24 -9 13 -13 29 -10 34 4 5 2 12 -4 16 -15 9 -12 53 4 62 11 6 8 15
-16 43 -19 22 -32 30 -35 23 -3 -7 -9 -13 -13 -13 -17 0 -62 49 -58 65 3 14 8
13 42 -5 22 -11 41 -19 42 -17 1 1 5 14 9 29 6 22 3 29 -11 34 -11 4 -35 13
-54 22 l-35 14 39 14 c45 16 52 13 61 -27 6 -25 10 -29 28 -22 12 4 45 7 72 8
33 0 59 6 75 19 24 17 24 18 3 13 -14 -3 -28 2 -39 14 -32 36 9 68 46 34 14
-13 23 -10 80 20 76 39 106 43 115 15z m-2225 -85 c0 -18 7 -40 15 -49 8 -8
15 -24 15 -35 0 -12 5 -29 11 -39 8 -13 9 -37 3 -78 l-9 -59 -23 25 c-12 14
-25 36 -28 50 -2 14 -9 39 -15 57 -5 17 -12 54 -16 82 -5 41 -2 55 12 71 23
25 35 17 35 -25z m1515 36 c3 -6 7 -27 9 -48 2 -21 5 -42 6 -48 6 -25 -2 -35
-27 -35 l-27 0 34 -29 c26 -21 35 -37 35 -59 0 -19 -4 -28 -12 -25 -9 4 -12
-4 -9 -26 4 -37 2 -38 -40 -6 -39 30 -40 30 -47 5 -3 -11 -11 -18 -19 -16 -7
2 -26 7 -41 11 -26 5 -28 4 -21 -17 4 -13 9 -30 11 -38 3 -8 -4 -5 -15 8 -11
12 -25 22 -31 22 -14 0 -15 47 -1 55 5 3 7 18 4 33 -8 47 10 56 130 62 5 0 -3
11 -18 25 -37 34 -35 76 5 109 31 26 63 34 74 17z m-535 -209 c0 -21 -7 -47
-15 -58 -8 -10 -15 -27 -15 -37 0 -10 -6 -28 -14 -40 -8 -12 -14 -42 -13 -66
2 -55 -17 -65 -32 -18 -13 38 -13 170 0 203 12 32 38 54 65 54 21 0 24 -4 24
-38z m824 -54 c25 -34 46 -67 46 -74 0 -17 -45 -44 -76 -44 -14 0 -39 9 -55
21 -25 18 -29 27 -29 69 0 43 3 50 33 69 17 11 33 21 34 21 0 0 22 -28 47 -62z
m698 1 c9 -5 19 -22 23 -37 5 -23 14 -32 45 -41 45 -13 45 -33 -1 -56 -36 -19
-53 -19 -45 0 4 11 -4 9 -24 -7 -28 -20 -32 -21 -76 -7 -52 16 -80 47 -90 96
-6 28 -3 34 27 52 25 16 43 19 78 14 25 -3 54 -10 63 -14z m-842 -38 c13 -25
13 -67 0 -91 -8 -15 -17 -18 -44 -13 -18 3 -44 0 -56 -7 -20 -11 -31 -8 -82
16 -39 19 -60 35 -64 50 -7 29 2 44 28 44 23 0 98 -39 98 -52 0 -4 5 -8 10 -8
6 0 10 5 10 12 0 19 52 68 72 68 9 0 22 -9 28 -19z m-229 -137 c11 -14 10 -18
-6 -30 -10 -8 -23 -14 -28 -14 -5 0 7 -20 28 -46 l37 -45 -23 -45 c-21 -39
-28 -44 -58 -44 -22 0 -43 8 -58 22 l-23 21 0 -29 c0 -52 -19 -58 -57 -18 -30
32 -63 92 -63 115 0 15 44 10 68 -7 14 -10 22 -11 22 -4 0 12 39 49 52 50 4 0
18 4 32 10 25 9 25 10 10 45 -14 35 -14 37 13 64 l28 28 6 -28 c4 -16 12 -36
20 -45z m768 0 c12 -15 21 -33 21 -40 0 -20 -43 -83 -57 -84 -7 0 -13 -4 -13
-9 0 -12 -26 -22 -80 -31 -61 -11 -81 1 -79 48 1 20 -2 45 -6 55 -4 9 -3 17 3
17 5 0 12 -9 15 -20 3 -14 14 -20 31 -20 23 0 26 4 26 35 0 48 29 75 79 75 31
0 44 -6 60 -26z m-648 -154 c26 -56 36 -69 50 -65 10 4 21 -1 27 -10 9 -18 -1
-114 -15 -140 -8 -14 -12 -13 -28 12 -18 26 -20 49 -13 113 2 20 -2 26 -24 30
-45 9 -86 79 -66 114 17 31 37 16 69 -54z m737 38 c6 -6 12 -25 12 -44 0 -36
-28 -64 -66 -64 -16 0 -23 -8 -27 -30 -6 -29 -8 -29 -62 -28 -60 2 -78 14 -73
49 2 18 15 26 61 39 32 8 55 18 52 22 -8 7 8 40 31 63 16 16 46 13 72 -7z
m-3004 -16 c3 -5 -3 -31 -13 -58 -10 -27 -22 -69 -26 -94 -4 -25 -18 -64 -30
-86 -13 -23 -25 -55 -27 -70 -2 -18 -9 -29 -18 -29 -40 0 6 267 56 320 23 25
48 32 58 17z m-725 -28 c24 -30 25 -36 11 -85 -14 -51 -55 -89 -96 -89 -18 0
-34 5 -36 11 -5 14 80 189 91 189 5 0 19 -12 30 -26z m-2215 -3 c14 -15 16
-29 10 -67 -5 -37 -4 -45 6 -39 15 9 6 -9 -18 -38 -15 -17 -17 -16 -38 10
l-22 28 -29 -27 c-16 -16 -36 -28 -45 -28 -25 0 -48 11 -48 23 0 15 41 57 55
57 7 0 15 13 18 30 13 62 75 91 111 51z m2074 -14 c11 -23 11 -32 -4 -62 -10
-22 -23 -35 -35 -35 -10 0 -36 -16 -58 -35 -21 -19 -43 -35 -49 -35 -12 0 -22
34 -22 77 0 57 81 127 140 120 8 -1 21 -15 28 -30z m-1567 -204 c16 -16 29
-34 29 -40 0 -12 -40 -14 -50 -2 -6 7 -93 29 -98 24 -2 -2 4 -14 13 -28 13
-20 14 -29 4 -50 -12 -26 -60 -51 -91 -48 -21 3 -14 -24 8 -33 34 -13 1 -136
-40 -152 -17 -7 -116 89 -116 112 0 23 47 61 85 68 34 7 34 7 15 26 -26 26
-26 74 1 101 17 17 29 20 60 15 31 -5 43 -2 59 14 30 30 85 27 121 -7z m2120
-95 c-2 -7 -5 -38 -8 -68 -2 -30 -10 -60 -18 -65 -7 -6 -15 -19 -17 -29 -1
-10 -23 -39 -48 -64 -35 -36 -46 -42 -48 -29 -2 9 -8 17 -14 17 -5 0 -8 -7 -4
-15 3 -8 1 -16 -4 -16 -33 -4 -52 -7 -65 -8 -17 -1 -21 -31 -3 -31 6 0 9 -3 5
-6 -3 -3 -13 -1 -23 4 -10 5 -29 6 -45 2 -22 -6 -32 -4 -48 14 -30 32 -26 60
14 97 20 19 35 43 35 56 0 32 19 38 30 9 5 -14 16 -26 24 -26 8 0 17 -6 20
-12 5 -10 7 -10 12 0 3 6 15 12 27 12 18 0 26 12 45 74 31 97 75 138 117 111
11 -8 18 -19 16 -27z m-2461 2 c11 -11 20 -31 20 -43 0 -13 -9 -32 -20 -42
-11 -10 -20 -28 -20 -41 0 -39 -20 -71 -61 -93 -50 -29 -72 -21 -104 36 -25
46 -25 47 -9 90 20 52 42 66 89 57 34 -6 35 -5 35 25 0 26 4 31 25 31 14 0 34
-9 45 -20z m-220 -155 c0 -30 -38 -92 -62 -103 -5 -2 -8 -11 -8 -19 0 -10 -6
-14 -20 -10 -10 3 -25 -2 -31 -10 -16 -18 -75 -43 -104 -43 -30 0 -70 33 -63
52 5 11 28 17 79 21 47 4 75 11 78 19 2 7 22 31 44 53 22 22 46 50 54 62 20
30 33 20 33 -22z"/>
<path d="M2171 1983 c-1 -6 -14 -24 -30 -39 -16 -15 -27 -33 -24 -41 4 -11 12
-8 29 13 19 21 24 23 24 10 0 -24 -31 -76 -46 -76 -6 0 -19 -9 -28 -19 -10
-11 -31 -25 -47 -31 l-29 -13 30 -28 c40 -39 100 -42 100 -5 0 14 11 37 23 53
19 23 23 38 22 83 -2 47 -23 127 -24 93z"/>
<path d="M2930 1669 c-14 -6 -32 -8 -40 -6 -12 3 -15 -3 -12 -30 5 -37 -4 -41
-48 -18 l-29 15 9 -31 c12 -40 2 -58 -47 -92 -47 -32 -90 -34 -135 -7 -40 24
-48 25 -48 5 0 -9 -12 -28 -26 -42 -19 -19 -21 -24 -7 -18 40 16 54 16 96 0
42 -16 77 -56 77 -88 0 -8 -9 -26 -20 -39 l-19 -25 40 -6 c27 -3 46 -14 60
-31 28 -36 43 -33 24 4 -9 17 -13 39 -10 50 4 13 -1 22 -21 32 -31 15 -49 57
-40 93 10 41 63 93 98 97 26 2 36 11 52 45 21 42 50 55 72 33 7 -7 10 3 9 30
0 22 -2 40 -5 39 -3 0 -16 -5 -30 -10z"/>
<path d="M440 1637 c0 -18 -83 -87 -105 -87 -9 0 -14 -4 -11 -9 3 -5 26 -5 52
0 25 5 50 6 55 3 13 -8 11 -38 -3 -52 -10 -10 -6 -18 17 -38 17 -15 23 -23 13
-20 -12 3 -18 0 -18 -9 0 -8 -5 -15 -11 -15 -6 0 -4 -7 5 -15 18 -18 67 -20
61 -2 -7 17 11 41 24 33 6 -4 11 -20 11 -35 0 -32 30 -66 38 -43 7 23 54 72
68 72 9 0 14 11 14 34 0 37 -11 40 -63 18 -37 -16 -37 -16 -37 13 0 14 10 35
22 47 20 20 20 22 3 35 -11 7 -26 13 -35 13 -9 0 -35 16 -58 36 -27 23 -42 30
-42 21z"/>
<path d="M2285 1496 c-33 -33 -58 -46 -89 -46 -19 0 -26 -5 -26 -19 0 -16 5
-17 39 -11 44 8 93 -8 108 -34 8 -15 12 -15 39 -1 16 8 44 15 62 15 25 0 35 5
42 24 8 21 4 30 -25 59 -19 19 -35 31 -35 27 0 -4 -13 -22 -29 -39 -22 -24
-38 -31 -66 -31 -33 0 -35 1 -21 16 21 21 39 54 32 61 -2 3 -16 -7 -31 -21z"/>
<path d="M290 1442 c0 -5 -11 -15 -25 -22 -18 -10 -23 -19 -19 -34 4 -18 1
-22 -22 -21 -16 1 -30 7 -32 13 -5 15 -42 16 -42 2 0 -5 -7 -10 -16 -10 -8 0
-12 -4 -9 -10 3 -5 -1 -10 -9 -10 -11 0 -16 -10 -16 -31 0 -27 -2 -30 -15 -19
-20 17 -29 7 -16 -18 5 -10 7 -30 4 -43 l-6 -24 22 27 c11 14 21 31 21 37 0 6
9 15 20 21 31 17 73 -8 126 -75 26 -33 44 -53 41 -44 -7 20 31 59 56 59 20 0
23 30 5 51 -7 8 -12 12 -11 10 1 -2 -9 -17 -22 -33 -14 -16 -25 -34 -25 -39 0
-17 -15 -9 -26 15 -9 19 -7 27 13 50 13 15 28 24 33 21 12 -8 13 25 1 44 -5 7
-13 11 -19 7 -14 -8 -43 4 -36 15 3 5 22 16 42 25 35 15 36 16 18 30 -22 16
-36 18 -36 6z"/>
<path d="M2515 1288 c-6 -13 -29 -32 -51 -43 -36 -17 -40 -22 -27 -34 13 -12
11 -17 -13 -42 l-28 -29 25 0 c27 0 68 -36 70 -61 0 -8 7 1 15 19 13 29 13 35
-1 48 -22 22 -19 54 5 54 10 0 37 17 59 38 l40 38 -37 15 c-20 7 -39 15 -42
16 -3 2 -10 -7 -15 -19z"/>
<path d="M2285 1279 c-21 -17 -42 -23 -81 -24 -49 0 -55 -3 -65 -27 -6 -15
-17 -33 -25 -39 -44 -36 28 -40 81 -4 20 14 51 29 67 32 l29 6 -14 -34 c-16
-41 -69 -79 -110 -79 -22 0 -28 -4 -23 -16 3 -9 6 -20 6 -26 0 -7 5 -6 14 1 8
7 42 12 75 12 38 1 66 6 75 14 7 8 16 11 20 8 3 -4 6 -2 6 4 0 6 12 14 28 18
l27 7 -34 12 c-54 19 -71 62 -39 102 4 6 5 21 0 33 l-8 22 -29 -22z"/>
<path d="M2768 1165 c-30 -16 -36 -24 -32 -41 6 -25 -6 -53 -48 -106 -23 -29
-38 -38 -72 -43 -61 -10 -81 0 -105 48 l-20 42 -1 -31 c0 -19 -14 -53 -34 -83
-34 -50 -35 -60 -7 -42 20 13 41 2 41 -21 0 -30 -18 -57 -53 -78 -38 -24 -15
-27 37 -5 19 8 42 28 50 43 20 39 38 52 75 55 17 1 31 7 31 13 0 6 26 21 58
33 31 11 68 30 82 41 l25 20 -37 0 c-41 0 -45 5 -24 29 21 23 78 130 74 139
-2 4 -20 -1 -40 -13z"/>
<path d="M87 1164 c-3 -4 0 -18 7 -33 20 -42 6 -81 -44 -119 -59 -45 -60 -68
-4 -64 41 3 41 3 47 -35 4 -20 2 -42 -3 -47 -12 -12 -67 11 -80 33 -7 12 -9 2
-10 -36 0 -32 5 -53 13 -56 9 -4 9 -7 -1 -18 -6 -7 -12 -25 -12 -40 l0 -28 95
2 c96 2 111 10 64 35 -15 8 -41 10 -71 6 l-48 -6 0 40 c0 42 14 63 24 37 9
-24 36 -18 36 8 0 13 3 27 7 31 4 4 6 23 4 42 -2 25 5 47 22 72 29 43 45 88
28 78 -6 -4 -11 -3 -11 3 0 13 17 23 24 13 5 -9 76 -3 76 7 0 3 -4 12 -9 19
-7 11 -12 12 -29 1 -27 -17 -83 -1 -98 29 -14 29 -19 33 -27 26z"/>
<path d="M576 826 c-3 -13 -22 -38 -43 -56 -34 -30 -40 -32 -89 -27 -57 6 -72
0 -47 -18 14 -10 12 -14 -16 -34 -26 -19 -29 -26 -21 -42 9 -16 7 -19 -12 -20
l-23 0 23 -11 c32 -16 28 -25 -28 -56 -27 -15 -50 -30 -50 -33 0 -4 11 -10 25
-13 20 -5 25 -13 25 -36 0 -29 -14 -42 -22 -19 -2 5 -11 7 -22 3 -11 -4 -14
-9 -6 -14 13 -8 2 -40 -15 -40 -7 0 -29 -20 -51 -45 -36 -42 -64 -58 -64 -35
0 6 -4 10 -10 10 -5 0 -10 -9 -10 -20 0 -23 -23 -18 -57 13 -22 20 -23 20 -43
2 -14 -13 -20 -31 -20 -61 0 -42 0 -42 36 -42 19 0 38 -3 41 -6 4 -3 -3 -6
-15 -6 -24 0 -28 -10 -10 -28 8 -8 8 -15 -1 -25 -9 -12 -7 -13 13 -10 17 4 27
14 31 34 5 23 40 50 49 37 1 -1 8 -14 14 -28 7 -14 10 -17 8 -7 -3 9 -1 30 5
45 l11 27 10 -25 c6 -15 12 -20 15 -12 3 6 11 12 18 12 14 0 28 27 20 40 -8
13 77 50 113 50 24 0 32 4 32 18 0 27 20 42 56 42 17 0 37 7 44 15 8 10 9 15
2 15 -18 0 -52 42 -52 64 -1 16 -5 12 -15 -13 -8 -18 -12 -37 -9 -42 3 -5 -1
-7 -8 -4 -18 6 -44 -15 -52 -43 -6 -19 -10 -21 -22 -11 -24 19 -16 57 17 87
24 22 32 37 33 69 3 53 16 68 73 82 61 16 118 6 142 -25 24 -31 31 -30 31 4 0
20 -8 32 -31 46 -16 10 -35 29 -40 43 -9 25 -10 25 -29 8 -16 -14 -22 -15 -35
-5 -26 22 11 65 63 73 46 7 70 60 38 86 -11 9 -15 7 -20 -13z"/>
<path d="M2244 682 c11 -18 -17 -88 -47 -119 -35 -37 -32 -39 19 -18 29 12 36
12 40 1 7 -19 -20 -70 -51 -94 -32 -25 -31 -27 4 -30 33 -2 53 15 102 85 24
34 34 41 58 39 l30 -2 -20 27 c-22 31 -24 46 -7 51 8 3 8 12 -3 36 -13 29 -29
43 -29 24 0 -4 -9 -13 -19 -19 -16 -10 -24 -9 -44 7 -26 21 -42 26 -33 12z"/>
<path d="M2517 405 c-11 -16 -28 -25 -44 -25 -21 0 -24 -2 -13 -15 7 -8 19
-15 26 -15 8 0 14 -4 14 -9 0 -6 -9 -8 -20 -6 -22 4 -29 -20 -7 -28 15 -6 -42
-31 -63 -28 -8 2 -22 9 -30 16 -12 11 -18 11 -33 0 -22 -16 -13 -22 44 -31 24
-4 53 -12 64 -17 11 -6 26 -10 32 -9 7 2 21 -2 32 -7 14 -8 27 -7 48 4 15 8
34 15 41 15 6 0 12 9 12 20 0 13 -7 20 -19 20 -26 0 -34 15 -27 46 8 32 41 32
62 0 19 -31 41 -24 46 14 4 27 3 28 -29 23 -28 -5 -41 0 -73 26 -21 17 -40 31
-42 31 -2 0 -11 -12 -21 -25z"/>
<path d="M7238 212 c-41 -45 -46 -63 -24 -81 12 -10 11 -19 -7 -61 -20 -48
-21 -49 -75 -56 -47 -6 -57 -4 -69 12 -17 24 -17 44 2 49 51 16 51 16 13 34
-21 9 -49 28 -64 41 -22 20 -26 21 -21 7 18 -49 18 -68 3 -92 -21 -32 -21 -32
14 -40 16 -4 32 -11 35 -16 4 -5 54 -9 112 -9 96 0 105 2 98 18 -17 44 -16 80
5 124 12 27 20 60 18 79 l-3 32 -37 -41z"/>
<path d="M6724 189 c-31 -30 -94 -42 -116 -22 -17 15 -18 15 -18 -5 0 -12 -6
-25 -14 -29 -8 -4 -16 -25 -17 -46 -3 -32 1 -40 26 -57 39 -26 40 -25 55 10 7
17 19 30 27 30 11 0 12 8 7 35 -6 32 -4 35 17 35 17 1 29 10 40 35 9 19 16 35
15 35 -1 0 -11 -9 -22 -21z"/>
</g>
</svg>
